<svg width="70" height="70" viewBox="0 0 70 70" fill="none" xmlns="http://www.w3.org/2000/svg">
<g clip-path="url(#clip0_273_19653)">
<g filter="url(#filter0_f_273_19653)">
<path fill-rule="evenodd" clip-rule="evenodd" d="M27.9737 18.6327C28.1619 18.6013 28.3815 18.6641 28.5384 18.8523C29.8399 20.3734 31.1493 21.9023 32.4587 23.4312L32.4601 23.4329L32.4653 23.4389C33.7735 24.9665 35.0817 26.494 36.3821 28.0138C36.6959 28.3903 36.539 29.0178 36.037 29.206C34.6007 29.7689 33.1644 30.3198 31.7206 30.8735L31.7206 30.8735C30.8306 31.2148 29.9378 31.5573 29.0404 31.9042C28.9777 31.9356 28.9463 31.9356 28.8835 31.9356C28.507 31.9984 28.1933 31.716 28.1619 31.3081C27.8795 27.3549 27.5972 23.4017 27.2834 19.4484C27.3148 19.0092 27.6285 18.6955 27.9737 18.6327ZM24.6865 18.9548C25.0316 18.8921 25.4081 19.1431 25.4081 19.6137C25.472 21.6415 25.544 23.6693 25.6158 25.693L25.6159 25.6944C25.6852 27.6467 25.7544 29.5952 25.816 31.5361C25.816 31.944 25.5336 32.2891 25.1571 32.3519H25.0003C23.808 32.2264 22.6158 32.1087 21.4235 31.9911C20.2313 31.8734 19.039 31.7557 17.8468 31.6302C17.3448 31.5675 17.1252 31.0027 17.4075 30.5321C19.6665 26.7985 21.9255 23.0335 24.1531 19.2999C24.31 19.0803 24.4983 18.9548 24.6865 18.9548ZM51.283 27.9076C51.534 27.3115 51.1261 26.7467 50.5927 26.8095C50.53 26.8095 50.4672 26.8408 50.4986 26.8408C47.8901 27.8138 44.6669 29.0338 41.3701 30.2817L41.3701 30.2817L41.3699 30.2818C37.331 31.8106 33.1816 33.3812 29.9167 34.5904C29.2578 34.8414 29.1951 35.814 29.8226 36.065C34.5916 37.9162 38.7017 39.5163 43.8158 41.7125C43.9099 41.7753 44.0354 41.8066 44.1609 41.7753C44.3805 41.7439 44.6001 41.587 44.7256 41.336L45.1377 40.5049C46.9663 36.8176 49.6241 31.4582 51.283 27.9076ZM3.2182 31.25H3.02996C2.49658 31.3127 2.15146 32.003 2.43383 32.4736C4.50457 35.8307 7.86168 41.0076 9.96379 44.1764C10.0893 44.396 10.3403 44.4902 10.5913 44.4588C10.6854 44.4588 10.8109 44.396 10.905 44.3333C15.7995 40.9448 19.7527 38.3407 24.3648 35.3287C24.961 34.9522 24.8355 34.011 24.1766 33.9169C20.9266 33.5275 16.8 32.9921 12.7624 32.4682L12.7623 32.4682L12.7618 32.4682C9.31562 32.021 5.93428 31.5823 3.2182 31.25ZM27.0709 36.9688C27.4474 36.9061 27.8239 36.9688 28.1691 37.1571L35.5421 40.9534L41.4092 43.9654C42.1936 44.3733 41.9112 45.6597 41.0327 45.7852L27.6671 47.7304L14.27 49.6443C13.3915 49.7698 12.9836 48.5775 13.7053 47.9814L19.1331 43.3379L25.9728 37.4708C26.2866 37.1885 26.6944 37.0002 27.0709 36.9688Z" fill="#26255F" fill-opacity="0.3"/>
</g>
<g style="mix-blend-mode:lighten" filter="url(#filter1_f_273_19653)">
<path fill-rule="evenodd" clip-rule="evenodd" d="M66.2327 28.181C66.4837 27.5849 66.0758 27.0202 65.5424 27.0829C65.4797 27.0829 65.4169 27.1143 65.4483 27.1143C62.8398 28.0872 59.6166 29.3072 56.3198 30.5552C52.2808 32.084 48.1313 33.6546 44.8664 34.8639C44.2076 35.1149 44.1448 36.0875 44.7723 36.3385C49.5413 38.1896 53.6514 39.7897 58.7655 41.9859C58.8596 42.0487 58.9851 42.0801 59.1106 42.0487C59.3302 42.0173 59.5498 41.8604 59.6753 41.6094C59.8071 41.3437 59.9447 41.0661 60.0874 40.7784C61.916 37.0911 64.5738 31.7317 66.2327 28.181ZM18.1679 31.5234H17.9797C17.4463 31.5862 17.1012 32.2764 17.3835 32.7471C19.4543 36.1042 22.8114 41.281 24.9135 44.4499C25.039 44.6695 25.29 44.7636 25.541 44.7322C25.6351 44.7322 25.7606 44.6695 25.8547 44.6067C30.7492 41.2183 34.7024 38.6141 39.3145 35.6022C39.9107 35.2257 39.7852 34.2844 39.1263 34.1903C35.8763 33.801 31.7497 33.2655 27.712 32.7417C24.2657 32.2945 20.8841 31.8557 18.1679 31.5234Z" fill="url(#paint0_linear_273_19653)" fill-opacity="0.6"/>
</g>
<g style="mix-blend-mode:lighten" filter="url(#filter2_f_273_19653)">
<path d="M41.7963 17.7811C41.9845 17.7498 42.2041 17.8125 42.361 18.0008C44.9651 21.0441 47.6006 24.1189 50.2047 27.1622C50.5185 27.5387 50.3616 28.1662 49.8596 28.3545C47.5379 29.2643 45.2161 30.1428 42.863 31.0527C42.8003 31.0841 42.7689 31.0841 42.7061 31.0841C42.3296 31.1468 42.0159 30.8644 41.9845 30.4566C41.7021 26.5033 41.4198 22.5501 41.106 18.5969C41.1374 18.1576 41.4511 17.8439 41.7963 17.7811Z" fill="url(#paint1_linear_273_19653)" fill-opacity="0.6"/>
<path d="M38.5092 18.1033C38.8543 18.0405 39.2308 18.2915 39.2308 18.7621C39.3563 22.7467 39.5132 26.7313 39.6387 30.6846C39.6387 31.0924 39.3563 31.4376 38.9798 31.5003C38.9171 31.5003 38.8857 31.5003 38.8229 31.5003C36.4385 31.2493 34.054 31.0297 31.6695 30.7787C31.1675 30.7159 30.9479 30.1512 31.2302 29.6806C33.4892 25.947 35.7482 22.182 37.9758 18.4484C38.1327 18.2288 38.3209 18.1033 38.5092 18.1033Z" fill="url(#paint2_linear_273_19653)" fill-opacity="0.6"/>
</g>
<path fill-rule="evenodd" clip-rule="evenodd" d="M44.5616 18.9119L44.5256 18.8924C44.496 18.9251 44.4679 18.9829 44.4679 19.0126L44.464 19.0109C44.4034 19.1353 44.3731 19.2895 44.3731 19.4436C44.6555 23.3968 44.9379 27.3501 45.2516 31.3033C45.2516 31.5857 45.4085 31.7739 45.5968 31.868L43.1181 30.8013C42.8985 30.7072 42.7417 30.4875 42.7417 30.2366C42.4593 26.252 42.1769 22.2987 41.8945 18.3455C41.8945 18.1886 41.9259 18.0317 41.9887 17.9062L42.0126 17.9169C42.0345 17.8846 42.052 17.8437 42.052 17.8203L44.4579 18.8558L44.391 18.8196L42.0519 17.8129L42.1456 17.7192L42.1455 17.7191L42.2396 17.625L42.259 17.6333C42.3779 17.5 42.4925 17.5 42.5223 17.5L42.5386 17.5071C42.5437 17.5049 42.5489 17.5026 42.5541 17.5L42.6085 17.5234H42.6166L45.0952 18.5902H45.0141L45.0322 18.5981C44.9695 18.5981 44.593 18.8805 44.5616 18.9119ZM45.0956 18.5902L42.617 17.5234H42.6797H42.6798C42.7111 17.5235 42.7425 17.5313 42.7738 17.5391C42.8052 17.547 42.8366 17.5548 42.8679 17.5548L45.319 18.6097C45.2655 18.5902 45.2119 18.5902 45.1584 18.5902L45.1583 18.5902L45.0956 18.5902ZM45.3465 18.6216C45.3374 18.617 45.3282 18.613 45.319 18.6097L45.3465 18.6216Z" fill="url(#paint3_linear_273_19653)"/>
<path fill-rule="evenodd" clip-rule="evenodd" d="M31.9549 29.4514L34.4335 30.5182C34.4335 30.5182 34.4335 30.4868 34.4649 30.4868C36.6925 26.7532 38.9515 22.9882 41.2105 19.2546C41.2262 19.2389 41.234 19.2232 41.2418 19.2076C41.2497 19.1919 41.2575 19.1762 41.2732 19.1605L38.7946 18.0938C38.7789 18.1094 38.7711 18.1251 38.7632 18.1408C38.7554 18.1565 38.7475 18.1722 38.7319 18.1879C37.1194 20.8529 35.5229 23.518 33.9196 26.1945C33.2767 27.2676 32.6328 28.3425 31.9863 29.4201C31.9549 29.4201 31.9549 29.4514 31.9549 29.4514ZM32.2371 30.4571L34.7157 31.5239C34.3705 31.367 34.2137 30.9277 34.4333 30.5199L31.9547 29.4531C31.7351 29.861 31.8919 30.3002 32.2371 30.4571Z" fill="url(#paint4_linear_273_19653)"/>
<path fill-rule="evenodd" clip-rule="evenodd" d="M39.0773 17.8596L41.5559 18.9264C41.5873 18.9107 41.6187 18.9028 41.65 18.895C41.6598 18.8925 41.6696 18.8901 41.6794 18.8874L41.7137 18.9028C41.7445 18.8719 41.7754 18.8714 41.8362 18.8714L41.8392 18.8714H41.8704C41.9056 18.889 41.9408 18.8968 41.9816 18.9057C42.0135 18.9127 42.0487 18.9204 42.09 18.9342L39.6114 17.8674C39.5488 17.8362 39.4551 17.8049 39.3924 17.8047L39.3924 17.8047H39.3917H39.361L39.3952 17.8196L39.3605 17.8047H39.2837L39.2655 17.7969C39.2028 17.7969 39.14 17.8282 39.0773 17.8596L39.0773 17.8596ZM41.2733 19.1609L38.7947 18.0941L38.8889 18L41.3361 19.0667C41.3204 19.0824 41.3126 19.0981 41.3047 19.1138C41.2969 19.1295 41.289 19.1452 41.2733 19.1609ZM38.8582 17.9846L41.3368 19.0514C41.3663 19.0514 41.3957 19.0237 41.4252 18.9944L41.4306 18.9967C41.4545 18.9847 41.4739 18.9773 41.4905 18.971C41.5173 18.9607 41.5367 18.9533 41.5561 18.9339L39.0775 17.8672C39.0535 17.8792 39.0341 17.8866 39.0175 17.8929C38.9935 17.9021 38.9754 17.909 38.958 17.9243L38.9523 17.9219C38.921 17.9219 38.8896 17.9532 38.8582 17.9846L38.8582 17.9846Z" fill="url(#paint5_linear_273_19653)"/>
<path fill-rule="evenodd" clip-rule="evenodd" d="M45.5648 18.8289C45.4079 18.6406 45.1883 18.5779 45 18.6093C44.6549 18.672 44.3412 18.9858 44.3098 19.425C44.6235 23.3782 44.9059 27.3315 45.1883 31.2847C45.2197 31.6926 45.5334 31.9749 45.9099 31.9122C45.9727 31.9122 46.004 31.9122 46.0668 31.8808C46.9642 31.5338 47.857 31.1914 48.747 30.8501C50.1907 30.2963 51.627 29.7455 53.0634 29.1826C53.5654 28.9943 53.7222 28.3668 53.4085 27.9903C52.1064 26.4686 50.7964 24.939 49.4865 23.4094C48.1766 21.88 46.8668 20.3505 45.5648 18.8289ZM42.4345 19.5903C42.4345 19.1196 42.058 18.8686 41.7129 18.9314C41.5246 18.9314 41.3364 19.0569 41.1795 19.2765C38.9519 23.0101 36.6929 26.7751 34.4339 30.5087C34.1515 30.9793 34.3712 31.5441 34.8732 31.6068C36.0654 31.7323 37.2576 31.85 38.4499 31.9676C39.6421 32.0853 40.8344 32.2029 42.0266 32.3284H42.1835C42.56 32.2657 42.8424 31.9206 42.8424 31.5127C42.7807 29.5718 42.7116 27.6233 42.6423 25.6709C42.5704 23.6468 42.4984 21.6185 42.4345 19.5903Z" fill="url(#paint6_linear_273_19653)"/>
<path fill-rule="evenodd" clip-rule="evenodd" d="M63.5731 27.3785L63.5408 27.3586C63.5832 27.348 63.7257 27.2923 63.8995 27.2243C64.2401 27.0909 64.7009 26.9106 64.7633 26.9313L67.2419 27.9981C67.1771 27.9819 66.7699 28.1464 66.3738 28.3094L66.4271 28.3324C66.3958 28.3324 66.3722 28.3402 66.3487 28.3481C66.3252 28.3559 66.3016 28.3637 66.2703 28.3637C66.1626 28.4039 66.054 28.4444 65.9443 28.4854C65.8062 28.541 65.6928 28.5845 65.6286 28.6034C62.7656 29.6742 59.2622 31.0024 55.7571 32.3313C52.3012 33.6415 48.8438 34.9523 45.9971 36.0175C45.8235 36.3978 45.6577 37.0179 46.0053 37.1845L43.5535 36.1292C43.2507 35.9895 43.1208 35.6767 43.1511 35.3707L43.1468 35.3697C43.1468 34.9586 43.3623 34.8108 43.4377 34.7591L43.4377 34.7591C43.4462 34.7532 43.453 34.7486 43.4574 34.745L43.4607 34.7343C46.2066 33.7173 49.5243 32.5116 52.8718 31.2951C56.6632 29.9173 60.4928 28.5256 63.5731 27.3785ZM46.0053 37.1845C46.014 37.1886 46.0229 37.1924 46.0321 37.196L46.0053 37.1845Z" fill="url(#paint7_linear_273_19653)"/>
<path fill-rule="evenodd" clip-rule="evenodd" d="M41.8172 37.3282L44.2958 38.395C44.3899 38.3636 44.4841 38.3636 44.5782 38.3636H44.7033L42.2247 37.2969H42.0996H42.0679L42.0701 37.2978C42.0328 37.3002 41.9956 37.3064 41.9584 37.3126L41.9584 37.3126C41.9113 37.3204 41.8643 37.3282 41.8172 37.3282ZM44.7037 38.3636L42.2251 37.2969L42.2655 37.3036C42.4442 37.333 42.6463 37.3663 42.8212 37.4537L45.1742 38.4665C45.0265 38.4125 44.8746 38.388 44.7037 38.3636ZM45.2998 38.5205C45.2581 38.4996 45.2163 38.4818 45.1742 38.4665L45.2998 38.5205ZM40.7516 37.7812L40.7779 37.793C40.8324 37.7494 40.8942 37.7102 40.9397 37.6875L40.944 37.6894C41.0932 37.5814 41.2464 37.4862 41.3162 37.4688L41.3169 37.469C41.4736 37.4064 41.6616 37.3438 41.8183 37.3438L44.2969 38.4105C44.1087 38.4105 43.9518 38.4732 43.7949 38.536L43.7943 38.5357C43.7314 38.5674 43.6017 38.677 43.4719 38.7865L43.4719 38.7865L43.4719 38.7865L43.4719 38.7865C43.3418 38.8963 43.2117 39.0061 43.149 39.0375L43.0594 38.9983L36.3592 44.7151L33.9119 43.6483L40.7516 37.7812ZM28.4832 48.2919L30.9305 49.3587L36.3583 44.7152L33.9111 43.6484L28.4832 48.2919ZM31.0543 51.0243L28.5776 49.9584C28.1384 49.7701 27.9501 49.1426 28.2011 48.6406L30.6797 49.7074C30.4291 50.2086 30.6164 50.835 31.0543 51.0243ZM28.201 48.6334L30.6796 49.7002C30.711 49.6688 30.7423 49.6061 30.7737 49.5433L28.2951 48.4766C28.2794 48.5079 28.2637 48.5315 28.2481 48.555C28.2324 48.5785 28.2167 48.6021 28.201 48.6334ZM30.7743 49.536L28.2957 48.4692C28.3052 48.4597 28.3147 48.4474 28.3251 48.4339C28.349 48.4028 28.3775 48.3656 28.4212 48.3438L28.4261 48.3458L28.4516 48.3203L30.9302 49.3871C30.9302 49.4184 30.8988 49.4184 30.8988 49.4184L30.8962 49.4173C30.874 49.4572 30.8392 49.484 30.8097 49.5066C30.7962 49.517 30.7838 49.5265 30.7743 49.536Z" fill="url(#paint8_linear_273_19653)"/>
<g style="mix-blend-mode:lighten" filter="url(#filter3_f_273_19653)">
<path d="M44.297 38.3673C44.6735 38.3045 45.05 38.3673 45.3951 38.5555L52.7682 42.3519L58.6353 45.3639C59.4197 45.7717 59.1373 47.0581 58.2588 47.1836L44.8931 49.1288L31.4961 51.0427C30.6176 51.1682 30.2097 49.976 30.9313 49.3798L36.3592 44.7364L43.1989 38.8693C43.5126 38.5869 43.9205 38.3987 44.297 38.3673Z" fill="url(#paint9_linear_273_19653)" fill-opacity="0.6"/>
</g>
<path d="M44.297 38.3673C44.6735 38.3045 45.05 38.3673 45.3951 38.5555L52.7682 42.3519L58.6353 45.3639C59.4197 45.7717 59.1373 47.0581 58.2588 47.1836L44.8931 49.1288L31.4961 51.0427C30.6176 51.1682 30.2097 49.976 30.9313 49.3798L36.3592 44.7364L43.1989 38.8693C43.5126 38.5869 43.9205 38.3987 44.297 38.3673Z" fill="url(#paint10_linear_273_19653)"/>
<path fill-rule="evenodd" clip-rule="evenodd" d="M19.4581 32.4417L19.4602 32.4426C22.8899 32.86 27.3586 33.4348 31.6827 33.991C34.8349 34.3965 37.9101 34.792 40.4499 35.1095C40.4813 35.1252 40.5127 35.133 40.5441 35.1409C40.5657 35.1463 40.5873 35.1517 40.609 35.1597L40.6382 35.1723C40.6284 35.1674 40.6187 35.1633 40.609 35.1597L38.1596 34.1055C38.0968 34.0741 38.0341 34.0428 37.9713 34.0428C34.7876 33.6614 30.7451 33.1221 26.77 32.5918C23.2238 32.1187 19.7313 31.6527 16.9502 31.3125L16.9811 31.375H16.9509H16.95H16.8568L19.3354 32.4417H19.4286H19.4295H19.4581Z" fill="url(#paint11_linear_273_19653)"/>
<path fill-rule="evenodd" clip-rule="evenodd" d="M18.8323 32.7552L16.3537 31.6885C16.3584 31.6837 16.3646 31.6717 16.3734 31.6548C16.4223 31.5603 16.5507 31.3125 16.9497 31.3125L19.4597 32.4106C19.4284 32.4106 18.8636 32.6925 18.8323 32.7552ZM18.7379 32.8874L18.7383 32.8876C18.7696 32.8248 18.801 32.7934 18.8324 32.7621L16.3538 31.6953L16.3538 31.6953C16.327 31.7221 16.3002 31.7489 16.2734 31.7953L16.2594 31.7891C16.1339 32.0401 16.1025 32.3538 16.2594 32.6048C17.9875 35.4064 20.6115 39.4536 22.636 42.5762L22.6361 42.5763L22.6362 42.5764L22.6382 42.5795L22.6403 42.5828L22.643 42.5869C23.0418 43.202 23.4173 43.7811 23.7579 44.3076C23.8105 44.4127 23.9071 44.4738 23.9924 44.5278C24.0089 44.5382 24.025 44.5484 24.0403 44.5586L26.4062 45.5768C26.4404 45.5982 26.478 45.6151 26.5189 45.6254L26.4062 45.5768C26.3354 45.5326 26.2788 45.4692 26.2365 45.4057C25.7825 44.704 25.2651 43.9088 24.7125 43.0595L24.7124 43.0594C22.7447 40.035 20.3302 36.3239 18.738 33.7029C18.5811 33.4206 18.6124 33.1383 18.7379 32.8874Z" fill="url(#paint12_linear_273_19653)"/>
<path fill-rule="evenodd" clip-rule="evenodd" d="M67.5891 29.0951C67.8401 28.499 67.4322 27.9342 66.8989 27.997C66.8361 27.997 66.7734 28.0283 66.8047 28.0283C64.1962 29.0013 60.973 30.2213 57.6762 31.4692C53.6372 32.9981 49.4878 34.5687 46.2229 35.7779C45.564 36.0289 45.5012 37.0015 46.1287 37.2525C50.8977 39.1037 55.0078 40.7038 60.1219 42.9C60.216 42.9628 60.3415 42.9941 60.467 42.9628C60.6867 42.9314 60.9063 42.7745 61.0318 42.5235C61.1635 42.2578 61.3012 41.9802 61.4439 41.6924C63.2724 38.0051 65.9302 32.6457 67.5891 29.0951ZM19.5244 32.4375H19.3361C18.8027 32.5002 18.4576 33.1905 18.74 33.6611C20.8107 37.0182 24.1678 42.1951 26.2699 45.3639C26.3954 45.5835 26.6464 45.6777 26.8974 45.6463C26.9916 45.6463 27.1171 45.5835 27.2112 45.5208C32.1057 42.1323 36.0589 39.5282 40.671 36.5162C41.2671 36.1397 41.1416 35.1985 40.4827 35.1044C37.2328 34.715 33.1061 34.1796 29.0685 33.6557C25.6221 33.2086 22.2406 32.7698 19.5244 32.4375Z" fill="url(#paint13_linear_273_19653)"/>
</g>
<defs>
<filter id="filter0_f_273_19653" x="-0.488083" y="15.8041" width="54.6679" height="36.6703" filterUnits="userSpaceOnUse" color-interpolation-filters="sRGB">
<feFlood flood-opacity="0" result="BackgroundImageFix"/>
<feBlend mode="normal" in="SourceGraphic" in2="BackgroundImageFix" result="shape"/>
<feGaussianBlur stdDeviation="1.41045" result="effect1_foregroundBlur_273_19653"/>
</filter>
<filter id="filter1_f_273_19653" x="12.7691" y="22.5647" width="58.053" height="26.6869" filterUnits="userSpaceOnUse" color-interpolation-filters="sRGB">
<feFlood flood-opacity="0" result="BackgroundImageFix"/>
<feBlend mode="normal" in="SourceGraphic" in2="BackgroundImageFix" result="shape"/>
<feGaussianBlur stdDeviation="2.25673" result="effect1_foregroundBlur_273_19653"/>
</filter>
<filter id="filter2_f_273_19653" x="26.5923" y="13.26" width="28.2878" height="22.7537" filterUnits="userSpaceOnUse" color-interpolation-filters="sRGB">
<feFlood flood-opacity="0" result="BackgroundImageFix"/>
<feBlend mode="normal" in="SourceGraphic" in2="BackgroundImageFix" result="shape"/>
<feGaussianBlur stdDeviation="2.25673" result="effect1_foregroundBlur_273_19653"/>
</filter>
<filter id="filter3_f_273_19653" x="26.0469" y="33.8303" width="37.5612" height="21.735" filterUnits="userSpaceOnUse" color-interpolation-filters="sRGB">
<feFlood flood-opacity="0" result="BackgroundImageFix"/>
<feBlend mode="normal" in="SourceGraphic" in2="BackgroundImageFix" result="shape"/>
<feGaussianBlur stdDeviation="2.25673" result="effect1_foregroundBlur_273_19653"/>
</filter>
<linearGradient id="paint0_linear_273_19653" x1="61.2047" y1="27.6736" x2="58.7822" y2="48.9869" gradientUnits="userSpaceOnUse">
<stop stop-color="#FF5710"/>
<stop offset="1" stop-color="#FF0037"/>
</linearGradient>
<linearGradient id="paint1_linear_273_19653" x1="50.1497" y1="18.6299" x2="38.3154" y2="23.1387" gradientUnits="userSpaceOnUse">
<stop stop-color="#FFA361"/>
<stop offset="1" stop-color="#FD2222"/>
</linearGradient>
<linearGradient id="paint2_linear_273_19653" x1="39.4389" y1="18.9558" x2="28.3058" y2="22.8387" gradientUnits="userSpaceOnUse">
<stop stop-color="#FFA361"/>
<stop offset="1" stop-color="#FD2222"/>
</linearGradient>
<linearGradient id="paint3_linear_273_19653" x1="45.1889" y1="16.8726" x2="43.746" y2="31.8681" gradientUnits="userSpaceOnUse">
<stop offset="0.0447356" stop-color="#FDECD1"/>
<stop offset="0.247559" stop-color="#E5A520"/>
<stop offset="1" stop-color="#E7A921"/>
</linearGradient>
<linearGradient id="paint4_linear_273_19653" x1="36.5633" y1="18.0938" x2="31.0686" y2="30.0485" gradientUnits="userSpaceOnUse">
<stop stop-color="#F6D8A0"/>
<stop offset="1" stop-color="#E7A821"/>
</linearGradient>
<linearGradient id="paint5_linear_273_19653" x1="40.9529" y1="18.2725" x2="40.4344" y2="19.1562" gradientUnits="userSpaceOnUse">
<stop stop-color="#F9E2B9"/>
<stop offset="1" stop-color="#F5D598"/>
</linearGradient>
<linearGradient id="paint6_linear_273_19653" x1="49.1073" y1="23.0506" x2="41.5201" y2="30.7601" gradientUnits="userSpaceOnUse">
<stop stop-color="#F8D58C"/>
<stop offset="1" stop-color="#FCC22C"/>
</linearGradient>
<linearGradient id="paint7_linear_273_19653" x1="55.54" y1="20.9898" x2="44.3005" y2="37.5966" gradientUnits="userSpaceOnUse">
<stop stop-color="#EA4D4B"/>
<stop offset="0.883927" stop-color="#F9AA99"/>
<stop offset="1" stop-color="#B33638"/>
</linearGradient>
<linearGradient id="paint8_linear_273_19653" x1="46.1286" y1="34.6267" x2="28.0692" y2="50.1538" gradientUnits="userSpaceOnUse">
<stop stop-color="#37AFE0"/>
<stop offset="1" stop-color="#1899CB"/>
</linearGradient>
<linearGradient id="paint9_linear_273_19653" x1="57.7373" y1="38.67" x2="46.6915" y2="58.6597" gradientUnits="userSpaceOnUse">
<stop stop-color="#0073FF"/>
<stop offset="1" stop-color="#BB6DF5"/>
</linearGradient>
<linearGradient id="paint10_linear_273_19653" x1="44.8275" y1="38.3438" x2="44.8275" y2="51.0519" gradientUnits="userSpaceOnUse">
<stop stop-color="#9CD6FB"/>
<stop offset="1" stop-color="#2BAADC"/>
</linearGradient>
<linearGradient id="paint11_linear_273_19653" x1="12.4016" y1="31.7262" x2="40.6505" y2="34.9677" gradientUnits="userSpaceOnUse">
<stop stop-color="#EA504E"/>
<stop offset="1" stop-color="#F9A998"/>
</linearGradient>
<linearGradient id="paint12_linear_273_19653" x1="16.6359" y1="32.5388" x2="25.1384" y2="45.7305" gradientUnits="userSpaceOnUse">
<stop stop-color="#ED625D"/>
<stop offset="1" stop-color="#B23638"/>
</linearGradient>
<linearGradient id="paint13_linear_273_19653" x1="64.4842" y1="24.5632" x2="24.0118" y2="43.7024" gradientUnits="userSpaceOnUse">
<stop stop-color="#E0866A"/>
<stop offset="1" stop-color="#DC592D"/>
</linearGradient>
<clipPath id="clip0_273_19653">
<rect width="70" height="70" fill="white"/>
</clipPath>
</defs>
</svg>
