<svg width="58" height="71" viewBox="0 0 58 71" fill="none" xmlns="http://www.w3.org/2000/svg">
<g clip-path="url(#clip0_273_19773)">
<g clip-path="url(#clip1_273_19773)">
<g filter="url(#filter0_f_273_19773)">
<path d="M24.2912 22.9907C26.5594 21.4578 27.0605 22.1276 27.9962 23.5121L47.8243 50.7847C48.7599 52.1692 48.0936 53.6279 45.9672 55.065L38.879 59.8552C36.6108 61.3881 35.1507 61.3664 34.215 59.9819L16.2946 31.42C15.359 30.0355 15.0766 29.2179 17.2031 27.7809L24.2912 22.9907Z" fill="#18174A" fill-opacity="0.3"/>
</g>
<path fill-rule="evenodd" clip-rule="evenodd" d="M49.2921 41.2891C50.0802 42.4552 49.3521 43.7966 47.2482 45.2184L47.2605 45.2366C47.2045 45.2675 47.1471 45.2981 47.0881 45.3282L47.1543 45.4262L47.128 45.444L47.1255 45.4402L40.1218 50.1734L40.1124 50.1595C38.0085 51.5814 36.5371 51.8228 35.8385 50.7891L35.9408 50.9405C35.9051 50.898 35.8709 50.8527 35.8385 50.8047L40.4376 57.6101C40.4714 57.6601 40.5066 57.7073 40.5433 57.7517L40.9606 58.3691C41.6579 59.4009 42.9853 59.2567 45.2219 57.7481L45.235 57.7675L52.2411 53.0327L52.2475 53.0422L52.2476 53.0422C52.8086 52.6631 53.3696 52.2839 53.7263 51.9047L53.7197 51.8949C53.7665 51.8512 53.8118 51.8076 53.8555 51.7643L53.8685 51.7836C53.9534 51.6782 54.0264 51.5993 54.0887 51.5319C54.177 51.4364 54.2439 51.364 54.2932 51.2724C54.4245 51.1009 54.5304 50.9327 54.6115 50.7673L54.6189 50.7833L54.7009 50.6024L54.6905 50.5869C54.7434 50.4497 54.7789 50.3144 54.7974 50.1808C54.8007 50.1727 54.8042 50.1645 54.808 50.1561L54.8018 50.1468C54.8494 49.7401 54.7389 49.3488 54.4803 48.9661L49.2921 41.2891ZM44.7206 56.9791L44.7237 56.9837L51.7172 52.2574L51.714 52.2528L44.7206 56.9791Z" fill="url(#paint0_linear_273_19773)"/>
<g style="mix-blend-mode:lighten" filter="url(#filter1_f_273_19773)">
<path d="M25.5607 13.2954C27.829 11.7625 28.3301 12.4322 29.2657 13.8167L49.0938 41.0894C50.0295 42.4739 49.3632 43.9326 47.2367 45.3697L40.1486 50.1599C37.8804 51.6928 36.4202 51.6711 35.4845 50.2866L17.5641 21.7247C16.6285 20.3402 16.3461 19.5226 18.4726 18.0856L25.5607 13.2954Z" fill="url(#paint1_linear_273_19773)" fill-opacity="0.6"/>
</g>
<path d="M25.5607 13.2954C27.829 11.7625 28.3301 12.4322 29.2657 13.8167L49.0938 41.0894C50.0295 42.4739 49.3632 43.9326 47.2367 45.3697L40.1486 50.1599C37.8804 51.6928 36.4202 51.6711 35.4845 50.2866L17.5641 21.7247C16.6285 20.3402 16.3461 19.5226 18.4726 18.0856L25.5607 13.2954Z" fill="url(#paint2_linear_273_19773)"/>
</g>
</g>
<defs>
<filter id="filter0_f_273_19773" x="12.612" y="19.137" width="38.602" height="44.8523" filterUnits="userSpaceOnUse" color-interpolation-filters="sRGB">
<feFlood flood-opacity="0" result="BackgroundImageFix"/>
<feBlend mode="normal" in="SourceGraphic" in2="BackgroundImageFix" result="shape"/>
<feGaussianBlur stdDeviation="1.48816" result="effect1_foregroundBlur_273_19773"/>
</filter>
<filter id="filter1_f_273_19773" x="9.77138" y="5.3315" width="46.8223" height="53.0726" filterUnits="userSpaceOnUse" color-interpolation-filters="sRGB">
<feFlood flood-opacity="0" result="BackgroundImageFix"/>
<feBlend mode="normal" in="SourceGraphic" in2="BackgroundImageFix" result="shape"/>
<feGaussianBlur stdDeviation="3.54323" result="effect1_foregroundBlur_273_19773"/>
</filter>
<linearGradient id="paint0_linear_273_19773" x1="41.0302" y1="60.6229" x2="57.1345" y2="49.7396" gradientUnits="userSpaceOnUse">
<stop stop-color="#CA3038"/>
<stop offset="0.809203" stop-color="#FCB6A5"/>
<stop offset="0.9875" stop-color="#F86157"/>
</linearGradient>
<linearGradient id="paint1_linear_273_19773" x1="28.8461" y1="8.23415" x2="37.5831" y2="56.5448" gradientUnits="userSpaceOnUse">
<stop stop-color="#FF0075"/>
<stop offset="1" stop-color="#DC592D"/>
</linearGradient>
<linearGradient id="paint2_linear_273_19773" x1="30.5981" y1="1.36813" x2="33.6076" y2="55.917" gradientUnits="userSpaceOnUse">
<stop offset="0.0291665" stop-color="#FBB2A1"/>
<stop offset="0.636094" stop-color="#DC592D"/>
<stop offset="0.977083" stop-color="#BD4145"/>
</linearGradient>
<clipPath id="clip0_273_19773">
<rect width="57.1597" height="70.9785" fill="white"/>
</clipPath>
<clipPath id="clip1_273_19773">
<rect width="53.2334" height="53.2334" fill="white" transform="translate(8.87219 8.875)"/>
</clipPath>
</defs>
</svg>
