<svg width="52" height="57" viewBox="0 0 52 57" fill="none" xmlns="http://www.w3.org/2000/svg">
<g clip-path="url(#clip0_273_20081)">
<g filter="url(#filter0_f_273_20081)">
<path d="M28.247 25.8014C30.4213 26.2378 30.2774 27.156 30.0549 28.2646L28.8643 38.9261L46.123 42.3901C48.2973 42.8265 49.1272 43.6221 49.0406 44.758L48.454 47.6808C48.2113 48.8902 47.023 49.176 44.8284 48.8404C39.1208 47.6948 33.4132 46.5492 27.5697 45.3764C23.221 44.5036 18.8724 43.6308 14.5237 42.758C11.534 42.158 8.5443 41.5579 5.5546 40.9579C3.38027 40.5215 2.55037 39.7258 2.79312 38.5164L3.37974 35.5936C3.62248 34.3842 4.67488 34.0712 6.84921 34.5076L15.8183 36.3077L18.7174 25.9891C18.9601 24.7796 19.4138 24.0285 21.4522 24.4376L28.247 25.8014Z" fill="#0D0C38" fill-opacity="0.3"/>
</g>
<path d="M49.7023 33.9331L49.5534 34.6752C49.3848 34.8129 49.1997 35.0331 49.0477 35.0884L49.1966 34.3463C49.3486 34.291 49.5172 34.1533 49.7023 33.9331Z" fill="#919191"/>
<path d="M49.1969 34.3628L49.048 35.1049C48.896 35.1602 48.744 35.2154 48.6085 35.1882L48.7409 34.5286C48.8929 34.4733 49.0449 34.4181 49.1969 34.3628Z" fill="#8C8C8C"/>
<path d="M48.7403 34.5266L48.5914 35.2687C48.4394 35.3239 48.1519 35.352 47.8809 35.2976L48.0299 34.5555C48.1819 34.5003 48.4529 34.5546 48.7403 34.5266Z" fill="#888888"/>
<path d="M48.0304 34.5528L47.8815 35.2949C47.4585 35.2958 46.9001 35.2695 46.2227 35.1336L46.3717 34.3915C46.9301 34.4178 47.472 34.5265 48.0304 34.5528Z" fill="#848484"/>
<path d="M46.3707 34.4284L46.2217 35.1705C40.5319 34.0285 34.8421 32.8865 29.0168 31.7174C24.6817 30.8473 20.3466 29.9772 16.0115 29.1071C13.0311 28.5089 10.0508 27.9108 7.07038 27.3126C4.90284 26.8775 4.05384 26.1925 4.25242 25.203L4.40137 24.4609C4.20278 25.4504 5.18725 26.1626 7.21933 26.5705C10.1997 27.1687 13.1801 27.7669 16.1605 28.365C20.4956 29.2351 24.8306 30.1052 29.1657 30.9753C34.8556 32.1173 40.5454 33.2592 46.3707 34.4284Z" fill="#848484"/>
<path fill-rule="evenodd" clip-rule="evenodd" d="M24.6179 29.8707L7.42242 26.4195L7.3878 26.592L7.24183 26.5627C5.20976 26.1548 4.22528 25.4426 4.42387 24.4531L3.11649 30.967C3.11625 30.9682 3.11601 30.9694 3.11577 30.9706C3.11973 30.9391 3.12493 30.9072 3.13139 30.875L2.98245 31.6171C2.78386 32.6065 3.63286 33.2916 5.80041 33.7266L14.7416 35.5212L27.7468 38.1314L44.9517 41.5845L44.9519 41.5838L45.0799 41.6094C45.1309 41.6197 45.1813 41.6295 45.231 41.6388L45.2242 41.6561L45.3596 41.6833L45.3637 41.6629L45.3724 41.6645L45.3633 41.6874L45.4965 41.7141L45.4947 41.7186L45.6301 41.7458L45.6379 41.7074C45.6823 41.7139 45.7261 41.7201 45.7694 41.7258L45.7661 41.7421L45.9016 41.7693L45.9069 41.7429C45.9969 41.7534 46.0844 41.762 46.1695 41.7687L46.1909 41.773L46.3264 41.8002L46.4618 41.8274L46.4669 41.802L46.575 41.8237L46.5748 41.8245L46.7102 41.8517C46.7102 41.8517 46.8623 41.7965 46.9978 41.8236L47.0087 41.7692L47.0282 41.7672L47.0167 41.8245C47.0332 41.7421 47.1687 41.7693 47.1687 41.7693L47.1728 41.7488L47.1753 41.7484L47.1717 41.7665L47.169 41.7733L47.1703 41.7736L47.1686 41.782C47.1692 41.7791 47.1699 41.7763 47.1708 41.7737L47.3045 41.8005L47.3193 41.7265L47.3206 41.7267L47.3218 41.7219C47.381 41.7095 47.438 41.6953 47.4927 41.6794L47.4586 41.7698L47.6106 41.7146L47.6265 41.6353C47.6713 41.6187 47.7143 41.6008 47.7557 41.5816L47.745 41.6352C47.8969 41.58 48.0654 41.4423 48.234 41.3047L48.2341 41.3045L48.2507 41.2221L48.2571 41.19C48.3904 41.0176 48.4803 40.8084 48.5295 40.5629L49.8648 33.91L49.8754 33.92L49.9085 33.7551C49.9053 33.7709 49.8978 33.7827 49.8885 33.7922L50.002 33.2265C49.7783 34.3409 48.5833 34.6807 46.5524 34.2731L37.6161 32.4795L24.6179 29.8707ZM45.5014 41.7018L45.5044 41.6867L45.5072 41.6871L45.5014 41.7018Z" fill="url(#paint0_linear_273_20081)"/>
<g style="mix-blend-mode:lighten" filter="url(#filter1_f_273_20081)">
<path d="M30.0141 11.1451C32.1884 11.5815 32.0445 12.4997 31.822 13.6083L30.6314 24.2699L47.8901 27.7338C50.0644 28.1702 50.8943 28.9659 50.8077 30.1018L50.2211 33.0246C49.9784 34.234 48.7901 34.5197 46.5955 34.1841C40.8879 33.0386 35.1803 31.893 29.3368 30.7202C24.9881 29.8474 20.6395 28.9746 16.2908 28.1018C13.3011 27.5017 10.3114 26.9017 7.32168 26.3016C5.14736 25.8652 4.31746 25.0696 4.5602 23.8601L5.14683 20.9373C5.38957 19.7279 6.44197 19.4149 8.6163 19.8513L17.5854 21.6515L20.4845 11.3328C20.7272 10.1234 21.1809 9.37225 23.2193 9.78137L30.0141 11.1451Z" fill="url(#paint1_linear_273_20081)" fill-opacity="0.6"/>
</g>
<path d="M29.7612 11.4029C31.9355 11.8393 32.2065 12.7124 31.984 13.8211L30.3784 24.5277L47.6372 27.9916C49.8115 28.428 50.6414 29.2237 50.5548 30.3596L49.9682 33.2824C49.7254 34.4918 48.5371 34.7775 46.3426 34.4419C40.635 33.2964 34.9273 32.1508 29.0838 30.978C24.7352 30.1052 20.3865 29.2324 16.0379 28.3596C13.0482 27.7595 10.0585 27.1595 7.06876 26.5594C4.89443 26.123 4.06453 25.3274 4.30728 24.1179L4.8939 21.1952C5.13664 19.9857 6.18904 19.6727 8.36337 20.1091L17.3325 21.9093L20.082 11.2802C20.3248 10.0708 20.928 9.63006 22.9664 10.0392L29.7612 11.4029Z" fill="url(#paint2_linear_273_20081)"/>
</g>
<defs>
<filter id="filter0_f_273_20081" x="0.360818" y="21.9337" width="51.0774" height="29.4286" filterUnits="userSpaceOnUse" color-interpolation-filters="sRGB">
<feFlood flood-opacity="0" result="BackgroundImageFix"/>
<feBlend mode="normal" in="SourceGraphic" in2="BackgroundImageFix" result="shape"/>
<feGaussianBlur stdDeviation="1.19575" result="effect1_foregroundBlur_273_20081"/>
</filter>
<filter id="filter1_f_273_20081" x="-0.0847921" y="5.06474" width="55.5028" height="33.854" filterUnits="userSpaceOnUse" color-interpolation-filters="sRGB">
<feFlood flood-opacity="0" result="BackgroundImageFix"/>
<feBlend mode="normal" in="SourceGraphic" in2="BackgroundImageFix" result="shape"/>
<feGaussianBlur stdDeviation="2.3021" result="effect1_foregroundBlur_273_20081"/>
</filter>
<linearGradient id="paint0_linear_273_20081" x1="2.49833" y1="30.8208" x2="49.9325" y2="41.6303" gradientUnits="userSpaceOnUse">
<stop stop-color="#75B6E9"/>
<stop offset="0.0507196" stop-color="#ABE7FE"/>
<stop offset="0.247388" stop-color="#9ADFFB"/>
<stop offset="0.833886" stop-color="#9BDFFB"/>
<stop offset="0.922004" stop-color="#C6EFFF"/>
<stop offset="0.977146" stop-color="#7EBEEC"/>
</linearGradient>
<linearGradient id="paint1_linear_273_20081" x1="51.0415" y1="28.937" x2="7.45759" y2="26.3289" gradientUnits="userSpaceOnUse">
<stop stop-color="#0497FF"/>
<stop offset="1" stop-color="#7B00FF"/>
</linearGradient>
<linearGradient id="paint2_linear_273_20081" x1="50.7886" y1="29.1948" x2="7.20466" y2="26.5867" gradientUnits="userSpaceOnUse">
<stop stop-color="#E7F8FF"/>
<stop offset="1" stop-color="#C5EFFF"/>
</linearGradient>
<clipPath id="clip0_273_20081">
<rect width="56.1666" height="56.1666" fill="white" transform="translate(0.0209961 0.015625)"/>
</clipPath>
</defs>
</svg>
