<svg width="209" height="209" viewBox="0 0 209 209" fill="none" xmlns="http://www.w3.org/2000/svg">
<g clip-path="url(#clip0_405_2527)">
<g filter="url(#filter0_f_405_2527)">
<path d="M105.028 95.9496C113.119 97.5735 112.583 100.99 111.755 105.115L107.325 144.788L171.546 157.677C179.637 159.301 182.725 162.262 182.403 166.489L180.22 177.365C179.316 181.865 174.895 182.928 166.729 181.679C145.49 177.417 124.252 173.154 102.508 168.79C86.3259 165.542 70.1443 162.294 53.9627 159.046C42.8378 156.814 31.7129 154.581 20.588 152.348C12.4972 150.724 9.40906 147.763 10.3123 143.263L12.4952 132.387C13.3984 127.887 17.3145 126.722 25.4053 128.346L58.78 135.044L69.5675 96.648C70.4708 92.1476 72.159 89.3526 79.7442 90.875L105.028 95.9496Z" fill="#0D0C38" fill-opacity="0.3"/>
</g>
<path d="M184.854 126.241L184.3 129.002C183.673 129.515 182.984 130.334 182.418 130.54L182.972 127.778C183.538 127.573 184.165 127.06 184.854 126.241Z" fill="#919191"/>
<path d="M182.974 127.772L182.42 130.534C181.854 130.739 181.289 130.945 180.785 130.844L181.277 128.389C181.843 128.184 182.409 127.978 182.974 127.772Z" fill="#8C8C8C"/>
<path d="M181.276 128.389L180.722 131.15C180.156 131.356 179.087 131.46 178.078 131.258L178.633 128.496C179.198 128.291 180.207 128.493 181.276 128.389Z" fill="#888888"/>
<path d="M178.632 128.495L178.078 131.257C176.504 131.26 174.426 131.162 171.906 130.656L172.46 127.895C174.538 127.993 176.554 128.397 178.632 128.495Z" fill="#848484"/>
<path d="M172.459 127.887L171.905 130.648C150.732 126.399 129.56 122.149 107.884 117.799C91.7526 114.561 75.6215 111.323 59.4903 108.086C48.4001 105.86 37.3099 103.634 26.2197 101.408C18.1541 99.7892 14.9949 97.2401 15.7339 93.5582L16.2881 90.7969C15.5491 94.4787 19.2124 97.129 26.7739 98.6467C37.8641 100.873 48.9543 103.098 60.0445 105.324C76.1757 108.562 92.3069 111.8 108.438 115.037C129.61 119.287 150.782 123.536 172.459 127.887Z" fill="#848484"/>
<path fill-rule="evenodd" clip-rule="evenodd" d="M91.4298 111.001L27.4441 98.1583L27.326 98.7469L26.7717 98.6356C19.2102 97.118 15.5469 94.4677 16.2859 90.7858L11.421 115.025C11.412 115.069 11.4036 115.114 11.3958 115.158L10.9296 117.481C10.1906 121.163 13.3498 123.712 21.4154 125.331L21.9681 125.442L21.965 125.457L85.9507 138.3L134.318 148.007L167.57 154.681C167.858 154.739 168.142 154.793 168.419 154.843L168.612 154.882L168.613 154.878L168.614 154.878L168.612 154.884L169.116 154.985L169.121 154.964L169.126 154.965L169.118 154.987L169.622 155.088L169.631 155.043C169.803 155.069 169.973 155.093 170.141 155.115L170.125 155.193L170.629 155.294L170.653 155.179C171.269 155.25 171.855 155.298 172.41 155.323L172.708 155.383L172.718 155.335L172.728 155.335L172.708 155.388L173.212 155.489L173.211 155.49L173.715 155.591C173.715 155.591 174.281 155.386 174.785 155.487L174.829 155.267L174.831 155.267L174.786 155.491C174.848 155.184 175.352 155.286 175.352 155.286L175.355 155.271L175.853 155.371L175.907 155.101C176.112 155.058 176.31 155.01 176.5 154.955L176.419 155.17L176.985 154.964L177.02 154.787C177.22 154.714 177.411 154.634 177.594 154.546L177.554 154.746L177.555 154.745C178.12 154.539 178.747 154.027 179.373 153.516L179.373 153.515L179.374 153.515L179.435 153.208L179.475 153.011C179.926 152.391 180.233 151.649 180.407 150.787L185.385 125.983C185.395 125.993 185.407 126.004 185.419 126.015L185.542 125.401C185.531 125.456 185.506 125.497 185.476 125.531L185.886 123.488C185.053 127.635 180.607 128.899 173.049 127.382L139.797 120.708L91.4298 111.001ZM175.365 155.218L175.37 155.198L175.376 155.197C175.372 155.204 175.369 155.211 175.365 155.218ZM175.362 155.237L175.378 155.197C175.488 155.18 175.597 155.161 175.703 155.141L175.356 155.267L175.362 155.237Z" fill="url(#paint0_linear_405_2527)"/>
<g style="mix-blend-mode:lighten" filter="url(#filter1_f_405_2527)">
<path d="M111.601 41.3168C119.692 42.9407 119.157 46.3572 118.329 50.4826L113.898 90.1549L178.119 103.044C186.21 104.668 189.298 107.629 188.976 111.856L186.793 122.732C185.89 127.232 181.468 128.295 173.302 127.046C152.063 122.784 130.825 118.521 109.081 114.157C92.8992 110.909 76.7176 107.661 60.5359 104.414C49.411 102.181 38.2861 99.9479 27.1612 97.7151C19.0704 96.0912 15.9823 93.1306 16.8856 88.6302L19.0684 77.7543C19.9717 73.2539 23.8877 72.0892 31.9786 73.7131L65.3533 80.4116L76.1408 42.0152C77.044 37.5148 78.7323 34.7198 86.3174 36.2422L111.601 41.3168Z" fill="url(#paint1_linear_405_2527)" fill-opacity="0.6"/>
</g>
<path d="M110.66 42.2543C118.751 43.8782 119.759 47.127 118.931 51.2523L112.957 91.0924L177.178 103.982C185.269 105.606 188.357 108.566 188.034 112.793L185.851 123.669C184.948 128.17 180.526 129.233 172.36 127.984C151.122 123.721 129.884 119.459 108.139 115.094C91.9578 111.847 75.7762 108.599 59.5945 105.351C48.4696 103.118 37.3447 100.885 26.2198 98.6526C18.129 97.0287 15.0409 94.0681 15.9442 89.5677L18.127 78.6918C19.0303 74.1914 22.9463 73.0267 31.0372 74.6506L64.4118 81.3491L74.6432 41.7975C75.5464 37.2972 77.7908 35.6573 85.376 37.1797L110.66 42.2543Z" fill="url(#paint2_linear_405_2527)"/>
</g>
<defs>
<filter id="filter0_f_405_2527" x="1.26121" y="81.5542" width="190.063" height="109.509" filterUnits="userSpaceOnUse" color-interpolation-filters="sRGB">
<feFlood flood-opacity="0" result="BackgroundImageFix"/>
<feBlend mode="normal" in="SourceGraphic" in2="BackgroundImageFix" result="shape"/>
<feGaussianBlur stdDeviation="4.44947" result="effect1_foregroundBlur_405_2527"/>
</filter>
<filter id="filter1_f_405_2527" x="-0.399153" y="18.6878" width="206.53" height="125.976" filterUnits="userSpaceOnUse" color-interpolation-filters="sRGB">
<feFlood flood-opacity="0" result="BackgroundImageFix"/>
<feBlend mode="normal" in="SourceGraphic" in2="BackgroundImageFix" result="shape"/>
<feGaussianBlur stdDeviation="8.56628" result="effect1_foregroundBlur_405_2527"/>
</filter>
<linearGradient id="paint0_linear_405_2527" x1="9.13709" y1="114.466" x2="185.631" y2="154.699" gradientUnits="userSpaceOnUse">
<stop stop-color="#75B6E9"/>
<stop offset="0.0507196" stop-color="#ABE7FE"/>
<stop offset="0.247388" stop-color="#9ADFFB"/>
<stop offset="0.833886" stop-color="#9BDFFB"/>
<stop offset="0.922004" stop-color="#C6EFFF"/>
<stop offset="0.977146" stop-color="#7EBEEC"/>
</linearGradient>
<linearGradient id="paint1_linear_405_2527" x1="189.846" y1="107.521" x2="27.6669" y2="97.8166" gradientUnits="userSpaceOnUse">
<stop stop-color="#0497FF"/>
<stop offset="1" stop-color="#7B00FF"/>
</linearGradient>
<linearGradient id="paint2_linear_405_2527" x1="188.904" y1="108.459" x2="26.7255" y2="98.7541" gradientUnits="userSpaceOnUse">
<stop stop-color="#E7F8FF"/>
<stop offset="1" stop-color="#C5EFFF"/>
</linearGradient>
<clipPath id="clip0_405_2527">
<rect width="209" height="209" fill="white"/>
</clipPath>
</defs>
</svg>
