<svg width="2377" height="937" viewBox="0 0 2377 937" fill="none" xmlns="http://www.w3.org/2000/svg">
<g filter="url(#filter0_f_405_2226)">
<path fill-rule="evenodd" clip-rule="evenodd" d="M561.55 57.3608C561.617 56.4374 561.651 55.5049 561.651 54.5647C561.651 33.266 544.074 16 522.39 16C506.144 16 492.203 25.6925 486.232 39.5116C479.408 36.7146 471.919 35.1699 464.063 35.1699C432.245 35.1699 406.451 60.5059 406.451 91.7594C406.451 102.558 409.53 112.65 414.873 121.235C393.436 124.946 374.981 137.153 363.241 154.19C345.301 146.783 325.593 142.689 304.911 142.689C221.713 142.689 154.268 208.938 154.268 290.66C154.268 310.925 158.415 330.239 165.921 347.827C158.098 345.277 149.733 343.897 141.038 343.897C123.453 343.897 107.21 349.544 94.0873 359.094C91.2558 340.528 74.9512 326.291 55.2613 326.291C33.5779 326.291 16 343.557 16 364.856C16 380.918 25.9975 394.687 40.2139 400.486V920.999H2012.65V438.516C2014.47 435.399 2016.11 432.16 2017.53 428.815C2018.18 458.356 2042.77 482.108 2073 482.108C2103.64 482.108 2128.47 457.711 2128.47 427.615C2128.47 424.451 2128.2 421.35 2127.67 418.333C2151.69 447.518 2188.43 466.18 2229.61 466.18C2301.97 466.18 2360.63 408.564 2360.63 337.491C2360.63 266.419 2301.97 208.803 2229.61 208.803C2157.26 208.803 2098.6 266.419 2098.6 337.491C2098.6 354.378 2101.91 370.505 2107.93 385.28C2098.39 377.677 2086.24 373.121 2073 373.121C2051.85 373.121 2033.46 384.746 2024.1 401.846C2024.26 399.698 2024.35 397.528 2024.35 395.339C2024.35 351.461 1991.19 315.189 1948.14 309.38C1948.3 306.894 1948.38 304.387 1948.38 301.861C1948.38 237.039 1894.89 184.49 1828.89 184.49C1772.52 184.49 1725.27 222.834 1712.69 274.417C1699.05 217.641 1647.13 175.385 1585.17 175.385C1512.81 175.385 1454.16 233.001 1454.16 304.073C1454.16 320.961 1457.47 337.089 1463.49 351.865C1453.95 344.262 1441.79 339.705 1428.55 339.705C1407.4 339.705 1389.02 351.33 1379.66 368.429C1379.82 366.281 1379.9 364.111 1379.9 361.923C1379.9 318.044 1346.74 281.773 1303.7 275.964C1303.86 273.477 1303.94 270.969 1303.94 268.443C1303.94 203.621 1250.44 151.072 1184.45 151.072C1118.46 151.072 1064.96 203.621 1064.96 268.443C1064.96 277.802 1066.07 286.906 1068.18 295.632C1065 295.393 1061.79 295.271 1058.56 295.271C1026.09 295.271 996.532 307.51 974.406 327.546C973.085 307.189 955.857 291.08 934.799 291.08C926.848 291.08 919.443 293.377 913.234 297.332C913.665 294.05 913.888 290.705 913.888 287.308C913.888 244.479 878.541 209.76 834.939 209.76C807.845 209.76 783.939 223.165 769.72 243.592C748.863 205.013 707.54 178.74 659.969 178.74C653.172 178.74 646.502 179.277 640.002 180.309C644.248 170.172 646.574 159.167 646.574 147.665C646.574 101.853 609.667 63.9206 561.55 57.3608Z" fill="#26255F" fill-opacity="0.3"/>
</g>
<path fill-rule="evenodd" clip-rule="evenodd" d="M556.401 71.7833C559.039 66.6006 560.523 60.7528 560.523 54.5647C560.523 33.266 542.945 16 521.261 16C499.578 16 482 33.266 482 54.5647C482 55.8114 482.06 57.0443 482.178 58.2607C480.346 58.0882 478.489 58 476.612 58C444.794 58 419 83.336 419 114.589C419 121.882 420.404 128.853 422.962 135.254C398.106 136.998 376.433 150.045 363.241 169.19C345.301 161.783 325.593 157.689 304.911 157.689C221.713 157.689 154.268 223.938 154.268 305.66C154.268 325.925 158.415 345.239 165.921 362.827C158.098 360.277 149.733 358.897 141.038 358.897C123.453 358.897 107.21 364.544 94.0873 374.094C91.2558 355.528 74.9512 341.291 55.2613 341.291C33.5779 341.291 16 358.557 16 379.856C16 395.838 25.8974 409.549 40 415.398V921H2013V452.912C2014.68 449.981 2016.2 446.944 2017.53 443.815C2018.18 473.356 2042.77 497.108 2073 497.108C2103.64 497.108 2128.47 472.711 2128.47 442.615C2128.47 439.451 2128.2 436.35 2127.67 433.333C2151.69 462.518 2188.43 481.18 2229.61 481.18C2301.97 481.18 2360.63 423.564 2360.63 352.491C2360.63 281.419 2301.97 223.803 2229.61 223.803C2157.26 223.803 2098.6 281.419 2098.6 352.491C2098.6 369.378 2101.91 385.505 2107.93 400.28C2098.39 392.677 2086.24 388.121 2073 388.121C2051.85 388.121 2033.46 399.746 2024.1 416.846C2024.26 414.698 2024.35 412.528 2024.35 410.339C2024.35 366.461 1991.19 330.189 1948.14 324.38C1948.3 321.894 1948.38 319.387 1948.38 316.861C1948.38 252.039 1894.89 199.49 1828.89 199.49C1772.52 199.49 1725.27 237.834 1712.69 289.417C1699.05 232.641 1647.13 190.385 1585.17 190.385C1512.81 190.385 1454.16 248.001 1454.16 319.073C1454.16 335.961 1457.47 352.089 1463.49 366.865C1453.95 359.262 1441.79 354.705 1428.55 354.705C1407.4 354.705 1389.02 366.33 1379.66 383.429C1379.82 381.281 1379.9 379.111 1379.9 376.923C1379.9 333.044 1346.74 296.773 1303.7 290.964C1303.86 288.477 1303.94 285.969 1303.94 283.443C1303.94 218.621 1250.44 166.072 1184.45 166.072C1118.46 166.072 1064.96 218.621 1064.96 283.443C1064.96 292.802 1066.07 301.906 1068.18 310.632C1065 310.393 1061.79 310.271 1058.56 310.271C1026.09 310.271 996.532 322.51 974.406 342.546C973.085 322.189 955.857 306.08 934.799 306.08C926.848 306.08 919.443 308.377 913.234 312.332C913.665 309.05 913.888 305.705 913.888 302.308C913.888 259.479 878.541 224.76 834.939 224.76C807.845 224.76 783.939 238.165 769.72 258.592C748.863 220.013 707.54 193.74 659.969 193.74C653.172 193.74 646.502 194.277 640.002 195.309C644.248 185.172 646.574 174.167 646.574 162.665C646.574 115.232 607.009 76.2463 556.401 71.7833Z" fill="url(#paint0_linear_405_2226)"/>
<defs>
<filter id="filter0_f_405_2226" x="0" y="0" width="2376.63" height="937" filterUnits="userSpaceOnUse" color-interpolation-filters="sRGB">
<feFlood flood-opacity="0" result="BackgroundImageFix"/>
<feBlend mode="normal" in="SourceGraphic" in2="BackgroundImageFix" result="shape"/>
<feGaussianBlur stdDeviation="8" result="effect1_foregroundBlur_405_2226"/>
</filter>
<linearGradient id="paint0_linear_405_2226" x1="787.571" y1="-126.135" x2="798.392" y2="855.116" gradientUnits="userSpaceOnUse">
<stop offset="0.293232" stop-color="#DBEDF8"/>
<stop offset="1" stop-color="#26255F" stop-opacity="0"/>
</linearGradient>
</defs>
</svg>
