<svg width="2429" height="1054" viewBox="0 0 2429 1054" fill="none" xmlns="http://www.w3.org/2000/svg">
<g filter="url(#filter0_f_405_2133)">
<path fill-rule="evenodd" clip-rule="evenodd" d="M729.596 64.4C744.285 64.4 756.192 53.5653 756.192 40.2C756.192 26.8347 744.285 16 729.596 16C714.908 16 703 26.8347 703 40.2C703 53.5653 714.908 64.4 729.596 64.4ZM709.659 88.6C709.659 93.0165 709.04 97.3008 707.878 101.384C710.61 101.13 713.383 101 716.19 101C761.03 101 797.38 134.243 797.38 175.25C797.38 178.385 797.167 181.475 796.754 184.509C807.553 189.411 817.719 195.303 827.111 202.054C854.757 185.335 887.896 175.6 923.522 175.6C990.56 175.6 1048.79 210.071 1078.19 260.689C1098.23 233.888 1131.92 216.299 1170.1 216.299C1231.55 216.299 1281.36 261.854 1281.36 318.049C1281.36 322.507 1281.04 326.898 1280.44 331.205C1289.19 326.016 1299.62 323.003 1310.83 323.003C1340.5 323.003 1364.78 344.141 1366.64 370.852C1397.82 344.562 1439.48 328.503 1485.23 328.503C1489.8 328.503 1494.32 328.663 1498.8 328.977C1495.83 317.526 1494.26 305.581 1494.26 293.3C1494.26 208.248 1569.65 139.3 1662.65 139.3C1755.65 139.3 1831.04 208.248 1831.04 293.3C1831.04 296.615 1830.93 299.905 1830.7 303.168C1891.36 310.79 1938.09 358.381 1938.09 415.953C1938.09 418.823 1937.98 421.668 1937.75 424.485C1950.94 402.049 1976.85 386.797 2006.65 386.797C2023.76 386.797 2039.59 391.823 2052.46 400.348C2046.32 383.537 2043 365.548 2043 346.85C2043 253.597 2125.66 178 2227.63 178C2329.6 178 2412.26 253.597 2412.26 346.85C2412.26 390.174 2394.42 429.687 2365.09 459.58V1038H49.6787V466.381C29.8808 458.675 16 440.721 16 419.802C16 391.856 40.7718 369.202 71.3293 369.202C99.0762 369.202 122.053 387.881 126.045 412.239C144.538 399.708 167.429 392.298 192.212 392.298C204.464 392.298 216.254 394.109 227.278 397.454C216.7 374.378 210.855 349.038 210.855 322.449C210.855 215.223 305.904 128.299 423.152 128.299C452.922 128.299 481.26 133.903 506.976 144.02C524.758 113.46 559.083 92.1746 599.026 90.157C599.009 89.6399 599 89.1209 599 88.6C599 60.6544 623.772 38 654.329 38C684.887 38 709.659 60.6544 709.659 88.6Z" fill="#26255F" fill-opacity="0.3"/>
</g>
<path fill-rule="evenodd" clip-rule="evenodd" d="M740.267 73.5539C752.224 73.5539 761.917 64.0279 761.917 52.2769C761.917 40.526 752.224 31 740.267 31C728.31 31 718.616 40.526 718.616 52.2769C718.616 64.0279 728.31 73.5539 740.267 73.5539ZM710 112.5C710 116.755 709.452 120.884 708.422 124.824C712.035 124.281 715.735 124 719.5 124C758.345 124 790.151 153.929 792.819 191.835C809.256 198.045 824.498 206.621 838.113 217.14C865.759 199.173 898.897 188.713 934.522 188.713C1001.56 188.713 1059.8 225.756 1089.19 280.15C1109.23 251.35 1142.92 232.449 1181.1 232.449C1242.54 232.449 1292.36 281.402 1292.36 341.789C1292.36 346.578 1292.04 351.295 1291.44 355.921C1300.19 350.345 1310.62 347.107 1321.83 347.107C1351.5 347.107 1375.78 369.823 1377.64 398.527C1408.82 370.276 1450.48 353.02 1496.23 353.02C1500.8 353.02 1505.32 353.191 1509.8 353.528C1506.83 341.224 1505.25 328.389 1505.25 315.192C1505.25 223.796 1580.65 149.705 1673.65 149.705C1766.65 149.705 1842.04 223.796 1842.04 315.192C1842.04 318.753 1841.93 322.288 1841.7 325.793C1902.36 333.983 1949.09 385.124 1949.09 446.991C1949.09 450.077 1948.98 453.137 1948.75 456.166C1961.94 432.058 1987.85 415.668 2017.65 415.668C2036.31 415.668 2053.45 422.093 2066.89 432.814C2058.4 411.981 2053.74 389.241 2053.74 365.429C2053.74 265.22 2136.4 183.984 2238.37 183.984C2340.34 183.984 2423 265.22 2423 365.429C2423 411.894 2405.23 454.279 2376 486.378V1036H61V501.315C41.0312 493.11 27 473.729 27 451.128C27 421.098 51.7718 396.754 82.3293 396.754C110.078 396.754 133.056 416.829 137.046 443.006C155.539 429.541 178.429 421.578 203.212 421.578C215.465 421.578 227.254 423.524 238.279 427.12C227.7 402.321 221.855 375.09 221.855 346.517C221.855 231.293 316.904 137.885 434.152 137.885C469.375 137.885 502.594 146.315 531.835 161.234C543.08 135.237 569.366 117 600 117C603.136 117 606.227 117.191 609.261 117.562C609.088 115.898 609 114.209 609 112.5C609 85.1619 631.61 63 659.5 63C687.39 63 710 85.1619 710 112.5Z" fill="url(#paint0_linear_405_2133)"/>
<defs>
<filter id="filter0_f_405_2133" x="0" y="0" width="2428.26" height="1054" filterUnits="userSpaceOnUse" color-interpolation-filters="sRGB">
<feFlood flood-opacity="0" result="BackgroundImageFix"/>
<feBlend mode="normal" in="SourceGraphic" in2="BackgroundImageFix" result="shape"/>
<feGaussianBlur stdDeviation="8" result="effect1_foregroundBlur_405_2133"/>
</filter>
<linearGradient id="paint0_linear_405_2133" x1="1225" y1="-157.038" x2="1225" y2="1115.44" gradientUnits="userSpaceOnUse">
<stop offset="0.129951" stop-color="#DBEDF8"/>
<stop offset="1" stop-color="#26255F" stop-opacity="0"/>
</linearGradient>
</defs>
</svg>
