<?xml version="1.0" encoding="utf-8"?>
<!-- Generator: Adobe Illustrator 23.1.0, SVG Export Plug-In . SVG Version: 6.00 Build 0)  -->
<svg version="1.1" id="Слой_1" xmlns="http://www.w3.org/2000/svg" xmlns:xlink="http://www.w3.org/1999/xlink" x="0px" y="0px"
	 viewBox="0 0 409.9 183.5" style="enable-background:new 0 0 409.9 183.5;" xml:space="preserve">
<style type="text/css">
	.st0{fill:#FFFFFF;}
</style>
<g>
	<path class="st0" d="M127.6,110.2H120l-9.8-17.6h-5.6v17.6H98V67h14.3c9,0,14.5,4.7,14.5,12.9c0,7.2-3.9,10.7-9.8,12.1L127.6,110.2
		z M104.8,72.7V87h6c4.9,0,9.1-1,9.1-7.2c0-6.7-4.7-7.1-9.1-7.1H104.8z"/>
	<path class="st0" d="M162.2,95.1c0-10,4-16.1,11.6-16.1c4.2,0,7,1.2,8.6,4.3V65.7h6.6v44.5h-6.4v-5.1c-1.6,4-4.5,5.8-8.9,5.8
		C166.2,110.9,162.2,105,162.2,95.1z M182.9,95c0-7.6-2.9-10.8-7-10.8c-4.3,0-6.8,3.8-6.8,10.9s2.4,10.7,6.8,10.7
		C180.3,105.8,182.9,102.2,182.9,95z"/>
	<path class="st0" d="M197.5,110.2V79.8h6.6v30.4H197.5z M197.6,74.1v-7h6.4v7H197.6z"/>
	<path class="st0" d="M213,110.2V79.8h6.5v3.2c0.6-2.4,4.9-4.1,8.9-4.1c7.3,0,9.8,5.5,9.8,11.1v20.2h-6.6V91.2
		c0-3.4-0.9-6.7-5.5-6.7c-4.1,0-6.4,2.9-6.4,7.9v17.9H213z"/>
	<path class="st0" d="M304.2,94.9c0-10.3,5.3-16,14.2-16s14.2,5.7,14.2,16c0,10.4-5.3,16.1-14.2,16.1S304.2,105.3,304.2,94.9z
		 M325.8,94.9c0-6.8-2.7-10.7-7.4-10.7c-4.7,0-7.4,3.9-7.4,10.7c0,6.8,2.6,10.8,7.4,10.8C323.1,105.7,325.8,101.8,325.8,94.9z"/>
	<path class="st0" d="M339.3,110.2V79.8h6.5v5.2c1.2-3.3,3.9-6.1,8.9-6.1c7.3,0,9.8,5.5,9.8,11.1v20.2h-6.6V91.2
		c0-3.4-0.9-6.7-5.5-6.7c-4.1,0-6.4,2.9-6.4,7.9v17.9H339.3z"/>
	<path class="st0" d="M153.8,103.7c-1.5,1.3-3.3,2.2-7.1,2.2c-5.5,0-8.5-2.8-8.7-8.7h18.8c0-0.6,0.1-1.7,0.1-3.1
		c0-9.6-4.1-15.1-12.3-15.1c-8.5,0-13.3,5.8-13.3,15.9c0,10.8,5.3,16.1,14.3,16.1c4.7,0,8.8-1.1,11.8-3.8L153.8,103.7z M144.8,84.1
		c4,0,6,3.1,6,8.4h-12.5C138.3,87.5,140.6,84.1,144.8,84.1z"/>
	<g>
		<path class="st0" d="M265,79.8v2.9c-1.7-3-5.3-3.7-8.7-3.7c-7.7,0-11.6,6.1-11.6,16.1c0,9.8,3.9,15.8,11.6,15.8
			c4.1,0,7-1.7,8.7-5.4v5.3c0,4.4-2,7.9-8,7.9c-1.5,0-2.8-0.2-3.9-0.5l-4.1,3.9c1.9,1.1,4.6,2,8.5,2c9.4,0,14-4.7,14-13.3v-31H265z
			 M258.3,105.8c-4.3,0-6.8-3.7-6.8-10.7s2.4-10.9,6.8-10.9c4.3,0,7,3.3,7,10.9C265.3,102.2,262.7,105.8,258.3,105.8z"/>
	</g>
	<g>
		<path class="st0" d="M297.1,104.5c-1,0.8-2.3,1.3-3.9,1.3c-3.9,0-4.4-3.1-4.4-5V85h11v-5.1h-11v-8.7h-6.6v8.7h-5.3V85h5.3v15.5
			c0,3.1,0,10.7,9.7,10.7c5.2,0,7.6-2.5,8.3-3.7L297.1,104.5z"/>
	</g>
	<polygon class="st0" points="65,72.7 36.1,87.1 36.1,58.2 65,43.8 	"/>
	<polygon class="st0" points="84.4,111.9 55.5,126.4 55.5,97.5 84.4,83 	"/>
	<polygon class="st0" points="36.1,87.1 36.1,102.6 47,109.1 47,97.1 63.9,88.6 50,80.2 	"/>
	<polygon class="st0" points="71,58.8 71,73.7 57.8,80.6 72.9,88.8 84.4,83 84.4,65.5 	"/>
	<g>
		<path class="st0" d="M98.4,128.3l0.6-0.8c0.4,0.5,1.2,1,2,1c1.1,0,1.6-0.7,1.6-1.4c0-2.1-3.9-1.5-3.9-4.3c0-1.3,1-2.3,2.5-2.3
			c1,0,1.7,0.3,2.3,0.9l-0.5,0.8c-0.5-0.5-1.1-0.8-1.8-0.8c-0.8,0-1.4,0.5-1.4,1.3c0,1.8,3.9,1.4,3.9,4.3c0,1.3-0.8,2.4-2.6,2.4
			C99.8,129.4,99,128.9,98.4,128.3z"/>
		<path class="st0" d="M105.9,129.2v-8.6h4.4v0.9h-3.4v2.8h3.3v0.9h-3.3v3h3.4v0.9H105.9z"/>
		<path class="st0" d="M117.1,129.2l-0.6-1.9h-3.1l-0.6,1.9h-1.1l2.6-8.6h1.2l2.6,8.6H117.1z M115.1,121.7l-1.3,4.6h2.6L115.1,121.7
			z"/>
		<path class="st0" d="M126.1,129.2v-6.8l-2.3,6.8h-0.4l-2.3-6.8v6.8h-1v-8.6h1.4l2.1,6.1l2.1-6.1h1.4v8.6H126.1z"/>
		<path class="st0" d="M129.8,129.2v-8.6h1v7.7h3.1v0.9H129.8z"/>
		<path class="st0" d="M136.1,129.2v-8.6h4.4v0.9h-3.4v2.8h3.3v0.9h-3.3v3h3.4v0.9H136.1z"/>
		<path class="st0" d="M142.4,128.3l0.6-0.8c0.4,0.5,1.2,1,2,1c1.1,0,1.6-0.7,1.6-1.4c0-2.1-3.9-1.5-3.9-4.3c0-1.3,1-2.3,2.5-2.3
			c1,0,1.7,0.3,2.3,0.9l-0.5,0.8c-0.5-0.5-1.1-0.8-1.8-0.8c-0.8,0-1.4,0.5-1.4,1.3c0,1.8,3.9,1.4,3.9,4.3c0,1.3-0.8,2.4-2.6,2.4
			C143.8,129.4,143,128.9,142.4,128.3z"/>
		<path class="st0" d="M149.3,128.3l0.6-0.8c0.4,0.5,1.2,1,2,1c1.1,0,1.6-0.7,1.6-1.4c0-2.1-3.9-1.5-3.9-4.3c0-1.3,1-2.3,2.5-2.3
			c1,0,1.7,0.3,2.3,0.9l-0.5,0.8c-0.5-0.5-1.1-0.8-1.8-0.8c-0.8,0-1.4,0.5-1.4,1.3c0,1.8,3.9,1.4,3.9,4.3c0,1.3-0.8,2.4-2.6,2.4
			C150.7,129.4,149.9,128.9,149.3,128.3z"/>
		<path class="st0" d="M160.4,129.2v-8.6h2.6c1.6,0,2.4,1.2,2.4,2.6s-0.8,2.6-2.4,2.6h-1.6v3.4H160.4z M164.3,123.2
			c0-1-0.5-1.7-1.4-1.7h-1.5v3.4h1.5C163.8,124.9,164.3,124.2,164.3,123.2z"/>
		<path class="st0" d="M172,129.2l-0.6-1.9h-3.1l-0.6,1.9h-1.1l2.6-8.6h1.2l2.6,8.6H172z M169.9,121.7l-1.3,4.6h2.6L169.9,121.7z"/>
		<path class="st0" d="M178.9,129.2l-1.7-3.4H176v3.4h-1v-8.6h2.6c1.4,0,2.4,1,2.4,2.6c0,1.5-0.9,2.3-1.7,2.4l1.8,3.6H178.9z
			 M178.9,123.2c0-1-0.5-1.7-1.4-1.7H176v3.4h1.5C178.4,124.9,178.9,124.2,178.9,123.2z"/>
		<path class="st0" d="M183.9,129.2v-7.7h-2v-0.9h5.1v0.9h-2.1v7.7H183.9z"/>
		<path class="st0" d="M193.6,129.2l-3.5-6.4v6.4h-1v-8.6h1l3.5,6.3v-6.3h1v8.6H193.6z"/>
		<path class="st0" d="M197.3,129.2v-8.6h4.4v0.9h-3.4v2.8h3.3v0.9h-3.3v3h3.4v0.9H197.3z"/>
		<path class="st0" d="M208,129.2l-1.7-3.4h-1.2v3.4h-1v-8.6h2.6c1.4,0,2.4,1,2.4,2.6c0,1.5-0.9,2.3-1.7,2.4l1.8,3.6H208z
			 M208,123.2c0-1-0.5-1.7-1.4-1.7h-1.5v3.4h1.5C207.5,124.9,208,124.2,208,123.2z"/>
		<path class="st0" d="M211,128.3l0.6-0.8c0.4,0.5,1.2,1,2,1c1.1,0,1.6-0.7,1.6-1.4c0-2.1-3.9-1.5-3.9-4.3c0-1.3,1-2.3,2.5-2.3
			c1,0,1.7,0.3,2.3,0.9l-0.5,0.8c-0.5-0.5-1.1-0.8-1.8-0.8c-0.8,0-1.4,0.5-1.4,1.3c0,1.8,3.9,1.4,3.9,4.3c0,1.3-0.8,2.4-2.6,2.4
			C212.5,129.4,211.6,128.9,211,128.3z"/>
		<path class="st0" d="M223,129.2v-4h-3.5v4h-1v-8.6h1v3.7h3.5v-3.7h1v8.6H223z"/>
		<path class="st0" d="M226.7,129.2v-8.6h1v8.6H226.7z"/>
		<path class="st0" d="M230.4,129.2v-8.6h2.6c1.6,0,2.4,1.2,2.4,2.6s-0.8,2.6-2.4,2.6h-1.6v3.4H230.4z M234.4,123.2
			c0-1-0.5-1.7-1.4-1.7h-1.5v3.4h1.5C233.8,124.9,234.4,124.2,234.4,123.2z"/>
		<path class="st0" d="M237.1,128.3l0.6-0.8c0.4,0.5,1.2,1,2,1c1.1,0,1.6-0.7,1.6-1.4c0-2.1-3.9-1.5-3.9-4.3c0-1.3,1-2.3,2.5-2.3
			c1,0,1.7,0.3,2.3,0.9l-0.5,0.8c-0.5-0.5-1.1-0.8-1.8-0.8c-0.8,0-1.4,0.5-1.4,1.3c0,1.8,3.9,1.4,3.9,4.3c0,1.3-0.8,2.4-2.6,2.4
			C238.5,129.4,237.6,128.9,237.1,128.3z"/>
	</g>
</g>
</svg>
