<?xml version="1.0" encoding="utf-8"?>
<!-- Generator: Adobe Illustrator 23.1.0, SVG Export Plug-In . SVG Version: 6.00 Build 0)  -->
<svg version="1.1" id="Слой_1" xmlns="http://www.w3.org/2000/svg" xmlns:xlink="http://www.w3.org/1999/xlink" x="0px" y="0px"
	 viewBox="0 0 433.2 203.2" style="enable-background:new 0 0 433.2 203.2;" xml:space="preserve">
<style type="text/css">
	.st0{fill:#3E8F4A;}
	.st1{fill:#73B667;}
	.st2{fill:#2B3990;}
	.st3{fill:#24AFD3;}
	.st4{fill:#3D74B5;}
</style>
<g>
	<path class="st2" d="M205.7,96.1H204c-0.9,0-1.6-0.7-1.6-1.6V50.5c0-0.9,0.7-1.6,1.6-1.6h1.8c0.9,0,1.6,0.7,1.6,1.6v44.1
		C207.3,95.4,206.6,96.1,205.7,96.1z"/>
	<path class="st2" d="M227.9,86.8h-1.8c-0.9,0-1.6-0.7-1.6-1.6V50.5c0-0.9,0.7-1.6,1.6-1.6h1.8c0.9,0,1.6,0.7,1.6,1.6v34.7
		C229.5,86.1,228.8,86.8,227.9,86.8z"/>
	<path class="st3" d="M250.1,96.1h-1.8c-0.9,0-1.6-0.7-1.6-1.6V50.5c0-0.9,0.7-1.6,1.6-1.6h1.8c0.9,0,1.6,0.7,1.6,1.6v44.1
		C251.7,95.4,251,96.1,250.1,96.1z"/>
	<path class="st3" d="M239,96.1h-1.8c-0.9,0-1.6-0.7-1.6-1.6V73.4c0-0.9,0.7-1.6,1.6-1.6h1.8c0.9,0,1.6,0.7,1.6,1.6v21.1
		C240.6,95.4,239.9,96.1,239,96.1z"/>
	<path class="st2" d="M217,75.1h-1.8c-0.9,0-1.6-0.7-1.6-1.6V50.5c0-0.9,0.7-1.6,1.6-1.6h1.8c0.9,0,1.6,0.7,1.6,1.6v23.1
		C218.6,74.4,217.9,75.1,217,75.1z"/>
	<path class="st3" d="M99.1,144H94v-18.5c0-0.1,0-1.2,0.1-3.2c0-2,0.1-3.5,0.1-4.7H94L83,144h-5.3l-11-26.3h-0.1
		c0,1.1,0,2.7,0.1,4.6s0.1,3,0.1,3.2V144h-5.1v-31.3h7.6l11.2,26.5h0.1l11.1-26.5h7.5V144z"/>
	<path class="st3" d="M120.2,112.7V144h-5.1v-31.3H120.2z"/>
	<path class="st3" d="M161.2,138v-25.3h4.9V144h-5.7l-19.2-25.3h-0.1V144h-4.9v-31.3h6l18.9,25.3H161.2z"/>
	<path class="st3" d="M181.2,144v-31.3h15.4c2.5,0,4.7,0.4,6.7,1.1c2,0.7,3.7,1.8,5.1,3.1c1.4,1.3,2.5,2.9,3.2,4.8
		c0.7,1.9,1.1,3.9,1.1,6.2c0,1.9-0.3,3.8-0.8,5.7c-0.6,1.9-1.5,3.6-2.7,5.2c-1.3,1.6-2.9,2.8-5.1,3.8c-2.1,1-4.7,1.5-7.7,1.5H181.2z
		 M186.4,116.3v24.1h10c2.2,0,4.2-0.5,5.8-1.4c1.7-0.9,3-2.3,3.9-4.2c0.9-1.8,1.4-4.1,1.4-6.6c0-2.6-0.5-4.8-1.4-6.5
		c-0.9-1.8-2.2-3.1-3.9-4c-1.7-0.9-3.7-1.3-6.1-1.3H186.4z"/>
	<path class="st2" d="M247.1,118.1l-8.8,26h-5.4l-10-31.3h5.6l7.1,25.5h0.1l8.6-25.5h5.6l8.6,25.5h0.1l7.1-25.5h5.7L261.4,144h-5.4
		l-8.7-26H247.1z"/>
	<path class="st2" d="M303.2,134.9h-15.4l-4,9.1h-5.4l14.5-31.3h5.9l13.9,31.3H307L303.2,134.9z M289.4,131.2h12l-5.7-13.8h-0.1
		L289.4,131.2z"/>
	<path class="st2" d="M329,130.6V144h-4.9v-31.3h16.7c3.4,0,6.3,0.6,8.5,1.9c2.2,1.3,3.3,3.5,3.3,6.5c0,2.1-0.5,3.6-1.4,4.7
		c-0.9,1.1-2.1,2-3.7,2.8c1.4,0.5,2.4,1.1,3.1,1.9c0.7,0.7,1.1,2.1,1.2,4l0.3,5.7c0,0.9,0.2,1.6,0.4,2c0.2,0.4,0.7,0.8,1.4,1.2v0.7
		h-6c-0.2-0.6-0.4-1.4-0.5-2.4c-0.1-1-0.2-2-0.3-3c-0.1-1-0.1-1.8-0.1-2.4c0-1.7-0.4-3-1.3-4c-0.8-1-2.6-1.5-5.2-1.5H329z
		 M329,116.3V127h11.3c2.2,0,3.9-0.4,5.3-1.1c1.4-0.8,2-2.2,2-4.3c0-3.5-2.2-5.2-6.5-5.2H329z"/>
	<path class="st2" d="M394.6,140.3v3.8h-27.9v-31.3h27.5v3.8h-22.4v9.6h20.7v3.8h-20.7v10.5H394.6z"/>
</g>
</svg>
