<?xml version="1.0" encoding="utf-8"?>
<!-- Generator: Adobe Illustrator 23.1.0, SVG Export Plug-In . SVG Version: 6.00 Build 0)  -->
<svg version="1.1" id="Слой_1" xmlns="http://www.w3.org/2000/svg" xmlns:xlink="http://www.w3.org/1999/xlink" x="0px" y="0px"
	 viewBox="0 0 372.1 167.2" style="enable-background:new 0 0 372.1 167.2;" xml:space="preserve">
<style type="text/css">
	.st0{fill:#FFFFFF;}
</style>
<g>
	<path class="st0" d="M66.1,72.7c5.5,0,17,0,17.2,0l0,0.1c0,14.9,0,29.9,0,44.8c-0.2,0-17,0-17.2,0C66.1,102.6,66.1,87.7,66.1,72.7z
		"/>
	<path class="st0" d="M348.7,76.6c0,0.8-0.4,1.4-0.9,2c-0.7,0.8-1.7,1.2-2.8,1.4c-0.6,0.1-1.3,0.1-1.9,0.1c-1-0.1-1.9-0.4-2.7-1
		c-0.8-0.6-1.2-1.3-1.4-2.2c-0.2-1-0.1-1.9,0.3-2.7c0.4-0.8,1.1-1.3,2-1.7c0.4-0.2,0.6-0.3,1.3-0.4c0.6-0.1,1.6,0,1.7,0
		c1,0,2,0.3,2.8,0.9c0.9,0.6,1.4,1.5,1.5,2.6C348.7,75.6,348.7,76.5,348.7,76.6z M347,75.7c-0.2-0.8-0.8-1.2-1.5-1.3
		c-0.3-0.1-0.7-0.1-1.1-0.2c-0.6,0-1.2,0-1.8,0.1c-0.5,0.1-1,0.2-1.4,0.5c-0.4,0.3-0.5,0.6-0.5,0.8c-0.1,0.5-0.1,0.9,0.1,1.2
		c0.3,0.5,0.8,0.7,1.2,0.8c0.6,0.1,1.1,0.2,1.7,0.2c0.6,0,1.2-0.1,1.8-0.2c0.5-0.1,0.9-0.3,1.2-0.8C347,76.4,347,76.1,347,75.7z"/>
	<path class="st0" d="M348.7,96.3c0,0.8-0.4,1.4-0.9,2c-0.3,0.3-0.6,0.5-0.9,0.8c-0.6,0.5-1.4,0.6-2.1,0.8c-0.4,0.1-0.8,0.1-1.2,0.1
		c-1-0.1-1.9-0.3-2.8-0.8c-1-0.6-1.6-1.4-1.8-2.6c-0.1-0.5-0.1-1.1-0.1-1.6c0.2-1.5,1-2.6,2.6-3c0.3-0.1,0.7-0.1,1-0.2
		c0,0.1,0.1,2,0.1,2.3c-1.8,0-2.5,1.3-1.7,2.7c0.6,0.6,1.1,0.6,1.7,0.7c0.6,0.1,1.3,0.1,1.9,0.1c0.5,0,1-0.1,1.5-0.4
		c0.9-0.4,1.3-1.8,0.4-2.7c-0.3-0.3-0.6-0.5-1-0.5c-0.1,0-0.3-0.1-0.4-0.1c0-0.7,0.1-1.4,0.1-2.1c0.3,0.1,0.6,0.1,0.9,0.2
		c0.3,0.1,0.6,0.2,0.9,0.4c0.8,0.5,1.2,1.3,1.5,2.2c0.1,0.2,0.1,0.4,0.1,0.7C348.8,95.9,348.7,96.2,348.7,96.3z"/>
	<path class="st0" d="M296.1,97.4c0.2-0.9,5.7-24,5.8-24.7c8.5,0,17,0,25.4,0c0.1,0.5,0.1,42,0,44.9c-5.1,0-10.3,0-15.4,0
		c0,0,0-0.1,0-0.1c0-0.1,0-35.1,0-35.1c0,0,0,0,0-0.1c-0.1,0-0.2,0-0.3,0c-0.5,2-8.5,33.4-9,35.3c-4.8,0-9.5,0-14.3,0
		c-0.1-0.4-8.6-34.1-8.9-35c0-0.1-0.1-0.2-0.2-0.3c-0.1,0-0.2,0-0.3,0c0,11.8,0,23.5,0,35.3c-9.1,0-18.1,0-27.2,0
		c-0.5-1.6-0.9-3.2-1.4-4.8c-0.5-1.6-0.9-3.2-1.4-4.8c-4.9,0-9.9,0-14.8,0c-0.9,3.2-1.8,6.5-2.7,9.7c-8.7,0-17.3,0-26,0
		c-0.1-0.5-1.1-8.2-1.1-8.5c-0.2-1.4-0.5-2.8-1.1-4c-0.5-1.1-1.3-2.1-2.6-2.4c-0.5-0.1-1-0.3-1.5-0.3c-1.7,0-5.2,0-5.3,0
		c0,5.1,0,10.1,0,15.2c-8.7,0-17.4,0-26,0c1.2-0.4,2.5-0.7,3.7-1.1c1.2-0.4,2.5-0.8,3.7-1.3c1.2-0.5,2.4-1,3.7-1.5
		c1.2-0.5,2.4-1.1,3.5-1.7c1.2-0.6,2.3-1.2,3.4-1.9c-1.9-7.1-3.7-14.2-5.6-21.3c-0.3-0.1-0.6,0.1-0.9,0.2c-1,0.3-2,0.5-3,0.8
		c-0.8,0.2-1.7,0.4-2.5,0.7c-0.6,0.1-1.1,0.3-1.7,0.4c-0.8,0.2-1.6,0.4-2.4,0.7c-0.5,0.1-1.1,0.3-1.6,0.4c-0.9,0.2-1.8,0.5-2.8,0.7
		c0,0.1,0,0.3,0.1,0.4c0.2,0.6,0.3,1.2,0.5,1.9c0.2,0.9,0.4,1.7,0.7,2.6c0.3,0.9,0.5,1.9,0.8,2.8c0.3,1,0.5,2.1,0.8,3.1
		c0.1,0.4,0.2,0.9,0.3,1.4c-0.7,0.4-1.5,0.7-2.3,1c-0.8,0.3-1.7,0.4-2.5,0.6c-0.1,0-0.1,0-0.2,0c-0.3,0-0.5,0-0.8,0.1
		c-0.2,0.1-0.5,0.1-0.8,0c-0.1,0-0.2,0-0.3,0c-1,0-1.9-0.3-2.8-0.6c-0.7-0.3-1.4-0.7-2-1.2c-0.5-0.4-1-0.8-1.5-1.4
		c-0.4-0.5-0.8-1-1.1-1.5c-0.6-0.8-1-1.8-1.3-2.7c-0.4-1-0.6-2-0.8-3c-0.1-0.5-0.1-1-0.1-1.6c0-0.7,0-1.3,0-2c0-0.9,0.2-1.8,0.4-2.6
		c0.3-1.2,0.8-2.3,1.6-3.3c0.6-0.8,1.2-1.6,2-2.2c0.4-0.3,0.7-0.6,1.2-0.9c0.4-0.3,0.8-0.5,1.2-0.8c1-0.6,2.1-1,3.2-1.5
		c1.1-0.4,2.2-0.6,3.3-1c0.5-0.1,1.1-0.1,1.6-0.2c0.7-0.1,1.4-0.1,2-0.2c1.1-0.1,2.2-0.1,3.2-0.1c0.5,0,1,0,1.5,0
		c0.7,0.1,1.5,0.1,2.2,0.1c0.2,0,0.5,0.1,0.8,0.1c-0.6-2.4-1.2-4.7-1.9-7.1c0.1,0,0.2,0,0.4,0c10.6,0,21.3,0,31.9,0
		c0.4,0,3.4,0.3,3.8,0.3c0.6,0.1,1.2,0.2,1.7,0.4c0.8,0.2,1.6,0.4,2.3,0.7c1.3,0.5,2.6,1.1,3.7,2c0.4,0.3,0.9,0.7,1.3,1.1
		c1.3,1.4,2.3,3,2.7,4.9c0.1,0.5,0.2,1,0.2,1.4c0.1,0.5,0.1,1,0.1,1.5c0,0.6-0.1,1.3-0.2,1.9c-0.2,1.1-0.5,2.2-1,3.2
		c-0.4,0.8-0.9,1.5-1.5,2.2c-0.6,0.6-1.3,1.2-2,1.7c-0.2,0.2-0.5,0.3-0.7,0.4c-1.4,0.8-2.8,1.3-4.4,1.7c-0.3,0.1-0.7,0.1-1,0.2
		c0,0.1,0,0.2,0,0.4c1.1,0.2,2.2,0.5,3.2,1c1,0.5,2,1.1,2.8,1.9c0.8,0.8,1.5,1.7,2.1,2.7c0.3-0.9,0.5-1.7,0.8-2.5
		c0.4-1.3,0.9-2.5,1.3-3.8c0.4-1.1,0.8-2.3,1.2-3.4c0.5-1.4,1-2.8,1.4-4.1c0.4-1.1,0.8-2.3,1.2-3.4c0.4-1.2,0.9-2.5,1.3-3.7
		c0.6-1.8,1.3-3.6,1.9-5.3c0.4-1,0.8-2.1,1.1-3.1c0-0.1,0.1-0.2,0.2-0.3c7.9,0,15.8,0,23.8,0c0.1,0.4,0.3,0.7,0.4,1.1
		c0.5,1.4,0.9,2.8,1.5,4.2c0.4,1,0.7,2,1.1,3.1c0.4,1.3,0.9,2.5,1.4,3.8c0.5,1.3,0.9,2.6,1.4,3.9c0.6,1.7,1.2,3.4,1.8,5
		c0.5,1.4,1,2.7,1.5,4.1c0.4,1,0.7,2,1.1,3.1c0,0,0,0,0.1,0c0,0,0.1-0.1,0.1-0.1c0-0.2,0-0.4,0-0.6c0-9,0-18,0-26.9
		c0-0.2,0-0.4,0-0.6c8.6,0,17.1,0,25.7,0c0.2,1,5.8,23.9,5.9,24.5C295.9,97.2,296,97.3,296.1,97.4z M194.1,92.3c0.1,0,0.2,0,0.2,0
		c1.9,0,3.7,0,5.6,0c0.4,0,0.7-0.1,1.1-0.1c0.2,0,0.4-0.1,0.6-0.1c0.7-0.2,1.4-0.5,2-0.9c0.6-0.4,1-1,1.3-1.6
		c0.4-0.9,0.5-2.3,0.3-3.3c-0.3-1.3-1-2.1-2.1-2.7c-1.1-0.6-2.4-0.9-3.6-0.9c-1.6,0-3.3,0-4.9,0c-0.1,0-0.3,0-0.4,0
		C194.1,85.9,194.1,89.1,194.1,92.3z M246.8,97.2c-0.8-2.5-1.6-5-2.5-7.5c-0.8-2.5-1.6-5-2.5-7.4c-0.2,0-0.3,0-0.4,0
		c-0.1,0.4-0.2,0.7-0.3,1.1c-0.5,1.6-1.1,3.2-1.6,4.8c-0.5,1.6-1,3.1-1.5,4.7c-0.4,1.3-0.9,2.7-1.3,4c0,0.1,0,0.2-0.1,0.3
		C240.1,97.2,243.4,97.2,246.8,97.2z"/>
	<path class="st0" d="M105,85.1c0,10.8,0,21.7,0,32.5c-0.6,0.1-12,0.1-14.8,0.1c0-15,0-29.9,0-44.9c0.5-0.1,22.9-0.1,25.8,0
		c0.2,0.9,8.2,30.9,8.3,31.4c0,0.2,0.1,0.3,0.3,0.3c0,0,0,0,0,0c0,0,0,0,0,0c0-0.1,0-0.3,0-0.4c0-10.4,0-20.8,0-31.1c0,0,0,0,0-0.1
		c4.9,0,9.8,0,14.7,0c0,2.2,0,4.5,0,6.8c-0.4,0.4-0.8,0.9-1.2,1.3c-0.5,0.7-1,1.3-1.4,2c-0.4,0.7-0.8,1.4-1.2,2.1
		c-0.6,1.2-1,2.3-1.3,3.6c-0.1,0.6-0.5,2.4-0.5,2.8c0,0.3-0.2,2.5-0.2,2.8c0,0.9,0,1.8,0.1,2.7c0.2,1.6,0.5,3.1,0.9,4.7
		c0.5,1.8,1.2,3.5,2.1,5.1c0.6,1.1,1.3,2.2,2.1,3.2c0.9,1.1,1.9,2.1,2.9,3.1c0.9,0.8,1.9,1.6,3,2.2c0.7,0.4,1.3,0.8,2,1.1
		c1,0.5,2.1,0.9,3.2,1.3c-12,0-24,0-36,0l-8.8-32.5L105,85.1z"/>
	<path class="st0" d="M340.8,115.8c2.6,0,5.2,0,7.8,0c0,0.6,0,1.2,0,1.7c-3.1,0-6.3,0-9.4,0c0-1.1,0-2.2,0-3.4
		c1.9-0.6,3.8-1.1,5.7-1.7c-0.1-0.1-2.6-0.9-3.7-1.3c-0.7-0.2-1.3-0.4-2-0.6c0-1.1,0-2.3,0-3.4c3.1,0,6.3,0,9.4,0c0,0.7,0,1.3,0,2.1
		c-2.6,0-5.2,0-7.8,0c0.6,0.4,7.2,2.3,7.8,2.5c0,0.5,0,1,0,1.5C347.9,113.6,340.8,115.8,340.8,115.8z"/>
	<path class="st0" d="M344.8,85.7c0,0.6,0,1.1,0,1.7c0.4,0.1,0.8,0,1.2,0c0.4,0,0.8,0,1.2,0c0.4,0,0.8,0,1.3,0c0,0.7,0,1.4,0,2.1
		c0,0,0,0,0,0c0,0,0,0,0,0c-3.1,0-6.2,0-9.4,0c0-0.1,0-0.2,0-0.4c0-1.4,0-2.7,0-4.1c0-0.7,0.1-1.4,0.5-2c0.4-0.7,1.1-1.1,1.9-1.2
		c0.5,0,1,0,1.4,0.2c0.7,0.3,1.2,0.8,1.4,1.5c1.4-0.6,2.7-1.1,4.1-1.7c0,0,0,0,0,0c0,0,0,0,0,0c0,0.8,0,1.5,0,2.3
		C347.3,84.7,346.1,85.2,344.8,85.7z M340.7,87.4c0.9,0,1.7,0,2.5,0c0-0.5,0-1,0-1.5c0-0.5,0-1-0.4-1.5c-0.2-0.2-0.3-0.2-0.5-0.3
		c-0.3-0.1-0.6-0.1-0.8,0c-0.5,0.2-0.7,0.5-0.8,1C340.7,85.9,340.7,86.6,340.7,87.4z"/>
	<path class="st0" d="M339.1,104.3c0-0.7,0-1.4,0-2.1c3.1,0,6.3,0,9.4,0c0,0.7,0,1.4,0,2.1C345.4,104.3,342.3,104.3,339.1,104.3z"/>
</g>
</svg>
