<?xml version="1.0" encoding="utf-8"?>
<!-- Generator: Adobe Illustrator 23.1.0, SVG Export Plug-In . SVG Version: 6.00 Build 0)  -->
<svg version="1.1" id="Слой_1" xmlns="http://www.w3.org/2000/svg" xmlns:xlink="http://www.w3.org/1999/xlink" x="0px" y="0px"
	 viewBox="0 0 285.7 79.7" style="enable-background:new 0 0 285.7 79.7;" xml:space="preserve">
<g>
	<g>
		<path d="M120,9.8h3.8v25.5h-4.4V19.6c0-0.8,0.1-1.7,0.2-2.7c-0.4,1.2-0.8,2-1.2,2.7l-7.8,12.8h-1l-7.8-12.8
			c-0.6-0.9-1-1.8-1.2-2.6l0.1,2.7v15.8h-3.9V9.8h3.9l9.7,15.4L120,9.8z"/>
		<path d="M142,9.8v25.5h-4.8V9.8H142z"/>
		<path d="M173.2,14.5h-13v16.2h13v-5.5l4.8,1.2v2.9c0,2.3-0.4,3.9-1.1,4.8c-0.7,0.8-2,1.2-4,1.2h-12.3c-2,0-3.3-0.4-4-1.2
			c-0.7-0.9-1.1-2.5-1.1-4.8V15.8c0-2.3,0.4-3.9,1.1-4.8c0.7-0.8,2-1.2,4-1.2h12.3c2,0,3.3,0.4,4,1.2c0.7,0.9,1.1,2.5,1.1,4.8v2.5
			l-4.8,0.9V14.5z"/>
		<path d="M191.2,9.8H209c1.5,0,2.7,0.3,3.4,1c0.8,0.8,1.2,2.1,1.2,3.9v6.1c0,1.7-0.4,2.9-1.1,3.7c-0.7,0.8-1.9,1.1-3.5,1.1h-2.8
			l9.5,9.7h-6.9l-8.3-9.7H196v9.7h-4.8V9.8z M207,14.2H196v7.2h11c0.6,0,1-0.1,1.3-0.4c0.3-0.3,0.5-0.9,0.5-1.6v-3.1
			c0-0.8-0.2-1.3-0.5-1.6C208.1,14.3,207.6,14.2,207,14.2z"/>
		<path d="M226.2,29.3V15.8c0-2.3,0.4-3.9,1.1-4.8c0.7-0.8,2-1.2,4-1.2h15.2c2,0,3.3,0.4,4,1.2c0.7,0.9,1.1,2.5,1.1,4.8v13.5
			c0,2.3-0.4,3.9-1.1,4.8c-0.7,0.8-2,1.2-4,1.2h-15.2c-2,0-3.3-0.4-4-1.2C226.6,33.2,226.2,31.6,226.2,29.3z M231,30.7h15.9V14.5
			H231V30.7z"/>
	</g>
</g>
<g>
	<path d="M96.8,42.2h22v4.7h-16.9v6.7h9.1v4.7h-9.1v9.5h-5V42.2z"/>
	<path d="M124.3,61.7V48.3c0-2.3,0.4-3.9,1.2-4.8c0.7-0.8,2.1-1.2,4.2-1.2h16c2.1,0,3.5,0.4,4.2,1.2c0.8,0.9,1.2,2.5,1.2,4.8v13.5
		c0,2.3-0.4,3.9-1.2,4.8c-0.7,0.8-2.1,1.2-4.2,1.2h-16c-2.1,0-3.5-0.4-4.2-1.2C124.7,65.6,124.3,64,124.3,61.7z M129.4,63.1H146
		V46.9h-16.7V63.1z"/>
	<path d="M179.7,46.9h-13.6v16.2h13.6v-5.5l5,1.2v2.9c0,2.3-0.4,3.9-1.2,4.8c-0.7,0.8-2.1,1.2-4.2,1.2h-13c-2.1,0-3.5-0.4-4.2-1.2
		c-0.8-0.9-1.2-2.5-1.2-4.8V48.3c0-2.3,0.4-3.9,1.2-4.8c0.7-0.8,2.1-1.2,4.2-1.2h13c2.1,0,3.5,0.4,4.2,1.2c0.8,0.9,1.2,2.5,1.2,4.8
		v2.5l-5,0.9V46.9z"/>
	<path d="M200,42.2v20.9h14.4V42.2h5v19.5c0,2.3-0.4,3.9-1.2,4.8c-0.7,0.8-2.1,1.2-4.2,1.2h-13.7c-2.1,0-3.5-0.4-4.2-1.2
		c-0.8-0.9-1.2-2.5-1.2-4.8V42.2H200z"/>
	<path d="M249.2,46.9H235v5.5h13.5c2.1,0,3.5,0.4,4.2,1.2c0.8,0.9,1.2,2.3,1.2,4.2v4.6c0,1.8-0.4,3.2-1.2,4.1
		c-0.8,0.8-2,1.2-3.6,1.2h-14.4c-1.9,0-3.1-0.4-3.9-1.2c-0.8-0.9-1.2-2.5-1.2-4.8v-0.5l4.5-1.1v3h15.4V57h-14.1
		c-1.7,0-3-0.4-3.7-1.2c-0.8-0.9-1.2-2.5-1.2-4.9v-2.7c0-2.4,0.4-4,1.2-4.8c0.7-0.8,2-1.2,3.7-1.2h13.1c1.9,0,3.2,0.4,4,1.3
		c0.7,0.9,1.1,2.3,1.1,4.3v0.7l-4.5,1.2V46.9z"/>
</g>
<g>
	<polygon points="36.4,21.7 24.6,21.7 24.6,68.7 71.6,68.7 71.6,57.3 36.4,57.3 	"/>
	<polygon points="83.4,10.3 36.4,10.3 36.4,21.7 71.6,21.7 71.6,57.3 83.4,57.3 	"/>
</g>
<g>
	<path d="M259.4,10.6C259.4,10.6,259.4,10.6,259.4,10.6c1.1,0,2,0.4,2.9,0.9c1.2,0.8,1.9,1.9,2.2,3.3c0.1,0.4,0.1,0.8,0.1,1.2
		c0,1.2-0.4,2.3-1.2,3.3c-0.6,0.8-1.4,1.4-2.4,1.7c-0.5,0.2-1,0.3-1.5,0.3c-1.3,0-2.5-0.3-3.5-1.2c-1-0.8-1.6-1.8-1.9-3
		c-0.1-0.4-0.1-0.7-0.1-1.1c0-1.2,0.4-2.4,1.2-3.3c0.6-0.8,1.4-1.4,2.4-1.7c0.5-0.2,1-0.3,1.5-0.3c0,0,0,0,0.1,0
		C259.2,10.6,259.3,10.6,259.4,10.6z M259.2,11.6c-2.3,0-4.2,1.9-4.2,4.2c0,2.4,1.9,4.3,4.3,4.3c2.4,0,4.2-1.9,4.2-4.2
		C263.5,13.5,261.6,11.6,259.2,11.6z"/>
	<path d="M256.7,12.9c0.3,0,0.7,0,1.1,0c0.8,0,1.6,0,2.5,0c0.4,0,0.8,0.2,1.1,0.4c0.3,0.3,0.6,0.6,0.6,1.1c0.1,0.6,0,1.1-0.4,1.5
		c-0.3,0.4-0.7,0.6-1.1,0.7c0,0-0.1,0-0.1,0l1.5,2.2h-1.4l-1.4-2.1c-0.3,0-1,0-1,0c0,0.7,0,2.1,0,2.1s-0.9,0-1.3,0
		C256.7,16.8,256.7,14.9,256.7,12.9z M258,15.1C258,15.1,258.1,15.1,258,15.1c0.7,0,1.4,0,2.1,0c0.3,0,0.5-0.3,0.3-0.6
		c-0.1-0.1-0.2-0.2-0.4-0.2c-0.6,0-1.3,0-1.9,0c0,0-0.1,0-0.1,0C258,14.7,258,14.9,258,15.1z"/>
</g>
</svg>
