<?xml version="1.0" encoding="utf-8"?>
<!-- Generator: Adobe Illustrator 23.1.0, SVG Export Plug-In . SVG Version: 6.00 Build 0)  -->
<svg version="1.1" id="Слой_1" xmlns="http://www.w3.org/2000/svg" xmlns:xlink="http://www.w3.org/1999/xlink" x="0px" y="0px"
	 viewBox="0 0 262.5 79.7" style="enable-background:new 0 0 262.5 79.7;" xml:space="preserve">
<g>
	<path d="M138.6,26.1h-3.8v12.3h3.9c2.7,0,4.6-0.5,5.7-1.4c1.2-0.9,1.7-2.5,1.7-4.7c0-2.2-0.6-3.8-1.8-4.7
		C143.2,26.5,141.2,26.1,138.6,26.1z"/>
	<polygon points="98.7,45.5 110.1,45.5 104.4,28.8 	"/>
	<path d="M52.1,3.9v72.4h73.2l69.2-72.4H52.1z M139.3,46.8h-4.5v14.8H128h-3.3h-9.1l-2.9-8.5H96.2l-2.9,8.5H80.9l1.4-3.6
		c-0.2,0.2-0.4,0.4-0.6,0.6c-3.1,2.8-7.4,4.2-13,4.2c-2.8,0-5.7-0.5-8.7-1.6c-2.6-0.9-4.8-2.1-6.7-3.4l5.1-9.3
		c3,3.1,7.4,4.8,11.3,4.8c1.5,0,2.8-0.4,3.9-1.3c1.1-0.8,1.6-1.9,1.6-3.1c0-2.4-2.5-4.5-8-5.7c-3.8-0.9-6.9-2.4-8.6-4.4
		c-1.7-1.9-2.5-4.5-2.5-7.9c0-4.5,1.4-8.1,4.3-10.8c2.9-2.7,6.6-4.1,11.3-4.1c4.8,0,8.4,1.2,12.7,3.7l-4.6,9c-0.7-0.7-1.7-1.4-3.1-2
		c-1.6-0.7-3-1-4.4-1c-1.4,0-2.9,0.3-4,0.8c-1.5,0.8-2,2.3-2,3.3c0,1.2,0.5,2.1,1.5,2.8c1.2,0.8,3.6,1.7,7.4,2.8
		c6.7,2,11,5.3,11,11.3c0,0.3,0,0.6,0,0.9l11.5-30.4h13.5l13.5,35.7V17.1h12c5.2,0,12.4,1.3,15.3,3.8c2.8,2.5,4.2,6.1,4.2,10.8
		C156.1,41.8,149.7,46.8,139.3,46.8z"/>
</g>
<g>
	<path d="M146.3,65.8C146.3,65.8,146.3,65.9,146.3,65.8c1.1,0,2,0.4,2.9,0.9c1.2,0.8,1.9,1.9,2.2,3.3c0.1,0.4,0.1,0.8,0.1,1.2
		c0,1.2-0.4,2.3-1.2,3.3c-0.6,0.8-1.4,1.4-2.4,1.7c-0.5,0.2-1,0.3-1.5,0.3c-1.3,0-2.5-0.3-3.5-1.2c-1-0.8-1.6-1.8-1.9-3
		c-0.1-0.4-0.1-0.7-0.1-1.1c0-1.2,0.4-2.4,1.2-3.3c0.6-0.8,1.4-1.4,2.4-1.7c0.5-0.2,1-0.3,1.5-0.3c0,0,0,0,0.1,0
		C146.1,65.8,146.2,65.8,146.3,65.8z M146.2,66.8c-2.3,0-4.2,1.9-4.2,4.2c0,2.4,1.9,4.3,4.3,4.3c2.4,0,4.2-1.9,4.2-4.2
		C150.4,68.7,148.5,66.8,146.2,66.8z"/>
	<path d="M143.6,68.2c0.3,0,0.7,0,1.1,0c0.8,0,1.6,0,2.5,0c0.4,0,0.8,0.2,1.1,0.4c0.3,0.3,0.6,0.6,0.6,1.1c0.1,0.6,0,1.1-0.4,1.5
		c-0.3,0.4-0.7,0.6-1.1,0.7c0,0-0.1,0-0.1,0l1.5,2.2h-1.4l-1.4-2.1c-0.3,0-1,0-1,0c0,0.7,0,2.1,0,2.1s-0.9,0-1.3,0
		C143.6,72.1,143.6,70.1,143.6,68.2z M145,70.4C145,70.4,145,70.4,145,70.4c0.7,0,1.4,0,2.1,0c0.3,0,0.5-0.3,0.3-0.6
		c-0.1-0.1-0.2-0.2-0.4-0.2c-0.6,0-1.3,0-1.9,0c0,0-0.1,0-0.1,0C145,69.9,145,70.1,145,70.4z"/>
</g>
</svg>
