<?xml version="1.0" encoding="utf-8"?>
<!-- Generator: Adobe Illustrator 23.1.0, SVG Export Plug-In . SVG Version: 6.00 Build 0)  -->
<svg version="1.1" id="Слой_1" xmlns="http://www.w3.org/2000/svg" xmlns:xlink="http://www.w3.org/1999/xlink" x="0px" y="0px"
	 viewBox="0 0 262.5 116.9" style="enable-background:new 0 0 262.5 116.9;" xml:space="preserve">
<style type="text/css">
	.st0{fill:#FFFFFF;}
</style>
<g>
	<path class="st0" d="M82.9,103.4V71.1h8.8v32.3H82.9z"/>
	<path class="st0" d="M168.6,99.4c-3.4-3.3-5.2-7.4-5.2-12.1s1.7-8.8,5.2-12.1c3.4-3.3,7.7-5,12.9-5c5.1,0,9.4,1.7,12.9,5
		c3.4,3.3,5.2,7.4,5.2,12.1s-1.7,8.8-5.2,12.1c-3.4,3.3-7.7,5-12.9,5C176.4,104.4,172.1,102.7,168.6,99.4z M175.1,80.9
		c-1.7,1.7-2.6,3.9-2.6,6.4s0.9,4.7,2.6,6.4c1.7,1.7,3.9,2.6,6.4,2.6c2.5,0,4.7-0.9,6.4-2.6c1.7-1.7,2.6-3.9,2.6-6.4
		s-0.9-4.7-2.6-6.4c-1.7-1.7-3.9-2.6-6.4-2.6C179,78.3,176.8,79.1,175.1,80.9z"/>
	<path class="st0" d="M72.3,95.6c-2.1,0.5-3.6,0.7-5.7,0.7c-3.1,0-5.3-0.9-7-2.6c-1.7-1.7-2.6-3.9-2.6-6.4s0.9-4.7,2.6-6.4
		c1.7-1.7,3.9-2.4,6.4-2.6c2.2-0.2,4.2,0.2,6.4,0.8v-7.8c-2-0.7-4.1-1.1-6.4-1.1c-5.1,0-9.4,1.7-12.9,5c-3.4,3.3-5.2,7.4-5.2,12.1
		s1.7,8.8,5.2,12.1c3.4,3.3,7.7,5,12.9,5c2.3,0,4.4-0.4,6.4-1V95.6z"/>
	<path class="st0" d="M155.6,95.6c-2.1,0.5-3.6,0.7-5.7,0.7c-3.1,0-5.3-0.9-7-2.6c-1.7-1.7-2.6-3.9-2.6-6.4s0.9-4.7,2.6-6.4
		c1.7-1.7,3.9-2.4,6.4-2.6c2.2-0.2,4.2,0.2,6.4,0.8v-7.8c-2-0.7-4.1-1.1-6.4-1.1c-5.1,0-9.4,1.7-12.9,5c-3.4,3.3-5.2,7.4-5.2,12.1
		s1.7,8.8,5.2,12.1c3.4,3.3,7.7,5,12.9,5c2.3,0,4.4-0.4,6.4-1V95.6z"/>
	<path class="st0" d="M121.2,86.3c-1.1-0.7-2.3-1.3-3.7-1.9s-2.5-1-3.7-1.3s-2.1-0.7-2.8-1.2c-0.8-0.5-1.1-1.1-1.1-1.8
		c0-0.6,0.3-1.2,0.9-1.6c0.6-0.4,2-0.7,3.2-0.7c2-0.1,4.2,0.2,7.8,0.8v-7.4c-3.7-0.7-6.9-0.9-9.1-0.9c-3.7,0-6.6,1-8.9,3
		c-2.2,2-3.4,4.3-3.4,7c0,1.8,0.4,3.3,1.1,4.6c0.8,1.3,1.7,2.3,2.8,3c1.1,0.7,2.3,1.3,3.7,1.9c1.3,0.6,2.5,1,3.7,1.3
		s2.1,0.7,2.8,1.2c0.8,0.5,1.1,1.1,1.1,1.8c0,0.8-0.4,1.4-1.1,2c-0.7,0.5-1.7,0.8-3.1,0.8c-4,0-9.4-1.5-9.4-1.5v7.5
		c2.4,1.1,7.4,1.6,10.4,1.6c3.8,0,6.9-1,9.2-3c2.3-2,3.5-4.5,3.5-7.4c0-1.8-0.4-3.3-1.1-4.6S122.3,87,121.2,86.3z"/>
</g>
<path class="st0" d="M36.2,49.8L36.2,49.8c-2.3,0-4.2-1.9-4.2-4.2v-8.9c0-2.3,1.9-4.2,4.2-4.2h0c2.3,0,4.2,1.9,4.2,4.2v8.9
	C40.4,47.9,38.5,49.8,36.2,49.8z"/>
<path class="st0" d="M57.4,49.8L57.4,49.8c-2.3,0-4.2-1.9-4.2-4.2V26.5c0-2.3,1.9-4.2,4.2-4.2h0c2.3,0,4.2,1.9,4.2,4.2v19.1
	C61.5,47.9,59.7,49.8,57.4,49.8z"/>
<path class="st0" d="M101.4,49.8L101.4,49.8c-2.3,0-4.2-1.9-4.2-4.2V26.5c0-2.3,1.9-4.2,4.2-4.2h0c2.3,0,4.2,1.9,4.2,4.2v19.1
	C105.5,47.9,103.7,49.8,101.4,49.8z"/>
<path class="st0" d="M79.4,57.8L79.4,57.8c-2.3,0-4.2-1.9-4.2-4.2V11.7c0-2.3,1.9-4.2,4.2-4.2h0c2.3,0,4.2,1.9,4.2,4.2v41.9
	C83.5,55.9,81.7,57.8,79.4,57.8z"/>
<path class="st0" d="M165.7,57.8L165.7,57.8c-2.3,0-4.2-1.9-4.2-4.2V11.7c0-2.3,1.9-4.2,4.2-4.2h0c2.3,0,4.2,1.9,4.2,4.2v41.9
	C169.9,55.9,168,57.8,165.7,57.8z"/>
<path class="st0" d="M122.5,49.8L122.5,49.8c-2.3,0-4.2-1.9-4.2-4.2v-8.9c0-2.3,1.9-4.2,4.2-4.2h0c2.3,0,4.2,1.9,4.2,4.2v8.9
	C126.7,47.9,124.8,49.8,122.5,49.8z"/>
<path class="st0" d="M143.7,49.8L143.7,49.8c-2.3,0-4.2-1.9-4.2-4.2V26.5c0-2.3,1.9-4.2,4.2-4.2h0c2.3,0,4.2,1.9,4.2,4.2v19.1
	C147.9,47.9,146,49.8,143.7,49.8z"/>
<path class="st0" d="M187.7,49.8L187.7,49.8c-2.3,0-4.2-1.9-4.2-4.2V26.5c0-2.3,1.9-4.2,4.2-4.2h0c2.3,0,4.2,1.9,4.2,4.2v19.1
	C191.9,47.9,190,49.8,187.7,49.8z"/>
<path class="st0" d="M208.8,49.8L208.8,49.8c-2.3,0-4.2-1.9-4.2-4.2v-8.9c0-2.3,1.9-4.2,4.2-4.2h0c2.3,0,4.2,1.9,4.2,4.2v8.9
	C213,47.9,211.2,49.8,208.8,49.8z"/>
</svg>
