<?xml version="1.0" encoding="utf-8"?>
<!-- Generator: Adobe Illustrator 23.1.0, SVG Export Plug-In . SVG Version: 6.00 Build 0)  -->
<svg version="1.1" id="Слой_1" xmlns="http://www.w3.org/2000/svg" xmlns:xlink="http://www.w3.org/1999/xlink" x="0px" y="0px"
	 viewBox="0 0 285.7 79.7" style="enable-background:new 0 0 285.7 79.7;" xml:space="preserve">
<style type="text/css">
	.st0{fill:#FFFFFF;}
</style>
<g>
	<path class="st0" d="M14.4,58.3c0-12.8,0-25.5,0-38.3c0.5,0,0.9-0.1,1.4-0.1c4.9,0,9.9,0,14.8,0c5.8,0,11.1,1.7,15.1,6.1
		c1.2,1.3,1.5,1.8,2.5,3.3c0.3,0.4,1.1,2.1,1.5,2.9c6.8-5.4,13.8-10.8,20.6-16.2c2.4,1.9,4.7,3.7,7.3,5.7
		c-6.2,4.9-12.4,9.7-18.7,14.7c1.4,1.1,2.6,2,3.9,3c6.2-4.9,12.4-9.7,18.7-14.7c2.4,1.9,4.8,3.7,7.3,5.7
		c-6.2,4.9-12.4,9.7-18.7,14.7c1.4,1.1,2.6,2,3.9,3.1c6.3-5,12.5-9.9,18.9-14.9c0-4.4,0-8.8,0-13.4c4.5,0,8.7,0,13.2,0
		c0,9.2,0,18.3,0,27.5c4.6,0,9,0,13.4,0c0,3.7,0,7.3,0,11c-8.7,0-17.5,0-26.6,0c0-4.4,0-9.3,0-13.7l-0.5,0.3
		C85,50.9,77.7,56.7,70.2,62.5c-6.8-5.4-13.6-10.7-20.4-16.1c-0.3,0.6-0.6,1-0.8,1.4c-3.6,6.5-9.1,10.2-16.6,10.5
		c-5.6,0.2-11.3,0.1-17,0.1C15.2,58.4,14.8,58.3,14.4,58.3z M27,47.7c1.4,0,2.7,0.1,4,0c2.1-0.2,4-0.8,5.5-2.3
		c2.6-2.6,3.1-7.6,1.1-10.9c-1.9-3-6.8-4.6-10.6-3.4C27,36.5,27,41.9,27,47.7z"/>
	<path class="st0" d="M123.6,19.9c4.3,0,8.6,0,13.1,0c0,9.2,0,18.2,0,27.5c4.6,0,9,0,13.5,0c0,3.8,0,7.4,0,11.1
		c-8.8,0-17.6,0-26.6,0C123.6,45.7,123.6,32.9,123.6,19.9z"/>
</g>
<g>
	<path class="st0" d="M185.6,16.9v3.4h-23.8v14.5h21.4v3.4h-21.4v17h24.3v3.4h-28.3V16.9H185.6z"/>
	<path class="st0" d="M197.6,16.9l13.6,36.7h0.1l13.4-36.7h6v41.6h-3.9V21.4h-0.1L213,58.5h-3.7l-13.7-37.1h-0.1v37.1h-3.9V16.9
		H197.6z"/>
	<path class="st0" d="M268.3,29c-0.8-3.5-2.3-6.1-4.5-7.6c-2.2-1.5-5.1-2.3-8.6-2.3c-2.5,0-4.7,0.5-6.5,1.5c-1.8,1-3.3,2.4-4.5,4
		c-1.2,1.7-2,3.7-2.6,5.9c-0.6,2.2-0.8,4.6-0.8,7c0,2.3,0.2,4.6,0.7,6.8c0.5,2.2,1.3,4.2,2.4,6c1.1,1.8,2.6,3.2,4.5,4.2
		c1.9,1.1,4.3,1.6,7.1,1.6c1.8,0,3.4-0.3,4.9-0.9c1.5-0.6,2.7-1.4,3.8-2.4c1.1-1,2-2.2,2.8-3.6c0.8-1.4,1.3-2.9,1.7-4.6h4.1
		c-0.5,2-1.1,3.9-2,5.7c-0.9,1.8-2.1,3.4-3.5,4.7s-3.2,2.4-5.3,3.2c-2.1,0.8-4.5,1.2-7.3,1.2c-3.2,0-5.9-0.6-8.2-1.8
		c-2.3-1.2-4.1-2.8-5.6-4.8c-1.4-2-2.5-4.3-3.1-7c-0.7-2.6-1-5.4-1-8.4c0-4,0.5-7.3,1.5-10.1c1-2.8,2.3-5,4.1-6.8
		c1.7-1.8,3.8-3,6.1-3.8c2.3-0.8,4.9-1.2,7.7-1.2c2.1,0,4.1,0.3,5.9,0.8c1.8,0.6,3.4,1.4,4.9,2.5c1.4,1.1,2.6,2.5,3.5,4.1
		c0.9,1.6,1.5,3.5,1.9,5.7H268.3z"/>
</g>
</svg>
