<?xml version="1.0" encoding="utf-8"?>
<!-- Generator: Adobe Illustrator 23.1.0, SVG Export Plug-In . SVG Version: 6.00 Build 0)  -->
<svg version="1.1" id="Слой_1" xmlns="http://www.w3.org/2000/svg" xmlns:xlink="http://www.w3.org/1999/xlink" x="0px" y="0px"
	 viewBox="0 0 285.7 79.7" style="enable-background:new 0 0 285.7 79.7;" xml:space="preserve">
<style type="text/css">
	.st0{fill:#FFFFFF;}
</style>
<g>
	<path class="st0" d="M35.7,50.3h-5.2l-1.7-4.6h-8.7l-1.7,4.6h-5.2l8.5-21.8h5.5L35.7,50.3z M27.5,41.8l-3-8.2l-3,8.2H27.5z"/>
	<path class="st0" d="M54.4,35.3c0,4.8-2.6,7.2-7.7,7.2h-2.9v7.8H39V28.4h7.3c2.6,0,4.6,0.6,6,1.8C53.7,31.4,54.4,33.1,54.4,35.3z
		 M49.4,35.4c0-2-1.3-3-4-3h-1.5v6.1h1.6C48.1,38.5,49.4,37.5,49.4,35.4z"/>
	<path class="st0" d="M71.6,32.6h-4.9v17.6h-4.9V32.6h-4.9v-4.2h14.7V32.6z"/>
	<path class="st0" d="M80.2,50.3h-4.9V28.4h4.9V50.3z"/>
	<path class="st0" d="M105,28.4l-8.8,21.8h-4.1l-8.7-21.8h5.3l5.4,15.1l5.5-15.1H105z"/>
	<path class="st0" d="M160.3,49.7c-1.8,0.8-4.8,1.2-6.4,1.2c-3.4,0-6.2-1.1-8.4-3.3c-2.2-2.2-3.3-4.9-3.3-8.2c0-3.2,1.1-6,3.4-8.2
		c2.3-2.2,5-3.3,8.3-3.3c1.8,0,4.8,0.4,6.4,1.2v4.6c-2.1-1-3-1.3-5.4-1.3c-1.9,0-4.1,0.5-5.6,1.9c-1.3,1.2-2,3-2,5
		c0,2,0.6,3.7,1.9,4.9c1.2,1.2,3,2.1,5.8,2.1c2,0,3.4-0.3,5.4-1.7V49.7z"/>
	<path class="st0" d="M126.9,50.3h-5.2l-1.7-4.6h-8.7l-1.7,4.6h-5.2l8.5-21.8h5.5L126.9,50.3z M118.7,41.8l-3-8.2l-3,8.2H118.7z"/>
	<path class="st0" d="M189,39.3c0,3.2-1.1,6-3.4,8.2c-2.3,2.2-5.1,3.3-8.5,3.3c-3.4,0-6.2-1.1-8.5-3.3c-2.3-2.2-3.4-4.9-3.4-8.2
		c0-3.2,1.1-6,3.4-8.2c2.3-2.2,5.1-3.3,8.5-3.3c3.4,0,6.2,1.1,8.5,3.3S189,36.1,189,39.3z M184,39.3c0-1.9-0.7-3.5-2-4.8
		s-2.9-2-4.9-2c-1.9,0-3.5,0.7-4.9,2c-1.3,1.3-2,2.9-2,4.8c0,1.9,0.7,3.5,2,4.8c1.3,1.3,2.9,2,4.9,2c1.9,0,3.6-0.7,4.9-2
		C183.3,42.8,184,41.2,184,39.3z"/>
	<path class="st0" d="M211,50.3h-6.1l-5.4-8.4l-0.5-0.1v8.5h-4.9V28.4h7.3c2.4,0,4.3,0.6,5.7,1.7c1.3,1.2,2,2.8,2,4.9
		c0,1.5-0.4,2.7-1.2,3.9c-0.9,1.2-2.1,1.9-3.6,2.2L211,50.3z M204,35.3c0-2-1.4-3-4.1-3h-1v6.1h1C202.7,38.4,204,37.3,204,35.3z"/>
	<path class="st0" d="M229.1,35.3c0,4.8-2.6,7.2-7.7,7.2h-2.9v7.8h-4.9V28.4h7.3c2.6,0,4.6,0.6,6,1.8
		C228.4,31.4,229.1,33.1,229.1,35.3z M224.1,35.4c0-2-1.3-3-4-3h-1.5v6.1h1.6C222.8,38.5,224.1,37.5,224.1,35.4z"/>
</g>
<g>
	<polygon class="st0" points="243.6,51.3 229.4,51.3 242.2,31 229.4,10.7 243.6,10.7 256.4,31 	"/>
</g>
<g>
	<polygon class="st0" points="262.1,51.3 247.9,51.3 260.7,31 247.9,10.7 262.1,10.7 274.9,31 	"/>
</g>
<g>
	<path class="st0" d="M141.5,66.9l-0.5-8.5h1.7l0.3,6.5h0l2.8-6.5h2.3l0,6.5h0l3-6.5h1.8l-4.1,8.5h-2.1l-0.1-6.8h0l-3,6.8H141.5z"/>
	<path class="st0" d="M156.1,66.9l0.2-1h0c-0.3,0.4-0.6,0.7-0.9,0.8c-0.3,0.2-0.7,0.3-1.1,0.3c-0.6,0-1.1-0.2-1.4-0.5
		s-0.5-0.8-0.5-1.3c0-0.4,0.1-0.7,0.3-1c0.2-0.3,0.4-0.5,0.6-0.7c0.3-0.2,0.6-0.3,0.9-0.4c0.4-0.1,0.7-0.1,1-0.2c0.3,0,0.6,0,1,0
		h0.6c0-0.1,0-0.3,0-0.5c0-0.3-0.1-0.5-0.4-0.6s-0.5-0.2-0.9-0.2c-0.7,0-1.4,0.2-2.1,0.5l0.2-1.3c0.7-0.3,1.4-0.4,2.1-0.4
		c0.7,0,1.3,0.2,1.8,0.5s0.7,0.8,0.7,1.5c0,0.3-0.1,1.1-0.4,2.2s-0.4,1.9-0.4,2.2H156.1z M153.9,65.2c0,0.2,0.1,0.4,0.2,0.5
		c0.2,0.1,0.4,0.2,0.6,0.2c0.6,0,1-0.2,1.2-0.5s0.5-0.8,0.6-1.4H156C154.6,64,153.9,64.4,153.9,65.2z"/>
	<path class="st0" d="M159.9,60.6h1.7l0.6,4.7h0l2.5-4.7h1.8l-4.3,7.2c-0.2,0.4-0.4,0.6-0.6,0.9s-0.4,0.4-0.8,0.6
		c-0.3,0.2-0.7,0.3-1.2,0.3c-0.4,0-0.8-0.1-1.2-0.2l0.4-1.2c0.3,0.1,0.5,0.1,0.7,0.1c0.3,0,0.5-0.1,0.7-0.2s0.5-0.5,0.7-0.9
		L159.9,60.6z"/>
	<path class="st0" d="M173.9,60.5c0.9,0,1.6,0.2,2.1,0.7c0.5,0.5,0.8,1.2,0.8,2c0,1.1-0.3,2-1,2.7c-0.7,0.7-1.6,1.1-2.7,1.1
		c-0.9,0-1.6-0.3-2.1-0.8c-0.5-0.5-0.8-1.2-0.8-2.1c0-1.1,0.4-1.9,1.1-2.6C172,60.8,172.9,60.5,173.9,60.5z M173.2,65.8
		c0.4,0,0.7-0.1,1.1-0.4c0.3-0.3,0.5-0.6,0.7-1c0.1-0.4,0.2-0.8,0.2-1.1c0-1-0.4-1.5-1.2-1.5c-0.4,0-0.8,0.1-1.1,0.4
		c-0.3,0.3-0.5,0.6-0.7,1c-0.1,0.4-0.2,0.8-0.2,1.2C171.9,65.3,172.3,65.8,173.2,65.8z"/>
	<path class="st0" d="M178.2,66.9l1.1-5.1H178l0.3-1.2h1.3c0.1-0.4,0.2-0.7,0.2-0.9c0.1-0.3,0.2-0.5,0.3-0.8
		c0.1-0.3,0.3-0.5,0.5-0.7s0.4-0.3,0.7-0.4s0.6-0.2,1-0.2c0.3,0,0.7,0.1,1,0.2L183,59c-0.1-0.1-0.3-0.1-0.5-0.1
		c-0.2,0-0.4,0.1-0.5,0.2c-0.2,0.1-0.3,0.2-0.4,0.4c-0.1,0.2-0.2,0.4-0.2,0.5c0,0.1-0.1,0.3-0.1,0.5c0,0,0,0.1,0,0.1h1.5l-0.3,1.2
		h-1.5l-1.1,5.1H178.2z"/>
	<path class="st0" d="M191.4,60.7L191,62c-0.5-0.2-1-0.3-1.3-0.3c-0.3,0-0.5,0-0.8,0.1c-0.2,0.1-0.3,0.3-0.3,0.5
		c0,0.1,0.1,0.3,0.2,0.4c0.1,0.1,0.3,0.3,0.5,0.4s0.4,0.3,0.6,0.4c0.2,0.2,0.4,0.4,0.5,0.6c0.1,0.2,0.2,0.5,0.2,0.8
		c0,0.4-0.1,0.7-0.2,1s-0.4,0.5-0.7,0.7c-0.3,0.2-0.6,0.3-0.9,0.3c-0.3,0.1-0.7,0.1-1,0.1c-0.7,0-1.4-0.1-1.9-0.4l0.4-1.3
		c0.6,0.3,1.1,0.5,1.6,0.5c0.3,0,0.6-0.1,0.8-0.2c0.2-0.1,0.3-0.3,0.3-0.5c0-0.2-0.1-0.4-0.2-0.5c-0.1-0.2-0.3-0.3-0.5-0.4
		c-0.2-0.1-0.4-0.3-0.6-0.4c-0.2-0.1-0.4-0.3-0.5-0.6s-0.2-0.5-0.2-0.8c0-0.4,0.1-0.7,0.2-0.9c0.2-0.3,0.4-0.5,0.6-0.6
		c0.3-0.2,0.6-0.3,0.9-0.3s0.6-0.1,1-0.1C190.1,60.5,190.7,60.6,191.4,60.7z"/>
	<path class="st0" d="M198.9,60.6l-1.2,5.4c-0.1,0.4-0.1,0.7-0.2,0.9H196l0.1-0.6h0c-0.5,0.5-1.1,0.8-1.8,0.8
		c-0.6,0-1.1-0.2-1.5-0.5s-0.6-0.9-0.6-1.5c0-0.3,0.1-0.7,0.2-1.4l0.7-3.1h1.6l-0.6,3c-0.1,0.6-0.2,1.1-0.2,1.3
		c0,0.3,0.1,0.5,0.3,0.6c0.2,0.2,0.4,0.2,0.6,0.2c0.9,0,1.5-0.7,1.8-2l0.7-3.2H198.9z"/>
	<path class="st0" d="M205.2,60.7l-0.4,1.3c-0.3-0.2-0.7-0.3-1.2-0.3c-0.6,0-1.1,0.2-1.5,0.7c-0.4,0.5-0.6,1-0.6,1.7
		c0,1.1,0.5,1.6,1.4,1.6c0.4,0,0.9-0.1,1.3-0.3l-0.2,1.3c-0.4,0.2-0.9,0.3-1.6,0.3c-0.8,0-1.5-0.2-1.9-0.7s-0.7-1.2-0.7-2
		c0-1.1,0.3-2,1-2.8c0.7-0.7,1.6-1.1,2.7-1.1C204.1,60.5,204.6,60.5,205.2,60.7z"/>
	<path class="st0" d="M210.8,60.7l-0.4,1.3c-0.3-0.2-0.7-0.3-1.2-0.3c-0.6,0-1.1,0.2-1.5,0.7c-0.4,0.5-0.6,1-0.6,1.7
		c0,1.1,0.5,1.6,1.4,1.6c0.4,0,0.9-0.1,1.3-0.3l-0.2,1.3c-0.4,0.2-0.9,0.3-1.6,0.3c-0.8,0-1.5-0.2-1.9-0.7s-0.7-1.2-0.7-2
		c0-1.1,0.3-2,1-2.8c0.7-0.7,1.6-1.1,2.7-1.1C209.7,60.5,210.3,60.5,210.8,60.7z"/>
	<path class="st0" d="M217,64.3h-4.4c0,0.6,0.1,1,0.4,1.2c0.3,0.2,0.7,0.4,1.3,0.4c0.6,0,1.3-0.2,1.9-0.5l-0.2,1.3
		c-0.8,0.2-1.4,0.4-2,0.4c-0.9,0-1.7-0.2-2.2-0.7c-0.5-0.5-0.8-1.1-0.8-2.1c0-1,0.3-1.9,1-2.7s1.5-1.2,2.5-1.2
		c0.8,0,1.4,0.2,1.9,0.6c0.5,0.4,0.7,1,0.7,1.8C217.1,63.3,217.1,63.8,217,64.3z M212.8,63.1h2.8c0-0.1,0-0.3,0-0.4
		c0-0.7-0.3-1.1-1-1.1c-0.5,0-0.8,0.1-1.1,0.4S212.9,62.7,212.8,63.1z"/>
	<path class="st0" d="M223,60.7l-0.4,1.2c-0.5-0.2-1-0.3-1.3-0.3c-0.3,0-0.5,0-0.8,0.1c-0.2,0.1-0.3,0.3-0.3,0.5
		c0,0.1,0.1,0.3,0.2,0.4c0.1,0.1,0.3,0.3,0.5,0.4s0.4,0.3,0.6,0.4c0.2,0.2,0.4,0.4,0.5,0.6c0.1,0.2,0.2,0.5,0.2,0.8
		c0,0.4-0.1,0.7-0.2,1s-0.4,0.5-0.7,0.7c-0.3,0.2-0.6,0.3-0.9,0.3c-0.3,0.1-0.7,0.1-1,0.1c-0.7,0-1.4-0.1-1.9-0.4l0.4-1.3
		c0.6,0.3,1.1,0.5,1.6,0.5c0.3,0,0.6-0.1,0.8-0.2c0.2-0.1,0.3-0.3,0.3-0.5c0-0.2-0.1-0.4-0.2-0.5c-0.1-0.2-0.3-0.3-0.5-0.4
		c-0.2-0.1-0.4-0.3-0.6-0.4c-0.2-0.1-0.4-0.3-0.5-0.6s-0.2-0.5-0.2-0.8c0-0.4,0.1-0.7,0.2-0.9c0.2-0.3,0.4-0.5,0.6-0.6
		c0.3-0.2,0.6-0.3,0.9-0.3c0.3-0.1,0.6-0.1,1-0.1C221.7,60.5,222.3,60.6,223,60.7z"/>
	<path class="st0" d="M228.6,60.7l-0.4,1.2c-0.5-0.2-1-0.3-1.3-0.3c-0.3,0-0.5,0-0.8,0.1c-0.2,0.1-0.3,0.3-0.3,0.5
		c0,0.1,0.1,0.3,0.2,0.4c0.1,0.1,0.3,0.3,0.5,0.4s0.4,0.3,0.6,0.4c0.2,0.2,0.4,0.4,0.5,0.6c0.1,0.2,0.2,0.5,0.2,0.8
		c0,0.4-0.1,0.7-0.2,1s-0.4,0.5-0.7,0.7c-0.3,0.2-0.6,0.3-0.9,0.3c-0.3,0.1-0.7,0.1-1,0.1c-0.7,0-1.4-0.1-1.9-0.4l0.4-1.3
		c0.6,0.3,1.1,0.5,1.6,0.5c0.3,0,0.6-0.1,0.8-0.2c0.2-0.1,0.3-0.3,0.3-0.5c0-0.2-0.1-0.4-0.2-0.5c-0.1-0.2-0.3-0.3-0.5-0.4
		c-0.2-0.1-0.4-0.3-0.6-0.4c-0.2-0.1-0.4-0.3-0.5-0.6s-0.2-0.5-0.2-0.8c0-0.4,0.1-0.7,0.2-0.9c0.2-0.3,0.4-0.5,0.6-0.6
		c0.3-0.2,0.6-0.3,0.9-0.3s0.6-0.1,1-0.1C227.4,60.5,228,60.6,228.6,60.7z"/>
</g>
</svg>
