<?xml version="1.0" encoding="utf-8"?>
<!-- Generator: Adobe Illustrator 23.1.0, SVG Export Plug-In . SVG Version: 6.00 Build 0)  -->
<svg version="1.1" id="Слой_1" xmlns="http://www.w3.org/2000/svg" xmlns:xlink="http://www.w3.org/1999/xlink" x="0px" y="0px"
	 viewBox="0 0 262.5 79.7" style="enable-background:new 0 0 262.5 79.7;" xml:space="preserve">
<style type="text/css">
	.st0{fill:#FFFFFF;}
</style>
<g>
	<path class="st0" d="M43.9,55.1H28.5c-8.3,0-15.1-6.8-15.1-15.1c0-8.3,6.8-15.1,15.1-15.1h15.4C52.2,24.9,59,31.7,59,40
		C59,48.3,52.2,55.1,43.9,55.1z M28.5,30.4c-5.3,0-9.6,4.3-9.6,9.6c0,5.3,4.3,9.6,9.6,9.6h15.4c5.3,0,9.6-4.3,9.6-9.6
		c0-5.3-4.3-9.6-9.6-9.6H28.5z"/>
</g>
<g>
	<path class="st0" d="M87.7,55.6L70.6,39.7h15.7c2.6,0,4.7-2.1,4.7-4.7s-2.1-4.7-4.7-4.7H67.7v24.8h-5.5V24.9h24.1
		c5.6,0,10.2,4.6,10.2,10.2s-4.6,10.2-10.2,10.2h-1.7l11.2,10.4H87.7z"/>
</g>
<g>
	<path class="st0" d="M168.5,55.1h-16.8c-8.3,0-15.1-6.8-15.1-15.1c0-8.3,6.8-15.1,15.1-15.1h19.7l-2.9,5.5h-16.8
		c-5.3,0-9.6,4.3-9.6,9.6c0,5.3,4.3,9.6,9.6,9.6h19.7L168.5,55.1z"/>
</g>
<g>
	<path class="st0" d="M203.8,55.1h-24.2c-2.8,0-5.1-2.3-5.1-5.1V25h5.5v24.6h26.8L203.8,55.1z"/>
</g>
<path class="st0" d="M140,55.6l-18.4-28c-0.7-1.1-1.9-1.8-3.3-1.8c-1.3,0-2.5,0.7-3.3,1.8l-18.4,28h6.6l15.1-22.9l7.6,11.5h-13.7
	l2.9,5.5h14.4l3.9,5.9H140z"/>
<path class="st0" d="M211,42.7h24.7l2.9-5.5H211c1.2-4,4.9-6.9,9.2-6.9H237l2.9-5.5h-19.7c-8.3,0-15.1,6.8-15.1,15.1
	c0,8.3,6.8,15.1,15.1,15.1H237l2.9-5.5h-19.7C215.9,49.6,212.2,46.7,211,42.7z"/>
<g>
	<path class="st0" d="M245.9,24.2C245.9,24.2,245.9,24.2,245.9,24.2c0.8,0,1.5,0.3,2.1,0.7c0.9,0.6,1.4,1.4,1.7,2.5
		c0.1,0.3,0.1,0.6,0.1,0.9c0,0.9-0.3,1.7-0.9,2.5c-0.5,0.6-1.1,1-1.8,1.3c-0.4,0.1-0.8,0.2-1.2,0.2c-1,0-1.9-0.3-2.6-0.9
		c-0.7-0.6-1.2-1.3-1.4-2.3c-0.1-0.3-0.1-0.5-0.1-0.8c0-0.9,0.3-1.8,0.9-2.5c0.5-0.6,1.1-1,1.8-1.3c0.4-0.1,0.8-0.2,1.1-0.2
		c0,0,0,0,0.1,0C245.7,24.2,245.8,24.2,245.9,24.2z M245.8,24.9c-1.8,0-3.2,1.4-3.2,3.2c0,1.8,1.4,3.2,3.2,3.2
		c1.8,0,3.2-1.4,3.2-3.2C249,26.3,247.5,24.9,245.8,24.9z"/>
	<path class="st0" d="M243.9,25.9c0.3,0,0.5,0,0.8,0c0.6,0,1.2,0,1.8,0c0.3,0,0.6,0.1,0.8,0.3c0.3,0.2,0.4,0.5,0.5,0.8
		c0.1,0.4,0,0.8-0.3,1.2c-0.2,0.3-0.5,0.4-0.8,0.5c0,0-0.1,0-0.1,0l1.1,1.6h-1.1l-1.1-1.6c-0.2,0-0.7,0-0.7,0c0,0.5,0,1.6,0,1.6
		s-0.7,0-1,0C243.9,28.8,243.9,27.4,243.9,25.9z M244.9,27.6C244.9,27.6,244.9,27.6,244.9,27.6c0.5,0,1.1,0,1.6,0
		c0.2,0,0.4-0.2,0.2-0.4c-0.1-0.1-0.2-0.1-0.3-0.1c-0.5,0-1,0-1.4,0c0,0-0.1,0-0.1,0C244.9,27.2,244.9,27.4,244.9,27.6z"/>
</g>
</svg>
