<svg width="654" height="653" viewBox="0 0 654 653" fill="none" xmlns="http://www.w3.org/2000/svg">
<g clip-path="url(#clip0_386_120385)">
<g filter="url(#filter0_f_386_120385)">
<path d="M296.675 58.7462C362.707 49.4684 424.966 93.9671 426.509 185.026C473.847 183.823 521.184 197.053 526.844 247.737C533.361 306.667 489.283 356.835 438.344 364.911C408.843 372.47 354.817 382.779 295.474 391.197C214.349 402.537 123.276 410.44 70.9646 402.88C60.8454 403.052 51.2407 400.475 43.0082 395.664C39.5779 394.118 37.5198 392.572 36.3192 391.026C22.7697 380.202 14.0226 362.849 13.1651 342.06C11.793 303.918 35.6331 268.697 76.453 259.591C77.3106 259.42 77.9966 259.248 78.8542 259.076C91.0315 257.358 108.526 261.309 114.529 262.684C105.439 228.666 129.622 192.414 162.381 187.775C167.183 187.088 172.157 187.088 177.302 187.947C185.363 115.787 234.759 67.5084 296.675 58.7462Z" fill="#232261" fill-opacity="0.3"/>
</g>
<path fill-rule="evenodd" clip-rule="evenodd" d="M475.252 274.194L491.366 279.679C508.854 279.175 526.342 280.815 541.565 285.408L545.365 286.701C544.769 286.344 544.09 286.152 543.386 285.953C543.077 285.866 542.764 285.777 542.45 285.673L528.187 280.817C527.596 280.607 526.966 280.397 526.336 280.187L528.187 280.817C528.295 280.855 528.401 280.894 528.507 280.932L526.337 280.194C510.737 275.394 493.08 273.679 475.252 274.194Z" fill="#85C5F1"/>
<path fill-rule="evenodd" clip-rule="evenodd" d="M292.863 166.903L292.856 166.901C308.798 157.301 369.529 132.508 422.182 161.872L432.307 166.901C425.51 167.88 409.845 167.635 391.795 167.353C371.453 167.034 348.083 166.669 330.965 167.955C311.65 176.248 291.36 185.131 287.884 188.332L287.882 188.332C282.569 193.303 277.598 198.617 273.142 204.444L257.028 198.959C261.485 193.13 266.456 187.816 271.77 182.845L271.772 182.845C278.285 176.846 285.313 171.532 292.855 166.904L292.863 166.903ZM228.784 278.011L226.171 277.121C227.714 264.093 230.457 251.922 234.4 240.608L235.486 240.978C239.003 229.82 242.994 220.768 245.028 217.125L245.033 217.127C248.632 210.616 252.744 204.619 257.028 198.964L273.142 204.45C268.685 210.107 264.742 216.106 261.142 222.621L261.137 222.619C258.315 227.687 251.244 251.339 246.134 268.432C244.752 273.056 243.513 277.2 242.541 280.367C242.45 281.111 242.365 281.858 242.285 282.607L241.888 282.471C241.504 283.695 241.182 284.688 240.934 285.401L228.784 278.314C228.784 278.213 228.784 278.112 228.784 278.011Z" fill="url(#paint0_linear_386_120385)"/>
<path fill-rule="evenodd" clip-rule="evenodd" d="M191.266 284.174C197.376 280.481 204.15 277.962 211.258 276.947C216.058 276.261 221.029 276.261 226.172 277.118L242.286 282.604C237.143 281.747 232.172 281.747 227.372 282.432C220.394 283.568 214.031 285.933 208.137 289.236L208.343 289.297C205.105 291.172 200.681 294.232 197.766 296.963L197.885 297.004C195.314 299.232 193.085 301.632 191.028 304.375L190.927 304.34C188.898 307.065 186.718 310.591 185.201 313.288L185.028 313.233C183.48 316.136 182.206 319.315 180.934 322.495L181.087 322.547C177.144 333.346 176.287 345.518 179.544 357.346L163.43 351.86C160.178 340.05 161.028 328.068 164.955 317.11L164.801 317.058C165.987 313.67 167.507 310.283 169.196 307.226C170.158 304.551 172.304 301.922 174.077 299.75C174.369 299.393 174.651 299.047 174.916 298.717L175.023 298.753C177.036 296.245 179.214 293.743 181.717 291.565L181.601 291.525C184.515 288.954 187.943 286.212 191.2 284.154L191.266 284.174Z" fill="url(#paint1_linear_386_120385)"/>
<path fill-rule="evenodd" clip-rule="evenodd" d="M100.003 358.886L116.117 364.372C123.488 359.743 132.059 356.315 141.488 354.258C142.173 354.086 143.03 353.915 143.887 353.743C156.059 352.029 173.544 355.972 179.544 357.343L163.43 351.858C157.43 350.486 139.945 346.544 127.774 348.258C127.345 348.344 126.959 348.429 126.574 348.515C126.188 348.601 125.802 348.686 125.374 348.772C115.945 350.829 107.545 354.258 100.003 358.886ZM87.661 368.145L87.9919 368.257L87.4902 368.138C84.4045 371.052 81.6617 374.138 79.0904 377.395L95.2043 382.88C97.0501 380.542 100.044 377.674 102.665 375.164L102.665 375.164C103.695 374.177 104.667 373.246 105.49 372.424L105.21 372.357C108.583 369.433 112.219 366.772 116.118 364.373L100.004 358.888C95.5466 361.631 91.4324 364.716 87.661 368.145ZM72.4046 387.511L72.5487 387.56C70.1612 391.491 68.2836 395.762 66.7464 400.203L66.8373 400.234L66.5756 400.202C63.1471 409.802 61.6043 420.259 61.9471 430.887C62.8026 451.589 71.5132 468.876 85.0112 479.68C86.2399 481.201 88.6048 483.03 91.9464 484.533L93.821 485.229L91.7754 484.532C94.861 486.247 97.9467 487.618 101.204 488.818L117.318 494.304C115.059 493.471 112.882 492.557 110.731 491.502L113.203 492.419C109.774 490.877 101.8 486.076 100.6 484.533L100.214 484.411C87.3939 473.566 78.8969 456.599 78.0611 436.373C77.7182 425.744 81.4895 412.202 84.918 402.431L84.1036 402.332C85.3931 399.079 86.8977 395.945 88.6888 393.003L88.5434 392.953C90.5936 389.369 92.8138 385.956 95.2041 382.883L79.0902 377.397C76.6903 380.654 74.4617 383.911 72.4046 387.511Z" fill="url(#paint2_linear_386_120385)"/>
<g style="mix-blend-mode:lighten" filter="url(#filter1_f_386_120385)">
<path d="M361.597 153.691C427.595 144.434 489.823 188.833 491.366 279.688C538.679 278.488 585.992 291.688 591.649 342.258C598.163 401.057 554.107 451.113 503.194 459.17C473.709 466.712 419.71 476.998 360.397 485.398C279.313 496.712 188.287 504.597 136.002 497.054C125.888 497.226 116.288 494.655 108.06 489.855C104.631 488.312 102.574 486.769 101.374 485.226C87.8317 474.426 79.089 457.113 78.2319 436.37C76.8605 398.314 100.689 363.172 141.488 354.086C142.345 353.915 143.03 353.743 143.888 353.572C156.059 351.858 173.544 355.801 179.544 357.172C170.458 323.23 194.629 287.059 227.371 282.431C232.171 281.745 237.143 281.745 242.285 282.602C250.342 210.604 299.713 162.433 361.597 153.691Z" fill="url(#paint3_linear_386_120385)" fill-opacity="0.6"/>
</g>
<path d="M361.597 153.691C427.595 144.434 489.823 188.833 491.366 279.688C538.679 278.488 585.992 291.688 591.649 342.258C598.163 401.057 554.107 451.113 503.194 459.17C473.709 466.712 419.71 476.998 360.397 485.398C279.313 496.712 188.287 504.597 136.002 497.054C125.888 497.226 116.288 494.655 108.06 489.855C104.631 488.312 102.574 486.769 101.374 485.226C87.8317 474.426 79.089 457.113 78.2319 436.37C76.8605 398.314 100.689 363.172 141.488 354.086C142.345 353.915 143.03 353.743 143.888 353.572C156.059 351.858 173.544 355.801 179.544 357.172C170.458 323.23 194.629 287.059 227.371 282.431C232.171 281.745 237.143 281.745 242.285 282.602C250.342 210.604 299.713 162.433 361.597 153.691Z" fill="url(#paint4_linear_386_120385)"/>
</g>
<defs>
<filter id="filter0_f_386_120385" x="-13.2175" y="31.2146" width="567.03" height="400.971" filterUnits="userSpaceOnUse" color-interpolation-filters="sRGB">
<feFlood flood-opacity="0" result="BackgroundImageFix"/>
<feBlend mode="normal" in="SourceGraphic" in2="BackgroundImageFix" result="shape"/>
<feGaussianBlur stdDeviation="13.1632" result="effect1_foregroundBlur_386_120385"/>
</filter>
<filter id="filter1_f_386_120385" x="37.6737" y="111.986" width="595.119" height="428.542" filterUnits="userSpaceOnUse" color-interpolation-filters="sRGB">
<feFlood flood-opacity="0" result="BackgroundImageFix"/>
<feBlend mode="normal" in="SourceGraphic" in2="BackgroundImageFix" result="shape"/>
<feGaussianBlur stdDeviation="20.2511" result="effect1_foregroundBlur_386_120385"/>
</filter>
<linearGradient id="paint0_linear_386_120385" x1="390.968" y1="112.611" x2="242.258" y2="272.15" gradientUnits="userSpaceOnUse">
<stop stop-color="#99D1F4"/>
<stop offset="0.482292" stop-color="#C4EEFE"/>
<stop offset="1" stop-color="#85C5F1"/>
</linearGradient>
<linearGradient id="paint1_linear_386_120385" x1="224.628" y1="277.29" x2="170.629" y2="351.003" gradientUnits="userSpaceOnUse">
<stop stop-color="#9FD5F5"/>
<stop offset="0.570833" stop-color="#AEDFF9"/>
<stop offset="0.951042" stop-color="#85C5F1"/>
</linearGradient>
<linearGradient id="paint2_linear_386_120385" x1="120.722" y1="347.833" x2="77.2079" y2="470.136" gradientUnits="userSpaceOnUse">
<stop stop-color="#85C5F1"/>
<stop offset="0.523958" stop-color="#BEEAFD"/>
<stop offset="0.77472" stop-color="#85C5F1"/>
<stop offset="1" stop-color="#57A2D6"/>
</linearGradient>
<linearGradient id="paint3_linear_386_120385" x1="335.233" y1="152.488" x2="335.233" y2="500.027" gradientUnits="userSpaceOnUse">
<stop stop-color="#0052FF"/>
<stop offset="1" stop-color="#4300FF"/>
</linearGradient>
<linearGradient id="paint4_linear_386_120385" x1="335.233" y1="152.488" x2="335.233" y2="500.027" gradientUnits="userSpaceOnUse">
<stop stop-color="#E6F8FF"/>
<stop offset="1" stop-color="#C5EFFF"/>
</linearGradient>
<clipPath id="clip0_386_120385">
<rect width="652.084" height="652.084" fill="white" transform="translate(0.958008 0.841797)"/>
</clipPath>
</defs>
</svg>
