<svg width="188" height="161" fill="none" xmlns="http://www.w3.org/2000/svg"><g filter="url(#a)"><path fill-rule="evenodd" clip-rule="evenodd" d="m153.018 22.16-2.397-5.51.094.222 2.406 5.53-.103-.241Zm.103.243-2.398-5.511.025.072a10.76 10.76 0 0 0-.373-.83c-2.034-4.045-6.51-6.428-11.398-6.084l-12.925.91c-5.657.385-11.138 3.032-14.909 7.168l-85.957 94.186c-1.747 1.89-2.173 4.527-1.094 6.666l.179.355 2.247 5.166 9.435 18.721.158.363a5.737 5.737 0 0 0 2.654 2.588l-2.405-5.53.031.015 2.395 5.505c.173.086.363.163.555.24l.018.041.491.147v.001l.081.021.133.031c.072.017.145.033.212.052l-2.406-5.531c-.135-.037-.27-.075-.425-.104l-.464-.139-.01-.022c.42.151.859.259 1.307.323l.003.006-.155-.027c-.088-.015-.165-.028-.234-.045l2.406 5.531c.136.037.262.055.389.072l-.009-.019.38.052-2.404-5.527 2.405 5.526.1.009c.077.006.161.014.242.012l.01.021c.097.006.215.004.334.001l-2.407-5.531-.049.001h-.053l-.065-.001a3.08 3.08 0 0 0-.166 0l-.008-.017c.229.008.458.006.688-.008l2.405 5.527a1.3 1.3 0 0 0 .325-.019c.036-.006.077-.01.12-.014h.001c.063-.006.131-.013.196-.026l-2.406-5.531c-.11.023-.199.037-.317.04-.097.02-.202.024-.293.021a7.113 7.113 0 0 0 3.382-1.113l.005.011c-.183.125-.374.23-.566.336a3.247 3.247 0 0 0-.42.203l2.406 5.531c.141-.061.283-.121.435-.21v-.001c.187-.103.373-.207.552-.329l-.009-.021c.47-.295.914-.652 1.324-1.088l-2.405-5.529v-.001l2.427 5.522L150.62 34.387l-.002-.007c.32-.347.62-.687.884-1.058.257-.348.494-.688.703-1.039l-2.402-5.52h.001l2.401 5.52c.159-.243.304-.52.438-.777l.036-.07-.007-.015c.128-.239.236-.47.337-.72l-2.399-5.516 2.399 5.515c.093-.23.186-.46.27-.71.036-.11.07-.227.104-.343.034-.116.069-.231.105-.342l-.001-.003c.051-.155.087-.317.123-.473.015-.066.029-.13.045-.193l-.011-.026c.049-.201.097-.403.119-.615l-2.393-5.501v-.002l2.394 5.503c.012-.113.026-.22.04-.327.014-.107.027-.215.039-.327l-2.394-5.503v-.001l2.403 5.524a7.35 7.35 0 0 1 .015-.329c.007-.11.014-.22.015-.328v-.001c-.006-.236-.002-.452.001-.668a6.992 6.992 0 0 0-.048-.67l-2.388-5.49 2.389 5.49a3.769 3.769 0 0 0-.047-.458 8.173 8.173 0 0 1-.03-.225l-.001-.003a6.722 6.722 0 0 0-.134-.702l-2.406-5.531.026.129a10.73 10.73 0 0 0-.034-.15l2.406 5.53-.024-.096a7.899 7.899 0 0 0-.176-.653l-2.374-5.401c-.042-.14-.087-.278-.135-.416.036.097.072.193.103.287l2.406 5.53c-.092-.27-.183-.541-.295-.803Zm-4.263 5.704Zm-.502.584a9.727 9.727 0 0 1-.162.174l.001.002.161-.176ZM44.321 139.17c-.307.312-.636.59-.982.832.35-.232.684-.519.982-.832Zm-5.401 2.114a6.213 6.213 0 0 1-.237-.016c.075.015.156.017.237.016Zm-.29-.02a7.53 7.53 0 0 1-.302-.034.85.85 0 0 0 .302.034Zm-1.856-.439-.102-.041.102.041Zm-.557-.253a5.74 5.74 0 0 1-2.365-2.246 5.669 5.669 0 0 0 2.365 2.246Zm8.286 5.682-2.406-5.531a1.77 1.77 0 0 1-.096.038l-.028.01c-.085.032-.176.065-.26.113l-.008-.018a2.18 2.18 0 0 1-.192.069c-.058.019-.112.037-.16.057l2.406 5.531c.06-.025.118-.044.175-.063.052-.016.103-.033.157-.054l.008.02.404-.172Zm-.744.27-2.406-5.531-.056.013a1.823 1.823 0 0 0-.284.084l2.406 5.531c.054-.011.112-.03.17-.048.057-.019.115-.038.17-.049Zm-2.767-5.425 2.406 5.531-.328.069v-.001l-.328.069-2.407-5.531.33-.069v.001l.327-.069Zm-1.328.184 2.406 5.531c-.118.003-.236.005-.326.019l-2.406-5.53c.118-.003.236-.006.326-.02Z" fill="#1F1F54" fill-opacity=".3"/></g><path fill-rule="evenodd" clip-rule="evenodd" d="m157.619 27.246 2.406 5.53.103.243-2.406-5.531-.103-.242Zm.102.242 2.407 5.53c.11.26.201.528.283.776l.004.008c.072.22.123.43.176.652l.024.097c.054.239.1.458.134.705l.001.002c.035.221.063.437.084.648l.011.026c.026.227.043.435.039.65l-.003-.006v.001l.003.005-.001.047c.009.25.008.49-.001.723-.004.174-.01.347-.034.513a9.32 9.32 0 0 1-.07.563l-.008.068.007.016c-.015.14-.041.277-.066.41l-.023.122.002.003-.008.032-.013.075-.004-.01-.082.308c-.038.14-.076.28-.102.384l.007.016c-.036.11-.07.227-.105.342-.03.105-.061.21-.093.31l.002.004c-.085.25-.177.48-.27.711l-.092-.21.091.209a7.254 7.254 0 0 1-.35.745l.009.022c-.144.276-.309.56-.474.845l.001.001a3.692 3.692 0 0 0-.113.213c-.263.517-.814 1.597-2.094 2.45l-1.417-2.362-1.897-1.896c.085-.093.247-.28.449-.517l-.135-.225c.108-.146.584-.672 1.115-1.26.73-.807 1.564-1.73 1.685-1.933V37.3c.165-.285.329-.57.474-.846l-.009-.021c.121-.22.246-.487.35-.746l.689 1.584v-.002l-.688-1.58c.092-.23.185-.46.269-.71l-.001-.002c.041-.125.082-.25.12-.374l-.075-.16c.027-.085.071-.196.118-.312.029-.4.066-.9.106-1.42.102-1.364.215-2.854.191-2.983l-.001-.002a8.09 8.09 0 0 0-.134-.705l-.024-.098c-.053-.22-.103-.427-.174-.644l-.003-.007a9.994 9.994 0 0 0-.287-.784Z" fill="url(#b)"/><path d="m30.665 128.685 2.407 5.531-.104-.242-2.406-5.531.103.242Z" fill="#858585"/><path d="m40.829 148.885 2.418 5.503-10.156-20.181-2.427-5.522 10.165 20.2Z" fill="url(#c)"/><path d="m155.182 39.6 2.317 5.435L52.993 155.31l-2.397-5.511L155.182 39.601Z" fill="url(#d)"/><path fill-rule="evenodd" clip-rule="evenodd" d="m47.326 151.635-4.103-.435a5.263 5.263 0 0 1-2.404-2.337l2.406 5.531c2.203 3.563 5.166 3.684 7.747 2.371.112-.048.223-.099.328-.163l-.004-.01.094-.053c.153-.072.3-.158.44-.258.232-.138.453-.302.667-.483a12.728 12.728 0 0 0 3.002-3.297l-3.91-.414-.995-2.288a7.25 7.25 0 0 1-1.17.951 3.095 3.095 0 0 1-.519.293l.025.056-.13.044a1.703 1.703 0 0 0-.321.129l.221.508-.23-.528a1.13 1.13 0 0 1-.24.107c-.042.015-.083.03-.124.048-.056.023-.109.04-.16.056-.052.017-.102.033-.15.053v-.001c-.055.011-.108.028-.16.044a1.448 1.448 0 0 1-.16.044l.02.05-.021-.049-.149.031Z" fill="url(#e)"/><g style="mix-blend-mode:lighten" filter="url(#f)"><path d="M157.375 26.729c2.069 4.124 1.282 9.267-2.192 12.87L50.704 149.949c-2.908 3.028-8.139 2.393-9.884-1.083l-10.156-20.18c-.981-1.966-.579-4.379 1.05-6.099l89.051-94.147c3.783-3.998 9.18-6.561 14.71-6.964l10.479-.773c4.928-.36 9.404 2.023 11.421 6.026Z" fill="url(#g)" fill-opacity=".6"/></g><path d="M157.375 26.729c2.069 4.124 1.282 9.267-2.192 12.87L50.704 149.949c-2.908 3.028-8.139 2.393-9.884-1.083l-10.156-20.18c-.981-1.966-.579-4.379 1.05-6.099l89.051-94.147c3.783-3.998 9.18-6.561 14.71-6.964l10.479-.773c4.928-.36 9.404 2.023 11.421 6.026Z" fill="url(#h)"/><defs><linearGradient id="b" x1="163.241" y1="34.287" x2="156.366" y2="42.804" gradientUnits="userSpaceOnUse"><stop stop-color="#FAFDFF"/><stop offset="1" stop-color="#C6EFFF"/></linearGradient><linearGradient id="c" x1="41.646" y1="151.617" x2="30.158" y2="125.611" gradientUnits="userSpaceOnUse"><stop stop-color="#73B7E8"/><stop offset="1" stop-color="#41A5E3"/></linearGradient><linearGradient id="d" x1="156.597" y1="43.383" x2="51.707" y2="155.103" gradientUnits="userSpaceOnUse"><stop offset="0" stop-color="#C6EFFF"/><stop offset="1" stop-color="#9BE2FD"/></linearGradient><linearGradient id="e" x1="54.138" y1="149.31" x2="42.279" y2="151.318" gradientUnits="userSpaceOnUse"><stop stop-color="#9DE2FD"/><stop offset="1" stop-color="#67B6E4"/></linearGradient><linearGradient id="g" x1="168.69" y1="28.257" x2="22.978" y2="127.476" gradientUnits="userSpaceOnUse"><stop stop-color="#00B9FF"/><stop offset="1" stop-color="#B10AFF"/></linearGradient><linearGradient id="h" x1="260.728" y1="44.44" x2="-41.886" y2="106.286" gradientUnits="userSpaceOnUse"><stop stop-color="#B0EBFF"/><stop offset="1" stop-color="#1BA4D8"/></linearGradient><filter id="a" x="13.503" y=".017" width="150.38" height="156.821" filterUnits="userSpaceOnUse" color-interpolation-filters="sRGB"><feFlood flood-opacity="0" result="BackgroundImageFix"/><feBlend in="SourceGraphic" in2="BackgroundImageFix" result="shape"/><feGaussianBlur stdDeviation="5" result="effect1_foregroundBlur_273_66933"/></filter><filter id="f" x="22.799" y="13.33" width="143.045" height="145.894" filterUnits="userSpaceOnUse" color-interpolation-filters="sRGB"><feFlood flood-opacity="0" result="BackgroundImageFix"/><feBlend in="SourceGraphic" in2="BackgroundImageFix" result="shape"/><feGaussianBlur stdDeviation="3.668" result="effect1_foregroundBlur_273_66933"/></filter></defs></svg>