<svg width="182" height="199" fill="none" xmlns="http://www.w3.org/2000/svg"><g filter="url(#a)"><path d="M156.692 140.05c3.427 5.593 2.28 10.998-2.573 12.061l-74.796 16.548c-4.853 1.063-11.509-2.582-14.936-8.175l-52.85-86.552c-3.396-5.613-2.249-11.017 2.605-12.08L88.917 45.27c4.82-1.043 11.529 2.617 14.924 8.23l52.851 86.551Z" fill="#0E0D44" fill-opacity=".3"/></g><path fill-rule="evenodd" clip-rule="evenodd" d="M14.011 51.436c-1.701 2.288-1.501 6.078.784 10.182l.337.572v.002l57.35 94.192 5.083-6.902L20.213 55.29v-.001l-.337-.573-.01.015c-2.026-3.872-2.394-7.973-.796-10.166l-5.059 6.871Z" fill="url(#b)"/><path fill-rule="evenodd" clip-rule="evenodd" d="m172.257 142.018-.193.262-.056.063a2.636 2.636 0 0 0-.207.25l-.004.007c-.173.153-.346.305-.486.439l-5.082 6.902c.088-.077.166-.15.245-.222.079-.072.158-.144.246-.221l.071-.097c.042-.053.089-.104.135-.156.073-.081.146-.163.206-.25h.001l-.001.002 5.082-6.902c.033-.02.043-.077.043-.077Zm-1.001 1-5.082 6.902c-.174.154-.37.269-.599.404l-.002.003c-.23.135-.482.232-.734.33l5.082-6.902c.251-.097.503-.194.732-.329l.002-.003c.23-.135.427-.251.601-.405Zm-1.335.736-5.082 6.902a3.848 3.848 0 0 1-.95.254l-.003.004-75.847 14.761-.003.003-.033.02.071-.096-.071.095c-.517.098-1.078.12-1.64.143l.016-.021c-.889-.03-2.345-.336-3.357-.705l-.026.035-.268-.089c-.569-.187-1.395-.459-1.883-.801a13.529 13.529 0 0 1-1.07-.603l5.08-6.902c.38.239.787.463 1.18.657l.104-.129.095.056c.502.297 1.05.621 1.58.82l.096-.121c1.162.396 2.489.848 3.569.881l-.016.02a8.575 8.575 0 0 0 1.642-.145l.013-.017.002-.003 75.843-14.76.003-.005c.214-.026.422-.092.626-.156.111-.036.221-.07.329-.098Zm-90.148 19.902 5.082-6.902v-.001a24.554 24.554 0 0 1-1.054-.664l-5.082 6.902c.172.105.349.218.526.332h.001c.178.114.355.228.527.333Zm4.028-7.567-5.082 6.902-.933-.684c-.311-.228-.59-.475-.868-.723l-.804-.715-.008.012a10.902 10.902 0 0 1-.77-.781v-.001a40.395 40.395 0 0 1-.379-.419 41.577 41.577 0 0 0-.38-.419l5.082-6.902.001.001c.245.266.49.533.758.837v.001c.123.133.254.262.385.39.12.119.242.238.357.361l.006-.009c.3.286.579.533.835.743.138.123.285.242.433.361.147.118.294.237.433.361v-.001l.934.685Zm-9.224 3.171 5.082-6.902c-.268-.305-.536-.61-.771-.934v.001a7.861 7.861 0 0 1-.773-1.086l-5.081 6.902c.15.255.328.492.508.729.09.119.179.237.265.358.235.323.502.628.77.932Zm-1.545-2.022 5.082-6.902a9.057 9.057 0 0 1-.55-.859l-5.082 6.902c.18.306.337.573.55.859Z" fill="url(#c)"/><path fill-rule="evenodd" clip-rule="evenodd" d="m87.975 165.592 5.203-6.922a8.674 8.674 0 0 1-1.742.163l.015-.02c-1.08-.032-2.407-.485-3.569-.88l-.097.121c-.529-.199-1.077-.524-1.579-.821l-.095-.056-.104.129c-.11-.055-.222-.112-.334-.171L90 154.994c-7.5-2.003-13.2-7.215-13.5-7.5l-5 6.997c.394 1.181 1.27 2.477 2.204 3.629l.04.055.035.048c.235.324.503.628.77.932l.018-.024v.001l-.017.024.379.419v.001c.128.142.257.285.38.418l-.002.001c.246.267.491.534.77.781l.028-.038c.422.414.718.681.786.742l.166-.083c.363.443.627.751.7.805h.001l.933.684 2.66-3.613-2.66 3.614c.172.104.35.218.526.331l.001.001c.178.114.355.228.527.332l4.035-5.479v-.001l-4.034 5.48c.345.217.712.422 1.07.603.49.343 1.315.614 1.885.802l.267.089.026-.035c1.012.368 2.469.674 3.357.704l-.015.021c.561-.022 1.123-.045 1.639-.143Z" fill="url(#d)"/><g style="mix-blend-mode:lighten" filter="url(#e)"><path d="M171.137 131.266c3.719 6.088 2.753 11.799-2.17 12.745l-75.848 14.762c-4.922.946-11.867-3.189-15.586-9.277L20.182 55.304c-3.687-6.106-2.72-11.818 2.202-12.764l75.825-14.8c4.89-.927 11.89 3.228 15.576 9.334l57.352 94.192Z" fill="url(#f)" fill-opacity=".6"/></g><path d="M171.137 131.266c3.719 6.088 2.753 11.799-2.17 12.745l-75.848 14.762c-4.922.946-11.867-3.189-15.586-9.277L20.182 55.304c-3.687-6.106-2.72-11.818 2.202-12.764l75.825-14.8c4.89-.927 11.89 3.228 15.576 9.334l57.352 94.192Z" fill="url(#g)"/><defs><linearGradient id="b" x1="73.534" y1="153.913" x2="7.999" y2="44.716" gradientUnits="userSpaceOnUse"><stop stop-color="#EEB94E"/><stop offset=".956" stop-color="#E29F33"/></linearGradient><linearGradient id="c" x1="208.487" y1="151.52" x2="81.158" y2="175.759" gradientUnits="userSpaceOnUse"><stop stop-color="#FDF0DD"/><stop offset="1" stop-color="#EEB94C"/></linearGradient><linearGradient id="d" x1="104.401" y1="168.402" x2="81.852" y2="177.857" gradientUnits="userSpaceOnUse"><stop stop-color="#FDF0DD"/><stop offset="1" stop-color="#EEB94C"/></linearGradient><linearGradient id="f" x1="169.334" y1="139.792" x2="4.894" y2="94.912" gradientUnits="userSpaceOnUse"><stop stop-color="#FFA361"/><stop offset="1" stop-color="#FD2222"/></linearGradient><linearGradient id="g" x1="172.273" y1="135.071" x2="10.021" y2="73.468" gradientUnits="userSpaceOnUse"><stop stop-color="#F9D27A"/><stop offset="1" stop-color="#FCC432"/></linearGradient><filter id="a" x="2.812" y="38.317" width="162.629" height="137.3" filterUnits="userSpaceOnUse" color-interpolation-filters="sRGB"><feFlood flood-opacity="0" result="BackgroundImageFix"/><feBlend in="SourceGraphic" in2="BackgroundImageFix" result="shape"/><feGaussianBlur stdDeviation="3.387" result="effect1_foregroundBlur_273_66704"/></filter><filter id="e" x="9.477" y="19.142" width="172.39" height="148.234" filterUnits="userSpaceOnUse" color-interpolation-filters="sRGB"><feFlood flood-opacity="0" result="BackgroundImageFix"/><feBlend in="SourceGraphic" in2="BackgroundImageFix" result="shape"/><feGaussianBlur stdDeviation="4.234" result="effect1_foregroundBlur_273_66704"/></filter></defs></svg>