<svg width="674" height="451" viewBox="0 0 674 451" fill="none" xmlns="http://www.w3.org/2000/svg">
<g filter="url(#filter0_f_403_1013)">
<path d="M88.6988 236.534C90.5915 236.534 92.7209 237.954 93.4306 240.083L110.465 281.487C111.175 283.143 109.992 285.036 108.336 285.036L75.213 283.38C71.1909 283.143 68.5884 279.121 70.2445 275.572L83.7303 239.846C84.6767 237.481 86.806 236.534 88.6988 236.534Z" fill="#26255F" fill-opacity="0.3"/>
<path d="M122.497 187.402C125.573 187.639 128.412 189.532 129.595 192.371L166.74 279.2C167.687 281.566 166.03 284.169 163.191 283.932L147.813 283.222C146.393 283.222 144.974 282.276 144.264 280.856L112.797 206.803C111.378 203.727 111.378 200.178 112.797 197.103L115.4 191.424C116.583 188.822 119.422 187.166 122.497 187.402Z" fill="#26255F" fill-opacity="0.3"/>
<path d="M307.576 188.663C322.008 189.373 332.654 193.158 339.989 199.783C347.323 206.644 350.872 213.742 350.872 225.335V240.24L328.869 239.057L305.21 237.638C299.058 237.401 294.326 238.111 291.251 240.24C287.938 242.369 286.282 247.101 286.282 251.123V253.963C286.282 257.511 288.175 260.587 291.96 263.19C295.746 265.792 300.951 267.212 307.812 267.448C314.673 267.921 319.878 266.502 323.427 262.953C326.03 260.114 326.976 257.275 327.923 253.963C328.159 252.78 329.342 252.07 330.525 252.07L347.56 253.016C349.216 253.016 350.399 254.672 350.162 256.565C348.743 264.136 345.194 271.234 339.989 275.492C332.654 281.407 321.771 284.01 307.812 283.3C294.09 282.354 283.68 279.041 275.872 273.363C268.301 267.448 264.516 259.168 264.516 250.887V250.177C264.516 242.133 267.828 233.852 274.689 229.357C281.55 224.862 291.014 222.969 303.553 223.679L329.105 225.098V224.388C329.105 217.054 326.976 213.505 322.954 209.956C318.932 206.407 313.017 204.515 305.446 204.041C297.875 203.568 289.594 205.224 281.077 209.01C279.894 209.483 278.948 209.72 277.765 209.72C276.109 209.72 274.689 208.537 273.743 206.644L270.43 201.912C268.774 198.836 269.247 196.707 272.323 195.287C283.206 190.082 295.036 187.953 307.576 188.663Z" fill="#26255F" fill-opacity="0.3"/>
<path d="M183.963 187.909C187.039 188.146 189.878 190.038 191.061 192.878L228.206 279.234C229.389 281.836 227.26 284.676 224.42 284.439L209.752 283.729C208.096 283.729 206.676 282.546 205.966 281.127L173.553 208.729C172.133 205.654 172.133 201.868 173.553 198.792L176.865 191.931C178.048 189.329 180.887 187.673 183.963 187.909Z" fill="#26255F" fill-opacity="0.3"/>
<path d="M464.434 188.24C468.105 188.478 469.819 190.145 469.819 193.718V197.053C469.819 203.96 468.84 209.438 467.126 213.964C465.413 218.489 461.742 222.3 456.113 225.635L443.875 233.495L450.483 239.45C458.071 244.928 463.455 250.168 466.147 255.17C468.84 260.172 470.308 266.603 470.308 274.225V278.989C470.308 282.324 468.595 283.991 464.924 283.753L453.42 283.276C449.749 283.038 448.036 281.371 448.036 277.798V274.225C448.036 269.223 447.302 264.936 445.588 261.601C443.875 258.029 441.183 254.932 437.267 252.074L427.721 244.214L418.176 251.121C414.26 253.503 411.568 256.361 409.855 259.696C408.141 263.031 407.407 267.08 407.407 272.082V275.654C407.407 278.989 405.694 280.656 402.023 280.418L390.519 279.942C386.848 279.704 385.135 278.036 385.135 274.464V269.7C385.135 261.84 386.359 255.647 389.296 250.883C391.988 246.119 397.128 241.594 404.96 236.83L411.568 231.59L399.086 222.539C393.701 218.489 390.03 214.202 388.072 209.677C386.359 205.151 385.38 199.434 385.135 192.527V189.192C385.135 185.858 386.848 184.19 390.519 184.429L402.023 184.905C405.694 185.143 407.407 186.811 407.652 190.383V191.812C407.652 195.385 407.897 198.482 408.141 200.625C408.386 202.769 409.12 204.913 410.344 206.58C411.568 208.486 412.547 209.915 414.015 211.106C415.239 212.297 417.442 213.964 420.379 216.108L427.966 221.586L435.554 216.822C438.491 214.917 440.693 213.488 441.917 212.535C443.141 211.582 444.365 210.153 445.344 208.486C446.567 206.818 447.057 204.913 447.546 202.769C447.791 200.625 448.036 197.767 448.036 193.956V192.527C448.036 189.192 449.994 187.525 453.665 187.763L464.434 188.24Z" fill="#26255F" fill-opacity="0.3"/>
</g>
<path fill-rule="evenodd" clip-rule="evenodd" d="M75.4036 246.894L51.7773 255.173C51.8956 255.291 53.3743 256.061 54.8531 256.83C55.465 257.148 56.077 257.466 56.5926 257.739L74.0671 300.922C74.0037 301.486 73.9013 302.253 73.5637 302.928C73.4811 303.093 73.7018 303.369 73.8699 303.293L97.1175 292.726C98.3019 292.187 99.1107 290.827 98.0966 290.012C98.0271 289.956 97.955 289.904 97.8809 289.855L97.9155 289.838L81.3209 249.258L81.318 249.259C80.1349 246.893 77.7692 245.711 75.4036 246.894Z" fill="url(#paint0_linear_403_1013)"/>
<g style="mix-blend-mode:lighten" filter="url(#filter1_f_403_1013)">
<path d="M52.9605 254.934C54.8532 254.934 56.9826 256.353 57.6924 258.482L74.727 299.886C75.4368 301.542 74.2538 303.435 72.5977 303.435L39.4747 301.779C35.4526 301.542 32.8501 297.52 34.5063 293.971L47.992 258.246C48.9384 255.88 51.0678 254.934 52.9605 254.934Z" fill="url(#paint1_linear_403_1013)" fill-opacity="0.6"/>
</g>
<path d="M52.9605 254.934C54.8532 254.934 56.9826 256.353 57.6924 258.482L74.727 299.886C75.4368 301.542 74.2538 303.435 72.5977 303.435L39.4747 301.779C35.4526 301.542 32.8501 297.52 34.5063 293.971L47.992 258.246C48.9384 255.88 51.0678 254.934 52.9605 254.934Z" fill="url(#paint2_linear_403_1013)"/>
<path d="M82.9727 206.513L105.212 195.393C105.449 195.156 105.686 195.156 105.922 195.156L83.6824 206.276C83.4458 206.276 83.2092 206.513 82.9727 206.513Z" fill="#858585"/>
<path d="M83.6836 206.273L105.923 195.154C106.16 195.154 106.397 194.917 106.87 194.917L84.63 206.037C84.1568 206.037 83.9202 206.037 83.6836 206.273Z" fill="#8A8A8A"/>
<path d="M84.6289 206.038L106.869 194.918C107.105 194.918 107.342 194.918 107.578 194.682L85.3387 205.802C85.1021 205.802 84.8655 205.802 84.6289 206.038Z" fill="#8F8F8F"/>
<path d="M85.3379 205.802L107.578 194.682C107.814 194.682 108.051 194.682 108.287 194.682L85.8111 205.802C85.5745 205.802 85.3379 205.802 85.3379 205.802Z" fill="#949494"/>
<path d="M85.8125 205.802L108.052 194.682C108.289 194.682 108.525 194.682 108.762 194.682L86.5223 205.802C86.2857 205.802 86.0491 205.802 85.8125 205.802Z" fill="#999999"/>
<path d="M86.5195 205.802L108.759 194.682H108.996L86.7561 205.802C86.7561 205.802 86.5195 205.802 86.5195 205.802Z" fill="#9E9E9E"/>
<path fill-rule="evenodd" clip-rule="evenodd" d="M81.082 207.696L104.741 194.683C112.296 192.525 115.715 198.046 116.436 199.211L116.436 199.211C116.506 199.323 116.55 199.395 116.571 199.415L116.57 199.416L152.199 283.778C154.618 288.23 155.084 292.549 154.612 294.708C154.424 295.57 153.619 296.039 152.766 296.263L129.912 302.263C129.394 302.4 128.842 302.277 128.422 301.944C128.285 301.836 128.145 301.726 128.003 301.614C124.725 299.04 120.082 295.394 126.033 290.502L127.698 290.009L93.0332 210.344C90.0757 209.876 82.9627 208.636 81.082 207.696Z" fill="url(#paint3_linear_403_1013)"/>
<g style="mix-blend-mode:lighten" filter="url(#filter2_f_403_1013)">
<path d="M86.7572 205.804C89.8329 206.04 92.672 207.933 93.8549 210.772L131 297.602C131.946 299.968 130.29 302.57 127.451 302.334L112.073 301.624C110.653 301.624 109.233 300.677 108.524 299.258L77.0569 225.204C75.6373 222.129 75.6373 218.58 77.0569 215.504L79.6594 209.826C80.8423 207.223 83.6815 205.567 86.7572 205.804Z" fill="url(#paint4_linear_403_1013)" fill-opacity="0.6"/>
</g>
<path d="M86.7572 205.804C89.8329 206.04 92.672 207.933 93.8549 210.772L131 297.602C131.946 299.968 130.29 302.57 127.451 302.334L112.073 301.624C110.653 301.624 109.233 300.677 108.524 299.258L77.0569 225.204C75.6373 222.129 75.6373 218.58 77.0569 215.504L79.6594 209.826C80.8423 207.223 83.6815 205.567 86.7572 205.804Z" fill="url(#paint5_linear_403_1013)"/>
<g filter="url(#filter3_f_403_1013)">
<path d="M595.26 229.789C600.13 229.789 601.784 231.635 601.784 235.941L604.056 275.925H643.013C647.882 275.925 650.479 278.078 650.804 282.384L651.453 293.149C651.778 297.455 649.505 299.608 644.311 299.608H605.355L607.952 342.052C608.276 347.589 610.549 351.894 614.445 354.663C618.665 357.431 623.534 358.969 629.053 358.969C634.572 358.969 640.091 357.738 646.584 354.97C648.207 354.355 649.505 354.047 650.804 354.047C653.077 354.047 655.349 355.278 656.648 357.738L661.842 365.735C664.439 369.733 663.79 372.809 659.245 374.655C649.83 378.653 639.442 380.806 627.755 380.806C613.146 380.806 601.459 377.423 592.369 370.964C583.604 364.505 578.734 355.278 578.085 343.898L575.488 299.915H555.036C550.166 299.915 547.569 297.762 547.244 293.456L546.595 282.692C546.27 278.386 548.543 276.233 553.088 276.233H573.54L571.268 236.249C570.943 231.943 573.215 229.79 578.085 229.79H594.317L595.26 229.789Z" fill="#26255F" fill-opacity="0.3"/>
</g>
<g filter="url(#filter4_f_403_1013)">
<path d="M435.165 25.9531C437.422 25.9531 437.759 27.3732 438.081 29.2666L439.693 58.7723L440.822 78.4953C441.467 89.0669 446.464 92.8537 455.975 92.8537C465.809 92.8537 470.484 87.4891 469.839 76.9175L469.517 70.2906C469.194 63.9792 467.904 60.8235 465.486 57.9834C463.068 55.1432 460.973 54.1965 455.169 54.1965C454.524 54.1965 452.429 54.5121 451.784 54.6699C451.623 54.6699 451.461 54.6699 451.3 54.6699C450.011 54.6699 448.721 53.5654 448.721 52.1453L448.237 44.0983C448.237 42.8361 448.882 41.8894 450.011 41.5738C451.945 41.1004 455.492 40.7849 457.749 40.7849C465.809 40.7849 472.096 43.1516 476.61 47.8852C481.123 52.6187 483.703 59.2456 484.186 67.6082L484.831 78.8109C485.153 86.3846 482.897 92.2226 478.222 96.7983C473.547 101.374 466.292 103.583 456.62 103.583C451.784 103.583 447.431 102.952 443.562 101.69C439.693 100.427 436.631 98.6918 434.051 96.325C431.633 94.116 429.699 91.4337 428.248 88.4358C426.958 85.4379 425.991 82.2822 425.83 78.6531L423.089 29.2666C422.928 27.0576 424.057 25.9531 426.636 25.9531H434.374H435.165Z" fill="#26255F" fill-opacity="0.3"/>
</g>
<g filter="url(#filter5_f_403_1013)">
<path d="M539.181 141.218C542.144 141.218 543.723 142.6 543.921 145.562L547.081 204.016C547.278 206.781 545.896 208.36 542.934 208.36H533.652C530.69 208.36 529.11 206.978 528.913 204.016L525.753 145.562C525.555 142.798 526.938 141.218 529.9 141.218H539.181V141.218Z" fill="#26255F" fill-opacity="0.3"/>
</g>
<g filter="url(#filter6_f_403_1013)">
<path d="M535.627 110.018C536.022 110.018 536.417 110.215 536.812 110.413L545.501 118.904C546.093 119.497 546.291 120.681 545.698 121.274L537.997 129.765C537.799 130.16 537.207 130.16 536.812 130.16C536.417 130.16 536.022 129.963 535.627 129.765L526.938 121.274C526.346 120.681 526.148 119.497 526.741 118.904L534.442 110.413C534.837 110.215 535.232 110.018 535.627 110.018Z" fill="#26255F" fill-opacity="0.3"/>
</g>
<path d="M241.789 260.777L263.082 256.045C264.265 272.606 293.13 271.423 293.839 271.423L285.559 289.168C260.716 291.534 250.07 285.619 241.789 260.777Z" fill="url(#paint6_linear_403_1013)"/>
<path fill-rule="evenodd" clip-rule="evenodd" d="M258.824 242.086L258.819 242.089C257.991 242.207 257.163 242.266 256.335 242.325C255.817 242.362 255.299 242.399 254.782 242.451L251.25 244.216C250.54 244.453 249.357 244.453 248.174 244.453H248.174H248.174C246.991 244.453 245.808 244.453 245.099 244.689L267.338 233.569C268.997 232.878 270.091 232.591 271.422 232.472L271.595 232.385C272.229 232.279 272.862 232.127 273.517 231.969C274.329 231.773 275.173 231.569 276.09 231.438L274.193 232.387L274.2 232.387L276.09 231.442L276.09 231.442C277.745 231.206 279.4 230.969 281.055 230.969L281.06 230.966C281.691 230.966 282.322 230.94 282.953 230.914C284.214 230.861 285.476 230.809 286.738 230.966L264.498 242.086H258.824ZM241.785 246.109L264.025 234.989C264.971 234.516 266.154 234.043 267.337 233.569L245.097 244.689C244.506 244.926 243.974 245.162 243.441 245.399C242.909 245.636 242.377 245.872 241.785 246.109ZM264.497 242.089L286.737 230.969H290.045L290.051 230.966L315.603 232.385L293.364 243.505L267.815 242.086L267.809 242.089H264.497Z" fill="url(#paint7_linear_403_1013)"/>
<path fill-rule="evenodd" clip-rule="evenodd" d="M292.656 271.419C293.44 270.636 294.344 269.984 295.336 269.488L313.016 260.648C314.092 260.111 315.252 259.772 316.442 259.646C316.631 259.626 316.82 259.611 317.01 259.602L317.026 259.594L317.099 259.598C317.232 259.592 317.365 259.59 317.499 259.59L317.444 259.617L334.061 260.54L334.041 260.55C335.812 260.738 337.196 263.273 336.377 265.542L336.424 265.508C335.424 270.508 333.409 273.987 332.524 275.515L332.524 275.515C332.362 275.794 332.238 276.008 332.165 276.154L332.152 276.161L332.168 276.153C331.694 277.1 330.985 278.046 330.275 278.992L329.937 279.158C328.864 280.439 327.772 281.684 326.487 282.541C324.831 283.724 323.175 284.907 321.045 285.854L298.806 296.974C300.698 296.027 302.591 294.844 304.247 293.661C305.43 292.715 306.85 291.295 308.033 289.876L308.036 289.874C308.416 289.305 308.947 288.584 309.508 287.833L309.216 287.984C309.926 286.565 310.039 285.826 310.119 285.31C310.172 284.965 310.21 284.719 310.399 284.435L311.748 283.454C311.973 283.012 312.167 282.574 312.293 282.068L316.646 279.892L316.656 279.885L312.293 282.066C312.766 281.12 313.003 280.41 313.239 279.464L313.24 279.463C313.476 278.754 313.713 278.044 313.949 277.098L334.87 266.638L334.872 266.637L313.95 277.097C314.063 276.759 313.477 275.668 312.858 274.517C312.265 273.413 311.642 272.253 311.576 271.646L295.116 270.732C294.546 270.853 292.656 271.419 292.656 271.419Z" fill="url(#paint8_linear_403_1013)"/>
<path fill-rule="evenodd" clip-rule="evenodd" d="M253.615 208.921L255.284 208.074L255.147 208.099C253.555 208.383 252.047 208.652 250.539 209.163L250.866 208.997C248.735 209.431 246.062 210.287 243.667 211.089L242.259 211.804C241.022 212.117 239.785 212.534 238.483 213.119L258.583 202.918H258.82C260.056 202.291 261.292 201.766 262.527 201.277L264.498 200.277C266.106 199.683 269.702 198.54 273.331 197.752C274.551 197.483 275.832 197.22 277.091 197.007L277.275 196.914C280.823 195.713 286.738 195.713 289.104 195.713L288.99 195.785C289.714 195.745 290.458 195.713 291.233 195.713L280.589 201.115L280.588 201.116L291.233 195.713C291.924 195.713 294.884 195.713 296.892 196.18C297.052 196.188 297.216 196.193 297.384 196.193L297.237 196.268L297.238 196.268L297.385 196.193L297.386 196.193C299.14 196.416 300.895 196.639 302.461 196.861L302.829 196.675C303.003 196.704 303.182 196.734 303.363 196.764C304.652 196.978 306.079 197.214 307.324 197.635L307.322 197.636C307.913 197.756 308.563 197.936 309.213 198.116L309.213 198.116L309.214 198.116C309.864 198.296 310.515 198.476 311.106 198.596L311.038 198.631C311.879 198.821 312.608 199.131 313.404 199.47C313.655 199.576 313.912 199.686 314.181 199.795L314.182 199.795C315.916 200.321 317.753 201.294 319.406 202.169L319.541 202.241L319.624 202.198C320.093 202.436 320.561 202.673 321 202.94L321.043 202.916C321.516 203.276 322.344 203.876 323.172 204.476L323.173 204.477L323.173 204.477C324.001 205.078 324.829 205.678 325.302 206.038L325.144 206.117C325.354 206.32 325.565 206.48 325.775 206.64L325.775 206.64C326.012 206.821 326.249 207.001 326.485 207.241C327.668 208.441 328.85 209.641 329.796 210.841L329.796 210.841C331.216 212.522 335.238 218.525 336.421 229.332L336.402 229.345L336.423 229.335V234.138L336.423 234.138V248.306L315.13 258.411V244.464L315.13 244.464V243.739L315.128 243.741C315.128 240.14 308.982 223.583 307.559 222.13L307.558 222.13C306.611 220.929 305.429 219.729 304.246 218.528L304.246 218.528C304.009 218.288 303.772 218.108 303.536 217.928C303.299 217.747 303.063 217.567 302.826 217.327L303.29 217.092L302.826 217.325C302.311 216.803 301.424 216.154 300.614 215.563L300.614 215.562L300.61 215.56L300.609 215.559C300.412 215.415 300.22 215.275 300.039 215.14L299.987 215.166C299.82 215.053 299.639 214.926 299.448 214.792L299.448 214.792C299.118 214.56 298.757 214.307 298.382 214.066L297.499 214.498C297.151 214.322 296.175 213.7 295.032 212.972L295.031 212.972C294.041 212.341 292.925 211.631 291.984 211.061L291.942 211.083C291.673 210.973 291.416 210.864 291.166 210.758L291.166 210.758L291.166 210.757L291.165 210.757L291.165 210.757L291.164 210.757L291.164 210.757C290.315 210.396 289.543 210.067 288.63 209.882L288.722 209.835C287.366 209.387 286.224 209.155 285.081 208.923L285.082 208.922C284.449 208.815 283.817 208.66 283.163 208.5C282.458 208.328 281.728 208.149 280.948 208.018L280.587 208.201C278.931 207.721 277.038 207.48 275.146 207.48L284.26 202.855L284.251 202.859L275.144 207.48C274.684 207.363 274.167 207.303 273.621 207.273L272.542 207.721C272.069 207.721 271.418 207.54 270.768 207.36L270.751 207.356L270.177 207.72C268.284 207.72 255.508 208.681 253.615 208.921ZM236.344 214.205L238.483 213.119C237.792 213.43 237.082 213.789 236.344 214.205Z" fill="url(#paint9_linear_403_1013)"/>
<g style="mix-blend-mode:lighten" filter="url(#filter7_f_403_1013)">
<path d="M271.833 207.069C286.265 207.779 296.912 211.564 304.247 218.189C311.581 225.05 315.13 232.148 315.13 243.741V258.646L293.127 257.463L269.467 256.044C263.316 255.807 258.584 256.517 255.508 258.646C252.196 260.776 250.54 265.508 250.54 269.53V272.369C250.54 275.918 252.433 278.993 256.218 281.596C260.004 284.198 265.209 285.618 272.07 285.855C278.931 286.328 284.136 284.908 287.685 281.359C290.288 278.52 291.234 275.681 292.18 272.369C292.417 271.186 293.6 270.476 294.783 270.476L311.818 271.422C313.474 271.422 314.657 273.079 314.42 274.971C313 282.542 309.452 289.64 304.247 293.899C296.912 299.814 286.029 302.416 272.07 301.706C258.348 300.76 247.937 297.448 240.13 291.769C232.559 285.855 228.773 277.574 228.773 269.293V268.583C228.773 260.539 232.086 252.258 238.947 247.763C245.808 243.268 255.272 241.375 267.811 242.085L293.363 243.504V242.795C293.363 235.46 291.234 231.911 287.212 228.362C283.19 224.814 277.275 222.921 269.704 222.448C262.133 221.974 253.852 223.631 245.335 227.416C244.152 227.889 243.206 228.126 242.023 228.126C240.366 228.126 238.947 226.943 238.001 225.05L234.688 220.318C233.032 217.243 233.505 215.113 236.581 213.694C247.464 208.489 259.294 206.359 271.833 207.069Z" fill="url(#paint10_linear_403_1013)" fill-opacity="0.6"/>
</g>
<path d="M271.833 207.069C286.265 207.779 296.912 211.564 304.247 218.189C311.581 225.05 315.13 232.148 315.13 243.741V258.646L293.127 257.463L269.467 256.044C263.316 255.807 258.584 256.517 255.508 258.646C252.196 260.776 250.54 265.508 250.54 269.53V272.369C250.54 275.918 252.433 278.993 256.218 281.596C260.004 284.198 265.209 285.618 272.07 285.855C278.931 286.328 284.136 284.908 287.685 281.359C290.288 278.52 291.234 275.681 292.18 272.369C292.417 271.186 293.6 270.476 294.783 270.476L311.818 271.422C313.474 271.422 314.657 273.079 314.42 274.971C313 282.542 309.452 289.64 304.247 293.899C296.912 299.814 286.029 302.416 272.07 301.706C258.348 300.76 247.937 297.448 240.13 291.769C232.559 285.855 228.773 277.574 228.773 269.293V268.583C228.773 260.539 232.086 252.258 238.947 247.763C245.808 243.268 255.272 241.375 267.811 242.085L293.363 243.504V242.795C293.363 235.46 291.234 231.911 287.212 228.362C283.19 224.814 277.275 222.921 269.704 222.448C262.133 221.974 253.852 223.631 245.335 227.416C244.152 227.889 243.206 228.126 242.023 228.126C240.366 228.126 238.947 226.943 238.001 225.05L234.688 220.318C233.032 217.243 233.505 215.113 236.581 213.694C247.464 208.489 259.294 206.359 271.833 207.069Z" fill="url(#paint11_linear_403_1013)"/>
<path fill-rule="evenodd" clip-rule="evenodd" d="M141.422 210.69L143.789 207.142L166.305 196.523C174.564 194.164 178.117 200.13 178.131 201.245L214.707 286.279L214.701 286.283C215.184 287.167 215.739 288.26 216.405 289.605C216.823 290.45 216.452 291.476 215.589 291.856L193.585 301.56C182.999 303.553 178.273 297.477 177.239 296.147C177.133 296.01 177.065 295.924 177.035 295.901L189.636 291.053L155.353 211.351L154.369 211.788C152.949 212.001 143.788 211.873 141.422 210.69Z" fill="url(#paint12_linear_403_1013)"/>
<path d="M148.225 206.311C151.3 206.547 154.14 208.44 155.323 211.279L192.468 297.635C193.651 300.238 191.521 303.077 188.682 302.84L174.013 302.131C172.357 302.131 170.938 300.948 170.228 299.528L137.815 227.131C136.395 224.055 136.395 220.269 137.815 217.194L141.127 210.333C142.31 207.73 145.149 206.074 148.225 206.311Z" fill="url(#paint13_linear_403_1013)"/>
<path fill-rule="evenodd" clip-rule="evenodd" d="M390.569 263.375L412.809 252.255L403.345 259.116L401.472 260.063L403.581 259.115C401.215 260.535 399.086 262.428 397.666 264.321L397.22 264.544C396.922 264.883 396.639 265.289 396.43 265.641L396.72 265.504L394.354 270.236L394.354 270.236L394.353 270.237L394.355 270.236C394.338 270.27 394.323 270.304 394.308 270.338C394.282 270.401 394.254 270.478 394.224 270.564C394.173 270.725 394.137 270.893 394.097 271.075L394.097 271.075L394.093 271.095C393.758 273.269 393.382 276.502 393.171 278.568V279.937L393.033 280.008C393.033 280.008 393.033 280.008 393.033 280.009L393.173 279.937V283.249L393.174 283.249C393.174 283.396 393.174 283.538 393.173 283.675V283.723L393.173 283.723C393.164 285.778 393.027 286.88 391.044 287.981L368.805 299.101C369.125 298.941 369.769 296.833 370.226 295.339C370.445 294.624 370.621 294.049 370.697 293.896L370.934 293.784V292.276L370.501 292.507C370.501 292.254 370.691 290.557 370.937 288.446C370.95 287.965 370.99 287.453 371.104 287.008L371.251 285.757C371.626 282.56 372.001 279.362 372.001 279.007L373.527 278.329C373.569 278.196 373.61 278.061 373.652 277.925C373.888 277.156 374.125 276.387 374.243 276.151L375.058 275.765C375.107 275.662 375.152 275.554 375.19 275.439L375.574 275.247C376.976 273.435 378.828 271.835 381.342 270.235L381.345 270.233L390.569 263.375ZM394.221 270.303L394.322 270.252L394.35 270.238L394.317 270.252L394.222 270.3L394.221 270.303Z" fill="url(#paint14_linear_403_1013)"/>
<path fill-rule="evenodd" clip-rule="evenodd" d="M372.939 193.93L350.578 203.992C350.815 203.992 352.707 204.702 352.707 204.702L353.074 204.528C353.139 204.545 353.18 204.602 353.18 204.701L353.651 204.466H354.127L371.818 195.62L371.821 195.618L354.127 204.466H354.366L365.723 205.175L365.968 205.053C366.126 205.128 367.225 206.895 368.325 208.662C369.449 210.467 370.572 212.273 370.691 212.273L370.927 212.136C370.933 212.34 370.956 212.543 370.978 212.747L370.978 212.747C370.999 212.93 371.019 213.113 371.027 213.297L370.69 213.456C370.69 215.056 371.029 216.995 371.276 218.414L371.276 218.414C371.321 218.673 371.364 218.915 371.4 219.135L371.519 219.076C371.543 220.022 371.58 220.679 371.636 220.792V221.501L371.655 221.492C371.676 221.653 371.717 221.814 371.757 221.975L371.757 221.975C371.816 222.211 371.875 222.447 371.875 222.683L371.874 222.683C371.979 222.893 372.165 223.473 372.36 224.097L372.347 224.103C372.378 224.228 372.43 224.373 372.497 224.533C372.698 225.177 372.892 225.786 373 226.001L373.194 225.884C373.29 226.05 373.387 226.215 373.481 226.373L373.293 226.468C373.53 226.468 373.53 226.704 373.53 226.941C374.103 227.896 374.83 228.851 375.462 229.682L375.462 229.682L375.463 229.682C375.614 229.88 375.759 230.071 375.895 230.253L376.049 230.176C376.151 230.29 376.243 230.402 376.331 230.509C376.567 230.795 376.774 231.047 377.079 231.199C377.553 231.436 378.026 231.909 378.499 232.382L378.498 232.383C379.68 233.565 381.571 234.746 383.699 235.929L383.23 236.168L391.984 241.846L412.568 230.253L405.47 224.811L405.47 224.812C404.799 224.309 404.158 223.836 403.558 223.392C402.463 222.584 401.502 221.874 400.738 221.263L400.739 221.262C400.502 221.026 400.266 220.848 400.029 220.671C399.792 220.493 399.556 220.316 399.319 220.079L398.136 218.896L397.981 218.974C397.11 218.056 396.44 216.939 395.769 215.821C395.769 215.703 395.71 215.643 395.651 215.584C395.592 215.525 395.533 215.466 395.533 215.348L395.397 215.415L394.587 212.984L394.583 212.985L394.587 212.983C394.469 212.746 394.41 212.51 394.35 212.273C394.291 212.037 394.232 211.801 394.115 211.565L394.115 211.565C394.115 211.328 394.056 211.092 393.997 210.855C393.938 210.619 393.878 210.382 393.878 210.146L393.876 210.147V209.672C393.813 209.546 393.721 208.905 393.621 208.025L393.64 208.015C393.628 207.974 393.617 207.933 393.606 207.893C393.456 206.551 393.288 204.71 393.167 203.264C393.167 203.114 393.167 202.963 393.167 202.81L393.165 202.81V200.919L393.167 200.918V199.262L393.158 199.266L393.167 199.261C393.167 196.215 390.225 194.587 387.814 194.13L387.962 194.055L376.814 193.359L376.84 193.346H376.606H376.603H376.367H376.367H375.662H375.657C374.72 193.346 373.793 193.546 372.939 193.93ZM351.761 204.937L352.234 204.701C352.133 204.701 352.076 204.701 352.024 204.719C351.955 204.744 351.897 204.801 351.761 204.937ZM351.288 205.176L351.761 204.939C351.525 204.939 351.525 204.939 351.288 205.176Z" fill="url(#paint15_linear_403_1013)"/>
<path fill-rule="evenodd" clip-rule="evenodd" d="M428.658 241.847L406.418 252.967L412.805 258.881L412.804 258.882C414.46 260.065 415.879 261.247 417.299 262.43L417.299 262.431L417.419 262.371L417.419 262.371L417.3 262.431C417.474 262.561 417.646 262.693 417.815 262.826C418.899 264.068 420.186 265.535 421.473 267.003C424.71 270.691 427.946 274.38 427.946 274.498C428.655 275.681 429.129 276.864 429.602 278.284L429.602 278.284C430.075 279.23 430.312 280.413 430.548 281.595L430.592 281.574C430.814 282.657 431.036 283.546 431.258 284.434L431.258 284.434L431.272 284.427C431.494 285.611 431.732 287.213 431.732 288.22L431.767 288.202C431.969 289.525 431.969 290.658 431.969 292.003L431.968 292.004V293.423L431.969 293.423V296.603L431.027 297.445C430.932 297.541 430.798 298.325 430.642 299.245L430.642 299.245C430.41 300.608 430.128 302.266 429.845 302.413L453.503 290.348C453.74 290.229 454.037 289.04 454.125 286.841L454.208 286.798V282.303L454.208 282.303V280.885L454.209 280.884C454.209 280.142 454.144 279.4 454.082 278.692L454.082 278.692C454.026 278.045 453.972 277.427 453.972 276.862L453.969 276.864C453.929 275.251 453.512 270.902 452.558 269.369C452.379 268.573 452.166 267.813 451.841 267.163L451.841 267.163C451.368 265.744 450.711 264.182 450.001 262.999C449.988 262.973 449.969 262.941 449.944 262.905L449.949 262.902C449.002 261.246 447.82 259.59 446.4 257.934L446.4 257.934C444.507 255.805 442.142 253.44 439.54 251.311L438.6 251.78L438.6 251.78L439.539 251.311C438.119 250.128 436.7 248.945 435.044 247.762L435.046 247.762L428.658 241.847Z" fill="url(#paint16_linear_403_1013)"/>
<path d="M431.498 216.316L453.501 203.993C453.501 204.963 453.738 207.105 453.738 208.074L431.498 219.467C431.498 218.255 431.735 217.285 431.498 216.316Z" fill="url(#paint17_linear_403_1013)"/>
<path fill-rule="evenodd" clip-rule="evenodd" d="M448.767 196.896L437.411 196.659L437.409 196.66H436.967L429.623 200.553L429.599 200.565L436.966 196.66H436.297H436.296L436.296 196.66L434.148 196.835C433.65 196.876 433.167 197.028 432.736 197.282L428.653 199.681L414.463 206.359C412.008 207.306 413.533 209.908 413.533 209.908L417.034 207.858L425.032 208.199L423.925 208.726C423.952 208.748 424.071 208.842 424.259 208.989L424.259 208.989L424.259 208.989L424.259 208.989C425.248 209.767 428.158 212.053 429.823 213.47C429.398 218.659 428.318 230.52 427.786 235.867C427.668 236.071 427.559 236.266 427.478 236.432L427.475 236.433L426.292 238.251L426.055 238.373C425.052 239.786 423.849 241.063 422.483 242.24L419.196 244.212L406.42 252.965L428.66 241.846L442.711 232.813C444.371 231.746 445.828 230.391 447.012 228.812L448.147 227.298L448.295 227.222L449.714 225.042L449.717 225.04C450.079 224.67 450.302 224.158 450.493 223.721L450.493 223.721C450.552 223.586 450.608 223.458 450.664 223.344L450.562 223.396L450.564 223.393L450.662 223.343C450.662 223.314 450.662 223.285 450.664 223.256C451.555 222.011 452.236 220.315 452.708 218.53C454.734 212.239 453.932 205.45 453.501 202.003L453.423 202.033C453.002 199.739 450.885 196.896 448.767 196.896L448.751 196.904L448.767 196.896Z" fill="url(#paint18_linear_403_1013)"/>
<g style="mix-blend-mode:lighten" filter="url(#filter8_f_403_1013)">
<path d="M428.702 206.642C432.373 206.88 434.086 208.547 434.086 212.12V215.455C434.086 222.362 433.107 227.841 431.394 232.366C429.681 236.892 426.01 240.703 420.38 244.037L408.143 251.898L414.751 257.852C422.338 263.331 427.723 268.571 430.415 273.573C433.107 278.575 434.576 285.006 434.576 292.628V297.391C434.576 300.726 432.863 302.393 429.191 302.155L417.688 301.679C414.017 301.441 412.303 299.773 412.303 296.2V292.628C412.303 287.626 411.569 283.338 409.856 280.004C408.143 276.431 405.45 273.334 401.534 270.476L391.989 262.616L382.444 269.523C378.528 271.905 375.835 274.764 374.122 278.098C372.409 281.433 371.675 285.482 371.675 290.484V294.057C371.675 297.391 369.961 299.059 366.29 298.821L354.787 298.344C351.116 298.106 349.402 296.439 349.402 292.866V288.102C349.402 280.242 350.626 274.049 353.563 269.285C356.255 264.522 361.395 259.996 369.227 255.232L375.835 249.992L363.353 240.941C357.969 236.892 354.297 232.604 352.339 228.079C350.626 223.553 349.647 217.837 349.402 210.929V207.595C349.402 204.26 351.116 202.593 354.787 202.831L366.29 203.307C369.961 203.546 371.675 205.213 371.919 208.786V210.215C371.919 213.788 372.164 216.884 372.409 219.028C372.654 221.171 373.388 223.315 374.612 224.982C375.835 226.888 376.814 228.317 378.283 229.508C379.507 230.699 381.71 232.366 384.647 234.51L392.234 239.988L399.821 235.224C402.758 233.319 404.961 231.89 406.185 230.937C407.408 229.984 408.632 228.555 409.611 226.888C410.835 225.221 411.324 223.315 411.814 221.171C412.059 219.028 412.303 216.169 412.303 212.358V210.929C412.303 207.595 414.261 205.927 417.933 206.166L428.702 206.642Z" fill="url(#paint19_linear_403_1013)" fill-opacity="0.6"/>
</g>
<path d="M428.702 206.642C432.373 206.88 434.086 208.547 434.086 212.12V215.455C434.086 222.362 433.107 227.841 431.394 232.366C429.681 236.892 426.01 240.703 420.38 244.037L408.143 251.898L414.751 257.852C422.338 263.331 427.723 268.571 430.415 273.573C433.107 278.575 434.576 285.006 434.576 292.628V297.391C434.576 300.726 432.863 302.393 429.191 302.155L417.688 301.679C414.017 301.441 412.303 299.773 412.303 296.2V292.628C412.303 287.626 411.569 283.338 409.856 280.004C408.143 276.431 405.45 273.334 401.534 270.476L391.989 262.616L382.444 269.523C378.528 271.905 375.835 274.764 374.122 278.098C372.409 281.433 371.675 285.482 371.675 290.484V294.057C371.675 297.391 369.961 299.059 366.29 298.821L354.787 298.344C351.116 298.106 349.402 296.439 349.402 292.866V288.102C349.402 280.242 350.626 274.049 353.563 269.285C356.255 264.522 361.395 259.996 369.227 255.232L375.835 249.992L363.353 240.941C357.969 236.892 354.297 232.604 352.339 228.079C350.626 223.553 349.647 217.837 349.402 210.929V207.595C349.402 204.26 351.116 202.593 354.787 202.831L366.29 203.307C369.961 203.546 371.675 205.213 371.919 208.786V210.215C371.919 213.788 372.164 216.884 372.409 219.028C372.654 221.171 373.388 223.315 374.612 224.982C375.835 226.888 376.814 228.317 378.283 229.508C379.507 230.699 381.71 232.366 384.647 234.51L392.234 239.988L399.821 235.224C402.758 233.319 404.961 231.89 406.185 230.937C407.408 229.984 408.632 228.555 409.611 226.888C410.835 225.221 411.324 223.315 411.814 221.171C412.059 219.028 412.303 216.169 412.303 212.358V210.929C412.303 207.595 414.261 205.927 417.933 206.166L428.702 206.642Z" fill="url(#paint20_linear_403_1013)"/>
<path fill-rule="evenodd" clip-rule="evenodd" d="M417.43 32.6557L415.34 33.9685H406.707L419.78 26.534C422.167 25.1765 424.866 24.4628 427.612 24.4628H430.466L430.469 24.4608C434.43 24.4608 436.014 27.313 436.014 27.6294L435.999 27.6365L436.018 27.6289L437.458 57.0972L437.297 57.1892L438.392 76.7429L423.975 84.9812L422.866 65.1776L423.025 65.087L421.018 34.74L420.979 34.7587C420.899 34.6794 419.945 34.1249 418.991 33.5704C418.402 33.2283 417.813 32.8862 417.43 32.6557Z" fill="url(#paint21_linear_403_1013)"/>
<path d="M422.551 84.6665L438.394 76.7451C439.978 84.6665 454.236 83.2407 454.236 83.8744L453.444 96.5487C424.927 110.807 422.551 85.4587 422.551 84.6665Z" fill="url(#paint22_linear_403_1013)"/>
<path fill-rule="evenodd" clip-rule="evenodd" d="M433.534 48.4761L433.499 48.4975C434.291 48.4975 441.873 48.3871 442.349 48.2287L443.227 47.7371C443.256 47.7425 443.285 47.7481 443.314 47.754L443.589 47.5972C443.857 47.6046 444.151 47.6356 444.46 47.6682L444.46 47.6682L444.46 47.6682C444.805 47.7046 445.168 47.743 445.534 47.752L445.532 47.7528C446.133 47.9029 446.733 48.0531 447.334 48.0684L447.102 48.2281C447.547 48.2281 448.158 48.3067 448.646 48.4638L447.999 48.9979C448.633 49.1563 454.879 50.9224 455.354 51.3977L455.458 51.3382C455.954 51.8721 457.565 54.1205 459.176 56.369L459.176 56.369L459.176 56.369C460.929 58.8156 462.682 61.2622 462.999 61.4999L463.725 60.9556C463.909 61.3624 464.074 61.7857 464.233 62.2257L463.737 62.4867C463.883 62.9251 464.235 63.4983 464.602 64.0975C465.031 64.7976 465.482 65.5332 465.653 66.1307L465.651 66.1318C465.71 66.4267 465.791 66.7436 465.878 67.0824C466.024 67.6537 466.186 68.2874 466.285 68.9835L480.702 60.7453L480.702 60.7451C480.544 59.7946 480.385 58.8442 480.068 57.8937L480.07 57.8926C479.889 57.2579 479.599 56.5712 479.325 55.9217L479.325 55.9216L479.325 55.9214L479.324 55.9206C479.176 55.5685 479.031 55.2274 478.912 54.9114L478.96 54.8842C478.493 53.6399 477.874 52.3957 477.252 51.1514L477.376 51.0804C476.425 49.4963 475.316 47.9122 474.049 46.6448L474.051 46.644L473.892 46.4856C473.7 46.2932 473.507 46.1009 473.315 45.9109C471.479 43.8476 470.268 43.2465 469.816 43.0227L469.771 42.9999L469.645 43.0715L469.62 43.0536L469.62 43.0535C468.901 42.5425 466.256 40.6605 462.691 39.861C461.925 39.5888 460.912 39.5304 460.239 39.5179C460.041 39.5073 459.842 39.5007 459.64 39.4986C459.421 39.4834 459.21 39.46 458.999 39.4365C458.731 39.4068 458.464 39.377 458.179 39.3641L458.192 39.3573C458.112 39.3573 457.969 39.3516 457.77 39.3435C456.392 39.2881 452.305 39.1238 447.499 39.9979L441.883 43.4076L432.051 49.0202C432.207 48.9682 432.484 48.8649 432.809 48.744L432.809 48.744L432.809 48.744L432.809 48.7439L432.81 48.7436C433.037 48.6592 433.286 48.5662 433.534 48.4761ZM481.165 63.2793L481.165 63.2792L481.164 63.2795C481.072 62.6342 480.985 62.2037 480.897 61.7692L480.897 61.769C480.834 61.4571 480.77 61.143 480.704 60.746L466.287 68.9842C466.441 69.9095 466.596 70.8348 466.75 71.9063L466.604 71.9932C466.763 72.7853 466.763 73.5773 466.763 74.5278V74.528L466.911 74.4452L467.471 84.3103C467.378 85.1116 467.064 87.1787 466.749 89.246L466.749 89.2466L466.749 89.2468L466.749 89.2469C466.374 91.7135 465.999 94.1801 465.999 94.4969L466.511 94.4525L466.446 94.648L466.445 94.6483C466.366 94.8859 466.287 95.1632 466.207 95.4404C466.128 95.7175 466.049 95.9946 465.97 96.2321L465.97 96.2322C465.906 96.4248 465.815 96.6173 465.72 96.8204L465.72 96.8205C465.581 97.1185 465.43 97.4392 465.336 97.8158L465.335 97.8163C465.055 98.2364 464.775 98.7803 464.495 99.3385L464.386 99.401C464.138 100.021 463.793 100.544 463.351 101.045L462.944 101.302C462.627 101.698 462.314 102.134 462.001 102.57L462.001 102.57C461.688 103.005 461.374 103.441 461.058 103.837C459.949 105.105 458.523 106.055 456.938 107.006L471.355 98.7674C472.781 97.8169 474.207 96.8663 475.475 95.5989C475.575 95.4986 475.69 95.3882 475.815 95.2686C476.302 94.8019 476.935 94.1953 477.394 93.5061L477.499 93.4969C482.21 87.3727 482.014 81.0134 481.975 79.7686C481.973 79.6923 481.971 79.6351 481.971 79.5985L481.965 79.6004L481.97 79.5974V77.5394L481.972 77.5383L481.234 64.4968C481.241 64.0322 481.228 63.5934 481.165 63.2792L481.165 63.2793Z" fill="url(#paint23_linear_403_1013)"/>
<g style="mix-blend-mode:lighten" filter="url(#filter9_f_403_1013)">
<path d="M418.797 32.3838C421.054 32.3838 421.392 33.8038 421.714 35.6973L423.326 65.203L424.455 84.926C425.1 95.4976 430.097 99.2844 439.608 99.2844C449.442 99.2844 454.117 93.9197 453.472 83.3482L453.149 76.7212C452.827 70.4098 451.537 67.2542 449.119 64.414C446.701 61.5739 444.605 60.6272 438.802 60.6272C438.157 60.6272 436.062 60.9428 435.417 61.1006C435.256 61.1006 435.094 61.1006 434.933 61.1006C433.643 61.1006 432.354 59.9961 432.354 58.576L431.87 50.529C431.87 49.2667 432.515 48.32 433.643 48.0044C435.578 47.5311 439.124 47.2155 441.381 47.2155C449.442 47.2155 455.729 49.5823 460.242 54.3158C464.756 59.0494 467.335 65.6763 467.819 74.0389L468.464 85.2416C468.786 92.8152 466.529 98.6533 461.854 103.229C457.179 107.805 449.925 110.014 440.253 110.014C435.417 110.014 431.064 109.383 427.195 108.12C423.326 106.858 420.263 105.122 417.684 102.756C415.266 100.547 413.332 97.8643 411.881 94.8664C410.591 91.8685 409.624 88.7128 409.463 85.0838L406.722 35.6973C406.561 33.4883 407.689 32.3838 410.269 32.3838H418.006H418.797Z" fill="url(#paint24_linear_403_1013)" fill-opacity="0.6"/>
</g>
<path d="M418.797 32.3838C421.054 32.3838 421.392 33.8038 421.714 35.6973L423.326 65.203L424.455 84.926C425.1 95.4976 430.097 99.2844 439.608 99.2844C449.442 99.2844 454.117 93.9197 453.472 83.3482L453.149 76.7212C452.827 70.4098 451.537 67.2542 449.119 64.414C446.701 61.5739 444.605 60.6272 438.802 60.6272C438.157 60.6272 436.062 60.9428 435.417 61.1006C435.256 61.1006 435.094 61.1006 434.933 61.1006C433.643 61.1006 432.354 59.9961 432.354 58.576L431.87 50.529C431.87 49.2667 432.515 48.32 433.643 48.0044C435.578 47.5311 439.124 47.2155 441.381 47.2155C449.442 47.2155 455.729 49.5823 460.242 54.3158C464.756 59.0494 467.335 65.6763 467.819 74.0389L468.464 85.2416C468.786 92.8152 466.529 98.6533 461.854 103.229C457.179 107.805 449.925 110.014 440.253 110.014C435.417 110.014 431.064 109.383 427.195 108.12C423.326 106.858 420.263 105.122 417.684 102.756C415.266 100.547 413.332 97.8643 411.881 94.8664C410.591 91.8685 409.624 88.7128 409.463 85.0838L406.722 35.6973C406.561 33.4883 407.689 32.3838 410.269 32.3838H418.006H418.797Z" fill="url(#paint25_linear_403_1013)"/>
<path fill-rule="evenodd" clip-rule="evenodd" d="M498.19 160.588C498.011 160.686 498.067 160.841 498.266 160.793C498.618 160.708 499.054 160.599 499.491 160.49L499.491 160.49L499.491 160.49L499.491 160.49C500.299 160.288 501.107 160.087 501.378 160.035L509.625 160.799L509.365 160.958C509.562 160.958 514.302 165.895 514.302 165.895L514.795 165.61L517.807 221.336L516.278 222.177C516.055 222.289 516.215 223.47 516.362 224.548C516.475 225.381 516.58 226.152 516.494 226.324L534.464 216.055C534.469 216.051 534.474 216.046 534.481 216.04C534.487 216.035 534.493 216.029 534.501 216.023C534.517 216.009 534.538 215.992 534.562 215.972C535.047 215.572 536.927 214.02 536.026 211.316L535.981 211.34L536.024 211.314L533.062 155.035L533.062 155.034C533.062 155.034 533.062 150.099 527.141 150.097H527.138H518.254L518.202 150.127L518.252 150.097C517.604 150.097 516.967 150.261 516.399 150.573L498.19 160.588Z" fill="url(#paint26_linear_403_1013)"/>
<g style="mix-blend-mode:lighten" filter="url(#filter10_f_403_1013)">
<path d="M510.174 159.971C513.136 159.971 514.716 161.354 514.913 164.316L518.073 222.769C518.27 225.534 516.888 227.114 513.926 227.114H504.644C501.682 227.114 500.102 225.732 499.905 222.769L496.745 164.316C496.548 161.551 497.93 159.971 500.892 159.971H510.174V159.971Z" fill="url(#paint27_linear_403_1013)" fill-opacity="0.6"/>
</g>
<path d="M510.174 159.971C513.136 159.971 514.716 161.354 514.913 164.316L518.073 222.769C518.27 225.534 516.888 227.114 513.926 227.114H504.644C501.682 227.114 500.102 225.732 499.905 222.769L496.745 164.316C496.548 161.551 497.93 159.971 500.892 159.971H510.174V159.971Z" fill="url(#paint28_linear_403_1013)"/>
<path d="M508.789 148.712L526.76 138.443C526.563 138.64 526.563 138.64 526.365 138.64L508.395 148.909C508.592 148.909 508.789 148.712 508.789 148.712Z" fill="#858585"/>
<path fill-rule="evenodd" clip-rule="evenodd" d="M510.212 131.711L509.774 131.96C509.774 131.96 507.602 129.44 505.414 129.355L524.266 119.292C525.193 118.812 525.838 118.866 526.288 119.176C526.45 119.205 526.61 119.253 526.764 119.32C527.009 119.426 527.233 119.579 527.422 119.768L533.06 125.406L533.05 125.413L533.061 125.406C533.061 125.406 535.612 127.957 534.401 129.903L534.66 129.752L526.958 138.243L508.79 148.71L512.557 144.66C513.592 142.343 515.288 137.255 515.288 137.255L515.643 137.018L510.212 131.711Z" fill="url(#paint29_linear_403_1013)"/>
<path d="M506.617 128.764C507.012 128.764 507.407 128.962 507.802 129.159L516.491 137.651C517.084 138.243 517.281 139.428 516.689 140.02L508.987 148.512C508.79 148.907 508.197 148.907 507.802 148.907C507.407 148.907 507.012 148.709 506.617 148.512L497.928 140.02C497.336 139.428 497.138 138.243 497.731 137.651L505.432 129.159C505.827 128.962 506.222 128.764 506.617 128.764Z" fill="url(#paint30_linear_403_1013)"/>
<path fill-rule="evenodd" clip-rule="evenodd" d="M542.619 279.782C542.599 279.765 542.579 279.749 542.559 279.732L544.664 278.59L542.55 279.725C542.246 279.472 541.99 279.249 541.998 279.186L542.03 279.169C542.009 279.169 541.999 279.175 541.998 279.186L513.045 295.11H517.393L519.477 293.952H536.55L562.926 278.59H544.666L542.619 279.782Z" fill="#6AAFF3"/>
<path d="M563.771 315.403L590.712 300.91L592.756 343.319L566.14 358.88L563.771 315.403Z" fill="#65ABEC"/>
<path fill-rule="evenodd" clip-rule="evenodd" d="M592.757 341.487L566.671 355.979C565.349 377.133 590.56 374.164 597.656 370.621C600.117 370.847 604.186 371.287 607.01 371.593L607.011 371.593L607.012 371.593C607.852 371.684 608.582 371.763 609.126 371.821C610.235 375.598 613.049 385.93 613.049 386.412L638.974 370.857C641.006 369.638 642.758 367.926 642.51 365.569C642.177 362.406 640.615 358.04 637.824 356.073C637.758 356.027 637.677 356.012 637.6 356.03L637.685 355.981C637.644 355.981 637.501 355.924 637.265 355.83C635.816 355.253 630.872 353.285 624.642 354.532L624.59 354.56L624.641 354.53C622.612 355.11 601.453 354.53 592.757 341.487Z" fill="url(#paint31_linear_403_1013)"/>
<path fill-rule="evenodd" clip-rule="evenodd" d="M553.625 250.186L534.785 251.635L560.18 237.783C564.437 235.461 569.21 234.244 574.059 234.244H578.259L578.262 234.242C585.508 234.242 586.957 242.648 586.957 242.937L560.871 255.981C560.871 255.836 559.06 254.459 557.248 253.082C555.445 251.712 553.643 250.342 553.625 250.186ZM560.873 255.982L586.96 242.939L589.595 278.591L562.323 295.111L560.873 255.982Z" fill="url(#paint32_linear_403_1013)"/>
<path fill-rule="evenodd" clip-rule="evenodd" d="M624.64 277.722L624.635 277.725H588.77L560.875 294.786L597.367 295.115L598.712 294.258C599.279 294.424 599.936 294.606 600.578 294.784C601.491 295.037 602.374 295.282 602.931 295.461L604.351 312.502L604.613 312.337C604.154 313.487 603.594 314.708 602.901 315.401L629.595 300.33C630.173 300.04 631.879 298.018 631.886 295.129L631.913 295.111L630.437 280.62L630.437 280.619L630.437 280.619C628.988 277.722 627.539 277.722 624.641 277.722H624.64Z" fill="url(#paint33_linear_403_1013)"/>
<g style="mix-blend-mode:lighten" filter="url(#filter11_f_403_1013)">
<path d="M555.075 250.188C559.422 250.188 560.899 251.927 560.899 255.985L562.928 293.665H597.709C602.057 293.665 604.376 295.694 604.666 299.752L605.245 309.897C605.535 313.954 603.506 315.983 598.869 315.983H564.087L566.406 355.982C566.696 361.2 568.725 365.257 572.203 367.866C575.971 370.475 580.319 371.924 585.246 371.924C590.173 371.924 595.101 370.764 600.898 368.156C602.347 367.576 603.506 367.286 604.666 367.286C606.695 367.286 608.724 368.446 609.883 370.764L614.521 378.3C616.839 382.069 616.26 384.967 612.202 386.706C603.796 390.474 594.521 392.503 584.087 392.503C571.044 392.503 560.609 389.315 552.493 383.228C544.667 377.141 540.32 368.446 539.74 357.721L537.421 316.273H519.161C514.813 316.273 512.494 314.244 512.205 310.186L511.625 300.042C511.335 295.984 513.364 293.955 517.422 293.955H535.682L533.653 256.275C533.363 252.217 535.392 250.188 539.74 250.188H554.232L555.075 250.188Z" fill="url(#paint34_linear_403_1013)" fill-opacity="0.6"/>
</g>
<path d="M555.075 250.188C559.422 250.188 560.899 251.927 560.899 255.985L562.928 293.665H597.709C602.057 293.665 604.376 295.694 604.666 299.752L605.245 309.897C605.535 313.954 603.506 315.983 598.869 315.983H564.087L566.406 355.982C566.696 361.2 568.725 365.257 572.203 367.866C575.971 370.475 580.319 371.924 585.246 371.924C590.173 371.924 595.101 370.764 600.898 368.156C602.347 367.576 603.506 367.286 604.666 367.286C606.695 367.286 608.724 368.446 609.883 370.764L614.521 378.3C616.839 382.069 616.26 384.967 612.202 386.706C603.796 390.474 594.521 392.503 584.087 392.503C571.044 392.503 560.609 389.315 552.493 383.228C544.667 377.141 540.32 368.446 539.74 357.721L537.421 316.273H519.161C514.813 316.273 512.494 314.244 512.205 310.186L511.625 300.042C511.335 295.984 513.364 293.955 517.422 293.955H535.682L533.653 256.275C533.363 252.217 535.392 250.188 539.74 250.188H554.232L555.075 250.188Z" fill="url(#paint35_linear_403_1013)"/>
<defs>
<filter id="filter0_f_403_1013" x="63.4737" y="178.142" width="413.1" height="113.159" filterUnits="userSpaceOnUse" color-interpolation-filters="sRGB">
<feFlood flood-opacity="0" result="BackgroundImageFix"/>
<feBlend mode="normal" in="SourceGraphic" in2="BackgroundImageFix" result="shape"/>
<feGaussianBlur stdDeviation="3.1323" result="effect1_foregroundBlur_403_1013"/>
</filter>
<filter id="filter1_f_403_1013" x="0.822533" y="221.756" width="107.292" height="114.856" filterUnits="userSpaceOnUse" color-interpolation-filters="sRGB">
<feFlood flood-opacity="0" result="BackgroundImageFix"/>
<feBlend mode="normal" in="SourceGraphic" in2="BackgroundImageFix" result="shape"/>
<feGaussianBlur stdDeviation="16.5887" result="effect1_foregroundBlur_403_1013"/>
</filter>
<filter id="filter2_f_403_1013" x="42.8147" y="172.604" width="121.63" height="162.922" filterUnits="userSpaceOnUse" color-interpolation-filters="sRGB">
<feFlood flood-opacity="0" result="BackgroundImageFix"/>
<feBlend mode="normal" in="SourceGraphic" in2="BackgroundImageFix" result="shape"/>
<feGaussianBlur stdDeviation="16.5887" result="effect1_foregroundBlur_403_1013"/>
</filter>
<filter id="filter3_f_403_1013" x="539.125" y="222.35" width="131.675" height="165.896" filterUnits="userSpaceOnUse" color-interpolation-filters="sRGB">
<feFlood flood-opacity="0" result="BackgroundImageFix"/>
<feBlend mode="normal" in="SourceGraphic" in2="BackgroundImageFix" result="shape"/>
<feGaussianBlur stdDeviation="3.71963" result="effect1_foregroundBlur_403_1013"/>
</filter>
<filter id="filter4_f_403_1013" x="415.635" y="18.5139" width="76.6656" height="92.5084" filterUnits="userSpaceOnUse" color-interpolation-filters="sRGB">
<feFlood flood-opacity="0" result="BackgroundImageFix"/>
<feBlend mode="normal" in="SourceGraphic" in2="BackgroundImageFix" result="shape"/>
<feGaussianBlur stdDeviation="3.71963" result="effect1_foregroundBlur_403_1013"/>
</filter>
<filter id="filter5_f_403_1013" x="518.295" y="133.779" width="36.2437" height="82.0211" filterUnits="userSpaceOnUse" color-interpolation-filters="sRGB">
<feFlood flood-opacity="0" result="BackgroundImageFix"/>
<feBlend mode="normal" in="SourceGraphic" in2="BackgroundImageFix" result="shape"/>
<feGaussianBlur stdDeviation="3.71963" result="effect1_foregroundBlur_403_1013"/>
</filter>
<filter id="filter6_f_403_1013" x="518.944" y="102.578" width="34.5523" height="35.0211" filterUnits="userSpaceOnUse" color-interpolation-filters="sRGB">
<feFlood flood-opacity="0" result="BackgroundImageFix"/>
<feBlend mode="normal" in="SourceGraphic" in2="BackgroundImageFix" result="shape"/>
<feGaussianBlur stdDeviation="3.71963" result="effect1_foregroundBlur_403_1013"/>
</filter>
<filter id="filter7_f_403_1013" x="195.596" y="173.759" width="152.71" height="161.239" filterUnits="userSpaceOnUse" color-interpolation-filters="sRGB">
<feFlood flood-opacity="0" result="BackgroundImageFix"/>
<feBlend mode="normal" in="SourceGraphic" in2="BackgroundImageFix" result="shape"/>
<feGaussianBlur stdDeviation="16.5887" result="effect1_foregroundBlur_403_1013"/>
</filter>
<filter id="filter8_f_403_1013" x="316.225" y="169.631" width="151.529" height="165.724" filterUnits="userSpaceOnUse" color-interpolation-filters="sRGB">
<feFlood flood-opacity="0" result="BackgroundImageFix"/>
<feBlend mode="normal" in="SourceGraphic" in2="BackgroundImageFix" result="shape"/>
<feGaussianBlur stdDeviation="16.5887" result="effect1_foregroundBlur_403_1013"/>
</filter>
<filter id="filter9_f_403_1013" x="375.021" y="0.698093" width="125.159" height="141.001" filterUnits="userSpaceOnUse" color-interpolation-filters="sRGB">
<feFlood flood-opacity="0" result="BackgroundImageFix"/>
<feBlend mode="normal" in="SourceGraphic" in2="BackgroundImageFix" result="shape"/>
<feGaussianBlur stdDeviation="15.8428" result="effect1_foregroundBlur_403_1013"/>
</filter>
<filter id="filter10_f_403_1013" x="457.231" y="120.476" width="100.357" height="146.134" filterUnits="userSpaceOnUse" color-interpolation-filters="sRGB">
<feFlood flood-opacity="0" result="BackgroundImageFix"/>
<feBlend mode="normal" in="SourceGraphic" in2="BackgroundImageFix" result="shape"/>
<feGaussianBlur stdDeviation="19.7478" result="effect1_foregroundBlur_403_1013"/>
</filter>
<filter id="filter11_f_403_1013" x="453.628" y="192.218" width="220.218" height="258.254" filterUnits="userSpaceOnUse" color-interpolation-filters="sRGB">
<feFlood flood-opacity="0" result="BackgroundImageFix"/>
<feBlend mode="normal" in="SourceGraphic" in2="BackgroundImageFix" result="shape"/>
<feGaussianBlur stdDeviation="28.9847" result="effect1_foregroundBlur_403_1013"/>
</filter>
<linearGradient id="paint0_linear_403_1013" x1="75.1675" y1="246.43" x2="75.1675" y2="303.306" gradientUnits="userSpaceOnUse">
<stop stop-color="#A6DAF9"/>
<stop offset="0.336458" stop-color="#BFEBFD"/>
<stop offset="0.753125" stop-color="#85C5F5"/>
<stop offset="0.992708" stop-color="#56A2DF"/>
</linearGradient>
<linearGradient id="paint1_linear_403_1013" x1="72.9898" y1="256.179" x2="26.676" y2="287.685" gradientUnits="userSpaceOnUse">
<stop stop-color="#0073FF"/>
<stop offset="1" stop-color="#BB6DF5"/>
</linearGradient>
<linearGradient id="paint2_linear_403_1013" x1="54.4686" y1="254.934" x2="54.4686" y2="303.435" gradientUnits="userSpaceOnUse">
<stop stop-color="#E4F7FF"/>
<stop offset="0.961458" stop-color="#C6EFFF"/>
</linearGradient>
<linearGradient id="paint3_linear_403_1013" x1="117.929" y1="194.188" x2="117.929" y2="302.318" gradientUnits="userSpaceOnUse">
<stop stop-color="#A6DAF9"/>
<stop offset="0.336458" stop-color="#BFEBFD"/>
<stop offset="0.753125" stop-color="#85C5F5"/>
<stop offset="0.992708" stop-color="#56A2DF"/>
</linearGradient>
<linearGradient id="paint4_linear_403_1013" x1="128.638" y1="208.26" x2="53.2158" y2="243.056" gradientUnits="userSpaceOnUse">
<stop stop-color="#0073FF"/>
<stop offset="1" stop-color="#BB6DF5"/>
</linearGradient>
<linearGradient id="paint5_linear_403_1013" x1="103.63" y1="205.781" x2="103.63" y2="302.349" gradientUnits="userSpaceOnUse">
<stop stop-color="#E4F7FF"/>
<stop offset="0.961458" stop-color="#C6EFFF"/>
</linearGradient>
<linearGradient id="paint6_linear_403_1013" x1="255.985" y1="259.594" x2="304.486" y2="272.606" gradientUnits="userSpaceOnUse">
<stop stop-color="#5CA6E2"/>
<stop offset="1" stop-color="#D5F3FF"/>
</linearGradient>
<linearGradient id="paint7_linear_403_1013" x1="297.385" y1="240.667" x2="254.798" y2="235.935" gradientUnits="userSpaceOnUse">
<stop stop-color="#63AAE4"/>
<stop offset="1" stop-color="#BDE6FB"/>
</linearGradient>
<linearGradient id="paint8_linear_403_1013" x1="314.637" y1="259.354" x2="328.146" y2="283.251" gradientUnits="userSpaceOnUse">
<stop offset="0.0820089" stop-color="#83C0EC"/>
<stop offset="0.468857" stop-color="#B2DFF8"/>
<stop offset="1" stop-color="#61A9E3"/>
</linearGradient>
<linearGradient id="paint9_linear_403_1013" x1="246.517" y1="206.36" x2="329.325" y2="252.496" gradientUnits="userSpaceOnUse">
<stop stop-color="#A9DCF9"/>
<stop offset="0.443971" stop-color="#CEF1FF"/>
<stop offset="0.95625" stop-color="#5CA6E2"/>
</linearGradient>
<linearGradient id="paint10_linear_403_1013" x1="311.022" y1="209.372" x2="218.107" y2="277.53" gradientUnits="userSpaceOnUse">
<stop stop-color="#0073FF"/>
<stop offset="1" stop-color="#BB6DF5"/>
</linearGradient>
<linearGradient id="paint11_linear_403_1013" x1="271.952" y1="206.937" x2="271.952" y2="301.82" gradientUnits="userSpaceOnUse">
<stop stop-color="#E3F7FF"/>
<stop offset="1" stop-color="#C7EFFF"/>
</linearGradient>
<linearGradient id="paint12_linear_403_1013" x1="179" y1="195.976" x2="179" y2="301.958" gradientUnits="userSpaceOnUse">
<stop stop-color="#A6DAF9"/>
<stop offset="0.336458" stop-color="#BFEBFD"/>
<stop offset="0.753125" stop-color="#85C5F5"/>
<stop offset="0.992708" stop-color="#56A2DF"/>
</linearGradient>
<linearGradient id="paint13_linear_403_1013" x1="164.776" y1="206.288" x2="164.776" y2="302.854" gradientUnits="userSpaceOnUse">
<stop stop-color="#E4F7FF"/>
<stop offset="0.961458" stop-color="#C6EFFF"/>
</linearGradient>
<linearGradient id="paint14_linear_403_1013" x1="390.807" y1="252.255" x2="390.807" y2="299.101" gradientUnits="userSpaceOnUse">
<stop stop-color="#64ABE4"/>
<stop offset="1" stop-color="#A1D2F3"/>
</linearGradient>
<linearGradient id="paint15_linear_403_1013" x1="365.957" y1="189.797" x2="397.896" y2="239.482" gradientUnits="userSpaceOnUse">
<stop stop-color="#71B3E7"/>
<stop offset="0.323589" stop-color="#BEE6FB"/>
<stop offset="1" stop-color="#5CA6E2"/>
</linearGradient>
<linearGradient id="paint16_linear_403_1013" x1="420.377" y1="246.578" x2="448.768" y2="291.53" gradientUnits="userSpaceOnUse">
<stop stop-color="#9DD0F2"/>
<stop offset="0.46908" stop-color="#BBE4FA"/>
<stop offset="1" stop-color="#66ACE4"/>
</linearGradient>
<linearGradient id="paint17_linear_403_1013" x1="446.403" y1="208.725" x2="447.586" y2="212.274" gradientUnits="userSpaceOnUse">
<stop stop-color="#97CCF1"/>
<stop offset="1" stop-color="#A5D5F4"/>
</linearGradient>
<linearGradient id="paint18_linear_403_1013" x1="430.223" y1="196.659" x2="430.223" y2="252.965" gradientUnits="userSpaceOnUse">
<stop stop-color="#8CC5EE"/>
<stop offset="0.544792" stop-color="#B0DDF7"/>
<stop offset="1" stop-color="#68AEE5"/>
</linearGradient>
<linearGradient id="paint19_linear_403_1013" x1="430.524" y1="205.36" x2="335.109" y2="271.277" gradientUnits="userSpaceOnUse">
<stop stop-color="#0073FF"/>
<stop offset="1" stop-color="#BB6DF5"/>
</linearGradient>
<linearGradient id="paint20_linear_403_1013" x1="391.989" y1="202.809" x2="391.989" y2="302.178" gradientUnits="userSpaceOnUse">
<stop stop-color="#E3F7FF"/>
<stop offset="1" stop-color="#C7EFFF"/>
</linearGradient>
<linearGradient id="paint21_linear_403_1013" x1="419.381" y1="22.8766" x2="438.393" y2="57.7308" gradientUnits="userSpaceOnUse">
<stop offset="0.0410838" stop-color="#F5CF87"/>
<stop offset="0.305747" stop-color="#FDF0DD"/>
<stop offset="1" stop-color="#E7AF39"/>
</linearGradient>
<linearGradient id="paint22_linear_403_1013" x1="429.68" y1="81.498" x2="443.939" y2="98.133" gradientUnits="userSpaceOnUse">
<stop stop-color="#E7AF39"/>
<stop offset="1" stop-color="#F7E0B5"/>
</linearGradient>
<linearGradient id="paint23_linear_403_1013" x1="433.636" y1="50.5526" x2="455.846" y2="108.424" gradientUnits="userSpaceOnUse">
<stop stop-color="#E7AF39"/>
<stop offset="0.273958" stop-color="#F8DCA9"/>
<stop offset="0.529528" stop-color="#FDEFDA"/>
<stop offset="1" stop-color="#E7AF39"/>
</linearGradient>
<linearGradient id="paint24_linear_403_1013" x1="467.047" y1="37.3755" x2="391.078" y2="70.5092" gradientUnits="userSpaceOnUse">
<stop stop-color="#FFA361"/>
<stop offset="1" stop-color="#FD2222"/>
</linearGradient>
<linearGradient id="paint25_linear_403_1013" x1="437.601" y1="32.3838" x2="437.601" y2="110.014" gradientUnits="userSpaceOnUse">
<stop stop-color="#F9D176"/>
<stop offset="1" stop-color="#FCC432"/>
</linearGradient>
<linearGradient id="paint26_linear_403_1013" x1="497.517" y1="162.933" x2="538.987" y2="228.103" gradientUnits="userSpaceOnUse">
<stop stop-color="#F98A7C"/>
<stop offset="0.149792" stop-color="#FBB3A3"/>
<stop offset="1" stop-color="#CF3F44"/>
</linearGradient>
<linearGradient id="paint27_linear_403_1013" x1="515.867" y1="162.235" x2="474.829" y2="203.621" gradientUnits="userSpaceOnUse">
<stop stop-color="#FF5710"/>
<stop offset="1" stop-color="#FF0037"/>
</linearGradient>
<linearGradient id="paint28_linear_403_1013" x1="520.227" y1="154.047" x2="500.479" y2="235.013" gradientUnits="userSpaceOnUse">
<stop stop-color="#F09278"/>
<stop offset="1" stop-color="#C44640"/>
</linearGradient>
<linearGradient id="paint29_linear_403_1013" x1="507.389" y1="124.419" x2="520.072" y2="148.709" gradientUnits="userSpaceOnUse">
<stop stop-color="#F98A7C"/>
<stop offset="0.513542" stop-color="#FAB2A2"/>
<stop offset="1" stop-color="#D85657"/>
</linearGradient>
<linearGradient id="paint30_linear_403_1013" x1="507.21" y1="128.764" x2="507.21" y2="148.907" gradientUnits="userSpaceOnUse">
<stop stop-color="#EA8871"/>
<stop offset="1" stop-color="#C94E46"/>
</linearGradient>
<linearGradient id="paint31_linear_403_1013" x1="582.614" y1="345.835" x2="611.597" y2="387.863" gradientUnits="userSpaceOnUse">
<stop stop-color="#67ABEF"/>
<stop offset="0.713831" stop-color="#9CDDF7"/>
<stop offset="1" stop-color="#67ABEF"/>
</linearGradient>
<linearGradient id="paint32_linear_403_1013" x1="550.727" y1="243.15" x2="570.367" y2="291.819" gradientUnits="userSpaceOnUse">
<stop stop-color="#70B4F3"/>
<stop offset="0.255958" stop-color="#A0DFF8"/>
<stop offset="1" stop-color="#65ABF0"/>
</linearGradient>
<linearGradient id="paint33_linear_403_1013" x1="581.999" y1="269.997" x2="610.493" y2="310.772" gradientUnits="userSpaceOnUse">
<stop stop-color="#6FB4F3"/>
<stop offset="0.607839" stop-color="#9FDEF7"/>
<stop offset="1" stop-color="#65ABEF"/>
</linearGradient>
<linearGradient id="paint34_linear_403_1013" x1="610.916" y1="253.841" x2="482.969" y2="329.403" gradientUnits="userSpaceOnUse">
<stop stop-color="#0073FF"/>
<stop offset="1" stop-color="#BB6DF5"/>
</linearGradient>
<linearGradient id="paint35_linear_403_1013" x1="571.499" y1="227.498" x2="569.567" y2="406.705" gradientUnits="userSpaceOnUse">
<stop stop-color="#E1F6FF"/>
<stop offset="1" stop-color="#C8EFFF"/>
</linearGradient>
</defs>
</svg>
