<svg width="674" height="451" fill="none" xmlns="http://www.w3.org/2000/svg"><path fill-rule="evenodd" clip-rule="evenodd" d="m417.43 32.654-2.09 1.313h-8.633l13.073-7.435a15.844 15.844 0 0 1 7.832-2.071h2.854l.003-.002c3.961 0 5.545 2.852 5.545 3.169l-.015.007.019-.008 1.44 29.468-.161.092 1.095 19.554-14.417 8.238-1.109-19.803.159-.09-2.007-30.348-.039.019c-.08-.08-1.034-.634-1.988-1.188-.589-.343-1.178-.685-1.561-.915Z" fill="url(#a)"/><path d="m422.551 84.665 15.843-7.922c1.584 7.922 15.842 6.496 15.842 7.13l-.792 12.674c-28.517 14.258-30.893-11.09-30.893-11.882Z" fill="url(#b)"/><path fill-rule="evenodd" clip-rule="evenodd" d="m433.535 48.474-.035.022c.792 0 8.374-.11 8.85-.27l.878-.49.087.016.275-.157c.268.008.562.039.871.071.345.037.708.075 1.074.084h-.002c.601.151 1.201.301 1.802.316l-.232.16a5.49 5.49 0 0 1 1.544.236l-.647.534c.634.158 6.88 1.925 7.355 2.4l.104-.06c.496.534 2.107 2.783 3.718 5.031 1.753 2.447 3.506 4.893 3.823 5.131l.726-.544c.183.407.349.83.508 1.27l-.496.26c.146.44.498 1.012.865 1.612.429.7.88 1.435 1.051 2.033l-.002.001c.059.295.14.612.227.95.146.572.308 1.206.407 1.902l14.417-8.239c-.158-.95-.317-1.9-.634-2.851l.002-.001c-.181-.635-.471-1.322-.745-1.971l-.001-.001a28.081 28.081 0 0 1-.412-1.01l.048-.027c-.467-1.244-1.086-2.488-1.708-3.732l.124-.072c-.951-1.584-2.06-3.168-3.327-4.435h.002l-.159-.16-.577-.574c-1.836-2.063-3.048-2.664-3.499-2.888l-.046-.023-.125.072-.025-.018c-.719-.511-3.364-2.393-6.929-3.193-.766-.272-1.779-.33-2.452-.343-.198-.01-.397-.017-.599-.02-.219-.014-.43-.038-.641-.061-.268-.03-.535-.06-.82-.073l.012-.007c-.079 0-.222-.005-.421-.013-1.378-.056-5.465-.22-10.271.654l-5.616 3.41-9.832 5.612c.156-.052.433-.155.758-.276l.725-.268Zm47.631 14.804h-.001a23.707 23.707 0 0 0-.267-1.51c-.063-.313-.127-.627-.193-1.024l-14.417 8.238c.154.926.309 1.851.463 2.922l-.146.087c.159.792.159 1.585.159 2.535l.148-.083.56 9.865c-.093.802-.407 2.87-.722 4.937-.375 2.467-.75 4.933-.75 5.25l.512-.044-.066.195c-.079.238-.158.515-.238.793-.079.277-.158.554-.237.791a5.804 5.804 0 0 1-.25.589c-.139.298-.29.618-.384.995h-.001c-.28.42-.56.964-.84 1.523l-.109.062a5.59 5.59 0 0 1-1.035 1.645l-.407.257c-.317.396-.63.831-.943 1.267-.313.436-.627.871-.943 1.267-1.109 1.268-2.535 2.218-4.12 3.169l14.417-8.238c1.426-.951 2.852-1.902 4.12-3.169.1-.1.215-.21.34-.33.487-.467 1.12-1.073 1.579-1.763l.105-.009c4.711-6.124 4.514-12.483 4.476-13.728l-.004-.17-.006.002.005-.004v-2.058h.002l-.738-13.042c.007-.465-.006-.904-.069-1.218Z" fill="url(#c)"/><g style="mix-blend-mode:lighten" filter="url(#d)"><path d="M418.797 32.382c2.257 0 2.595 1.42 2.917 3.313l1.612 29.506 1.129 19.723c.645 10.572 5.642 14.358 15.153 14.358 9.834 0 14.509-5.364 13.864-15.936l-.323-6.627c-.322-6.311-1.612-9.467-4.03-12.307s-4.514-3.787-10.317-3.787c-.645 0-2.74.316-3.385.474h-.484c-1.29 0-2.579-1.105-2.579-2.525l-.484-8.047c0-1.262.645-2.209 1.773-2.525 1.935-.473 5.481-.788 7.738-.788 8.061 0 14.348 2.366 18.861 7.1 4.514 4.733 7.093 11.36 7.577 19.723l.645 11.203c.322 7.573-1.935 13.411-6.61 17.987-4.675 4.576-11.929 6.785-21.601 6.785-4.836 0-9.189-.631-13.058-1.894-3.869-1.262-6.932-2.998-9.511-5.364-2.418-2.209-4.352-4.892-5.803-7.89-1.29-2.997-2.257-6.153-2.418-9.782l-2.741-49.387c-.161-2.209.967-3.313 3.547-3.313h8.528Z" fill="url(#e)" fill-opacity=".6"/></g><path d="M418.797 32.382c2.257 0 2.595 1.42 2.917 3.313l1.612 29.506 1.129 19.723c.645 10.572 5.642 14.358 15.153 14.358 9.834 0 14.509-5.364 13.864-15.936l-.323-6.627c-.322-6.311-1.612-9.467-4.03-12.307s-4.514-3.787-10.317-3.787c-.645 0-2.74.316-3.385.474h-.484c-1.29 0-2.579-1.105-2.579-2.525l-.484-8.047c0-1.262.645-2.209 1.773-2.525 1.935-.473 5.481-.788 7.738-.788 8.061 0 14.348 2.366 18.861 7.1 4.514 4.733 7.093 11.36 7.577 19.723l.645 11.203c.322 7.573-1.935 13.411-6.61 17.987-4.675 4.576-11.929 6.785-21.601 6.785-4.836 0-9.189-.631-13.058-1.894-3.869-1.262-6.932-2.998-9.511-5.364-2.418-2.209-4.352-4.892-5.803-7.89-1.29-2.997-2.257-6.153-2.418-9.782l-2.741-49.387c-.161-2.209.967-3.313 3.547-3.313h8.528Z" fill="url(#f)"/><path fill-rule="evenodd" clip-rule="evenodd" d="M498.189 160.588c-.179.098-.123.254.076.206.352-.086.788-.195 1.225-.304.808-.201 1.616-.403 1.887-.455l8.247.765-.26.159c.197 0 4.937 4.937 4.937 4.937l.493-.286 3.012 55.726-1.529.842c-.223.111-.063 1.292.084 2.371.113.832.218 1.604.132 1.776l17.97-10.269a.13.13 0 0 1 .017-.015l.02-.018.061-.05c.485-.401 2.365-1.953 1.464-4.657l-.045.025.043-.026-2.962-56.28s0-4.936-5.921-4.937h-8.887l-.052.029.05-.029c-.648 0-1.285.163-1.853.475l-18.209 10.015Z" fill="url(#g)"/><g style="mix-blend-mode:lighten" filter="url(#h)"><path d="M510.173 159.972c2.962 0 4.542 1.382 4.739 4.344l3.16 58.454c.197 2.765-1.185 4.344-4.147 4.344h-9.282c-2.962 0-4.542-1.382-4.739-4.344l-3.16-58.454c-.197-2.764 1.185-4.344 4.147-4.344h9.282Z" fill="url(#i)" fill-opacity=".6"/></g><path d="M510.173 159.972c2.962 0 4.542 1.382 4.739 4.344l3.16 58.454c.197 2.765-1.185 4.344-4.147 4.344h-9.282c-2.962 0-4.542-1.382-4.739-4.344l-3.16-58.454c-.197-2.764 1.185-4.344 4.147-4.344h9.282Z" fill="url(#j)"/><path d="m508.788 148.712 17.97-10.269c-.197.198-.197.198-.395.198l-17.97 10.269c.197 0 .395-.198.395-.198Z" fill="#858585"/><path fill-rule="evenodd" clip-rule="evenodd" d="m510.212 131.711-.438.249s-2.172-2.52-4.36-2.604l18.852-10.064c.927-.479 1.572-.425 2.022-.116a2.138 2.138 0 0 1 1.134.593l5.638 5.637-.01.008.011-.008s2.551 2.552 1.34 4.497l.259-.151-7.702 8.492-18.168 10.466 3.767-4.049c1.035-2.317 2.731-7.406 2.731-7.406l.355-.237-5.431-5.307Z" fill="url(#k)"/><path d="M506.616 128.765c.395 0 .79.197 1.185.395l8.689 8.491c.593.593.79 1.777.198 2.37l-7.702 8.491c-.197.395-.79.395-1.185.395s-.79-.197-1.185-.395l-8.689-8.491c-.592-.593-.79-1.777-.197-2.37l7.701-8.491c.395-.198.79-.395 1.185-.395Z" fill="url(#l)"/><g filter="url(#m)" fill="#26255F" fill-opacity=".3"><path d="M88.699 236.535c1.892 0 4.022 1.42 4.732 3.549l17.034 41.404c.71 1.656-.473 3.549-2.129 3.549l-33.123-1.656c-4.022-.237-6.625-4.259-4.968-7.808l13.485-35.726c.947-2.365 3.076-3.312 4.969-3.312ZM122.497 187.403c3.076.237 5.915 2.13 7.098 4.969l37.145 86.829c.947 2.366-.71 4.969-3.549 4.732l-15.378-.71c-1.42 0-2.839-.946-3.549-2.366l-31.467-74.053a11.583 11.583 0 0 1 0-9.7l2.603-5.679c1.183-2.602 4.022-4.258 7.097-4.022ZM307.576 188.664c14.432.71 25.078 4.495 32.413 11.12 7.334 6.861 10.883 13.959 10.883 25.552v14.905l-22.003-1.183-23.659-1.419c-6.152-.237-10.884.473-13.959 2.602-3.313 2.129-4.969 6.861-4.969 10.883v2.839c0 3.549 1.893 6.625 5.678 9.228 3.786 2.602 8.991 4.022 15.852 4.258 6.861.473 12.066-.946 15.615-4.495 2.603-2.839 3.549-5.678 4.496-8.991.236-1.182 1.419-1.892 2.602-1.892l17.035.946c1.656 0 2.839 1.656 2.602 3.549-1.419 7.571-4.968 14.669-10.173 18.927-7.335 5.915-18.218 8.518-32.177 7.808-13.722-.946-24.132-4.259-31.94-9.937-7.571-5.915-11.356-14.195-11.356-22.476v-.71c0-8.044 3.312-16.325 10.173-20.82 6.861-4.495 16.325-6.388 28.864-5.678l25.552 1.419v-.71c0-7.334-2.129-10.883-6.151-14.432-4.022-3.549-9.937-5.441-17.508-5.915-7.571-.473-15.852 1.183-24.369 4.969-1.183.473-2.129.71-3.312.71-1.656 0-3.076-1.183-4.022-3.076l-3.313-4.732c-1.656-3.076-1.183-5.205 1.893-6.625 10.883-5.205 22.713-7.334 35.253-6.624ZM183.963 187.91c3.076.237 5.915 2.129 7.098 4.969l37.145 86.356c1.183 2.602-.946 5.442-3.786 5.205l-14.668-.71c-1.656 0-3.076-1.183-3.786-2.602l-32.413-72.398c-1.42-3.075-1.42-6.861 0-9.937l3.312-6.861c1.183-2.602 4.022-4.258 7.098-4.022ZM464.434 188.241c3.671.238 5.385 1.905 5.385 5.478v3.335c0 6.907-.979 12.385-2.693 16.911-1.713 4.525-5.384 8.336-11.013 11.671l-12.238 7.86 6.608 5.955c7.588 5.478 12.972 10.718 15.664 15.72 2.693 5.002 4.161 11.433 4.161 19.055v4.764c0 3.335-1.713 5.002-5.384 4.764l-11.504-.477c-3.671-.238-5.384-1.905-5.384-5.478v-3.573c0-5.002-.734-9.289-2.448-12.624-1.713-3.572-4.405-6.669-8.321-9.527l-9.546-7.86-9.545 6.907c-3.916 2.382-6.608 5.24-8.321 8.575-1.714 3.335-2.448 7.384-2.448 12.386v3.572c0 3.335-1.713 5.002-5.384 4.764l-11.504-.476c-3.671-.238-5.384-1.906-5.384-5.478v-4.764c0-7.86 1.224-14.053 4.161-18.817 2.692-4.764 7.832-9.289 15.664-14.053l6.608-5.24-12.482-9.051c-5.385-4.05-9.056-8.337-11.014-12.863-1.713-4.525-2.692-10.242-2.937-17.149v-3.335c0-3.334 1.713-5.002 5.384-4.763l11.504.476c3.671.238 5.384 1.905 5.629 5.478v1.429c0 3.573.245 6.67.489 8.813.245 2.144.979 4.288 2.203 5.955 1.224 1.906 2.203 3.335 3.671 4.526 1.224 1.191 3.427 2.858 6.364 5.002l7.587 5.478 7.588-4.764c2.937-1.905 5.139-3.335 6.363-4.287 1.224-.953 2.448-2.382 3.427-4.049 1.223-1.668 1.713-3.573 2.202-5.717.245-2.144.49-5.002.49-8.813v-1.429c0-3.335 1.958-5.002 5.629-4.764l10.769.477Z"/></g><path fill-rule="evenodd" clip-rule="evenodd" d="m75.403 246.891-23.627 8.279c.119.119 1.597.888 3.076 1.657a266.5 266.5 0 0 1 1.74.909l17.474 43.183c-.063.564-.166 1.331-.503 2.006-.083.165.138.441.306.365l23.248-10.567c1.184-.539 1.993-1.899.979-2.714a2.817 2.817 0 0 0-.216-.157l.035-.017-16.595-40.58-.003.001c-1.183-2.366-3.549-3.548-5.914-2.365Z" fill="url(#n)"/><g style="mix-blend-mode:lighten" filter="url(#o)"><path d="M52.96 254.931c1.893 0 4.023 1.419 4.732 3.549l17.035 41.403c.71 1.656-.473 3.549-2.13 3.549l-33.122-1.656c-4.022-.237-6.625-4.259-4.969-7.808l13.486-35.725c.946-2.366 3.076-3.312 4.969-3.312Z" fill="url(#p)" fill-opacity=".6"/></g><path d="M52.96 254.931c1.893 0 4.023 1.419 4.732 3.549l17.035 41.403c.71 1.656-.473 3.549-2.13 3.549l-33.122-1.656c-4.022-.237-6.625-4.259-4.969-7.808l13.486-35.725c.946-2.366 3.076-3.312 4.969-3.312Z" fill="url(#q)"/><path d="m82.974 206.51 22.239-11.12c.237-.237.474-.237.71-.237l-22.24 11.12c-.236 0-.473.237-.71.237Z" fill="#858585"/><path d="m83.684 206.271 22.239-11.12c.237 0 .474-.237.947-.237l-22.24 11.12c-.473 0-.71 0-.946.237Z" fill="#8A8A8A"/><path d="m84.63 206.035 22.24-11.12c.236 0 .473 0 .709-.236l-22.24 11.12c-.236 0-.472 0-.71.236Z" fill="#8F8F8F"/><path d="m85.34 205.799 22.24-11.12h.709l-22.476 11.12h-.473Z" fill="#949494"/><path d="m85.813 205.799 22.239-11.12h.71l-22.24 11.12h-.71Z" fill="#999"/><path d="m86.522 205.799 22.239-11.12h.237l-22.24 11.12h-.236Z" fill="#9E9E9E"/><path fill-rule="evenodd" clip-rule="evenodd" d="m81.084 207.693 23.659-13.013c7.555-2.158 10.974 3.363 11.695 4.528.07.112.114.184.135.204l-.001.001 35.629 84.362c2.418 4.452 2.885 8.771 2.413 10.93-.188.862-.993 1.331-1.846 1.555l-22.854 6.001a1.706 1.706 0 0 1-1.49-.32l-.42-.33c-3.277-2.574-7.92-6.22-1.969-11.112l1.665-.493-34.665-79.664c-2.957-.469-10.07-1.709-11.951-2.649Z" fill="url(#r)"/><g style="mix-blend-mode:lighten" filter="url(#s)"><path d="M86.758 205.801c3.076.236 5.915 2.129 7.098 4.968L131 297.599c.946 2.366-.71 4.968-3.549 4.732l-15.378-.71c-1.42 0-2.84-.947-3.549-2.366l-31.467-74.054a11.58 11.58 0 0 1 0-9.7l2.602-5.678c1.183-2.603 4.022-4.259 7.098-4.022Z" fill="url(#t)" fill-opacity=".6"/></g><path d="M86.758 205.801c3.076.236 5.915 2.129 7.098 4.968L131 297.599c.946 2.366-.71 4.968-3.549 4.732l-15.378-.71c-1.42 0-2.84-.947-3.549-2.366l-31.467-74.054a11.58 11.58 0 0 1 0-9.7l2.602-5.678c1.183-2.603 4.022-4.259 7.098-4.022Z" fill="url(#u)"/><g filter="url(#v)"><path d="M595.26 229.786c4.87 0 6.524 1.846 6.524 6.152l2.272 39.984h38.957c4.869 0 7.466 2.153 7.791 6.459l.649 10.765c.325 4.306-1.948 6.459-7.142 6.459h-38.956l2.597 42.444c.324 5.537 2.597 9.843 6.493 12.611 4.22 2.768 9.089 4.306 14.608 4.306s11.038-1.231 17.531-3.999c1.623-.615 2.921-.922 4.22-.922 2.272 0 4.545 1.23 5.844 3.69l5.194 7.997c2.597 3.999 1.948 7.074-2.597 8.92-9.415 3.998-19.803 6.151-31.49 6.151-14.609 0-26.296-3.383-35.386-9.842-8.765-6.459-13.635-15.686-14.284-27.066l-2.597-43.983h-20.452c-4.87 0-7.467-2.153-7.792-6.458l-.649-10.765c-.325-4.306 1.948-6.459 6.493-6.459h20.452l-2.272-39.984c-.325-4.306 1.947-6.459 6.817-6.459h16.232l.943-.001Z" fill="#26255F" fill-opacity=".3"/></g><g filter="url(#w)"><path d="M435.164 25.95c2.257 0 2.594 1.42 2.916 3.314l1.613 29.505 1.128 19.723c.645 10.572 5.642 14.359 15.153 14.359 9.834 0 14.509-5.365 13.864-15.936l-.322-6.627c-.323-6.312-1.613-9.467-4.031-12.308-2.418-2.84-4.513-3.786-10.317-3.786-.645 0-2.74.315-3.385.473h-.484c-1.289 0-2.579-1.105-2.579-2.525l-.484-8.047c0-1.262.645-2.209 1.774-2.524 1.934-.474 5.481-.79 7.738-.79 8.06 0 14.347 2.368 18.861 7.101 4.513 4.734 7.093 11.36 7.576 19.723l.645 11.203c.322 7.574-1.934 13.412-6.609 17.987-4.675 4.576-11.93 6.785-21.602 6.785-4.836 0-9.189-.631-13.058-1.893-3.869-1.263-6.931-2.998-9.511-5.365-2.418-2.209-4.352-4.891-5.803-7.89-1.29-2.997-2.257-6.153-2.418-9.782l-2.741-49.386c-.161-2.21.968-3.314 3.547-3.314h8.529Z" fill="#26255F" fill-opacity=".3"/></g><g filter="url(#x)"><path d="M539.181 141.215c2.963 0 4.542 1.382 4.74 4.344l3.16 58.454c.197 2.765-1.185 4.345-4.147 4.345h-9.282c-2.962 0-4.542-1.383-4.739-4.345l-3.16-58.454c-.198-2.764 1.185-4.344 4.147-4.344h9.281Z" fill="#26255F" fill-opacity=".3"/></g><g filter="url(#y)"><path d="M535.627 110.015c.395 0 .79.197 1.185.395l8.689 8.491c.592.593.79 1.777.197 2.37l-7.701 8.491c-.198.395-.79.395-1.185.395s-.79-.197-1.185-.395l-8.689-8.491c-.592-.593-.79-1.777-.197-2.37l7.701-8.491c.395-.198.79-.395 1.185-.395Z" fill="#26255F" fill-opacity=".3"/></g><path d="m241.789 260.774 21.293-4.732c1.183 16.561 30.048 15.379 30.757 15.379l-8.28 17.744c-24.843 2.366-35.489-3.549-43.77-28.391Z" fill="url(#z)"/><path fill-rule="evenodd" clip-rule="evenodd" d="m258.825 242.083-.005.003c-.828.118-1.656.177-2.484.236-.518.037-1.036.074-1.553.126l-3.532 1.765c-.71.237-1.893.237-3.076.237s-2.366 0-3.075.236l22.239-11.119c1.659-.692 2.753-.979 4.084-1.098l.173-.087a27.797 27.797 0 0 0 1.922-.416c.812-.196 1.656-.399 2.573-.53l-1.897.948h.007l1.89-.945c1.655-.236 3.31-.473 4.965-.473l.005-.002c.631 0 1.262-.027 1.893-.053 1.261-.053 2.523-.105 3.785.053l-22.24 11.119h-5.674Zm-17.039 4.023 22.24-11.12c.946-.473 2.129-.946 3.312-1.42l-22.24 11.12a47.33 47.33 0 0 0-1.656.71 45.75 45.75 0 0 1-1.656.71Zm22.712-4.02 22.24-11.12h3.308l.006-.003 25.552 1.419-22.239 11.12-25.549-1.419-.006.003h-3.312Z" fill="url(#A)"/><path fill-rule="evenodd" clip-rule="evenodd" d="M292.656 271.416a10.328 10.328 0 0 1 2.68-1.931l17.68-8.839a10.018 10.018 0 0 1 3.994-1.047l.016-.008.073.004c.133-.005.266-.008.4-.008l-.055.027 16.617.923-.02.01c1.771.188 3.155 2.723 2.336 4.992l.047-.034c-1 5.001-3.015 8.479-3.9 10.007-.162.279-.286.493-.359.639l-.013.007.016-.008c-.474.947-1.183 1.893-1.893 2.84l-.338.165c-1.073 1.281-2.165 2.526-3.45 3.383-1.656 1.183-3.312 2.366-5.442 3.313l-22.239 11.12c1.892-.947 3.785-2.13 5.441-3.313 1.183-.946 2.603-2.366 3.786-3.785l.003-.002c.38-.569.911-1.29 1.472-2.041l-.292.151c.71-1.419.823-2.158.903-2.674.053-.345.091-.591.28-.875l1.349-.981c.225-.442.419-.88.545-1.386l4.353-2.176.01-.007-4.363 2.181c.473-.946.71-1.656.946-2.602h.001c.236-.71.473-1.42.709-2.366l20.921-10.46.002-.001-20.922 10.461c.113-.339-.473-1.43-1.092-2.581-.593-1.104-1.216-2.264-1.282-2.871l-16.46-.914c-.57.121-2.46.687-2.46.687Z" fill="url(#B)"/><path fill-rule="evenodd" clip-rule="evenodd" d="m253.616 208.918 1.669-.847-.137.025c-1.592.284-3.1.553-4.608 1.064l.327-.166c-2.131.434-4.804 1.29-7.199 2.092l-1.408.715c-1.237.313-2.474.73-3.776 1.316l20.1-10.202h.237a43.432 43.432 0 0 1 3.707-1.641l1.971-1c1.608-.594 5.204-1.737 8.833-2.525a78.112 78.112 0 0 1 3.76-.745l.183-.093c3.549-1.201 9.464-1.201 11.83-1.201l-.114.072c.724-.04 1.468-.072 2.243-.072l-10.644 5.402-.001.001 10.645-5.403c.691 0 3.651 0 5.659.467.16.008.324.013.492.013l-.147.075h.001l.147-.074c1.755.222 3.51.445 5.076.667l.368-.186.53.088.003.001h.001c1.289.214 2.716.45 3.961.871l-.002.001c.591.12 1.241.3 1.891.48.651.18 1.302.36 1.893.48l-.068.035c.841.19 1.57.5 2.366.839.251.106.508.216.777.325h.001c1.734.526 3.571 1.499 5.224 2.374l.135.072.083-.043c.469.238.937.476 1.376.742l.043-.024c.473.36 1.301.96 2.129 1.56l.001.001v.001c.828.6 1.656 1.2 2.129 1.56l-.158.079c.21.203.421.363.631.523v.001c.237.18.474.36.71.6 1.183 1.2 2.365 2.4 3.311 3.6 1.42 1.681 5.442 7.684 6.625 18.491l-.019.013.021-.01v18.971l-21.293 10.105V243.736l-.002.002c0-3.601-6.146-20.158-7.57-21.611-.947-1.201-2.129-2.401-3.312-3.602h-.001c-.236-.24-.473-.42-.709-.6-.237-.181-.473-.361-.71-.601l.464-.235-.464.233c-.515-.522-1.402-1.171-2.212-1.762l-.004-.003-.001-.001c-.197-.144-.389-.284-.57-.419l-.052.026c-.167-.113-.348-.24-.539-.374-.33-.231-.691-.485-1.066-.726l-.883.432c-.348-.176-1.324-.798-2.467-1.526h-.001c-.99-.63-2.106-1.341-3.047-1.911l-.042.022c-.269-.11-.526-.219-.776-.325v-.001h-.002c-.849-.361-1.621-.69-2.534-.875l.092-.047c-1.356-.448-2.498-.68-3.641-.912l.001-.001c-.633-.107-1.265-.262-1.919-.422-.705-.172-1.435-.351-2.215-.482l-.361.183c-1.656-.48-3.549-.72-5.441-.72l9.114-4.626-.009.004-9.107 4.621a8.072 8.072 0 0 0-1.523-.207l-1.079.448c-.473 0-1.124-.181-1.774-.361l-.017-.004-.574.364c-1.893 0-14.669.961-16.562 1.201Zm-17.271 5.284 2.139-1.085c-.691.31-1.401.669-2.139 1.085Z" fill="url(#C)"/><g style="mix-blend-mode:lighten" filter="url(#D)"><path d="M271.834 207.066c14.432.71 25.079 4.495 32.414 11.12 7.334 6.861 10.883 13.959 10.883 25.552v14.905l-22.003-1.183-23.66-1.419c-6.151-.237-10.883.473-13.959 2.602-3.312 2.13-4.968 6.862-4.968 10.884v2.839c0 3.549 1.893 6.624 5.678 9.227 3.786 2.602 8.991 4.022 15.852 4.259 6.861.473 12.066-.947 15.615-4.496 2.603-2.839 3.549-5.678 4.495-8.99.237-1.183 1.42-1.893 2.603-1.893l17.034.946c1.657 0 2.84 1.657 2.603 3.549-1.42 7.571-4.968 14.669-10.173 18.928-7.335 5.915-18.218 8.517-32.177 7.807-13.722-.946-24.133-4.258-31.94-9.937-7.571-5.914-11.357-14.195-11.357-22.476v-.71c0-8.044 3.313-16.325 10.174-20.82 6.861-4.495 16.325-6.388 28.864-5.678l25.552 1.42v-.71c0-7.335-2.129-10.884-6.151-14.432-4.022-3.549-9.937-5.442-17.508-5.915-7.571-.473-15.852 1.183-24.369 4.968-1.183.473-2.129.71-3.312.71-1.657 0-3.076-1.183-4.022-3.076l-3.313-4.732c-1.656-3.075-1.183-5.205 1.893-6.624 10.883-5.205 22.713-7.335 35.252-6.625Z" fill="url(#E)" fill-opacity=".6"/></g><path d="M271.834 207.066c14.432.71 25.079 4.495 32.414 11.12 7.334 6.861 10.883 13.959 10.883 25.552v14.905l-22.003-1.183-23.66-1.419c-6.151-.237-10.883.473-13.959 2.602-3.312 2.13-4.968 6.862-4.968 10.884v2.839c0 3.549 1.893 6.624 5.678 9.227 3.786 2.602 8.991 4.022 15.852 4.259 6.861.473 12.066-.947 15.615-4.496 2.603-2.839 3.549-5.678 4.495-8.99.237-1.183 1.42-1.893 2.603-1.893l17.034.946c1.657 0 2.84 1.657 2.603 3.549-1.42 7.571-4.968 14.669-10.173 18.928-7.335 5.915-18.218 8.517-32.177 7.807-13.722-.946-24.133-4.258-31.94-9.937-7.571-5.914-11.357-14.195-11.357-22.476v-.71c0-8.044 3.313-16.325 10.174-20.82 6.861-4.495 16.325-6.388 28.864-5.678l25.552 1.42v-.71c0-7.335-2.129-10.884-6.151-14.432-4.022-3.549-9.937-5.442-17.508-5.915-7.571-.473-15.852 1.183-24.369 4.968-1.183.473-2.129.71-3.312.71-1.657 0-3.076-1.183-4.022-3.076l-3.313-4.732c-1.656-3.075-1.183-5.205 1.893-6.624 10.883-5.205 22.713-7.335 35.252-6.625Z" fill="url(#F)"/><path fill-rule="evenodd" clip-rule="evenodd" d="m141.423 210.687 2.367-3.547 22.516-10.62c8.259-2.359 11.812 3.607 11.826 4.722l36.576 85.034-.006.004a96.717 96.717 0 0 1 1.704 3.322 1.658 1.658 0 0 1-.816 2.251l-22.004 9.704c-10.586 1.993-15.312-4.083-16.346-5.413a2.145 2.145 0 0 0-.204-.246l12.601-4.848-34.283-79.702-.984.437c-1.42.214-10.581.085-12.947-1.098Z" fill="url(#G)"/><path d="M148.225 206.308c3.075.236 5.915 2.129 7.098 4.968l37.145 86.356c1.183 2.603-.947 5.442-3.786 5.205l-14.669-.709c-1.656 0-3.075-1.183-3.785-2.603l-32.413-72.397c-1.42-3.076-1.42-6.861 0-9.937l3.312-6.861c1.183-2.603 4.022-4.259 7.098-4.022Z" fill="url(#H)"/><path fill-rule="evenodd" clip-rule="evenodd" d="m390.568 263.372 22.24-11.12-9.464 6.861-1.873.947 2.109-.947c-2.366 1.419-4.495 3.312-5.915 5.205l-.446.223a7.643 7.643 0 0 0-.79 1.097l.29-.137-2.366 4.732-.001.001.002-.001c-.017.034-.032.068-.047.102-.026.063-.054.14-.084.226-.05.161-.087.329-.127.511l-.004.02c-.335 2.174-.711 5.407-.922 7.473v1.369l-.138.071v.001l.14-.072v3.312h.001l-.001.427v.047c-.009 2.056-.146 3.157-2.129 4.258l-22.239 11.12c.32-.16.964-2.268 1.421-3.762.219-.715.395-1.29.471-1.443l.237-.112v-1.508l-.433.231c0-.253.191-1.95.436-4.061.013-.481.053-.993.167-1.438l.147-1.251c.375-3.197.75-6.395.75-6.75l1.527-.678.124-.404c.236-.769.473-1.538.591-1.774l.815-.386c.049-.103.094-.211.132-.326l.384-.191c1.402-1.813 3.254-3.413 5.768-5.013l.003-.002 9.224-6.858Zm3.652 6.928.101-.051.028-.014-.033.015-.095.047-.001.003Z" fill="url(#I)"/><path fill-rule="evenodd" clip-rule="evenodd" d="m372.939 193.927-22.361 10.062c.237 0 2.129.71 2.129.71l.367-.174c.065.017.106.074.106.173l.471-.235h.476l17.691-8.846.003-.001-17.694 8.847h.239l11.357.709.245-.122c.158.075 1.257 1.842 2.357 3.609 1.124 1.805 2.247 3.611 2.366 3.611l.236-.137c.006.204.029.407.051.611.021.183.041.367.049.55l-.337.159c0 1.6.339 3.539.586 4.958.045.26.088.502.124.721l.119-.059c.024.946.061 1.603.117 1.716v.709l.019-.009c.021.161.062.322.102.483.059.236.118.472.118.708h-.001c.105.21.291.79.486 1.414l-.013.007c.031.124.083.269.15.429.201.644.395 1.253.503 1.468l.194-.117c.096.166.193.331.287.489l-.188.095c.237 0 .237.236.237.473.573.955 1.3 1.91 1.932 2.741l.001.001c.151.197.296.388.432.57l.154-.076c.102.113.194.225.282.332.236.286.443.538.748.69.474.237.947.71 1.42 1.183l-.001.001c1.182 1.182 3.073 2.363 5.201 3.546l-.469.239 8.754 5.679 20.584-11.594-7.098-5.442v.001c-.671-.503-1.312-.976-1.912-1.42-1.095-.808-2.056-1.518-2.82-2.129l.001-.001a6.276 6.276 0 0 0-.71-.591 6.276 6.276 0 0 1-.71-.591l-1.183-1.183-.155.077c-.871-.918-1.541-2.035-2.212-3.153 0-.118-.059-.178-.118-.237s-.118-.118-.118-.236l-.136.067-.81-2.431-.004.001.004-.002c-.118-.236-.177-.473-.237-.71-.059-.236-.118-.472-.235-.708 0-.236-.059-.473-.118-.71-.059-.236-.119-.473-.119-.709l-.002.001v-.475c-.063-.126-.155-.767-.255-1.647l.019-.01-.034-.122a186.23 186.23 0 0 1-.439-4.629v-.454h-.002v-1.891l.002-.001v-1.656l-.009.004.009-.005c0-3.046-2.942-4.674-5.353-5.131l.148-.074-11.148-.697.026-.013H375.657c-.937 0-1.864.2-2.718.584Zm-21.178 11.008.473-.237c-.101 0-.158 0-.21.018-.069.025-.127.083-.263.219Zm-.473.238.473-.237c-.236 0-.236 0-.473.237Z" fill="url(#J)"/><path fill-rule="evenodd" clip-rule="evenodd" d="m428.657 241.844-22.24 11.12 6.387 5.914-.001.001c1.656 1.183 3.075 2.366 4.495 3.548v.001l.12-.06-.119.06c.174.13.346.262.515.395 1.084 1.242 2.371 2.71 3.658 4.177 3.237 3.689 6.473 7.377 6.473 7.496.709 1.182 1.183 2.365 1.656 3.785.473.946.71 2.129.946 3.311l.044-.021c.222 1.083.444 1.972.666 2.86l.014-.007c.222 1.184.46 2.786.46 3.793l.036-.018c.201 1.323.201 2.456.201 3.801l-.001.001v1.419h.001v3.18l-.942.842c-.095.096-.229.88-.385 1.8-.232 1.363-.514 3.021-.797 3.168l23.658-12.065c.237-.119.534-1.308.622-3.507l.084-.043V282.3h-.001v-1.418h.001c0-.743-.065-1.485-.127-2.193-.056-.647-.11-1.265-.11-1.83l-.003.002c-.04-1.613-.456-5.961-1.411-7.495-.179-.796-.392-1.556-.717-2.206-.473-1.419-1.13-2.981-1.84-4.164a.875.875 0 0 0-.057-.094l.005-.003c-.946-1.656-2.129-3.312-3.549-4.968-1.893-2.129-4.258-4.494-6.86-6.623l-.94.469.939-.469c-1.42-1.183-2.839-2.366-4.495-3.549h.002l-6.388-5.915Z" fill="url(#K)"/><path d="M431.497 216.313 453.5 203.99c0 .97.237 3.112.237 4.081l-22.24 11.393c0-1.212.237-2.182 0-3.151Z" fill="url(#L)"/><path fill-rule="evenodd" clip-rule="evenodd" d="m448.766 196.893-11.356-.237-.002.001h-.442l-7.344 3.893-.024.012 7.367-3.905h-.67l-2.148.175a3.308 3.308 0 0 0-1.411.447l-4.084 2.4-14.19 6.677c-2.455.947-.93 3.549-.93 3.549l3.501-2.05 7.998.341-1.107.527c.027.023.146.116.334.263v.001c.989.777 3.899 3.063 5.564 4.48-.425 5.189-1.505 17.05-2.037 22.397a9.622 9.622 0 0 0-.308.565l-.003.001-1.183 1.818-.237.122c-1.003 1.413-2.206 2.69-3.572 3.867l-3.287 1.972-12.776 8.753 22.24-11.119 14.051-9.033a16.584 16.584 0 0 0 4.301-4.001l1.135-1.514.148-.076 1.419-2.18.003-.001c.362-.371.585-.883.776-1.32a9.6 9.6 0 0 1 .171-.377l-.102.052.002-.003.098-.05c0-.029 0-.058.002-.087.891-1.245 1.572-2.941 2.044-4.726 2.026-6.291 1.224-13.08.793-16.527l-.078.03c-.421-2.294-2.538-5.136-4.656-5.136l-.016.007.016-.008Z" fill="url(#M)"/><g style="mix-blend-mode:lighten" filter="url(#N)"><path d="M428.701 206.639c3.671.238 5.384 1.906 5.384 5.478v3.335c0 6.907-.979 12.386-2.692 16.911-1.713 4.526-5.384 8.337-11.014 11.671l-12.237 7.861 6.608 5.954c7.587 5.479 12.972 10.719 15.664 15.721 2.692 5.002 4.161 11.433 4.161 19.055v4.764c0 3.334-1.713 5.001-5.385 4.763l-11.503-.476c-3.671-.238-5.385-1.906-5.385-5.478v-3.573c0-5.002-.734-9.29-2.447-12.624-1.713-3.573-4.406-6.669-8.322-9.528l-9.545-7.86-9.545 6.908c-3.916 2.381-6.609 5.24-8.322 8.574-1.713 3.335-2.447 7.384-2.447 12.386v3.573c0 3.334-1.714 5.002-5.385 4.764l-11.503-.477c-3.671-.238-5.385-1.905-5.385-5.478v-4.764c0-7.86 1.224-14.053 4.161-18.817 2.692-4.763 7.832-9.289 15.664-14.053l6.609-5.24-12.483-9.051c-5.384-4.049-9.056-8.337-11.014-12.862-1.713-4.526-2.692-10.242-2.937-17.15v-3.334c0-3.335 1.714-5.002 5.385-4.764l11.503.476c3.671.239 5.385 1.906 5.629 5.479v1.429c0 3.573.245 6.669.49 8.813.245 2.143.979 4.287 2.203 5.954 1.224 1.906 2.203 3.335 3.671 4.526 1.224 1.191 3.427 2.858 6.364 5.002l7.587 5.478 7.587-4.763c2.937-1.906 5.14-3.335 6.364-4.288 1.223-.953 2.447-2.382 3.426-4.049 1.224-1.667 1.713-3.573 2.203-5.717a75.58 75.58 0 0 0 .489-8.812v-1.43c0-3.334 1.958-5.002 5.63-4.763l10.769.476Z" fill="url(#O)" fill-opacity=".6"/></g><path d="M428.701 206.639c3.671.238 5.384 1.906 5.384 5.478v3.335c0 6.907-.979 12.386-2.692 16.911-1.713 4.526-5.384 8.337-11.014 11.671l-12.237 7.861 6.608 5.954c7.587 5.479 12.972 10.719 15.664 15.721 2.692 5.002 4.161 11.433 4.161 19.055v4.764c0 3.334-1.713 5.001-5.385 4.763l-11.503-.476c-3.671-.238-5.385-1.906-5.385-5.478v-3.573c0-5.002-.734-9.29-2.447-12.624-1.713-3.573-4.406-6.669-8.322-9.528l-9.545-7.86-9.545 6.908c-3.916 2.381-6.609 5.24-8.322 8.574-1.713 3.335-2.447 7.384-2.447 12.386v3.573c0 3.334-1.714 5.002-5.385 4.764l-11.503-.477c-3.671-.238-5.385-1.905-5.385-5.478v-4.764c0-7.86 1.224-14.053 4.161-18.817 2.692-4.763 7.832-9.289 15.664-14.053l6.609-5.24-12.483-9.051c-5.384-4.049-9.056-8.337-11.014-12.862-1.713-4.526-2.692-10.242-2.937-17.15v-3.334c0-3.335 1.714-5.002 5.385-4.764l11.503.476c3.671.239 5.385 1.906 5.629 5.479v1.429c0 3.573.245 6.669.49 8.813.245 2.143.979 4.287 2.203 5.954 1.224 1.906 2.203 3.335 3.671 4.526 1.224 1.191 3.427 2.858 6.364 5.002l7.587 5.478 7.587-4.763c2.937-1.906 5.14-3.335 6.364-4.288 1.223-.953 2.447-2.382 3.426-4.049 1.224-1.667 1.713-3.573 2.203-5.717a75.58 75.58 0 0 0 .489-8.812v-1.43c0-3.334 1.958-5.002 5.63-4.763l10.769.476Z" fill="url(#P)"/><path fill-rule="evenodd" clip-rule="evenodd" d="m542.62 279.784-.06-.05 2.105-1.142-2.114 1.135c-.304-.253-.56-.476-.552-.539l.032-.017c-.021 0-.031.006-.032.017l-28.953 15.924h4.348l2.084-1.158h17.073l26.376-15.362h-18.26l-2.047 1.192Z" fill="#6AAFF3"/><path d="m563.772 315.404 26.941-14.492 2.044 42.409-26.616 15.561-2.369-43.478Z" fill="#65ABEC"/><path fill-rule="evenodd" clip-rule="evenodd" d="m592.757 341.489-26.086 14.492c-1.322 21.153 23.889 18.185 30.985 14.642 2.461.226 6.532.667 9.356.972l2.114.228c1.109 3.777 3.923 14.108 3.923 14.591l25.925-15.555c2.032-1.219 3.784-2.931 3.536-5.288-.333-3.164-1.895-7.529-4.686-9.496a.28.28 0 0 0-.224-.043l.085-.049c-.041 0-.184-.057-.42-.151-1.449-.577-6.393-2.545-12.623-1.298l-.052.028.051-.03c-2.029.58-23.188 0-31.884-13.043Z" fill="url(#Q)"/><path fill-rule="evenodd" clip-rule="evenodd" d="m553.626 250.188-18.84 1.449 25.395-13.852a28.987 28.987 0 0 1 13.879-3.539h4.199l.004-.002c7.246 0 8.695 8.406 8.695 8.696l-26.086 13.043c0-.145-1.811-1.522-3.623-2.899-1.803-1.37-3.605-2.74-3.623-2.896Zm7.248 5.796 26.086-13.043 2.636 35.652-27.273 16.52-1.449-39.129Z" fill="url(#R)"/><path fill-rule="evenodd" clip-rule="evenodd" d="m624.641 277.724-.005.003h-35.865l-27.895 17.061 36.492.329 1.345-.857c.567.166 1.224.348 1.866.526a72.25 72.25 0 0 1 2.353.677l1.42 17.041.262-.165c-.459 1.15-1.019 2.371-1.712 3.064l26.693-15.071c.579-.29 2.285-2.312 2.292-5.201l.027-.018-1.476-14.491v-.001h-.001c-1.448-2.897-2.897-2.897-5.795-2.897h-.001Z" fill="url(#S)"/><g style="mix-blend-mode:lighten" filter="url(#T)"><path d="M555.076 250.189c4.347 0 5.824 1.74 5.824 5.798l2.029 37.68h34.781c4.348 0 6.667 2.029 6.957 6.087l.579 10.145c.29 4.057-1.739 6.086-6.376 6.086h-34.782l2.319 39.999c.29 5.217 2.319 9.275 5.797 11.884 3.768 2.609 8.116 4.058 13.043 4.058s9.855-1.16 15.652-3.768c1.449-.58 2.608-.87 3.768-.87 2.029 0 4.058 1.16 5.217 3.478l4.638 7.536c2.318 3.768 1.739 6.667-2.319 8.406-8.406 3.768-17.681 5.797-28.115 5.797-13.044 0-23.478-3.188-31.594-9.275-7.826-6.087-12.173-14.782-12.753-25.507l-2.319-41.448h-18.26c-4.348 0-6.667-2.029-6.956-6.087l-.58-10.144c-.29-4.058 1.739-6.087 5.797-6.087h18.26l-2.029-37.68c-.29-4.058 1.739-6.087 6.087-6.087h14.492l.843-.001Z" fill="url(#U)" fill-opacity=".6"/></g><path d="M555.076 250.189c4.347 0 5.824 1.74 5.824 5.798l2.029 37.68h34.781c4.348 0 6.667 2.029 6.957 6.087l.579 10.145c.29 4.057-1.739 6.086-6.376 6.086h-34.782l2.319 39.999c.29 5.217 2.319 9.275 5.797 11.884 3.768 2.609 8.116 4.058 13.043 4.058s9.855-1.16 15.652-3.768c1.449-.58 2.608-.87 3.768-.87 2.029 0 4.058 1.16 5.217 3.478l4.638 7.536c2.318 3.768 1.739 6.667-2.319 8.406-8.406 3.768-17.681 5.797-28.115 5.797-13.044 0-23.478-3.188-31.594-9.275-7.826-6.087-12.173-14.782-12.753-25.507l-2.319-41.448h-18.26c-4.348 0-6.667-2.029-6.956-6.087l-.58-10.144c-.29-4.058 1.739-6.087 5.797-6.087h18.26l-2.029-37.68c-.29-4.058 1.739-6.087 6.087-6.087h14.492l.843-.001Z" fill="url(#V)"/><defs><linearGradient id="q" x1="54.469" y1="254.931" x2="54.469" y2="303.432" gradientUnits="userSpaceOnUse"><stop stop-color="#E4F7FF"/><stop offset=".961" stop-color="#C6EFFF"/></linearGradient><linearGradient id="V" x1="571.5" y1="227.5" x2="569.568" y2="406.707" gradientUnits="userSpaceOnUse"><stop stop-color="#E1F6FF"/><stop offset="1" stop-color="#C8EFFF"/></linearGradient><linearGradient id="U" x1="610.917" y1="253.843" x2="482.97" y2="329.405" gradientUnits="userSpaceOnUse"><stop stop-color="#0073FF"/><stop offset="1" stop-color="#BB6DF5"/></linearGradient><linearGradient id="S" x1="582" y1="269.999" x2="610.494" y2="310.774" gradientUnits="userSpaceOnUse"><stop stop-color="#6FB4F3"/><stop offset=".608" stop-color="#9FDEF7"/><stop offset="1" stop-color="#65ABEF"/></linearGradient><linearGradient id="R" x1="550.728" y1="243.152" x2="570.368" y2="291.821" gradientUnits="userSpaceOnUse"><stop stop-color="#70B4F3"/><stop offset=".256" stop-color="#A0DFF8"/><stop offset="1" stop-color="#65ABF0"/></linearGradient><linearGradient id="Q" x1="582.614" y1="345.837" x2="611.597" y2="387.865" gradientUnits="userSpaceOnUse"><stop stop-color="#67ABEF"/><stop offset=".714" stop-color="#9CDDF7"/><stop offset="1" stop-color="#67ABEF"/></linearGradient><linearGradient id="P" x1="391.988" y1="202.806" x2="391.988" y2="302.175" gradientUnits="userSpaceOnUse"><stop stop-color="#E3F7FF"/><stop offset="1" stop-color="#C7EFFF"/></linearGradient><linearGradient id="O" x1="430.523" y1="205.357" x2="335.108" y2="271.274" gradientUnits="userSpaceOnUse"><stop stop-color="#0073FF"/><stop offset="1" stop-color="#BB6DF5"/></linearGradient><linearGradient id="M" x1="430.222" y1="196.656" x2="430.222" y2="252.962" gradientUnits="userSpaceOnUse"><stop stop-color="#8CC5EE"/><stop offset=".545" stop-color="#B0DDF7"/><stop offset="1" stop-color="#68AEE5"/></linearGradient><linearGradient id="L" x1="446.402" y1="208.722" x2="447.585" y2="212.271" gradientUnits="userSpaceOnUse"><stop stop-color="#97CCF1"/><stop offset="1" stop-color="#A5D5F4"/></linearGradient><linearGradient id="K" x1="420.376" y1="246.576" x2="448.767" y2="291.527" gradientUnits="userSpaceOnUse"><stop stop-color="#9DD0F2"/><stop offset=".469" stop-color="#BBE4FA"/><stop offset="1" stop-color="#66ACE4"/></linearGradient><linearGradient id="J" x1="365.957" y1="189.794" x2="397.896" y2="239.479" gradientUnits="userSpaceOnUse"><stop stop-color="#71B3E7"/><stop offset=".324" stop-color="#BEE6FB"/><stop offset="1" stop-color="#5CA6E2"/></linearGradient><linearGradient id="a" x1="419.381" y1="22.875" x2="438.393" y2="57.729" gradientUnits="userSpaceOnUse"><stop offset=".041" stop-color="#F5CF87"/><stop offset=".306" stop-color="#FDF0DD"/><stop offset="1" stop-color="#E7AF39"/></linearGradient><linearGradient id="b" x1="429.68" y1="81.496" x2="443.939" y2="98.131" gradientUnits="userSpaceOnUse"><stop stop-color="#E7AF39"/><stop offset="1" stop-color="#F7E0B5"/></linearGradient><linearGradient id="c" x1="433.637" y1="50.551" x2="455.847" y2="108.422" gradientUnits="userSpaceOnUse"><stop stop-color="#E7AF39"/><stop offset=".274" stop-color="#F8DCA9"/><stop offset=".53" stop-color="#FDEFDA"/><stop offset="1" stop-color="#E7AF39"/></linearGradient><linearGradient id="e" x1="467.047" y1="37.374" x2="391.078" y2="70.507" gradientUnits="userSpaceOnUse"><stop stop-color="#FFA361"/><stop offset="1" stop-color="#FD2222"/></linearGradient><linearGradient id="f" x1="437.601" y1="32.382" x2="437.601" y2="110.012" gradientUnits="userSpaceOnUse"><stop stop-color="#F9D176"/><stop offset="1" stop-color="#FCC432"/></linearGradient><linearGradient id="g" x1="497.516" y1="162.934" x2="538.986" y2="228.103" gradientUnits="userSpaceOnUse"><stop stop-color="#F98A7C"/><stop offset=".15" stop-color="#FBB3A3"/><stop offset="1" stop-color="#CF3F44"/></linearGradient><linearGradient id="i" x1="515.866" y1="162.236" x2="474.828" y2="203.621" gradientUnits="userSpaceOnUse"><stop stop-color="#FF5710"/><stop offset="1" stop-color="#FF0037"/></linearGradient><linearGradient id="j" x1="520.226" y1="154.047" x2="500.478" y2="235.013" gradientUnits="userSpaceOnUse"><stop stop-color="#F09278"/><stop offset="1" stop-color="#C44640"/></linearGradient><linearGradient id="k" x1="507.389" y1="124.419" x2="520.072" y2="148.709" gradientUnits="userSpaceOnUse"><stop stop-color="#F98A7C"/><stop offset=".514" stop-color="#FAB2A2"/><stop offset="1" stop-color="#D85657"/></linearGradient><linearGradient id="l" x1="507.209" y1="128.765" x2="507.209" y2="148.907" gradientUnits="userSpaceOnUse"><stop stop-color="#EA8871"/><stop offset="1" stop-color="#C94E46"/></linearGradient><linearGradient id="n" x1="75.166" y1="246.427" x2="75.166" y2="303.303" gradientUnits="userSpaceOnUse"><stop stop-color="#A6DAF9"/><stop offset=".336" stop-color="#BFEBFD"/><stop offset=".753" stop-color="#85C5F5"/><stop offset=".993" stop-color="#56A2DF"/></linearGradient><linearGradient id="p" x1="72.99" y1="256.176" x2="26.676" y2="287.682" gradientUnits="userSpaceOnUse"><stop stop-color="#0073FF"/><stop offset="1" stop-color="#BB6DF5"/></linearGradient><linearGradient id="I" x1="390.806" y1="252.252" x2="390.806" y2="299.098" gradientUnits="userSpaceOnUse"><stop stop-color="#64ABE4"/><stop offset="1" stop-color="#A1D2F3"/></linearGradient><linearGradient id="r" x1="117.931" y1="194.185" x2="117.931" y2="302.315" gradientUnits="userSpaceOnUse"><stop stop-color="#A6DAF9"/><stop offset=".336" stop-color="#BFEBFD"/><stop offset=".753" stop-color="#85C5F5"/><stop offset=".993" stop-color="#56A2DF"/></linearGradient><linearGradient id="t" x1="128.639" y1="208.257" x2="53.217" y2="243.053" gradientUnits="userSpaceOnUse"><stop stop-color="#0073FF"/><stop offset="1" stop-color="#BB6DF5"/></linearGradient><linearGradient id="u" x1="103.631" y1="205.778" x2="103.631" y2="302.346" gradientUnits="userSpaceOnUse"><stop stop-color="#E4F7FF"/><stop offset=".961" stop-color="#C6EFFF"/></linearGradient><linearGradient id="z" x1="255.985" y1="259.591" x2="304.486" y2="272.603" gradientUnits="userSpaceOnUse"><stop stop-color="#5CA6E2"/><stop offset="1" stop-color="#D5F3FF"/></linearGradient><linearGradient id="A" x1="297.386" y1="240.664" x2="254.799" y2="235.932" gradientUnits="userSpaceOnUse"><stop stop-color="#63AAE4"/><stop offset="1" stop-color="#BDE6FB"/></linearGradient><linearGradient id="B" x1="314.637" y1="259.352" x2="328.146" y2="283.248" gradientUnits="userSpaceOnUse"><stop offset=".082" stop-color="#83C0EC"/><stop offset=".469" stop-color="#B2DFF8"/><stop offset="1" stop-color="#61A9E3"/></linearGradient><linearGradient id="C" x1="246.518" y1="206.357" x2="329.326" y2="252.493" gradientUnits="userSpaceOnUse"><stop stop-color="#A9DCF9"/><stop offset=".444" stop-color="#CEF1FF"/><stop offset=".956" stop-color="#5CA6E2"/></linearGradient><linearGradient id="E" x1="311.023" y1="209.369" x2="218.108" y2="277.527" gradientUnits="userSpaceOnUse"><stop stop-color="#0073FF"/><stop offset="1" stop-color="#BB6DF5"/></linearGradient><linearGradient id="F" x1="271.953" y1="206.934" x2="271.953" y2="301.817" gradientUnits="userSpaceOnUse"><stop stop-color="#E3F7FF"/><stop offset="1" stop-color="#C7EFFF"/></linearGradient><linearGradient id="G" x1="179.001" y1="195.973" x2="179.001" y2="301.955" gradientUnits="userSpaceOnUse"><stop stop-color="#A6DAF9"/><stop offset=".336" stop-color="#BFEBFD"/><stop offset=".753" stop-color="#85C5F5"/><stop offset=".993" stop-color="#56A2DF"/></linearGradient><linearGradient id="H" x1="164.776" y1="206.285" x2="164.776" y2="302.851" gradientUnits="userSpaceOnUse"><stop stop-color="#E4F7FF"/><stop offset=".961" stop-color="#C6EFFF"/></linearGradient><filter id="w" x="415.634" y="18.511" width="76.666" height="92.508" filterUnits="userSpaceOnUse" color-interpolation-filters="sRGB"><feFlood flood-opacity="0" result="BackgroundImageFix"/><feBlend in="SourceGraphic" in2="BackgroundImageFix" result="shape"/><feGaussianBlur stdDeviation="3.72" result="effect1_foregroundBlur_411_960"/></filter><filter id="h" x="457.23" y="120.476" width="100.356" height="146.134" filterUnits="userSpaceOnUse" color-interpolation-filters="sRGB"><feFlood flood-opacity="0" result="BackgroundImageFix"/><feBlend in="SourceGraphic" in2="BackgroundImageFix" result="shape"/><feGaussianBlur stdDeviation="19.748" result="effect1_foregroundBlur_411_960"/></filter><filter id="N" x="316.224" y="169.628" width="151.529" height="165.724" filterUnits="userSpaceOnUse" color-interpolation-filters="sRGB"><feFlood flood-opacity="0" result="BackgroundImageFix"/><feBlend in="SourceGraphic" in2="BackgroundImageFix" result="shape"/><feGaussianBlur stdDeviation="16.589" result="effect1_foregroundBlur_411_960"/></filter><filter id="D" x="195.597" y="173.756" width="152.711" height="161.239" filterUnits="userSpaceOnUse" color-interpolation-filters="sRGB"><feFlood flood-opacity="0" result="BackgroundImageFix"/><feBlend in="SourceGraphic" in2="BackgroundImageFix" result="shape"/><feGaussianBlur stdDeviation="16.589" result="effect1_foregroundBlur_411_960"/></filter><filter id="y" x="518.944" y="102.575" width="34.552" height="35.021" filterUnits="userSpaceOnUse" color-interpolation-filters="sRGB"><feFlood flood-opacity="0" result="BackgroundImageFix"/><feBlend in="SourceGraphic" in2="BackgroundImageFix" result="shape"/><feGaussianBlur stdDeviation="3.72" result="effect1_foregroundBlur_411_960"/></filter><filter id="x" x="518.295" y="133.776" width="36.243" height="82.021" filterUnits="userSpaceOnUse" color-interpolation-filters="sRGB"><feFlood flood-opacity="0" result="BackgroundImageFix"/><feBlend in="SourceGraphic" in2="BackgroundImageFix" result="shape"/><feGaussianBlur stdDeviation="3.72" result="effect1_foregroundBlur_411_960"/></filter><filter id="T" x="453.629" y="192.22" width="220.218" height="258.254" filterUnits="userSpaceOnUse" color-interpolation-filters="sRGB"><feFlood flood-opacity="0" result="BackgroundImageFix"/><feBlend in="SourceGraphic" in2="BackgroundImageFix" result="shape"/><feGaussianBlur stdDeviation="28.985" result="effect1_foregroundBlur_411_960"/></filter><filter id="v" x="539.125" y="222.347" width="131.674" height="165.896" filterUnits="userSpaceOnUse" color-interpolation-filters="sRGB"><feFlood flood-opacity="0" result="BackgroundImageFix"/><feBlend in="SourceGraphic" in2="BackgroundImageFix" result="shape"/><feGaussianBlur stdDeviation="3.72" result="effect1_foregroundBlur_411_960"/></filter><filter id="s" x="42.816" y="172.601" width="121.63" height="162.922" filterUnits="userSpaceOnUse" color-interpolation-filters="sRGB"><feFlood flood-opacity="0" result="BackgroundImageFix"/><feBlend in="SourceGraphic" in2="BackgroundImageFix" result="shape"/><feGaussianBlur stdDeviation="16.589" result="effect1_foregroundBlur_411_960"/></filter><filter id="o" x=".823" y="221.753" width="107.292" height="114.856" filterUnits="userSpaceOnUse" color-interpolation-filters="sRGB"><feFlood flood-opacity="0" result="BackgroundImageFix"/><feBlend in="SourceGraphic" in2="BackgroundImageFix" result="shape"/><feGaussianBlur stdDeviation="16.589" result="effect1_foregroundBlur_411_960"/></filter><filter id="m" x="63.474" y="178.143" width="413.1" height="113.159" filterUnits="userSpaceOnUse" color-interpolation-filters="sRGB"><feFlood flood-opacity="0" result="BackgroundImageFix"/><feBlend in="SourceGraphic" in2="BackgroundImageFix" result="shape"/><feGaussianBlur stdDeviation="3.132" result="effect1_foregroundBlur_411_960"/></filter><filter id="d" x="375.021" y=".696" width="125.159" height="141.001" filterUnits="userSpaceOnUse" color-interpolation-filters="sRGB"><feFlood flood-opacity="0" result="BackgroundImageFix"/><feBlend in="SourceGraphic" in2="BackgroundImageFix" result="shape"/><feGaussianBlur stdDeviation="15.843" result="effect1_foregroundBlur_411_960"/></filter></defs></svg>