<svg width="674" height="451" viewBox="0 0 674 451" fill="none" xmlns="http://www.w3.org/2000/svg">
<path fill-rule="evenodd" clip-rule="evenodd" d="M417.43 32.6539L415.34 33.9667H406.707L419.78 26.5321C422.167 25.1747 424.866 24.461 427.612 24.461H430.466L430.469 24.459C434.43 24.459 436.014 27.3112 436.014 27.6276L435.999 27.6347L436.018 27.6271L437.458 57.0954L437.297 57.1874L438.392 76.741L423.975 84.9793L422.866 65.1758L423.025 65.0851L421.018 34.7382L420.979 34.7568C420.899 34.6776 419.945 34.1231 418.991 33.5686C418.402 33.2265 417.813 32.8844 417.43 32.6539Z" fill="url(#paint0_linear_411_960)"/>
<path d="M422.551 84.6646L438.394 76.7432C439.978 84.6646 454.236 83.2387 454.236 83.8724L453.444 96.5467C424.927 110.805 422.551 85.4567 422.551 84.6646Z" fill="url(#paint1_linear_411_960)"/>
<path fill-rule="evenodd" clip-rule="evenodd" d="M433.535 48.4743L433.5 48.4956C434.292 48.4956 441.874 48.3852 442.35 48.2268L443.228 47.7352C443.257 47.7407 443.286 47.7463 443.315 47.7521L443.59 47.5954C443.858 47.6027 444.152 47.6338 444.461 47.6663L444.461 47.6663H444.461L444.461 47.6663C444.806 47.7028 445.169 47.7411 445.535 47.7502L445.533 47.7509C446.134 47.9011 446.734 48.0512 447.335 48.0665L447.103 48.2262C447.548 48.2262 448.159 48.3049 448.647 48.4619L448 48.9961C448.634 49.1545 454.88 50.9206 455.355 51.3958L455.459 51.3363C455.955 51.8702 457.566 54.1187 459.177 56.3672C460.93 58.8138 462.683 61.2604 463 61.498L463.726 60.9538C463.909 61.3605 464.075 61.7839 464.234 62.2239L463.738 62.4849C463.884 62.9232 464.236 63.4964 464.603 64.0956L464.603 64.0957C465.032 64.7957 465.483 65.5313 465.654 66.1288L465.652 66.13C465.711 66.4249 465.792 66.7417 465.879 67.0806C466.025 67.6518 466.187 68.2856 466.286 68.9817L480.703 60.7434L480.703 60.7432C480.545 59.7928 480.386 58.8423 480.069 57.8919L480.071 57.8907C479.89 57.256 479.6 56.5693 479.326 55.9199L479.326 55.9198L479.326 55.9196L479.325 55.9188C479.176 55.5667 479.032 55.2255 478.913 54.9096L478.961 54.8823C478.494 53.6381 477.875 52.3938 477.253 51.1496L477.377 51.0785C476.426 49.4944 475.317 47.9103 474.05 46.6429L474.052 46.6422L473.893 46.4837L473.893 46.4837C473.701 46.2914 473.508 46.0991 473.316 45.909C471.48 43.8458 470.268 43.2447 469.817 43.0209L469.771 42.998L469.646 43.0696L469.621 43.0516L469.621 43.0516C468.902 42.5406 466.257 40.6587 462.692 39.8592C461.926 39.5869 460.913 39.5286 460.24 39.5161C460.042 39.5054 459.843 39.4989 459.641 39.4968C459.422 39.4816 459.211 39.4581 459 39.4346C458.732 39.4049 458.465 39.3752 458.18 39.3622L458.192 39.3554C458.113 39.3554 457.97 39.3497 457.771 39.3417C456.393 39.2863 452.306 39.122 447.5 39.9961L441.884 43.4058L432.052 49.0184C432.208 48.9664 432.485 48.8631 432.81 48.7423L432.81 48.7422L432.81 48.7422L432.81 48.7422L432.81 48.7422C433.037 48.6576 433.287 48.5645 433.535 48.4743ZM481.166 63.2775L481.166 63.2773L481.165 63.2776C481.073 62.6323 480.986 62.2019 480.898 61.7673C480.835 61.4553 480.771 61.1412 480.705 60.7441L466.288 68.9824C466.442 69.9077 466.597 70.833 466.751 71.9044L466.605 71.9913C466.764 72.7834 466.764 73.5755 466.764 74.5259V74.5262L466.912 74.4433L467.472 84.3084C467.379 85.1098 467.065 87.1775 466.75 89.2451C466.375 91.7117 466 94.1782 466 94.4951L466.512 94.4506L466.446 94.6462L466.446 94.6465C466.367 94.8841 466.288 95.1613 466.208 95.4386C466.129 95.7157 466.05 95.9927 465.971 96.2303L465.971 96.2304C465.906 96.4229 465.816 96.6155 465.721 96.8186C465.582 97.1166 465.431 97.4373 465.337 97.8139L465.336 97.8144C465.056 98.2345 464.776 98.7784 464.496 99.3367L464.387 99.3992C464.139 100.019 463.794 100.542 463.352 101.044L462.945 101.301C462.628 101.697 462.315 102.132 462.002 102.568C461.689 103.004 461.375 103.439 461.059 103.835C459.95 105.103 458.524 106.053 456.939 107.004L471.356 98.7656C472.782 97.815 474.208 96.8644 475.476 95.597C475.576 95.4967 475.691 95.3863 475.816 95.2667C476.303 94.8 476.936 94.1935 477.395 93.5042L477.5 93.4951C482.211 87.3708 482.014 81.0116 481.976 79.7668C481.974 79.6904 481.972 79.6333 481.972 79.5966L481.966 79.5986L481.971 79.5955V77.5375L481.973 77.5365L481.235 64.4949C481.242 64.0303 481.229 63.5915 481.166 63.2773L481.166 63.2775Z" fill="url(#paint2_linear_411_960)"/>
<g style="mix-blend-mode:lighten" filter="url(#filter0_f_411_960)">
<path d="M418.797 32.3818C421.054 32.3818 421.392 33.8019 421.714 35.6953L423.326 65.201L424.455 84.9241C425.1 95.4956 430.097 99.2824 439.608 99.2824C449.442 99.2824 454.117 93.9178 453.472 83.3462L453.149 76.7193C452.827 70.4079 451.537 67.2522 449.119 64.4121C446.701 61.572 444.605 60.6253 438.802 60.6253C438.157 60.6253 436.062 60.9408 435.417 61.0986C435.256 61.0986 435.094 61.0986 434.933 61.0986C433.643 61.0986 432.354 59.9941 432.354 58.5741L431.87 50.527C431.87 49.2648 432.515 48.3181 433.643 48.0025C435.578 47.5291 439.124 47.2136 441.381 47.2136C449.442 47.2136 455.729 49.5803 460.242 54.3139C464.756 59.0474 467.335 65.6744 467.819 74.0369L468.464 85.2396C468.786 92.8133 466.529 98.6513 461.854 103.227C457.179 107.803 449.925 110.012 440.253 110.012C435.417 110.012 431.064 109.381 427.195 108.118C423.326 106.856 420.263 105.12 417.684 102.754C415.266 100.545 413.332 97.8624 411.881 94.8645C410.591 91.8666 409.624 88.7109 409.463 85.0818L406.722 35.6953C406.561 33.4863 407.689 32.3818 410.269 32.3818H418.006H418.797Z" fill="url(#paint3_linear_411_960)" fill-opacity="0.6"/>
</g>
<path d="M418.797 32.3818C421.054 32.3818 421.392 33.8019 421.714 35.6953L423.326 65.201L424.455 84.9241C425.1 95.4956 430.097 99.2824 439.608 99.2824C449.442 99.2824 454.117 93.9178 453.472 83.3462L453.149 76.7193C452.827 70.4079 451.537 67.2522 449.119 64.4121C446.701 61.572 444.605 60.6253 438.802 60.6253C438.157 60.6253 436.062 60.9408 435.417 61.0986C435.256 61.0986 435.094 61.0986 434.933 61.0986C433.643 61.0986 432.354 59.9941 432.354 58.5741L431.87 50.527C431.87 49.2648 432.515 48.3181 433.643 48.0025C435.578 47.5291 439.124 47.2136 441.381 47.2136C449.442 47.2136 455.729 49.5803 460.242 54.3139C464.756 59.0474 467.335 65.6744 467.819 74.0369L468.464 85.2396C468.786 92.8133 466.529 98.6513 461.854 103.227C457.179 107.803 449.925 110.012 440.253 110.012C435.417 110.012 431.064 109.381 427.195 108.118C423.326 106.856 420.263 105.12 417.684 102.754C415.266 100.545 413.332 97.8624 411.881 94.8645C410.591 91.8666 409.624 88.7109 409.463 85.0818L406.722 35.6953C406.561 33.4863 407.689 32.3818 410.269 32.3818H418.006H418.797Z" fill="url(#paint4_linear_411_960)"/>
<path fill-rule="evenodd" clip-rule="evenodd" d="M498.189 160.588C498.01 160.686 498.066 160.842 498.265 160.794C498.617 160.708 499.053 160.599 499.49 160.49L499.49 160.49L499.49 160.49L499.49 160.49C500.298 160.289 501.106 160.087 501.377 160.035L509.624 160.8L509.364 160.959C509.561 160.959 514.301 165.896 514.301 165.896L514.794 165.61L517.806 221.336L516.277 222.178C516.054 222.289 516.214 223.47 516.361 224.549C516.474 225.381 516.579 226.153 516.493 226.325L534.463 216.056C534.468 216.051 534.473 216.046 534.48 216.041C534.486 216.035 534.492 216.029 534.5 216.023C534.517 216.009 534.537 215.992 534.561 215.973C535.046 215.572 536.926 214.02 536.025 211.316L535.98 211.341L536.023 211.315L533.061 155.035L533.061 155.035C533.061 155.035 533.061 150.099 527.14 150.098H527.137H518.253L518.201 150.127L518.251 150.098C517.603 150.098 516.966 150.261 516.398 150.573L498.189 160.588Z" fill="url(#paint5_linear_411_960)"/>
<g style="mix-blend-mode:lighten" filter="url(#filter1_f_411_960)">
<path d="M510.173 159.972C513.135 159.972 514.715 161.354 514.912 164.316L518.072 222.77C518.269 225.535 516.887 227.114 513.925 227.114H504.643C501.681 227.114 500.101 225.732 499.904 222.77L496.744 164.316C496.547 161.552 497.929 159.972 500.891 159.972H510.173Z" fill="url(#paint6_linear_411_960)" fill-opacity="0.6"/>
</g>
<path d="M510.173 159.972C513.135 159.972 514.715 161.354 514.912 164.316L518.072 222.77C518.269 225.535 516.887 227.114 513.925 227.114H504.643C501.681 227.114 500.101 225.732 499.904 222.77L496.744 164.316C496.547 161.552 497.929 159.972 500.891 159.972H510.173Z" fill="url(#paint7_linear_411_960)"/>
<path d="M508.788 148.712L526.758 138.443C526.561 138.641 526.561 138.641 526.363 138.641L508.393 148.91C508.59 148.91 508.788 148.712 508.788 148.712Z" fill="#858585"/>
<path fill-rule="evenodd" clip-rule="evenodd" d="M510.212 131.711L509.774 131.96C509.774 131.96 507.602 129.44 505.414 129.356L524.266 119.292C525.193 118.813 525.838 118.867 526.288 119.176C526.45 119.205 526.61 119.253 526.764 119.32C527.009 119.427 527.233 119.579 527.422 119.769L533.06 125.406L533.05 125.414L533.061 125.406C533.061 125.406 535.612 127.958 534.401 129.903L534.66 129.752L526.958 138.244L508.79 148.71L512.557 144.661C513.592 142.344 515.288 137.255 515.288 137.255L515.643 137.018L510.212 131.711Z" fill="url(#paint8_linear_411_960)"/>
<path d="M506.616 128.765C507.011 128.765 507.406 128.962 507.801 129.16L516.49 137.651C517.083 138.244 517.28 139.428 516.688 140.021L508.986 148.512C508.789 148.907 508.196 148.907 507.801 148.907C507.406 148.907 507.011 148.71 506.616 148.512L497.927 140.021C497.335 139.428 497.137 138.244 497.73 137.651L505.431 129.16C505.826 128.962 506.221 128.765 506.616 128.765Z" fill="url(#paint9_linear_411_960)"/>
<g filter="url(#filter2_f_411_960)">
<path d="M88.6988 236.535C90.5915 236.535 92.7209 237.955 93.4306 240.084L110.465 281.488C111.175 283.144 109.992 285.037 108.336 285.037L75.213 283.381C71.1909 283.144 68.5884 279.122 70.2445 275.573L83.7303 239.847C84.6767 237.482 86.806 236.535 88.6988 236.535Z" fill="#26255F" fill-opacity="0.3"/>
<path d="M122.497 187.403C125.573 187.64 128.412 189.533 129.595 192.372L166.74 279.201C167.687 281.567 166.03 284.17 163.191 283.933L147.813 283.223C146.393 283.223 144.974 282.277 144.264 280.857L112.797 206.804C111.378 203.728 111.378 200.179 112.797 197.104L115.4 191.425C116.583 188.823 119.422 187.167 122.497 187.403Z" fill="#26255F" fill-opacity="0.3"/>
<path d="M307.576 188.664C322.008 189.374 332.654 193.159 339.989 199.784C347.323 206.645 350.872 213.743 350.872 225.336V240.241L328.869 239.058L305.21 237.639C299.058 237.402 294.326 238.112 291.251 240.241C287.938 242.37 286.282 247.102 286.282 251.124V253.963C286.282 257.512 288.175 260.588 291.96 263.191C295.746 265.793 300.951 267.213 307.812 267.449C314.673 267.922 319.878 266.503 323.427 262.954C326.03 260.115 326.976 257.276 327.923 253.963C328.159 252.781 329.342 252.071 330.525 252.071L347.56 253.017C349.216 253.017 350.399 254.673 350.162 256.566C348.743 264.137 345.194 271.235 339.989 275.493C332.654 281.408 321.771 284.011 307.812 283.301C294.09 282.355 283.68 279.042 275.872 273.364C268.301 267.449 264.516 259.169 264.516 250.888V250.178C264.516 242.134 267.828 233.853 274.689 229.358C281.55 224.863 291.014 222.97 303.553 223.68L329.105 225.099V224.389C329.105 217.055 326.976 213.506 322.954 209.957C318.932 206.408 313.017 204.516 305.446 204.042C297.875 203.569 289.594 205.225 281.077 209.011C279.894 209.484 278.948 209.721 277.765 209.721C276.109 209.721 274.689 208.538 273.743 206.645L270.43 201.913C268.774 198.837 269.247 196.708 272.323 195.288C283.206 190.083 295.036 187.954 307.576 188.664Z" fill="#26255F" fill-opacity="0.3"/>
<path d="M183.963 187.91C187.039 188.147 189.878 190.039 191.061 192.879L228.206 279.235C229.389 281.837 227.26 284.677 224.42 284.44L209.752 283.73C208.096 283.73 206.676 282.547 205.966 281.128L173.553 208.73C172.133 205.655 172.133 201.869 173.553 198.793L176.865 191.932C178.048 189.33 180.887 187.674 183.963 187.91Z" fill="#26255F" fill-opacity="0.3"/>
<path d="M464.434 188.241C468.105 188.479 469.819 190.146 469.819 193.719V197.054C469.819 203.961 468.84 209.439 467.126 213.965C465.413 218.49 461.742 222.301 456.113 225.636L443.875 233.496L450.483 239.451C458.071 244.929 463.455 250.169 466.147 255.171C468.84 260.173 470.308 266.604 470.308 274.226V278.99C470.308 282.325 468.595 283.992 464.924 283.754L453.42 283.277C449.749 283.039 448.036 281.372 448.036 277.799V274.226C448.036 269.224 447.302 264.937 445.588 261.602C443.875 258.03 441.183 254.933 437.267 252.075L427.721 244.215L418.176 251.122C414.26 253.504 411.568 256.362 409.855 259.697C408.141 263.032 407.407 267.081 407.407 272.083V275.655C407.407 278.99 405.694 280.657 402.023 280.419L390.519 279.943C386.848 279.705 385.135 278.037 385.135 274.465V269.701C385.135 261.841 386.359 255.648 389.296 250.884C391.988 246.12 397.128 241.595 404.96 236.831L411.568 231.591L399.086 222.54C393.701 218.49 390.03 214.203 388.072 209.677C386.359 205.152 385.38 199.435 385.135 192.528V189.193C385.135 185.859 386.848 184.191 390.519 184.43L402.023 184.906C405.694 185.144 407.407 186.811 407.652 190.384V191.813C407.652 195.386 407.897 198.483 408.141 200.626C408.386 202.77 409.12 204.914 410.344 206.581C411.568 208.487 412.547 209.916 414.015 211.107C415.239 212.298 417.442 213.965 420.379 216.109L427.966 221.587L435.554 216.823C438.491 214.918 440.693 213.488 441.917 212.536C443.141 211.583 444.365 210.154 445.344 208.487C446.567 206.819 447.057 204.914 447.546 202.77C447.791 200.626 448.036 197.768 448.036 193.957V192.528C448.036 189.193 449.994 187.526 453.665 187.764L464.434 188.241Z" fill="#26255F" fill-opacity="0.3"/>
</g>
<path fill-rule="evenodd" clip-rule="evenodd" d="M75.4026 246.891L51.7764 255.17C51.8947 255.289 53.3734 256.058 54.8521 256.827C55.4641 257.145 56.0761 257.463 56.5916 257.736L74.0661 300.919C74.0027 301.483 73.9004 302.25 73.5628 302.925C73.4802 303.09 73.7008 303.366 73.8689 303.29L97.1165 292.723C98.3009 292.184 99.1097 290.824 98.0956 290.009C98.0261 289.953 97.9541 289.901 97.8799 289.852L97.9145 289.835L81.3199 249.255L81.317 249.256C80.1339 246.89 77.7682 245.708 75.4026 246.891Z" fill="url(#paint10_linear_411_960)"/>
<g style="mix-blend-mode:lighten" filter="url(#filter3_f_411_960)">
<path d="M52.9605 254.931C54.8532 254.931 56.9826 256.35 57.6924 258.48L74.727 299.883C75.4368 301.539 74.2538 303.432 72.5977 303.432L39.4747 301.776C35.4526 301.539 32.8501 297.517 34.5063 293.968L47.992 258.243C48.9384 255.877 51.0678 254.931 52.9605 254.931Z" fill="url(#paint11_linear_411_960)" fill-opacity="0.6"/>
</g>
<path d="M52.9605 254.931C54.8532 254.931 56.9826 256.35 57.6924 258.48L74.727 299.883C75.4368 301.539 74.2538 303.432 72.5977 303.432L39.4747 301.776C35.4526 301.539 32.8501 297.517 34.5063 293.968L47.992 258.243C48.9384 255.877 51.0678 254.931 52.9605 254.931Z" fill="url(#paint12_linear_411_960)"/>
<path d="M82.9736 206.51L105.213 195.39C105.45 195.153 105.687 195.153 105.923 195.153L83.6834 206.273C83.4468 206.273 83.2102 206.51 82.9736 206.51Z" fill="#858585"/>
<path d="M83.6836 206.271L105.923 195.151C106.16 195.151 106.397 194.914 106.87 194.914L84.63 206.034C84.1568 206.034 83.9202 206.034 83.6836 206.271Z" fill="#8A8A8A"/>
<path d="M84.6299 206.035L106.87 194.915C107.106 194.915 107.343 194.915 107.579 194.679L85.3397 205.799C85.1031 205.799 84.8665 205.799 84.6299 206.035Z" fill="#8F8F8F"/>
<path d="M85.3398 205.799L107.58 194.679C107.816 194.679 108.053 194.679 108.289 194.679L85.813 205.799C85.5764 205.799 85.3398 205.799 85.3398 205.799Z" fill="#949494"/>
<path d="M85.8125 205.799L108.052 194.679C108.289 194.679 108.525 194.679 108.762 194.679L86.5223 205.799C86.2857 205.799 86.0491 205.799 85.8125 205.799Z" fill="#999999"/>
<path d="M86.5215 205.799L108.761 194.679H108.998L86.7581 205.799H86.5215Z" fill="#9E9E9E"/>
<path fill-rule="evenodd" clip-rule="evenodd" d="M81.084 207.693L104.743 194.68C112.298 192.522 115.717 198.043 116.438 199.208L116.438 199.208C116.508 199.32 116.552 199.392 116.573 199.412L116.572 199.413L152.201 283.775C154.619 288.227 155.086 292.546 154.614 294.705C154.426 295.567 153.621 296.036 152.768 296.26L129.914 302.261C129.396 302.397 128.844 302.274 128.424 301.941C128.287 301.833 128.147 301.723 128.004 301.611C124.727 299.037 120.084 295.391 126.035 290.499L127.7 290.006L93.0351 210.342C90.0777 209.873 82.9647 208.633 81.084 207.693Z" fill="url(#paint13_linear_411_960)"/>
<g style="mix-blend-mode:lighten" filter="url(#filter4_f_411_960)">
<path d="M86.7581 205.801C89.8338 206.037 92.673 207.93 93.8559 210.769L131.001 297.599C131.947 299.965 130.291 302.567 127.452 302.331L112.074 301.621C110.654 301.621 109.234 300.674 108.525 299.255L77.0578 225.201C75.6383 222.126 75.6383 218.577 77.0578 215.501L79.6604 209.823C80.8433 207.22 83.6824 205.564 86.7581 205.801Z" fill="url(#paint14_linear_411_960)" fill-opacity="0.6"/>
</g>
<path d="M86.7581 205.801C89.8338 206.037 92.673 207.93 93.8559 210.769L131.001 297.599C131.947 299.965 130.291 302.567 127.452 302.331L112.074 301.621C110.654 301.621 109.234 300.674 108.525 299.255L77.0578 225.201C75.6383 222.126 75.6383 218.577 77.0578 215.501L79.6604 209.823C80.8433 207.22 83.6824 205.564 86.7581 205.801Z" fill="url(#paint15_linear_411_960)"/>
<g filter="url(#filter5_f_411_960)">
<path d="M595.26 229.786C600.13 229.786 601.784 231.632 601.784 235.938L604.056 275.922H643.013C647.882 275.922 650.479 278.075 650.804 282.381L651.453 293.146C651.778 297.452 649.505 299.605 644.311 299.605H605.355L607.952 342.049C608.276 347.586 610.549 351.892 614.445 354.66C618.665 357.428 623.534 358.966 629.053 358.966C634.572 358.966 640.091 357.735 646.584 354.967C648.207 354.352 649.505 354.045 650.804 354.045C653.076 354.045 655.349 355.275 656.648 357.735L661.842 365.732C664.439 369.731 663.79 372.806 659.245 374.652C649.83 378.65 639.442 380.803 627.755 380.803C613.146 380.803 601.459 377.42 592.369 370.961C583.604 364.502 578.734 355.275 578.085 343.895L575.488 299.912H555.036C550.166 299.912 547.569 297.759 547.244 293.454L546.595 282.689C546.27 278.383 548.543 276.23 553.088 276.23H573.54L571.268 236.246C570.943 231.94 573.215 229.787 578.085 229.787H594.317L595.26 229.786Z" fill="#26255F" fill-opacity="0.3"/>
</g>
<g filter="url(#filter6_f_411_960)">
<path d="M435.164 25.9502C437.421 25.9502 437.758 27.3703 438.08 29.2637L439.693 58.7694L440.821 78.4924C441.466 89.064 446.463 92.8508 455.974 92.8508C465.808 92.8508 470.483 87.4861 469.838 76.9146L469.516 70.2876C469.193 63.9762 467.903 60.8206 465.485 57.9804C463.067 55.1403 460.972 54.1936 455.168 54.1936C454.523 54.1936 452.428 54.5092 451.783 54.667C451.622 54.667 451.461 54.667 451.299 54.667C450.01 54.667 448.72 53.5625 448.72 52.1424L448.236 44.0954C448.236 42.8331 448.881 41.8864 450.01 41.5709C451.944 41.0975 455.491 40.7819 457.748 40.7819C465.808 40.7819 472.095 43.1487 476.609 47.8822C481.122 52.6158 483.702 59.2427 484.185 67.6053L484.83 78.808C485.152 86.3816 482.896 92.2197 478.221 96.7954C473.546 101.371 466.291 103.58 456.619 103.58C451.783 103.58 447.43 102.949 443.561 101.687C439.692 100.424 436.63 98.6888 434.05 96.3221C431.632 94.1131 429.698 91.4307 428.247 88.4328C426.957 85.4349 425.99 82.2792 425.829 78.6502L423.088 29.2637C422.927 27.0547 424.056 25.9502 426.635 25.9502H434.373H435.164Z" fill="#26255F" fill-opacity="0.3"/>
</g>
<g filter="url(#filter7_f_411_960)">
<path d="M539.181 141.215C542.144 141.215 543.723 142.597 543.921 145.559L547.081 204.013C547.278 206.778 545.896 208.358 542.934 208.358H533.652C530.69 208.358 529.11 206.975 528.913 204.013L525.753 145.559C525.555 142.795 526.938 141.215 529.9 141.215H539.181Z" fill="#26255F" fill-opacity="0.3"/>
</g>
<g filter="url(#filter8_f_411_960)">
<path d="M535.627 110.015C536.022 110.015 536.417 110.212 536.812 110.41L545.501 118.901C546.093 119.494 546.291 120.678 545.698 121.271L537.997 129.762C537.799 130.157 537.207 130.157 536.812 130.157C536.417 130.157 536.022 129.96 535.627 129.762L526.938 121.271C526.346 120.678 526.148 119.494 526.741 118.901L534.442 110.41C534.837 110.212 535.232 110.015 535.627 110.015Z" fill="#26255F" fill-opacity="0.3"/>
</g>
<path d="M241.789 260.774L263.082 256.042C264.265 272.603 293.13 271.421 293.839 271.421L285.559 289.165C260.716 291.531 250.07 285.616 241.789 260.774Z" fill="url(#paint16_linear_411_960)"/>
<path fill-rule="evenodd" clip-rule="evenodd" d="M258.825 242.083L258.82 242.086C257.992 242.204 257.164 242.263 256.336 242.322C255.818 242.359 255.3 242.396 254.783 242.448L251.251 244.213C250.541 244.45 249.358 244.45 248.175 244.45H248.175H248.175C246.992 244.45 245.809 244.45 245.1 244.686L267.339 233.567C268.998 232.875 270.092 232.588 271.423 232.469L271.596 232.382C272.23 232.276 272.863 232.124 273.518 231.966C274.33 231.77 275.174 231.567 276.091 231.436L274.194 232.384L274.201 232.384L276.091 231.439L276.091 231.439C277.746 231.203 279.401 230.966 281.056 230.966L281.061 230.964C281.692 230.964 282.323 230.937 282.954 230.911C284.215 230.858 285.477 230.806 286.739 230.964L264.499 242.083H258.825ZM241.786 246.106L264.026 234.986C264.972 234.513 266.155 234.04 267.338 233.566L245.098 244.686C244.507 244.923 243.975 245.159 243.442 245.396C242.91 245.633 242.378 245.869 241.786 246.106ZM264.498 242.086L286.738 230.966H290.046L290.052 230.963L315.604 232.382L293.365 243.502L267.816 242.083L267.81 242.086H264.498Z" fill="url(#paint17_linear_411_960)"/>
<path fill-rule="evenodd" clip-rule="evenodd" d="M292.656 271.416C293.44 270.633 294.344 269.981 295.336 269.485L313.016 260.646C314.092 260.108 315.252 259.769 316.442 259.643C316.631 259.623 316.82 259.608 317.01 259.599L317.026 259.591L317.099 259.595C317.232 259.59 317.365 259.587 317.499 259.587L317.444 259.614L334.061 260.537L334.041 260.547C335.812 260.735 337.196 263.27 336.377 265.539L336.424 265.505C335.424 270.506 333.409 273.984 332.524 275.512L332.524 275.512C332.362 275.791 332.238 276.005 332.165 276.151L332.152 276.158L332.168 276.15C331.694 277.097 330.985 278.043 330.275 278.99L329.937 279.155C328.864 280.436 327.772 281.681 326.487 282.538C324.831 283.721 323.175 284.904 321.045 285.851L298.806 296.971C300.698 296.024 302.591 294.841 304.247 293.658C305.43 292.712 306.85 291.292 308.033 289.873L308.036 289.871C308.416 289.302 308.947 288.581 309.508 287.83L309.216 287.981C309.926 286.562 310.039 285.823 310.119 285.307C310.172 284.962 310.21 284.716 310.399 284.432L311.748 283.451C311.973 283.009 312.167 282.571 312.293 282.065L316.646 279.889L316.656 279.882L312.293 282.063C312.766 281.117 313.003 280.407 313.239 279.461L313.24 279.461C313.476 278.751 313.713 278.041 313.949 277.095L334.87 266.635L334.872 266.634L313.95 277.095C314.063 276.756 313.477 275.665 312.858 274.514C312.265 273.41 311.642 272.25 311.576 271.643L295.116 270.729C294.546 270.85 292.656 271.416 292.656 271.416Z" fill="url(#paint18_linear_411_960)"/>
<path fill-rule="evenodd" clip-rule="evenodd" d="M253.616 208.918L255.285 208.071L255.148 208.096C253.556 208.38 252.048 208.649 250.54 209.16L250.867 208.994C248.736 209.428 246.063 210.284 243.668 211.086L242.26 211.801C241.023 212.114 239.786 212.531 238.484 213.117L258.584 202.915H258.821C260.057 202.288 261.292 201.763 262.528 201.274L264.499 200.274C266.107 199.68 269.703 198.537 273.332 197.749C274.551 197.48 275.833 197.217 277.092 197.004L277.275 196.911C280.824 195.71 286.739 195.71 289.105 195.71L288.991 195.782C289.715 195.742 290.459 195.71 291.234 195.71L280.59 201.112L280.589 201.113L291.234 195.71C291.925 195.71 294.885 195.71 296.893 196.177C297.053 196.185 297.217 196.19 297.385 196.19L297.238 196.265L297.239 196.265L297.386 196.191C299.141 196.413 300.896 196.636 302.462 196.858L302.83 196.672C303.003 196.701 303.18 196.731 303.36 196.76L303.363 196.761L303.364 196.761C304.653 196.975 306.08 197.211 307.325 197.632L307.323 197.633C307.914 197.753 308.564 197.933 309.214 198.113C309.865 198.293 310.516 198.473 311.107 198.593L311.039 198.628C311.88 198.818 312.609 199.128 313.405 199.467C313.656 199.573 313.913 199.683 314.182 199.792L314.183 199.792C315.917 200.318 317.754 201.291 319.407 202.166L319.542 202.238L319.625 202.195C320.094 202.433 320.562 202.671 321.001 202.937L321.044 202.913C321.517 203.273 322.345 203.873 323.173 204.473L323.174 204.474L323.174 204.475C324.002 205.075 324.83 205.675 325.303 206.035L325.145 206.114C325.355 206.317 325.566 206.477 325.776 206.637L325.776 206.638C326.013 206.818 326.25 206.998 326.486 207.238C327.669 208.438 328.851 209.638 329.797 210.838L329.797 210.838C331.217 212.519 335.239 218.522 336.422 229.329L336.403 229.342L336.424 229.332V234.135L336.424 234.135V248.303L315.131 258.408V244.461L315.131 244.461V243.736L315.129 243.738C315.129 240.137 308.983 223.58 307.559 222.127L307.559 222.127C306.612 220.926 305.43 219.726 304.247 218.525L304.246 218.525C304.01 218.285 303.773 218.105 303.537 217.925C303.3 217.744 303.064 217.564 302.827 217.324L303.291 217.089L302.827 217.322C302.312 216.8 301.425 216.151 300.615 215.56L300.615 215.56L300.611 215.557L300.61 215.556C300.413 215.412 300.221 215.272 300.04 215.137L299.988 215.163C299.821 215.05 299.64 214.923 299.449 214.789C299.119 214.558 298.758 214.304 298.383 214.063L297.5 214.495C297.152 214.319 296.176 213.697 295.033 212.969L295.032 212.969C294.042 212.339 292.926 211.628 291.985 211.058L291.943 211.08C291.674 210.97 291.417 210.861 291.167 210.755L291.167 210.755L291.167 210.754L291.166 210.754L291.166 210.754L291.165 210.754L291.165 210.754C290.316 210.393 289.544 210.064 288.631 209.879L288.723 209.832C287.367 209.384 286.225 209.152 285.082 208.92L285.083 208.919C284.45 208.812 283.818 208.657 283.164 208.497C282.459 208.325 281.729 208.146 280.949 208.015L280.588 208.198C278.932 207.718 277.039 207.478 275.147 207.478L284.261 202.852L284.252 202.856L275.145 207.477C274.684 207.36 274.168 207.3 273.622 207.27L272.543 207.718C272.07 207.718 271.419 207.537 270.769 207.357L270.752 207.353L270.178 207.717C268.285 207.717 255.509 208.678 253.616 208.918ZM236.345 214.202L238.484 213.117C237.793 213.427 237.083 213.786 236.345 214.202Z" fill="url(#paint19_linear_411_960)"/>
<g style="mix-blend-mode:lighten" filter="url(#filter9_f_411_960)">
<path d="M271.834 207.066C286.266 207.776 296.913 211.561 304.248 218.186C311.582 225.047 315.131 232.145 315.131 243.738V258.643L293.128 257.46L269.468 256.041C263.317 255.804 258.585 256.514 255.509 258.643C252.197 260.773 250.541 265.505 250.541 269.527V272.366C250.541 275.915 252.434 278.99 256.219 281.593C260.005 284.195 265.21 285.615 272.071 285.852C278.932 286.325 284.137 284.905 287.686 281.356C290.289 278.517 291.235 275.678 292.181 272.366C292.418 271.183 293.601 270.473 294.784 270.473L311.818 271.419C313.475 271.419 314.658 273.076 314.421 274.968C313.001 282.539 309.453 289.637 304.248 293.896C296.913 299.811 286.03 302.413 272.071 301.703C258.349 300.757 247.938 297.445 240.131 291.766C232.56 285.852 228.774 277.571 228.774 269.29V268.58C228.774 260.536 232.087 252.255 238.948 247.76C245.809 243.265 255.273 241.372 267.812 242.082L293.364 243.502V242.792C293.364 235.457 291.235 231.908 287.213 228.36C283.191 224.811 277.276 222.918 269.705 222.445C262.134 221.972 253.853 223.628 245.336 227.413C244.153 227.886 243.207 228.123 242.024 228.123C240.367 228.123 238.948 226.94 238.002 225.047L234.689 220.315C233.033 217.24 233.506 215.11 236.582 213.691C247.465 208.486 259.295 206.356 271.834 207.066Z" fill="url(#paint20_linear_411_960)" fill-opacity="0.6"/>
</g>
<path d="M271.834 207.066C286.266 207.776 296.913 211.561 304.248 218.186C311.582 225.047 315.131 232.145 315.131 243.738V258.643L293.128 257.46L269.468 256.041C263.317 255.804 258.585 256.514 255.509 258.643C252.197 260.773 250.541 265.505 250.541 269.527V272.366C250.541 275.915 252.434 278.99 256.219 281.593C260.005 284.195 265.21 285.615 272.071 285.852C278.932 286.325 284.137 284.905 287.686 281.356C290.289 278.517 291.235 275.678 292.181 272.366C292.418 271.183 293.601 270.473 294.784 270.473L311.818 271.419C313.475 271.419 314.658 273.076 314.421 274.968C313.001 282.539 309.453 289.637 304.248 293.896C296.913 299.811 286.03 302.413 272.071 301.703C258.349 300.757 247.938 297.445 240.131 291.766C232.56 285.852 228.774 277.571 228.774 269.29V268.58C228.774 260.536 232.087 252.255 238.948 247.76C245.809 243.265 255.273 241.372 267.812 242.082L293.364 243.502V242.792C293.364 235.457 291.235 231.908 287.213 228.36C283.191 224.811 277.276 222.918 269.705 222.445C262.134 221.972 253.853 223.628 245.336 227.413C244.153 227.886 243.207 228.123 242.024 228.123C240.367 228.123 238.948 226.94 238.002 225.047L234.689 220.315C233.033 217.24 233.506 215.11 236.582 213.691C247.465 208.486 259.295 206.356 271.834 207.066Z" fill="url(#paint21_linear_411_960)"/>
<path fill-rule="evenodd" clip-rule="evenodd" d="M141.423 210.687L143.79 207.14L166.306 196.52C174.565 194.161 178.118 200.127 178.132 201.242L214.708 286.276L214.702 286.28C215.185 287.164 215.74 288.257 216.406 289.602C216.824 290.447 216.453 291.473 215.59 291.853L193.586 301.557C183 303.55 178.274 297.474 177.24 296.144C177.134 296.007 177.066 295.921 177.036 295.898L189.637 291.05L155.354 211.348L154.37 211.785C152.95 211.999 143.789 211.87 141.423 210.687Z" fill="url(#paint22_linear_411_960)"/>
<path d="M148.225 206.308C151.3 206.544 154.14 208.437 155.323 211.276L192.468 297.632C193.651 300.235 191.521 303.074 188.682 302.837L174.013 302.128C172.357 302.128 170.938 300.945 170.228 299.525L137.815 227.128C136.395 224.052 136.395 220.267 137.815 217.191L141.127 210.33C142.31 207.727 145.149 206.071 148.225 206.308Z" fill="url(#paint23_linear_411_960)"/>
<path fill-rule="evenodd" clip-rule="evenodd" d="M390.568 263.372L412.808 252.252L403.344 259.113L401.471 260.06L403.58 259.113C401.214 260.532 399.085 262.425 397.665 264.318L397.219 264.541C396.921 264.88 396.638 265.286 396.429 265.638L396.719 265.501L394.353 270.233L394.353 270.233L394.352 270.234L394.354 270.233C394.337 270.267 394.322 270.301 394.307 270.335C394.281 270.398 394.253 270.475 394.223 270.561C394.173 270.722 394.136 270.89 394.096 271.072L394.096 271.072L394.092 271.092C393.757 273.266 393.381 276.499 393.17 278.565V279.934L393.032 280.005C393.032 280.005 393.032 280.006 393.032 280.006L393.172 279.934V283.246L393.173 283.246C393.173 283.393 393.173 283.535 393.172 283.673V283.72L393.172 283.72C393.163 285.776 393.026 286.877 391.043 287.978L368.804 299.098C369.124 298.938 369.768 296.83 370.225 295.336C370.444 294.621 370.62 294.046 370.696 293.893L370.933 293.781V292.273L370.5 292.504C370.5 292.251 370.691 290.554 370.936 288.443C370.949 287.962 370.989 287.45 371.103 287.005L371.25 285.754C371.625 282.557 372 279.359 372 279.004L373.527 278.326C373.568 278.193 373.609 278.058 373.651 277.922C373.887 277.153 374.124 276.384 374.242 276.148L375.057 275.762C375.106 275.659 375.151 275.551 375.189 275.436L375.573 275.245C376.975 273.432 378.827 271.832 381.341 270.232L381.344 270.23L390.568 263.372ZM394.22 270.3L394.321 270.249L394.349 270.235L394.316 270.25L394.221 270.297L394.22 270.3Z" fill="url(#paint24_linear_411_960)"/>
<path fill-rule="evenodd" clip-rule="evenodd" d="M372.939 193.927L350.578 203.989C350.815 203.989 352.707 204.699 352.707 204.699L353.074 204.525C353.139 204.542 353.18 204.599 353.18 204.698L353.651 204.463H354.127L371.818 195.617L371.821 195.616L354.127 204.463H354.366L365.723 205.172L365.968 205.05C366.126 205.125 367.225 206.892 368.325 208.659C369.449 210.464 370.572 212.27 370.691 212.27L370.927 212.133C370.933 212.337 370.956 212.54 370.978 212.744L370.978 212.744C370.999 212.927 371.019 213.111 371.027 213.294L370.69 213.453C370.69 215.053 371.029 216.992 371.276 218.411L371.276 218.411C371.321 218.671 371.364 218.913 371.4 219.132L371.519 219.073C371.543 220.019 371.58 220.676 371.636 220.789V221.498L371.655 221.489C371.676 221.65 371.717 221.811 371.757 221.972L371.757 221.972C371.816 222.208 371.875 222.444 371.875 222.68L371.874 222.68C371.979 222.89 372.165 223.47 372.36 224.094L372.347 224.101C372.378 224.225 372.43 224.37 372.497 224.53C372.698 225.174 372.892 225.783 373 225.998L373.194 225.881C373.29 226.047 373.387 226.212 373.481 226.37L373.293 226.465C373.53 226.465 373.53 226.701 373.53 226.938C374.103 227.893 374.83 228.848 375.462 229.679L375.462 229.679L375.463 229.68C375.614 229.877 375.759 230.068 375.895 230.25L376.049 230.174C376.151 230.287 376.243 230.399 376.331 230.506C376.567 230.792 376.774 231.044 377.079 231.196C377.553 231.433 378.026 231.906 378.499 232.379L378.498 232.38C379.68 233.562 381.571 234.743 383.699 235.926L383.23 236.165L391.984 241.844L412.568 230.25L405.47 224.808L405.47 224.809C404.799 224.306 404.158 223.833 403.558 223.389C402.463 222.581 401.502 221.871 400.738 221.26L400.739 221.259C400.502 221.023 400.266 220.845 400.029 220.668C399.792 220.491 399.556 220.313 399.319 220.077L398.136 218.894L397.981 218.971C397.11 218.053 396.44 216.936 395.769 215.818C395.769 215.7 395.71 215.64 395.651 215.581C395.592 215.522 395.533 215.463 395.533 215.345L395.397 215.412L394.587 212.981L394.583 212.982L394.587 212.98C394.469 212.744 394.41 212.507 394.35 212.27C394.291 212.034 394.232 211.798 394.115 211.562L394.115 211.562C394.115 211.326 394.056 211.089 393.997 210.852C393.938 210.616 393.878 210.379 393.878 210.143L393.876 210.144V209.669C393.813 209.543 393.721 208.902 393.621 208.022L393.64 208.012C393.628 207.971 393.617 207.93 393.606 207.89C393.456 206.548 393.288 204.707 393.167 203.261C393.167 203.111 393.167 202.96 393.167 202.807L393.165 202.807V200.916L393.167 200.915V199.259L393.158 199.263L393.167 199.258C393.167 196.212 390.225 194.584 387.814 194.127L387.962 194.053L376.814 193.356L376.84 193.343H376.606H376.603H376.367H376.367H375.662H375.657C374.72 193.343 373.793 193.543 372.939 193.927ZM351.761 204.935L352.234 204.698C352.133 204.698 352.076 204.698 352.024 204.716C351.955 204.741 351.897 204.799 351.761 204.935ZM351.288 205.173L351.761 204.936C351.525 204.936 351.525 204.936 351.288 205.173Z" fill="url(#paint25_linear_411_960)"/>
<path fill-rule="evenodd" clip-rule="evenodd" d="M428.657 241.844L406.417 252.964L412.804 258.878L412.803 258.879C414.459 260.062 415.878 261.245 417.298 262.427L417.298 262.428L417.418 262.368L417.418 262.368L417.299 262.428C417.473 262.558 417.645 262.69 417.814 262.823C418.898 264.065 420.185 265.533 421.472 267C424.709 270.689 427.945 274.377 427.945 274.496C428.654 275.678 429.128 276.861 429.601 278.281L429.601 278.281C430.074 279.227 430.311 280.41 430.547 281.592L430.591 281.571C430.813 282.654 431.035 283.543 431.257 284.431L431.257 284.431L431.271 284.424C431.493 285.608 431.731 287.21 431.731 288.217L431.767 288.199C431.968 289.522 431.968 290.655 431.968 292L431.967 292.001V293.42L431.968 293.42V296.6L431.026 297.442C430.931 297.538 430.797 298.322 430.641 299.242L430.641 299.242L430.641 299.242L430.641 299.242C430.409 300.605 430.127 302.263 429.844 302.41L453.502 290.345C453.739 290.226 454.036 289.037 454.124 286.838L454.208 286.795V282.3L454.207 282.3V280.882L454.208 280.882C454.208 280.139 454.143 279.397 454.081 278.689C454.025 278.042 453.971 277.424 453.971 276.859L453.968 276.861C453.928 275.248 453.512 270.9 452.557 269.366C452.378 268.57 452.165 267.81 451.84 267.16L451.84 267.16C451.367 265.741 450.71 264.179 450 262.996C449.987 262.97 449.968 262.939 449.943 262.902L449.948 262.899C449.002 261.243 447.819 259.587 446.399 257.931L446.399 257.931C444.506 255.802 442.141 253.437 439.539 251.308L438.599 251.777L438.599 251.777L439.538 251.308C438.118 250.125 436.699 248.942 435.043 247.759L435.045 247.759L428.657 241.844Z" fill="url(#paint26_linear_411_960)"/>
<path d="M431.497 216.313L453.5 203.99C453.5 204.96 453.737 207.102 453.737 208.071L431.497 219.464C431.497 218.252 431.734 217.282 431.497 216.313Z" fill="url(#paint27_linear_411_960)"/>
<path fill-rule="evenodd" clip-rule="evenodd" d="M448.766 196.893L437.41 196.656L437.408 196.657H436.966L429.622 200.55L429.598 200.562L436.965 196.657H436.296H436.295L436.295 196.657L434.147 196.832C433.649 196.873 433.166 197.025 432.736 197.279L428.652 199.679L414.462 206.356C412.007 207.303 413.532 209.905 413.532 209.905L417.033 207.855L425.031 208.196L423.924 208.723C423.951 208.746 424.07 208.839 424.258 208.986L424.258 208.986L424.258 208.987L424.258 208.987C425.247 209.764 428.157 212.05 429.822 213.467C429.397 218.656 428.317 230.517 427.785 235.864C427.667 236.068 427.558 236.263 427.477 236.429L427.474 236.43L426.291 238.248L426.054 238.37C425.051 239.783 423.848 241.06 422.482 242.237L419.195 244.209L406.419 252.962L428.659 241.843L442.71 232.81C444.37 231.743 445.827 230.388 447.011 228.809L448.146 227.295L448.294 227.219L449.713 225.039L449.716 225.038C450.078 224.667 450.301 224.155 450.492 223.718L450.492 223.718C450.551 223.583 450.607 223.455 450.663 223.341L450.561 223.393L450.563 223.39L450.661 223.34C450.661 223.311 450.661 223.282 450.663 223.253C451.554 222.008 452.235 220.312 452.707 218.527C454.733 212.236 453.931 205.447 453.5 202L453.422 202.03C453.001 199.736 450.884 196.894 448.766 196.894L448.75 196.901L448.766 196.893Z" fill="url(#paint28_linear_411_960)"/>
<g style="mix-blend-mode:lighten" filter="url(#filter10_f_411_960)">
<path d="M428.701 206.639C432.372 206.877 434.085 208.545 434.085 212.117V215.452C434.085 222.359 433.106 227.838 431.393 232.363C429.68 236.889 426.009 240.7 420.379 244.034L408.142 251.895L414.75 257.849C422.337 263.328 427.722 268.568 430.414 273.57C433.106 278.572 434.575 285.003 434.575 292.625V297.389C434.575 300.723 432.862 302.39 429.19 302.152L417.687 301.676C414.016 301.438 412.302 299.77 412.302 296.198V292.625C412.302 287.623 411.568 283.335 409.855 280.001C408.142 276.428 405.449 273.332 401.533 270.473L391.988 262.613L382.443 269.521C378.527 271.902 375.834 274.761 374.121 278.095C372.408 281.43 371.674 285.479 371.674 290.481V294.054C371.674 297.388 369.96 299.056 366.289 298.818L354.786 298.341C351.115 298.103 349.401 296.436 349.401 292.863V288.099C349.401 280.239 350.625 274.046 353.562 269.282C356.254 264.519 361.394 259.993 369.226 255.229L375.835 249.989L363.352 240.938C357.968 236.889 354.296 232.601 352.338 228.076C350.625 223.55 349.646 217.834 349.401 210.926V207.592C349.401 204.257 351.115 202.59 354.786 202.828L366.289 203.304C369.96 203.543 371.674 205.21 371.918 208.783V210.212C371.918 213.785 372.163 216.881 372.408 219.025C372.653 221.168 373.387 223.312 374.611 224.979C375.835 226.885 376.814 228.314 378.282 229.505C379.506 230.696 381.709 232.363 384.646 234.507L392.233 239.985L399.82 235.222C402.757 233.316 404.96 231.887 406.184 230.934C407.407 229.981 408.631 228.552 409.61 226.885C410.834 225.218 411.323 223.312 411.813 221.168C412.058 219.025 412.302 216.167 412.302 212.356V210.926C412.302 207.592 414.26 205.924 417.932 206.163L428.701 206.639Z" fill="url(#paint29_linear_411_960)" fill-opacity="0.6"/>
</g>
<path d="M428.701 206.639C432.372 206.877 434.085 208.545 434.085 212.117V215.452C434.085 222.359 433.106 227.838 431.393 232.363C429.68 236.889 426.009 240.7 420.379 244.034L408.142 251.895L414.75 257.849C422.337 263.328 427.722 268.568 430.414 273.57C433.106 278.572 434.575 285.003 434.575 292.625V297.389C434.575 300.723 432.862 302.39 429.19 302.152L417.687 301.676C414.016 301.438 412.302 299.77 412.302 296.198V292.625C412.302 287.623 411.568 283.335 409.855 280.001C408.142 276.428 405.449 273.332 401.533 270.473L391.988 262.613L382.443 269.521C378.527 271.902 375.834 274.761 374.121 278.095C372.408 281.43 371.674 285.479 371.674 290.481V294.054C371.674 297.388 369.96 299.056 366.289 298.818L354.786 298.341C351.115 298.103 349.401 296.436 349.401 292.863V288.099C349.401 280.239 350.625 274.046 353.562 269.282C356.254 264.519 361.394 259.993 369.226 255.229L375.835 249.989L363.352 240.938C357.968 236.889 354.296 232.601 352.338 228.076C350.625 223.55 349.646 217.834 349.401 210.926V207.592C349.401 204.257 351.115 202.59 354.786 202.828L366.289 203.304C369.96 203.543 371.674 205.21 371.918 208.783V210.212C371.918 213.785 372.163 216.881 372.408 219.025C372.653 221.168 373.387 223.312 374.611 224.979C375.835 226.885 376.814 228.314 378.282 229.505C379.506 230.696 381.709 232.363 384.646 234.507L392.233 239.985L399.82 235.222C402.757 233.316 404.96 231.887 406.184 230.934C407.407 229.981 408.631 228.552 409.61 226.885C410.834 225.218 411.323 223.312 411.813 221.168C412.058 219.025 412.302 216.167 412.302 212.356V210.926C412.302 207.592 414.26 205.924 417.932 206.163L428.701 206.639Z" fill="url(#paint30_linear_411_960)"/>
<path fill-rule="evenodd" clip-rule="evenodd" d="M542.62 279.784C542.6 279.767 542.58 279.751 542.56 279.734L544.665 278.592L542.551 279.727C542.247 279.474 541.991 279.251 541.999 279.188L542.031 279.171C542.01 279.171 542 279.177 541.999 279.188L513.046 295.112H517.394L519.478 293.954H536.551L562.927 278.592H544.667L542.62 279.784Z" fill="#6AAFF3"/>
<path d="M563.772 315.404L590.713 300.912L592.757 343.321L566.141 358.882L563.772 315.404Z" fill="#65ABEC"/>
<path fill-rule="evenodd" clip-rule="evenodd" d="M592.757 341.489L566.671 355.981C565.349 377.134 590.56 374.166 597.656 370.623C600.117 370.849 604.188 371.29 607.012 371.595C607.852 371.686 608.582 371.765 609.126 371.823C610.235 375.6 613.049 385.931 613.049 386.414L638.974 370.859C641.006 369.64 642.758 367.928 642.51 365.571C642.177 362.407 640.615 358.042 637.824 356.075C637.758 356.029 637.677 356.014 637.6 356.032L637.685 355.983C637.644 355.983 637.501 355.926 637.265 355.832C635.816 355.255 630.872 353.287 624.642 354.534L624.59 354.562L624.641 354.532C622.612 355.112 601.453 354.532 592.757 341.489Z" fill="url(#paint31_linear_411_960)"/>
<path fill-rule="evenodd" clip-rule="evenodd" d="M553.626 250.188L534.786 251.637L560.181 237.785C564.438 235.463 569.211 234.246 574.06 234.246H578.259L578.263 234.244C585.509 234.244 586.958 242.65 586.958 242.94L560.872 255.983C560.872 255.838 559.061 254.461 557.249 253.084C555.446 251.714 553.644 250.344 553.626 250.188ZM560.874 255.984L586.96 242.941L589.596 278.593L562.323 295.113L560.874 255.984Z" fill="url(#paint32_linear_411_960)"/>
<path fill-rule="evenodd" clip-rule="evenodd" d="M624.641 277.724L624.636 277.727H588.771L560.876 294.788L597.368 295.117L598.713 294.26C599.28 294.426 599.937 294.608 600.579 294.786C601.492 295.039 602.375 295.284 602.932 295.463L604.352 312.504L604.614 312.339C604.155 313.489 603.595 314.71 602.902 315.403L629.595 300.332C630.174 300.042 631.88 298.02 631.887 295.131L631.914 295.113L630.438 280.622L630.438 280.621L630.437 280.621C628.989 277.724 627.54 277.724 624.642 277.724H624.641Z" fill="url(#paint33_linear_411_960)"/>
<g style="mix-blend-mode:lighten" filter="url(#filter11_f_411_960)">
<path d="M555.076 250.189C559.423 250.189 560.9 251.929 560.9 255.987L562.929 293.667H597.71C602.058 293.667 604.377 295.696 604.667 299.754L605.246 309.899C605.536 313.956 603.507 315.985 598.87 315.985H564.088L566.407 355.984C566.697 361.201 568.726 365.259 572.204 367.868C575.972 370.477 580.32 371.926 585.247 371.926C590.174 371.926 595.102 370.766 600.899 368.158C602.348 367.578 603.507 367.288 604.667 367.288C606.696 367.288 608.725 368.448 609.884 370.766L614.522 378.302C616.84 382.07 616.261 384.969 612.203 386.708C603.797 390.476 594.522 392.505 584.088 392.505C571.044 392.505 560.61 389.317 552.494 383.23C544.668 377.143 540.321 368.448 539.741 357.723L537.422 316.275H519.162C514.814 316.275 512.495 314.246 512.206 310.188L511.626 300.044C511.336 295.986 513.365 293.957 517.423 293.957H535.683L533.654 256.277C533.364 252.219 535.393 250.19 539.741 250.19H554.233L555.076 250.189Z" fill="url(#paint34_linear_411_960)" fill-opacity="0.6"/>
</g>
<path d="M555.076 250.189C559.423 250.189 560.9 251.929 560.9 255.987L562.929 293.667H597.71C602.058 293.667 604.377 295.696 604.667 299.754L605.246 309.899C605.536 313.956 603.507 315.985 598.87 315.985H564.088L566.407 355.984C566.697 361.201 568.726 365.259 572.204 367.868C575.972 370.477 580.32 371.926 585.247 371.926C590.174 371.926 595.102 370.766 600.899 368.158C602.348 367.578 603.507 367.288 604.667 367.288C606.696 367.288 608.725 368.448 609.884 370.766L614.522 378.302C616.84 382.07 616.261 384.969 612.203 386.708C603.797 390.476 594.522 392.505 584.088 392.505C571.044 392.505 560.61 389.317 552.494 383.23C544.668 377.143 540.321 368.448 539.741 357.723L537.422 316.275H519.162C514.814 316.275 512.495 314.246 512.206 310.188L511.626 300.044C511.336 295.986 513.365 293.957 517.423 293.957H535.683L533.654 256.277C533.364 252.219 535.393 250.19 539.741 250.19H554.233L555.076 250.189Z" fill="url(#paint35_linear_411_960)"/>
<defs>
<filter id="filter0_f_411_960" x="375.021" y="0.69614" width="125.159" height="141.001" filterUnits="userSpaceOnUse" color-interpolation-filters="sRGB">
<feFlood flood-opacity="0" result="BackgroundImageFix"/>
<feBlend mode="normal" in="SourceGraphic" in2="BackgroundImageFix" result="shape"/>
<feGaussianBlur stdDeviation="15.8428" result="effect1_foregroundBlur_411_960"/>
</filter>
<filter id="filter1_f_411_960" x="457.23" y="120.476" width="100.356" height="146.134" filterUnits="userSpaceOnUse" color-interpolation-filters="sRGB">
<feFlood flood-opacity="0" result="BackgroundImageFix"/>
<feBlend mode="normal" in="SourceGraphic" in2="BackgroundImageFix" result="shape"/>
<feGaussianBlur stdDeviation="19.7478" result="effect1_foregroundBlur_411_960"/>
</filter>
<filter id="filter2_f_411_960" x="63.4737" y="178.143" width="413.1" height="113.159" filterUnits="userSpaceOnUse" color-interpolation-filters="sRGB">
<feFlood flood-opacity="0" result="BackgroundImageFix"/>
<feBlend mode="normal" in="SourceGraphic" in2="BackgroundImageFix" result="shape"/>
<feGaussianBlur stdDeviation="3.1323" result="effect1_foregroundBlur_411_960"/>
</filter>
<filter id="filter3_f_411_960" x="0.822533" y="221.753" width="107.292" height="114.856" filterUnits="userSpaceOnUse" color-interpolation-filters="sRGB">
<feFlood flood-opacity="0" result="BackgroundImageFix"/>
<feBlend mode="normal" in="SourceGraphic" in2="BackgroundImageFix" result="shape"/>
<feGaussianBlur stdDeviation="16.5887" result="effect1_foregroundBlur_411_960"/>
</filter>
<filter id="filter4_f_411_960" x="42.8157" y="172.601" width="121.63" height="162.922" filterUnits="userSpaceOnUse" color-interpolation-filters="sRGB">
<feFlood flood-opacity="0" result="BackgroundImageFix"/>
<feBlend mode="normal" in="SourceGraphic" in2="BackgroundImageFix" result="shape"/>
<feGaussianBlur stdDeviation="16.5887" result="effect1_foregroundBlur_411_960"/>
</filter>
<filter id="filter5_f_411_960" x="539.125" y="222.347" width="131.674" height="165.896" filterUnits="userSpaceOnUse" color-interpolation-filters="sRGB">
<feFlood flood-opacity="0" result="BackgroundImageFix"/>
<feBlend mode="normal" in="SourceGraphic" in2="BackgroundImageFix" result="shape"/>
<feGaussianBlur stdDeviation="3.71963" result="effect1_foregroundBlur_411_960"/>
</filter>
<filter id="filter6_f_411_960" x="415.634" y="18.5109" width="76.6656" height="92.5084" filterUnits="userSpaceOnUse" color-interpolation-filters="sRGB">
<feFlood flood-opacity="0" result="BackgroundImageFix"/>
<feBlend mode="normal" in="SourceGraphic" in2="BackgroundImageFix" result="shape"/>
<feGaussianBlur stdDeviation="3.71963" result="effect1_foregroundBlur_411_960"/>
</filter>
<filter id="filter7_f_411_960" x="518.295" y="133.776" width="36.2428" height="82.0211" filterUnits="userSpaceOnUse" color-interpolation-filters="sRGB">
<feFlood flood-opacity="0" result="BackgroundImageFix"/>
<feBlend mode="normal" in="SourceGraphic" in2="BackgroundImageFix" result="shape"/>
<feGaussianBlur stdDeviation="3.71963" result="effect1_foregroundBlur_411_960"/>
</filter>
<filter id="filter8_f_411_960" x="518.944" y="102.575" width="34.5523" height="35.0211" filterUnits="userSpaceOnUse" color-interpolation-filters="sRGB">
<feFlood flood-opacity="0" result="BackgroundImageFix"/>
<feBlend mode="normal" in="SourceGraphic" in2="BackgroundImageFix" result="shape"/>
<feGaussianBlur stdDeviation="3.71963" result="effect1_foregroundBlur_411_960"/>
</filter>
<filter id="filter9_f_411_960" x="195.597" y="173.756" width="152.711" height="161.239" filterUnits="userSpaceOnUse" color-interpolation-filters="sRGB">
<feFlood flood-opacity="0" result="BackgroundImageFix"/>
<feBlend mode="normal" in="SourceGraphic" in2="BackgroundImageFix" result="shape"/>
<feGaussianBlur stdDeviation="16.5887" result="effect1_foregroundBlur_411_960"/>
</filter>
<filter id="filter10_f_411_960" x="316.224" y="169.628" width="151.529" height="165.724" filterUnits="userSpaceOnUse" color-interpolation-filters="sRGB">
<feFlood flood-opacity="0" result="BackgroundImageFix"/>
<feBlend mode="normal" in="SourceGraphic" in2="BackgroundImageFix" result="shape"/>
<feGaussianBlur stdDeviation="16.5887" result="effect1_foregroundBlur_411_960"/>
</filter>
<filter id="filter11_f_411_960" x="453.629" y="192.22" width="220.218" height="258.254" filterUnits="userSpaceOnUse" color-interpolation-filters="sRGB">
<feFlood flood-opacity="0" result="BackgroundImageFix"/>
<feBlend mode="normal" in="SourceGraphic" in2="BackgroundImageFix" result="shape"/>
<feGaussianBlur stdDeviation="28.9847" result="effect1_foregroundBlur_411_960"/>
</filter>
<linearGradient id="paint0_linear_411_960" x1="419.381" y1="22.8747" x2="438.393" y2="57.7289" gradientUnits="userSpaceOnUse">
<stop offset="0.0410838" stop-color="#F5CF87"/>
<stop offset="0.305747" stop-color="#FDF0DD"/>
<stop offset="1" stop-color="#E7AF39"/>
</linearGradient>
<linearGradient id="paint1_linear_411_960" x1="429.68" y1="81.496" x2="443.939" y2="98.131" gradientUnits="userSpaceOnUse">
<stop stop-color="#E7AF39"/>
<stop offset="1" stop-color="#F7E0B5"/>
</linearGradient>
<linearGradient id="paint2_linear_411_960" x1="433.637" y1="50.5507" x2="455.847" y2="108.422" gradientUnits="userSpaceOnUse">
<stop stop-color="#E7AF39"/>
<stop offset="0.273958" stop-color="#F8DCA9"/>
<stop offset="0.529528" stop-color="#FDEFDA"/>
<stop offset="1" stop-color="#E7AF39"/>
</linearGradient>
<linearGradient id="paint3_linear_411_960" x1="467.047" y1="37.3736" x2="391.078" y2="70.5072" gradientUnits="userSpaceOnUse">
<stop stop-color="#FFA361"/>
<stop offset="1" stop-color="#FD2222"/>
</linearGradient>
<linearGradient id="paint4_linear_411_960" x1="437.601" y1="32.3818" x2="437.601" y2="110.012" gradientUnits="userSpaceOnUse">
<stop stop-color="#F9D176"/>
<stop offset="1" stop-color="#FCC432"/>
</linearGradient>
<linearGradient id="paint5_linear_411_960" x1="497.516" y1="162.934" x2="538.986" y2="228.103" gradientUnits="userSpaceOnUse">
<stop stop-color="#F98A7C"/>
<stop offset="0.149792" stop-color="#FBB3A3"/>
<stop offset="1" stop-color="#CF3F44"/>
</linearGradient>
<linearGradient id="paint6_linear_411_960" x1="515.866" y1="162.236" x2="474.828" y2="203.621" gradientUnits="userSpaceOnUse">
<stop stop-color="#FF5710"/>
<stop offset="1" stop-color="#FF0037"/>
</linearGradient>
<linearGradient id="paint7_linear_411_960" x1="520.226" y1="154.047" x2="500.478" y2="235.013" gradientUnits="userSpaceOnUse">
<stop stop-color="#F09278"/>
<stop offset="1" stop-color="#C44640"/>
</linearGradient>
<linearGradient id="paint8_linear_411_960" x1="507.389" y1="124.419" x2="520.072" y2="148.709" gradientUnits="userSpaceOnUse">
<stop stop-color="#F98A7C"/>
<stop offset="0.513542" stop-color="#FAB2A2"/>
<stop offset="1" stop-color="#D85657"/>
</linearGradient>
<linearGradient id="paint9_linear_411_960" x1="507.209" y1="128.765" x2="507.209" y2="148.907" gradientUnits="userSpaceOnUse">
<stop stop-color="#EA8871"/>
<stop offset="1" stop-color="#C94E46"/>
</linearGradient>
<linearGradient id="paint10_linear_411_960" x1="75.1665" y1="246.427" x2="75.1665" y2="303.303" gradientUnits="userSpaceOnUse">
<stop stop-color="#A6DAF9"/>
<stop offset="0.336458" stop-color="#BFEBFD"/>
<stop offset="0.753125" stop-color="#85C5F5"/>
<stop offset="0.992708" stop-color="#56A2DF"/>
</linearGradient>
<linearGradient id="paint11_linear_411_960" x1="72.9898" y1="256.176" x2="26.676" y2="287.682" gradientUnits="userSpaceOnUse">
<stop stop-color="#0073FF"/>
<stop offset="1" stop-color="#BB6DF5"/>
</linearGradient>
<linearGradient id="paint12_linear_411_960" x1="54.4686" y1="254.931" x2="54.4686" y2="303.432" gradientUnits="userSpaceOnUse">
<stop stop-color="#E4F7FF"/>
<stop offset="0.961458" stop-color="#C6EFFF"/>
</linearGradient>
<linearGradient id="paint13_linear_411_960" x1="117.931" y1="194.185" x2="117.931" y2="302.315" gradientUnits="userSpaceOnUse">
<stop stop-color="#A6DAF9"/>
<stop offset="0.336458" stop-color="#BFEBFD"/>
<stop offset="0.753125" stop-color="#85C5F5"/>
<stop offset="0.992708" stop-color="#56A2DF"/>
</linearGradient>
<linearGradient id="paint14_linear_411_960" x1="128.639" y1="208.257" x2="53.2167" y2="243.053" gradientUnits="userSpaceOnUse">
<stop stop-color="#0073FF"/>
<stop offset="1" stop-color="#BB6DF5"/>
</linearGradient>
<linearGradient id="paint15_linear_411_960" x1="103.631" y1="205.778" x2="103.631" y2="302.346" gradientUnits="userSpaceOnUse">
<stop stop-color="#E4F7FF"/>
<stop offset="0.961458" stop-color="#C6EFFF"/>
</linearGradient>
<linearGradient id="paint16_linear_411_960" x1="255.985" y1="259.591" x2="304.486" y2="272.603" gradientUnits="userSpaceOnUse">
<stop stop-color="#5CA6E2"/>
<stop offset="1" stop-color="#D5F3FF"/>
</linearGradient>
<linearGradient id="paint17_linear_411_960" x1="297.386" y1="240.664" x2="254.799" y2="235.932" gradientUnits="userSpaceOnUse">
<stop stop-color="#63AAE4"/>
<stop offset="1" stop-color="#BDE6FB"/>
</linearGradient>
<linearGradient id="paint18_linear_411_960" x1="314.637" y1="259.352" x2="328.146" y2="283.248" gradientUnits="userSpaceOnUse">
<stop offset="0.0820089" stop-color="#83C0EC"/>
<stop offset="0.468857" stop-color="#B2DFF8"/>
<stop offset="1" stop-color="#61A9E3"/>
</linearGradient>
<linearGradient id="paint19_linear_411_960" x1="246.518" y1="206.357" x2="329.326" y2="252.493" gradientUnits="userSpaceOnUse">
<stop stop-color="#A9DCF9"/>
<stop offset="0.443971" stop-color="#CEF1FF"/>
<stop offset="0.95625" stop-color="#5CA6E2"/>
</linearGradient>
<linearGradient id="paint20_linear_411_960" x1="311.023" y1="209.369" x2="218.108" y2="277.527" gradientUnits="userSpaceOnUse">
<stop stop-color="#0073FF"/>
<stop offset="1" stop-color="#BB6DF5"/>
</linearGradient>
<linearGradient id="paint21_linear_411_960" x1="271.953" y1="206.934" x2="271.953" y2="301.817" gradientUnits="userSpaceOnUse">
<stop stop-color="#E3F7FF"/>
<stop offset="1" stop-color="#C7EFFF"/>
</linearGradient>
<linearGradient id="paint22_linear_411_960" x1="179.001" y1="195.973" x2="179.001" y2="301.955" gradientUnits="userSpaceOnUse">
<stop stop-color="#A6DAF9"/>
<stop offset="0.336458" stop-color="#BFEBFD"/>
<stop offset="0.753125" stop-color="#85C5F5"/>
<stop offset="0.992708" stop-color="#56A2DF"/>
</linearGradient>
<linearGradient id="paint23_linear_411_960" x1="164.776" y1="206.285" x2="164.776" y2="302.851" gradientUnits="userSpaceOnUse">
<stop stop-color="#E4F7FF"/>
<stop offset="0.961458" stop-color="#C6EFFF"/>
</linearGradient>
<linearGradient id="paint24_linear_411_960" x1="390.806" y1="252.252" x2="390.806" y2="299.098" gradientUnits="userSpaceOnUse">
<stop stop-color="#64ABE4"/>
<stop offset="1" stop-color="#A1D2F3"/>
</linearGradient>
<linearGradient id="paint25_linear_411_960" x1="365.957" y1="189.794" x2="397.896" y2="239.479" gradientUnits="userSpaceOnUse">
<stop stop-color="#71B3E7"/>
<stop offset="0.323589" stop-color="#BEE6FB"/>
<stop offset="1" stop-color="#5CA6E2"/>
</linearGradient>
<linearGradient id="paint26_linear_411_960" x1="420.376" y1="246.576" x2="448.767" y2="291.527" gradientUnits="userSpaceOnUse">
<stop stop-color="#9DD0F2"/>
<stop offset="0.46908" stop-color="#BBE4FA"/>
<stop offset="1" stop-color="#66ACE4"/>
</linearGradient>
<linearGradient id="paint27_linear_411_960" x1="446.402" y1="208.722" x2="447.585" y2="212.271" gradientUnits="userSpaceOnUse">
<stop stop-color="#97CCF1"/>
<stop offset="1" stop-color="#A5D5F4"/>
</linearGradient>
<linearGradient id="paint28_linear_411_960" x1="430.222" y1="196.656" x2="430.222" y2="252.962" gradientUnits="userSpaceOnUse">
<stop stop-color="#8CC5EE"/>
<stop offset="0.544792" stop-color="#B0DDF7"/>
<stop offset="1" stop-color="#68AEE5"/>
</linearGradient>
<linearGradient id="paint29_linear_411_960" x1="430.523" y1="205.357" x2="335.108" y2="271.274" gradientUnits="userSpaceOnUse">
<stop stop-color="#0073FF"/>
<stop offset="1" stop-color="#BB6DF5"/>
</linearGradient>
<linearGradient id="paint30_linear_411_960" x1="391.988" y1="202.806" x2="391.988" y2="302.175" gradientUnits="userSpaceOnUse">
<stop stop-color="#E3F7FF"/>
<stop offset="1" stop-color="#C7EFFF"/>
</linearGradient>
<linearGradient id="paint31_linear_411_960" x1="582.614" y1="345.837" x2="611.597" y2="387.865" gradientUnits="userSpaceOnUse">
<stop stop-color="#67ABEF"/>
<stop offset="0.713831" stop-color="#9CDDF7"/>
<stop offset="1" stop-color="#67ABEF"/>
</linearGradient>
<linearGradient id="paint32_linear_411_960" x1="550.728" y1="243.152" x2="570.368" y2="291.821" gradientUnits="userSpaceOnUse">
<stop stop-color="#70B4F3"/>
<stop offset="0.255958" stop-color="#A0DFF8"/>
<stop offset="1" stop-color="#65ABF0"/>
</linearGradient>
<linearGradient id="paint33_linear_411_960" x1="582" y1="269.999" x2="610.494" y2="310.774" gradientUnits="userSpaceOnUse">
<stop stop-color="#6FB4F3"/>
<stop offset="0.607839" stop-color="#9FDEF7"/>
<stop offset="1" stop-color="#65ABEF"/>
</linearGradient>
<linearGradient id="paint34_linear_411_960" x1="610.917" y1="253.843" x2="482.97" y2="329.405" gradientUnits="userSpaceOnUse">
<stop stop-color="#0073FF"/>
<stop offset="1" stop-color="#BB6DF5"/>
</linearGradient>
<linearGradient id="paint35_linear_411_960" x1="571.5" y1="227.5" x2="569.568" y2="406.707" gradientUnits="userSpaceOnUse">
<stop stop-color="#E1F6FF"/>
<stop offset="1" stop-color="#C8EFFF"/>
</linearGradient>
</defs>
</svg>
