<svg width="440" height="413" fill="none" xmlns="http://www.w3.org/2000/svg"><g filter="url(#a)"><path d="M402.227 69.734c14.657.808 26.544 13.734 26.66 28.968l.577 277.216c0 15.234-11.888 27.006-26.545 26.198l-298.682-15.695c-14.657-.808-26.544-13.734-26.66-28.968L77 80.236c0-15.234 11.887-27.006 26.544-26.198l298.683 15.696Z" fill="#26255F" fill-opacity=".3"/></g><g filter="url(#b)"><path fill-rule="evenodd" clip-rule="evenodd" d="m45.639 24.038-.002.001c-.808.115-1.615.23-2.308.462l18.004-9.118c.807-.23 1.5-.346 2.306-.461h.002c.346-.059.692-.087 1.039-.116.346-.029.692-.058 1.038-.115h2.885L50.6 23.807h-2.885c-.692 0-1.384.115-2.075.23Zm-5.08 1.27 18.004-9.118c.923-.346 1.846-.577 2.77-.808L43.328 24.5c-.923.23-1.846.461-2.77.807Zm10.04-1.5 18.005-9.118L366.67 30.348l.155-.075c18.89 3.434 26.991 14.819 27.12 29.083l.003-.002.577 277.217-.064.032.066.08c.468 19.495-22.506 34.623-40.394 34.623l-2.483-16.746c.608-.817 17.674-23.25 24.823-32.274l-.528-253.465c-2.073-2.101-28.05-28.64-28.163-29.316l.15-.072L50.599 23.808Z" fill="url(#c)"/></g><g style="mix-blend-mode:lighten" filter="url(#d)"><path d="M349.286 39.504c14.658.808 26.545 13.733 26.66 28.968l.577 277.216c0 15.234-11.887 27.006-26.544 26.198L51.296 356.19c-14.657-.808-26.544-13.734-26.66-28.968L24.06 50.006c0-15.234 11.887-27.006 26.544-26.198l298.682 15.696Z" fill="#26255F"/></g><path d="M349.286 39.504c14.658.808 26.545 13.733 26.66 28.968l.577 277.216c0 15.234-11.887 27.006-26.544 26.198L51.296 356.19c-14.657-.808-26.544-13.734-26.66-28.968L24.06 50.006c0-15.234 11.887-27.006 26.544-26.198l298.682 15.696Z" fill="url(#e)"/><defs><filter id="a" x="67" y="43.999" width="372.464" height="368.157" filterUnits="userSpaceOnUse" color-interpolation-filters="sRGB"><feFlood flood-opacity="0" result="BackgroundImageFix"/><feBlend in="SourceGraphic" in2="BackgroundImageFix" result="shape"/><feGaussianBlur stdDeviation="5" result="effect1_foregroundBlur_273_66321"/></filter><filter id="b" x="31.559" y="5.69" width="373.976" height="376.616" filterUnits="userSpaceOnUse" color-interpolation-filters="sRGB"><feFlood flood-opacity="0" result="BackgroundImageFix"/><feColorMatrix in="SourceAlpha" values="0 0 0 0 0 0 0 0 0 0 0 0 0 0 0 0 0 0 127 0" result="hardAlpha"/><feOffset dx="1" dy="1"/><feGaussianBlur stdDeviation="5"/><feComposite in2="hardAlpha" operator="out"/><feColorMatrix values="0 0 0 0 1 0 0 0 0 1 0 0 0 0 1 0 0 0 0.1 0"/><feBlend in2="BackgroundImageFix" result="effect1_dropShadow_273_66321"/><feBlend in="SourceGraphic" in2="effect1_dropShadow_273_66321" result="shape"/></filter><filter id="d" x=".977" y=".686" width="398.628" height="394.321" filterUnits="userSpaceOnUse" color-interpolation-filters="sRGB"><feFlood flood-opacity="0" result="BackgroundImageFix"/><feBlend in="SourceGraphic" in2="BackgroundImageFix" result="shape"/><feGaussianBlur stdDeviation="11.541" result="effect1_foregroundBlur_273_66321"/></filter><linearGradient id="c" x1="-11.5" y1="-.501" x2="377.993" y2="371.006" gradientUnits="userSpaceOnUse"><stop stop-color="#1BA4D8"/><stop offset=".526" stop-color="#1BA4D8"/><stop offset=".966" stop-color="#26255F"/></linearGradient><linearGradient id="e" x1="-43" y1="-12.001" x2="419" y2="471.499" gradientUnits="userSpaceOnUse"><stop stop-color="#1BA4D8"/><stop offset=".903" stop-color="#2B2866"/></linearGradient></defs></svg>