<svg width="236" height="231" viewBox="0 0 236 231" fill="none" xmlns="http://www.w3.org/2000/svg">
<g opacity="0.16" filter="url(#filter0_f_386_66747)">
<path d="M132.329 46.9954C138.103 45.261 144.177 48.5388 145.897 54.3166L170.641 137.438C172.411 143.385 168.878 149.622 162.868 151.16L79.6941 172.45C74.0847 173.886 68.3412 170.687 66.6071 165.163L41.6938 85.7893C39.8696 79.9775 43.1521 73.7853 48.9861 72.0327L132.329 46.9954Z" fill="#26255F"/>
</g>
<g style="mix-blend-mode:lighten" filter="url(#filter1_f_386_66747)">
<rect width="109.016" height="109.016" rx="10.9153" transform="matrix(0.285308 0.958436 -0.957718 0.287709 166.543 47.7295)" fill="url(#paint0_linear_386_66747)" fill-opacity="0.6"/>
</g>
<path d="M150.141 57.0662C155.773 55.411 161.694 58.5097 163.544 64.0803L191.71 148.9C193.689 154.86 190.246 161.269 184.184 162.91L98.403 186.127C92.7774 187.649 86.9589 184.48 85.1869 178.928L58.6041 95.6372C56.738 89.7904 60.0546 83.5428 65.9432 81.8121L150.141 57.0662Z" fill="url(#paint1_linear_386_66747)"/>
<path d="M153.312 53.9046C159.085 52.1702 165.16 55.448 166.88 61.2258L191.623 144.347C193.394 150.294 189.861 156.531 183.85 158.07L100.676 179.359C95.0672 180.795 89.3236 177.597 87.5895 172.072L62.6762 92.6984C60.8521 86.8867 64.1345 80.6944 69.9685 78.9418L153.312 53.9046Z" fill="url(#paint2_linear_386_66747)"/>
<defs>
<filter id="filter0_f_386_66747" x="36.7259" y="42.0677" width="138.835" height="135.188" filterUnits="userSpaceOnUse" color-interpolation-filters="sRGB">
<feFlood flood-opacity="0" result="BackgroundImageFix"/>
<feBlend mode="normal" in="SourceGraphic" in2="BackgroundImageFix" result="shape"/>
<feGaussianBlur stdDeviation="2.23178" result="effect1_foregroundBlur_386_66747"/>
</filter>
<filter id="filter1_f_386_66747" x="45.0397" y="30.6525" width="169.702" height="170.004" filterUnits="userSpaceOnUse" color-interpolation-filters="sRGB">
<feFlood flood-opacity="0" result="BackgroundImageFix"/>
<feBlend mode="normal" in="SourceGraphic" in2="BackgroundImageFix" result="shape"/>
<feGaussianBlur stdDeviation="9.87665" result="effect1_foregroundBlur_386_66747"/>
</filter>
<linearGradient id="paint0_linear_386_66747" x1="103.83" y1="2.79869" x2="-5.53577" y2="90.9458" gradientUnits="userSpaceOnUse">
<stop stop-color="#0073FF"/>
<stop offset="1" stop-color="#BB6DF5"/>
</linearGradient>
<linearGradient id="paint1_linear_386_66747" x1="148.029" y1="112.6" x2="70.3959" y2="130.02" gradientUnits="userSpaceOnUse">
<stop stop-color="#7ACDF3"/>
<stop offset="1" stop-color="#228EC7"/>
</linearGradient>
<linearGradient id="paint2_linear_386_66747" x1="214.576" y1="54.9437" x2="76.5954" y2="190.213" gradientUnits="userSpaceOnUse">
<stop stop-color="#80D4F2"/>
<stop offset="1" stop-color="#3DB4E1"/>
</linearGradient>
</defs>
</svg>
