<svg width="288" height="288" fill="none" xmlns="http://www.w3.org/2000/svg"><g clip-path="url(#a)"><g opacity=".16" filter="url(#b)"><path d="M150.331 68.995a10.882 10.882 0 0 1 13.568 7.322l24.744 83.121c1.77 5.947-1.763 12.184-7.773 13.722l-83.174 21.29a10.882 10.882 0 0 1-13.087-7.287l-24.913-79.374c-1.824-5.812 1.458-12.004 7.292-13.756l83.343-25.038Z" fill="#26255F"/></g><g style="mix-blend-mode:lighten" filter="url(#c)"><rect width="109.016" height="109.016" rx="10.915" transform="rotate(73.423 45.517 158.606) skewX(.144)" fill="url(#d)" fill-opacity=".6"/></g><path d="M168.141 79.066a10.882 10.882 0 0 1 13.403 7.014l28.166 84.82c1.979 5.96-1.464 12.369-7.526 14.01l-85.781 23.217a10.882 10.882 0 0 1-13.216-7.199l-26.583-83.291c-1.866-5.847 1.45-12.094 7.34-13.825l84.197-24.746Z" fill="url(#e)"/><path d="M171.313 75.905a10.883 10.883 0 0 1 13.568 7.32l24.743 83.122c1.771 5.947-1.762 12.184-7.773 13.723l-83.174 21.289a10.882 10.882 0 0 1-13.087-7.287l-24.913-79.374c-1.824-5.811 1.458-12.004 7.292-13.756l83.344-25.037Z" fill="url(#f)"/></g><defs><linearGradient id="d" x1="103.83" y1="2.799" x2="-5.536" y2="90.946" gradientUnits="userSpaceOnUse"><stop stop-color="#0073FF"/><stop offset="1" stop-color="#BB6DF5"/></linearGradient><linearGradient id="e" x1="166.029" y1="134.6" x2="88.396" y2="152.02" gradientUnits="userSpaceOnUse"><stop stop-color="#7ACDF3"/><stop offset="1" stop-color="#228EC7"/></linearGradient><linearGradient id="f" x1="232.577" y1="76.944" x2="94.596" y2="212.213" gradientUnits="userSpaceOnUse"><stop stop-color="#80D4F2"/><stop offset="1" stop-color="#3DB4E1"/></linearGradient><filter id="b" x="54.728" y="64.068" width="138.836" height="135.188" filterUnits="userSpaceOnUse" color-interpolation-filters="sRGB"><feFlood flood-opacity="0" result="BackgroundImageFix"/><feBlend in="SourceGraphic" in2="BackgroundImageFix" result="shape"/><feGaussianBlur stdDeviation="2.232" result="effect1_foregroundBlur_273_66773"/></filter><filter id="c" x="63.042" y="52.653" width="169.702" height="170.004" filterUnits="userSpaceOnUse" color-interpolation-filters="sRGB"><feFlood flood-opacity="0" result="BackgroundImageFix"/><feBlend in="SourceGraphic" in2="BackgroundImageFix" result="shape"/><feGaussianBlur stdDeviation="9.877" result="effect1_foregroundBlur_273_66773"/></filter><clipPath id="a"><path fill="#fff" transform="rotate(28.351 50.497 199.922)" d="M0 0h212.019v212.677H0z"/></clipPath></defs></svg>