<svg width="209" height="256" fill="none" xmlns="http://www.w3.org/2000/svg"><g filter="url(#a)"><path fill-rule="evenodd" clip-rule="evenodd" d="m24.34 63.555-.026.013-.268.143 6.647-3.6.248-.132.043-.023c.316-.169.646-.313.975-.457l-6.67 3.613c-.14.06-.284.128-.429.198.192-.088.386-.17.582-.249l6.52-3.561c.266-.115.524-.201.797-.292l.119-.04.025-.013c.293-.094.586-.188.868-.244.095-.02.188-.04.28-.062.186-.043.37-.086.567-.108h.002c.282-.057.54-.1.835-.132l-6.644 3.598h.003l6.641-3.597c.27-.02.54-.038.834-.07l.004-.002c.136-.01.275-.013.413-.017.14-.004.278-.007.413-.017l-6.665 3.61h.001l6.64-3.596c.142.003.278.008.414.014.136.006.272.012.414.015l-6.64 3.595h.001l6.638-3.595c.269.005.527.044.785.084l.033-.018.247.035c.2.028.407.057.608.104L32.95 62.35h.003l6.642-3.597c.143.034.292.064.44.094.149.03.297.06.44.094v-.001c.324.078.622.17.92.26.325.1.627.211.939.344l.02-.01.09.038c.338.14.7.292 1.021.465l-6.66 3.606h.001l6.66-3.605c.461.223.912.483 1.376.767.494.292.954.633 1.425.998l.008-.005 149.3 118.134-6.025 3.292 6.036-3.269a8.412 8.412 0 0 1 1.509 1.542l-6.663 3.608a8.95 8.95 0 0 1 1.764 4.147 1.563 1.563 0 0 0-.059-.395l-.001.001a1.971 1.971 0 0 0-.084-.393l6.671-3.613c.024.08.04.165.054.244.01.053.019.103.03.148l.001-.001c.04.135.056.283.059.406l-6.669 3.612c.042.287.071.576.085.864l6.668-3.612c.011.101.011.208.01.305l.001.127-.025.482-6.657 3.605a8.372 8.372 0 0 1-.264 1.672l.032-.017.123-.595 6.671-3.612-.132.633-.051.028a9.9 9.9 0 0 1-.239.718l-6.644 3.598a7.242 7.242 0 0 1-2.685 3.46l.01-.006a7.134 7.134 0 0 0 2.662-3.413l6.671-3.613a7.216 7.216 0 0 1-2.956 3.606l-.449.243-22.432 13.839-.012.007.038-.021-6.263 3.392-.42.259c-2.564 1.583-5.915 1.334-8.471-.651L30.161 113.022c-5.59-4.28-9.498-10.861-10.593-17.908l-2.536-16.098c-.958-6.088 1.545-11.954 6.392-14.94.345-.212.697-.407 1.055-.584a8.342 8.342 0 0 1-.14.063Zm167.63 129.317a2.499 2.499 0 0 1-.096.308c.034-.102.066-.205.096-.308Zm.323-2.302c.023.144.019.28-.011.409.007-.136.011-.273.011-.409Zm-.009-.406c.014.131.026.261.009.382 0-.127-.003-.254-.009-.382Zm-1.991-5.234a7.268 7.268 0 0 0-1.375-1.361h-.001l-.002-.001c.519.413.979.87 1.378 1.362ZM39.617 65.435l.957-.523-.957.519a16.393 16.393 0 0 0-1.147-.828c.39.257.772.534 1.145.831l.002.001Zm-1.71-1.188Zm-11.47-1.538c-.07.019-.138.038-.204.058l-.025.014a12.974 12.974 0 0 1 .23-.072Zm170.681 118.776-6.671 3.612c.179.218.333.449.487.68l.001-.001c.099.185.187.348.297.499l6.671-3.613c-.091-.17-.182-.341-.31-.523l-.004.002c-.149-.223-.298-.446-.471-.656Zm.796 1.201-6.67 3.613.032.063.017.035.024.052c.049.104.1.214.171.315l-.022.012c.029.053.054.108.077.163l.01.023.019.044.001.003.014.031.018.042.008.019.012.027.037.075.023.067c.043.13.081.244.136.348l6.671-3.612c-.02-.068-.05-.138-.08-.208-.029-.071-.059-.141-.079-.208a1.746 1.746 0 0 1-.056-.116c-.015-.032-.028-.065-.042-.097a2.431 2.431 0 0 0-.086-.19l.025-.014-.26-.487Zm-6.081 4.955 6.671-3.612.122.404-6.671 3.613-.122-.405Zm6.792-3.207-6.671 3.613.122.404 6.671-3.612-.122-.405Zm-6.416 4.853 6.671-3.612c.016.147.032.295.06.405.017.148.033.295.036.419l-6.671 3.612a5.926 5.926 0 0 1-.018-.209l-.007-.1-.003-.034-.002-.018-.003-.038-.002-.019h-.001a3.24 3.24 0 0 0-.06-.406Zm.083 1.739 6.671-3.612c-.009.161-.017.321-.049.495l-6.671 3.612c.013-.088.022-.186.031-.298l.018-.197Zm6.635-3.093-6.67 3.612a5.806 5.806 0 0 0-.085.546l6.671-3.613a6.26 6.26 0 0 0 .042-.272c.013-.093.026-.186.042-.273Z" fill="#1F1F54" fill-opacity=".3"/></g><path fill-rule="evenodd" clip-rule="evenodd" d="m25.945 53.726 6.7-3.499.295-.15-6.725 3.51-.27.139Zm.294-.15 6.7-3.5c.048-.024.195-.076.423-.146l.56-.296c.269-.11.528-.192.803-.28l.118-.037.026-.014c.295-.089.59-.178.874-.23l-.887.462h.002l.885-.462c.094-.017.187-.038.28-.058.186-.04.372-.08.57-.099l-.806.42h.001l.805-.42c.282-.051.54-.09.835-.118l.002-.001c.27-.015.542-.03.838-.058l-.565.295h.002l.563-.295c.136-.008.275-.009.414-.01.138-.002.277-.003.413-.01l-.025.012c.142.005.277.013.413.02.136.009.272.017.414.021l-.24.126.24-.126c.269.01.526.052.783.096l.033-.018.246.04c.2.03.406.062.607.112l-.034.018h.002l.032-.016c.142.035.29.068.44.1.147.032.295.065.436.1h.001c.322.083.62.179.916.274l-.488.255.002.001.488-.255c.323.104.623.22.933.358l.02-.01.09.04c.334.145.694.301 1.012.479.46.23.907.497 1.366.788l-.65.34h.002l.65-.34c.496.304.956.657 1.429 1.035l-.392.205 1.18.629c-.063.026-1.046.06-2.572.098l-4.94 2.58c-.473-.378-.934-.732-1.43-1.035l2.806-1.466h-.001l-2.806 1.465a10.872 10.872 0 0 0-1.364-.787 11.031 11.031 0 0 0-1.07-.505l-.021.01-.168-.075c-5.545.109-11.032.219-11.196.288Z" fill="url(#b)"/><path d="m165.608 203.309 6.725-3.511-.344.176-6.725 3.512c.111-.026.221-.114.344-.177Z" fill="#858585"/><path d="m188.684 189.549 6.7-3.498-23.077 13.76-6.7 3.498 23.077-13.76Z" fill="url(#c)"/><path d="m41.49 55.68 6.713-3.537L195.7 172.521l-6.712 3.536L41.491 55.679Z" fill="url(#d)"/><path fill-rule="evenodd" clip-rule="evenodd" d="m188 176.008 7-4.005c1 .505 1.783 1.544 2.196 2.108l.023-.012c.169.213.316.437.461.663l.004-.002c.036.052.24.362.479.876l.086.168-.008.004c.183.417.378.946.527 1.565l.03.105-.005.002a8.945 8.945 0 0 1-.293 5.03l-.129.097a7.217 7.217 0 0 1-2.975 3.471l-6.724 3.511a7.188 7.188 0 0 0 1.82-1.547c.022-.876.133-2.851.242-4.797.135-2.392.267-4.741.229-4.96-.148-.229-.296-.458-.468-.675l-.024.012c-.239-.355-.905-.714-1.514-1.043-.379-.205-.737-.398-.957-.571Z" fill="url(#e)"/><g style="mix-blend-mode:lighten" filter="url(#f)"><path d="M25.322 54.074c4.99-2.963 11.351-2.348 16.168 1.603l147.497 120.378c4.493 3.683 4.333 10.745-.314 13.532l-23.076 13.759c-2.588 1.545-5.935 1.245-8.461-.779l-125.819-99.45c-5.524-4.364-9.333-11.004-10.32-18.067l-2.293-16.135c-.866-6.1 1.725-11.928 6.618-14.841Z" fill="url(#g)" fill-opacity=".6"/></g><path d="M25.322 54.074c4.99-2.963 11.351-2.348 16.168 1.603l147.497 120.378c4.493 3.683 4.333 10.745-.314 13.532l-23.076 13.759c-2.588 1.545-5.935 1.245-8.461-.779l-125.819-99.45c-5.524-4.364-9.333-11.004-10.32-18.067l-2.293-16.135c-.866-6.1 1.725-11.928 6.618-14.841Z" fill="url(#h)"/><defs><linearGradient id="b" x1="31.724" y1="50.12" x2="44.053" y2="53.808" gradientUnits="userSpaceOnUse"><stop stop-color="#FFEDE8"/><stop offset=".941" stop-color="#FFCDC5"/></linearGradient><linearGradient id="c" x1="191.228" y1="187.95" x2="162.914" y2="203.51" gradientUnits="userSpaceOnUse"><stop stop-color="#BE3038"/><stop offset="1" stop-color="#910007"/></linearGradient><linearGradient id="d" x1="42.943" y1="54.019" x2="193.376" y2="175.963" gradientUnits="userSpaceOnUse"><stop stop-color="#FFCEC3"/><stop offset="1" stop-color="#FF9F87"/></linearGradient><linearGradient id="e" x1="189.442" y1="174.854" x2="195.265" y2="186.207" gradientUnits="userSpaceOnUse"><stop stop-color="#FF9F8F"/><stop offset=".935" stop-color="#BE3000"/></linearGradient><linearGradient id="g" x1="28.62" y1="45.807" x2="164.353" y2="212.883" gradientUnits="userSpaceOnUse"><stop stop-color="#FEBB08"/><stop offset="1" stop-color="red"/></linearGradient><linearGradient id="h" x1="42.195" y1="-68.744" x2="117.898" y2="240.081" gradientUnits="userSpaceOnUse"><stop stop-color="#E3AB9A"/><stop offset="1" stop-color="#DC5224"/></linearGradient><filter id="a" x="10.832" y="52.507" width="194.141" height="165.735" filterUnits="userSpaceOnUse" color-interpolation-filters="sRGB"><feFlood flood-opacity="0" result="BackgroundImageFix"/><feBlend in="SourceGraphic" in2="BackgroundImageFix" result="shape"/><feGaussianBlur stdDeviation="2.999" result="effect1_foregroundBlur_273_66779"/></filter><filter id="f" x="9.312" y="42.989" width="192.175" height="170.563" filterUnits="userSpaceOnUse" color-interpolation-filters="sRGB"><feFlood flood-opacity="0" result="BackgroundImageFix"/><feBlend in="SourceGraphic" in2="BackgroundImageFix" result="shape"/><feGaussianBlur stdDeviation="4.614" result="effect1_foregroundBlur_273_66779"/></filter></defs></svg>