<svg width="234" height="225" fill="none" xmlns="http://www.w3.org/2000/svg"><g filter="url(#a)"><path d="M100.184 130.449c2.564-3.421 6.03-6.167 8.747-6.505l53.158-4.687c.511-.211.962.127 1.187.296l.226.169.225.169c.226.169.166.718.166.718.226.169-.059.549-.119 1.098-.285.38-.059.549-.344.929s-.059.549-.344.93c-.285.38-.345.929-.345.929l-.569.76-42.165 56.264-.285.38-.285.38-.285.38-.285.38-.569.761c-1.365 1.351-2.671 2.154-3.977 2.956-.285.38-.51.212-.51.212l-.51.211c-1.021.422-1.247.253-1.247.253-1.982.296-3.394-.169-3.607-2.703l-11.03-44.48c-1.46-2.281.203-6.378 2.767-9.8Z" fill="#26255F" fill-opacity=".3"/></g><path d="m166.011 90.276 2 1.499-2-1.5c-.283.378-.283.378 0 0Z" fill="#818181"/><path fill-rule="evenodd" clip-rule="evenodd" d="m153.311 85.474-41.85 55.844 4.542 3.405-.51.68c-.285.381-.285.381-1.137.931l-.285.381c-.334.446-.603.737-.825.978a6.199 6.199 0 0 0-.41.474l-.285.381-.286.381c-.093-.071-.379.31-.379.31-.093-.07-.379.31-.379.31l-.285.381-.285.381-.379.31c-.286.381-.286.381-.665.691l-.379.31-.379.311c-.285.381-.379.31-.379.31-.297.243-.643-.116-.869-.35-.063-.065-.116-.121-.157-.151l-.389.396c-.094-.07.282.445.282.445l7.222 5.412c.01.008.02.015.031.021l.08.06c1.49 1.117 5.657-1.651 9.616-6.933v.001l38.605-51.691.055.028c3.68-3.967 6.171-9.159-.379-13.444l-2.212-1.477c.065 1.105.119.482.119.482s.025-.054.122.015c0 0 .023-.226.12-.156l-.379.865c.078.057.173.034.246.016.108-.026.169-.041.06.227 0 0 .098.07-.182.45l-.182.449-.182.45c-.182.449-.182.449-.461.829l-.182.45-.28.38-.279.38s-.145.197-.19.334l-5.68-4.257Zm8.453 13.246-38.188 50.957h.001l38.188-50.956h-.001Z" fill="url(#b)"/><g style="mix-blend-mode:lighten" filter="url(#c)"><path d="M76.59 79.675c2.565-3.421 6.522-5.8 10.098-5.494l70.452 8.273c.633-.12 1.329.403 1.677.663l.348.261.348.261c.348.261.412.902.412.902.348.26.063.641.126 1.282-.285.38.063.641-.222 1.021-.284.38.064.641-.221 1.022-.285.38-.222 1.02-.222 1.02l-.57.761-42.164 56.264-.285.38-.285.38-.285.38-.285.38-.57.76c-1.487 1.26-3.038 1.879-4.589 2.498-.285.38-.633.119-.633.119l-.633.119c-1.266.239-1.614-.022-1.614-.022-2.596-.164-4.621-1.088-5.57-4.174L75.418 90.67c-2.563-3.109-1.391-7.574 1.173-10.995Z" fill="url(#d)" fill-opacity=".6"/></g><path d="M74.413 77.362c1.942-2.59 5.847-2.308 9.597-1.872l75.653 8.853c1.024.182 1.404.458 1.777.738l.373.28.373.279c.373.28.603.433.603.433.373.279.356.852.344 1.669-.005.37-.059.642-.1.848-.104.524-.186.715-.29 1.239-.105.524-.511 1.189-.511 1.189l-.569.76-42.165 56.263-.285.38-.285.381-.285.38-.285.38-.569.76c-2.816 2.433-2.407 1.937-4.428 2.63-.806.069-1.208.062-1.208.062l-.804-.012a20.924 20.924 0 0 1-2.011-.029c-2.719-.257-4.137-1.398-5.235-4.596L76.281 87.789c-2.461-5.886-3.81-7.836-1.868-10.427Z" fill="url(#e)"/><defs><linearGradient id="b" x1="118.897" y1="156.536" x2="177.443" y2="67.832" gradientUnits="userSpaceOnUse"><stop stop-color="#CF9625"/><stop offset="1" stop-color="#FCDEAF"/></linearGradient><linearGradient id="d" x1="106.992" y1="46.804" x2="100.603" y2="152.064" gradientUnits="userSpaceOnUse"><stop stop-color="#FFA361"/><stop offset="1" stop-color="#FD2222"/></linearGradient><linearGradient id="e" x1="73.946" y1="59.397" x2="66.485" y2="161.137" gradientUnits="userSpaceOnUse"><stop stop-color="#F9D072"/><stop offset="1" stop-color="#EBAF3C"/></linearGradient><filter id="a" x="81.872" y="104.189" width="97.106" height="98.321" filterUnits="userSpaceOnUse" color-interpolation-filters="sRGB"><feFlood flood-opacity="0" result="BackgroundImageFix"/><feBlend in="SourceGraphic" in2="BackgroundImageFix" result="shape"/><feGaussianBlur stdDeviation="7.5" result="effect1_foregroundBlur_273_66884"/></filter><filter id="c" x=".125" y=".296" width="233.836" height="224.592" filterUnits="userSpaceOnUse" color-interpolation-filters="sRGB"><feFlood flood-opacity="0" result="BackgroundImageFix"/><feBlend in="SourceGraphic" in2="BackgroundImageFix" result="shape"/><feGaussianBlur stdDeviation="36.93" result="effect1_foregroundBlur_273_66884"/></filter></defs></svg>