<svg width="1920" height="2421" fill="none" xmlns="http://www.w3.org/2000/svg"><g filter="url(#a)"><circle cx="1624.67" cy="239.04" r="437.269" fill="#8B00CD"/></g><g filter="url(#b)"><circle cx="1129.27" cy="168.269" r="437.269" fill="#1BA4D8"/></g><g filter="url(#c)"><circle cx="1267.02" cy="676.309" r="437.269" fill="#8B00CD"/></g><g filter="url(#d)"><path fill="#26255F" fill-opacity=".3" d="m-66.542 363.836 2124.248 1226.435-234.5 406.166L-301.042 770.002z"/></g><path transform="rotate(30 -69.94 375.094)" fill="url(#e)" fill-opacity=".3" d="M-69.94 375.094h2552.68v469H-69.94z"/><g filter="url(#f)"><path fill="#26255F" fill-opacity=".3" d="m-264.078 724.155 2369.29 634.85-121.386 453.019-2369.29-634.85z"/></g><path transform="rotate(15 -168.036 761.741)" fill="url(#g)" d="M-168.036 761.741h2452.87v469h-2452.87z"/><path d="M1745.6 49.727c11.6.157 19.5-11.688 14.91-22.336l-139.2-322.722a26.012 26.012 0 0 0-22.14-15.644l-63.64-4.264c-11.92-.799-20.48 11.278-15.77 22.262l139.62 326.093a26.012 26.012 0 0 0 23.55 15.764l62.67.847Z" fill="url(#h)" fill-opacity=".1" style="mix-blend-mode:lighten"/><path d="m1384.42 189.612-139.2-322.723a25.505 25.505 0 0 0-21.71-15.343l-63.63-4.264c-11.55-.774-19.85 10.926-15.29 21.567l139.63 326.093a25.504 25.504 0 0 0 23.1 15.46l62.66.847c11.24.152 18.89-11.322 14.44-21.637Z" stroke="url(#i)"/><path d="M1840.4 613.733c11.58.141 19.47-11.697 14.88-22.336l-139.2-322.732a26.002 26.002 0 0 0-22.18-15.647l-63.97-4.189c-11.91-.781-20.45 11.289-15.75 22.263l139.63 326.112a26.005 26.005 0 0 0 23.59 15.765l63 .764Z" fill="url(#j)" fill-opacity=".1" style="mix-blend-mode:lighten"/><path d="M1464.77 775.755c11.59.14 19.48-11.697 14.89-22.336l-139.21-322.732a26 26 0 0 0-22.17-15.647l-63.97-4.19c-11.92-.78-20.46 11.289-15.76 22.264l139.63 326.112a26.004 26.004 0 0 0 23.59 15.764l63 .765Z" fill="url(#k)" fill-opacity=".1" style="mix-blend-mode:lighten"/><path d="m1740.06 1014.19-199.14-460.016a25.487 25.487 0 0 0-21.12-15.268l-64.85-5.817c-11.7-1.049-20.27 10.791-15.62 21.577l196.73 456.084a25.51 25.51 0 0 0 19.77 15.14l67.79 9.8c12 1.74 21.26-10.37 16.44-21.5Z" stroke="url(#l)"/><path d="m1553.84 238.188-169.68-391.752a25.507 25.507 0 0 0-22.64-15.354l-62.57-1.865c-11.34-.338-19.19 11.217-14.7 21.632l167.55 388.428a25.496 25.496 0 0 0 21.38 15.319l65.2 5.204c11.66.93 20.1-10.884 15.46-21.612Z" stroke="url(#m)"/><path d="M1162.72 422.321c12.03.96 20.75-11.235 15.95-22.309L1008.99 8.259a26.002 26.002 0 0 0-23.083-15.654l-62.57-1.865c-11.704-.349-19.806 11.579-15.168 22.33l167.541 388.427a26.013 26.013 0 0 0 21.81 15.62l65.2 5.204Z" fill="url(#n)" fill-opacity=".1"/><path d="m1878.05 301.157-85.29-197.736a19.492 19.492 0 0 0-16.92-11.752L1708 88.245c-11.47-.579-19.56 11.076-15.02 21.619l88.83 205.925a15.494 15.494 0 0 0 13.45 9.341l63.9 3.226c14.43.728 24.61-13.935 18.89-27.199Z" stroke="url(#o)"/><path d="M1483.51 490.877c14.8.746 25.24-14.292 19.37-27.896l-85.29-197.737a19.981 19.981 0 0 0-17.35-12.053l-67.84-3.424c-11.84-.597-20.19 11.434-15.5 22.317l88.82 205.925a16.01 16.01 0 0 0 13.89 9.642l63.9 3.226Z" fill="url(#p)" fill-opacity=".1" style="mix-blend-mode:lighten"/><path d="m1677.46 180.395-85.29-197.737a19.519 19.519 0 0 0-16.93-11.752l-67.84-3.424c-11.46-.578-19.56 11.077-15.01 21.62l88.82 205.924a15.51 15.51 0 0 0 13.45 9.342l63.91 3.225c14.43.728 24.61-13.935 18.89-27.198Z" stroke="url(#q)"/><path d="m1301.83 342.416-85.29-197.736a19.491 19.491 0 0 0-16.92-11.752l-67.84-3.424c-11.47-.579-19.56 11.076-15.02 21.619l88.83 205.925a15.498 15.498 0 0 0 13.45 9.341l63.9 3.226c14.43.728 24.61-13.935 18.89-27.199Z" stroke="url(#r)"/><path d="m1094.72 545.933-85.29-197.737a19.517 19.517 0 0 0-16.926-11.752l-67.838-3.424c-11.468-.578-19.562 11.077-15.014 21.62l88.823 205.924a15.498 15.498 0 0 0 13.455 9.342l63.9 3.225c14.43.728 24.61-13.935 18.89-27.198Z" stroke="url(#s)"/><path d="m1673.2 514.816-85.29-197.736a19.493 19.493 0 0 0-16.92-11.752l-67.84-3.424c-11.47-.579-19.56 11.077-15.01 21.62l88.82 205.924a15.497 15.497 0 0 0 13.45 9.342l63.9 3.225c14.43.728 24.61-13.935 18.89-27.199Z" stroke="url(#t)"/><path d="m1297.58 676.839-85.29-197.736a19.518 19.518 0 0 0-16.93-11.752l-67.84-3.424c-11.46-.579-19.56 11.076-15.01 21.619l88.82 205.925a15.512 15.512 0 0 0 13.46 9.341l63.9 3.225c14.43.729 24.61-13.934 18.89-27.198Z" stroke="url(#u)"/><path d="M1161.4 88.395c14.8.747 25.24-14.292 19.37-27.896l-85.29-197.736a19.98 19.98 0 0 0-17.35-12.053l-67.84-3.424c-11.84-.598-20.195 11.433-15.501 22.316l88.821 205.925a16.01 16.01 0 0 0 13.89 9.643l63.9 3.225Z" fill="url(#v)" fill-opacity=".1"/><g filter="url(#w)"><ellipse cx="622.612" cy="592.207" rx="514.188" ry="64.923" transform="rotate(67.108 622.612 592.207)" fill="#8B00CD" fill-opacity=".3"/></g><g filter="url(#x)"><ellipse cx="405.684" cy="51.452" rx="514.188" ry="64.923" transform="rotate(67.108 405.684 51.452)" fill="#1BA4D8" fill-opacity=".3"/></g><g filter="url(#y)"><ellipse cx="399.205" cy="230.02" rx="514.188" ry="64.923" transform="rotate(67.108 399.205 230.02)" fill="#8B00CD" fill-opacity=".3"/></g><defs><linearGradient id="j" x1="1666.91" y1="255.48" x2="1816.65" y2="628.456" gradientUnits="userSpaceOnUse"><stop stop-color="#1BA4D8"/><stop offset="1" stop-color="#fff" stop-opacity="0"/></linearGradient><linearGradient id="v" x1="1041.34" y1="-155.333" x2="1143.58" y2="95.003" gradientUnits="userSpaceOnUse"><stop stop-color="#1BA4D8"/><stop offset="1" stop-color="#fff" stop-opacity="0"/></linearGradient><linearGradient id="u" x1="1109.1" y1="420.74" x2="1263.45" y2="823.249" gradientUnits="userSpaceOnUse"><stop stop-color="#1BA4D8"/><stop offset="1" stop-color="#fff" stop-opacity="0"/></linearGradient><linearGradient id="t" x1="1505.18" y1="269.066" x2="1672.81" y2="620.223" gradientUnits="userSpaceOnUse"><stop stop-color="#1BA4D8"/><stop offset="1" stop-color="#fff" stop-opacity="0"/></linearGradient><linearGradient id="s" x1="910.565" y1="322.741" x2="1044.07" y2="633.266" gradientUnits="userSpaceOnUse"><stop stop-color="#1BA4D8"/><stop offset="1" stop-color="#fff" stop-opacity="0"/></linearGradient><linearGradient id="r" x1="1117.68" y1="119.224" x2="1251.18" y2="429.749" gradientUnits="userSpaceOnUse"><stop stop-color="#1BA4D8"/><stop offset="1" stop-color="#fff" stop-opacity="0"/></linearGradient><linearGradient id="q" x1="1507.36" y1="-82.889" x2="1658.74" y2="280.618" gradientUnits="userSpaceOnUse"><stop stop-color="#1BA4D8"/><stop offset="1" stop-color="#fff" stop-opacity="0"/></linearGradient><linearGradient id="p" x1="1379.94" y1="250.519" x2="1467.2" y2="484.155" gradientUnits="userSpaceOnUse"><stop stop-color="#1BA4D8"/><stop offset="1" stop-color="#fff" stop-opacity="0"/></linearGradient><linearGradient id="e" x1="1167.44" y1="152.876" x2="1203.42" y2="844.249" gradientUnits="userSpaceOnUse"><stop stop-color="#4149AE"/><stop offset=".476" stop-color="#6217A8"/><stop offset=".935" stop-color="#26255F"/></linearGradient><linearGradient id="g" x1="1020.96" y1="539.523" x2="1031.93" y2="1237.13" gradientUnits="userSpaceOnUse"><stop stop-color="#592FA4"/><stop offset=".95" stop-color="#26255F"/></linearGradient><linearGradient id="h" x1="1542.32" y1="-318.017" x2="1701.89" y2="54.504" gradientUnits="userSpaceOnUse"><stop stop-color="#1BA4D8"/><stop offset="1" stop-color="#fff" stop-opacity="0"/></linearGradient><linearGradient id="i" x1="1152.88" y1="-173.319" x2="1342.68" y2="255.958" gradientUnits="userSpaceOnUse"><stop stop-color="#1BA4D8"/><stop offset="1" stop-color="#fff" stop-opacity="0"/></linearGradient><linearGradient id="o" x1="1706.24" y1="60.681" x2="1842.7" y2="435.142" gradientUnits="userSpaceOnUse"><stop stop-color="#1BA4D8"/><stop offset="1" stop-color="#fff" stop-opacity="0"/></linearGradient><linearGradient id="k" x1="1269.07" y1="407.93" x2="1419.05" y2="782.576" gradientUnits="userSpaceOnUse"><stop stop-color="#1BA4D8"/><stop offset="1" stop-color="#fff" stop-opacity="0"/></linearGradient><linearGradient id="l" x1="1431.26" y1="513.133" x2="1723.32" y2="1201.97" gradientUnits="userSpaceOnUse"><stop stop-color="#1BA4D8"/><stop offset="1" stop-color="#fff" stop-opacity="0"/></linearGradient><linearGradient id="m" x1="1301.09" y1="-174.625" x2="1558.67" y2="425.814" gradientUnits="userSpaceOnUse"><stop stop-color="#1BA4D8"/><stop offset="1" stop-color="#fff" stop-opacity="0"/></linearGradient><linearGradient id="n" x1="950.502" y1="-.939" x2="1135.09" y2="420.927" gradientUnits="userSpaceOnUse"><stop stop-color="#1BA4D8"/><stop offset=".993" stop-color="#fff" stop-opacity="0"/></linearGradient><filter id="b" x="92" y="-869" width="2074.54" height="2074.54" filterUnits="userSpaceOnUse" color-interpolation-filters="sRGB"><feFlood flood-opacity="0" result="BackgroundImageFix"/><feBlend in="SourceGraphic" in2="BackgroundImageFix" result="shape"/><feGaussianBlur stdDeviation="300" result="effect1_foregroundBlur_413_964"/></filter><filter id="y" x="-409.617" y="-844.356" width="1617.64" height="2148.75" filterUnits="userSpaceOnUse" color-interpolation-filters="sRGB"><feFlood flood-opacity="0" result="BackgroundImageFix"/><feBlend in="SourceGraphic" in2="BackgroundImageFix" result="shape"/><feGaussianBlur stdDeviation="300" result="effect1_foregroundBlur_413_964"/></filter><filter id="x" x="-403.138" y="-1022.92" width="1617.64" height="2148.75" filterUnits="userSpaceOnUse" color-interpolation-filters="sRGB"><feFlood flood-opacity="0" result="BackgroundImageFix"/><feBlend in="SourceGraphic" in2="BackgroundImageFix" result="shape"/><feGaussianBlur stdDeviation="300" result="effect1_foregroundBlur_413_964"/></filter><filter id="w" x="-186.21" y="-482.169" width="1617.64" height="2148.75" filterUnits="userSpaceOnUse" color-interpolation-filters="sRGB"><feFlood flood-opacity="0" result="BackgroundImageFix"/><feBlend in="SourceGraphic" in2="BackgroundImageFix" result="shape"/><feGaussianBlur stdDeviation="300" result="effect1_foregroundBlur_413_964"/></filter><filter id="f" x="-415.464" y="694.155" width="2550.68" height="1147.87" filterUnits="userSpaceOnUse" color-interpolation-filters="sRGB"><feFlood flood-opacity="0" result="BackgroundImageFix"/><feBlend in="SourceGraphic" in2="BackgroundImageFix" result="shape"/><feGaussianBlur stdDeviation="15" result="effect1_foregroundBlur_413_964"/></filter><filter id="d" x="-331.042" y="333.836" width="2418.75" height="1692.6" filterUnits="userSpaceOnUse" color-interpolation-filters="sRGB"><feFlood flood-opacity="0" result="BackgroundImageFix"/><feBlend in="SourceGraphic" in2="BackgroundImageFix" result="shape"/><feGaussianBlur stdDeviation="15" result="effect1_foregroundBlur_413_964"/></filter><filter id="c" x="229.752" y="-360.96" width="2074.54" height="2074.54" filterUnits="userSpaceOnUse" color-interpolation-filters="sRGB"><feFlood flood-opacity="0" result="BackgroundImageFix"/><feBlend in="SourceGraphic" in2="BackgroundImageFix" result="shape"/><feGaussianBlur stdDeviation="300" result="effect1_foregroundBlur_413_964"/></filter><filter id="a" x="587.403" y="-798.229" width="2074.54" height="2074.54" filterUnits="userSpaceOnUse" color-interpolation-filters="sRGB"><feFlood flood-opacity="0" result="BackgroundImageFix"/><feBlend in="SourceGraphic" in2="BackgroundImageFix" result="shape"/><feGaussianBlur stdDeviation="300" result="effect1_foregroundBlur_413_964"/></filter></defs></svg>