<svg width="1284" height="1561" fill="none" xmlns="http://www.w3.org/2000/svg"><path d="M1008.78 511.729c11.59.157 19.5-11.688 14.9-22.336L884.481 166.671a25.996 25.996 0 0 0-22.135-15.644l-63.637-4.264c-11.922-.799-20.481 11.278-15.778 22.262L922.56 495.118a26 26 0 0 0 23.55 15.764l62.67.847Z" fill="url(#a)" fill-opacity=".1" style="mix-blend-mode:lighten"/><path d="M647.601 651.615 508.397 328.892a25.5 25.5 0 0 0-21.71-15.343l-63.636-4.264c-11.55-.774-19.841 10.925-15.285 21.566l139.628 326.094a25.501 25.501 0 0 0 23.097 15.46l62.668.847c11.232.152 18.891-11.322 14.442-21.637Z" stroke="url(#b)"/><path d="M1103.57 1075.73c11.59.14 19.48-11.69 14.89-22.33L979.253 730.664a26.002 26.002 0 0 0-22.175-15.647l-63.97-4.189c-11.913-.781-20.453 11.289-15.754 22.263L1016.99 1059.2a26.002 26.002 0 0 0 23.58 15.77l63 .76Z" fill="url(#c)" fill-opacity=".1" style="mix-blend-mode:lighten"/><path d="M727.949 1237.76c11.585.14 19.474-11.7 14.885-22.34L603.627 892.687a26 26 0 0 0-22.175-15.646l-63.97-4.19c-11.913-.78-20.453 11.289-15.754 22.264L641.36 1221.23a25.987 25.987 0 0 0 23.586 15.76l63.003.77Z" fill="url(#d)" fill-opacity=".1" style="mix-blend-mode:lighten"/><path d="M1003.24 1476.19 804.1 1016.17a25.503 25.503 0 0 0-21.124-15.27l-64.85-5.814c-11.7-1.05-20.269 10.794-15.617 21.574l196.73 456.09a25.501 25.501 0 0 0 19.766 15.14l67.789 9.8c12.004 1.73 21.256-10.37 16.446-21.5Z" stroke="url(#e)"/><path d="M817.014 700.187 647.333 308.434a25.501 25.501 0 0 0-22.64-15.354l-62.57-1.865c-11.338-.338-19.187 11.217-14.695 21.632l167.545 388.428a25.499 25.499 0 0 0 21.386 15.319l65.199 5.204c11.653.93 20.103-10.884 15.456-21.611Z" stroke="url(#f)"/><path d="M425.893 884.32c12.029.96 20.751-11.235 15.955-22.309L272.167 470.258a26 26 0 0 0-23.084-15.654l-62.57-1.865c-11.704-.349-19.806 11.579-15.169 22.33l167.545 388.427a25.998 25.998 0 0 0 21.805 15.62l65.199 5.204Z" fill="url(#g)" fill-opacity=".1"/><path d="m1141.23 763.158-85.29-197.736a19.52 19.52 0 0 0-16.93-11.752l-67.836-3.424c-11.467-.579-19.561 11.076-15.013 21.619l88.819 205.925a15.509 15.509 0 0 0 13.46 9.341l63.9 3.226c14.43.728 24.61-13.935 18.89-27.199Z" stroke="url(#h)"/><path d="M746.688 952.88c14.796.746 25.24-14.293 19.372-27.896l-85.291-197.737a20.002 20.002 0 0 0-17.356-12.053l-67.839-3.424c-11.838-.597-20.193 11.434-15.499 22.317l88.824 205.925a16 16 0 0 0 13.885 9.642l63.904 3.226Z" fill="url(#i)" fill-opacity=".1" style="mix-blend-mode:lighten"/><path d="m940.633 642.393-85.292-197.737a19.503 19.503 0 0 0-16.922-11.752l-67.839-3.424c-11.468-.578-19.562 11.077-15.014 21.62l88.823 205.924a15.502 15.502 0 0 0 13.452 9.342l63.903 3.225c14.427.728 24.61-13.935 18.889-27.198Z" stroke="url(#j)"/><path d="M565.008 804.416 479.716 606.68a19.499 19.499 0 0 0-16.922-11.752l-67.839-3.424c-11.468-.579-19.562 11.076-15.014 21.619l88.823 205.925a15.503 15.503 0 0 0 13.452 9.341l63.903 3.226c14.427.728 24.61-13.935 18.889-27.199Z" stroke="url(#k)"/><path d="m357.894 1007.93-85.291-197.735a19.503 19.503 0 0 0-16.923-11.752l-67.839-3.424c-11.467-.578-19.561 11.077-15.014 21.62l88.824 205.921a15.471 15.471 0 0 0 13.451 9.34l63.904 3.23c14.427.73 24.609-13.93 18.888-27.2Z" stroke="url(#l)"/><path d="m936.379 976.815-85.292-197.737a19.503 19.503 0 0 0-16.922-11.752l-67.839-3.424c-11.468-.579-19.562 11.077-15.014 21.62l88.824 205.924a15.505 15.505 0 0 0 13.451 9.344l63.903 3.22c14.427.73 24.61-13.932 18.889-27.195Z" stroke="url(#m)"/><path d="m560.754 1138.84-85.292-197.738a19.499 19.499 0 0 0-16.922-11.752l-67.839-3.424c-11.468-.579-19.562 11.076-15.014 21.619l88.824 205.925a15.505 15.505 0 0 0 13.451 9.34l63.903 3.23c14.427.72 24.61-13.94 18.889-27.2Z" stroke="url(#n)"/><path d="m819.116 360.674-85.292-197.736a19.498 19.498 0 0 0-16.922-11.752l-67.839-3.424c-11.467-.579-19.561 11.076-15.014 21.619l88.824 205.925a15.5 15.5 0 0 0 13.451 9.341l63.904 3.225c14.426.729 24.609-13.934 18.888-27.198Z" stroke="url(#o)"/><path d="M424.577 550.395c14.797.747 25.241-14.292 19.373-27.896l-85.292-197.736a19.998 19.998 0 0 0-17.356-12.053l-67.839-3.424c-11.837-.598-20.192 11.433-15.498 22.316l88.824 205.925a16 16 0 0 0 13.885 9.643l63.903 3.225Z" fill="url(#p)" fill-opacity=".1"/><defs><linearGradient id="i" x1="643.121" y1="712.522" x2="730.378" y2="946.157" gradientUnits="userSpaceOnUse"><stop stop-color="#1BA4D8"/><stop offset="1" stop-color="#fff" stop-opacity="0"/></linearGradient><linearGradient id="a" x1="805.501" y1="143.985" x2="965.069" y2="516.506" gradientUnits="userSpaceOnUse"><stop stop-color="#1BA4D8"/><stop offset="1" stop-color="#fff" stop-opacity="0"/></linearGradient><linearGradient id="c" x1="930.089" y1="717.479" x2="1079.82" y2="1090.46" gradientUnits="userSpaceOnUse"><stop stop-color="#1BA4D8"/><stop offset="1" stop-color="#fff" stop-opacity="0"/></linearGradient><linearGradient id="d" x1="532.246" y1="869.931" x2="682.229" y2="1244.58" gradientUnits="userSpaceOnUse"><stop stop-color="#1BA4D8"/><stop offset="1" stop-color="#fff" stop-opacity="0"/></linearGradient><linearGradient id="e" x1="694.438" y1="975.129" x2="986.499" y2="1663.96" gradientUnits="userSpaceOnUse"><stop stop-color="#1BA4D8"/><stop offset="1" stop-color="#fff" stop-opacity="0"/></linearGradient><linearGradient id="f" x1="564.263" y1="287.373" x2="821.841" y2="887.812" gradientUnits="userSpaceOnUse"><stop stop-color="#1BA4D8"/><stop offset="1" stop-color="#fff" stop-opacity="0"/></linearGradient><linearGradient id="g" x1="213.678" y1="461.06" x2="398.265" y2="882.926" gradientUnits="userSpaceOnUse"><stop stop-color="#1BA4D8"/><stop offset=".993" stop-color="#fff" stop-opacity="0"/></linearGradient><linearGradient id="h" x1="969.416" y1="522.682" x2="1105.88" y2="897.143" gradientUnits="userSpaceOnUse"><stop stop-color="#1BA4D8"/><stop offset="1" stop-color="#fff" stop-opacity="0"/></linearGradient><linearGradient id="b" x1="416.055" y1="288.683" x2="605.857" y2="717.961" gradientUnits="userSpaceOnUse"><stop stop-color="#1BA4D8"/><stop offset="1" stop-color="#fff" stop-opacity="0"/></linearGradient><linearGradient id="j" x1="770.537" y1="379.109" x2="921.917" y2="742.616" gradientUnits="userSpaceOnUse"><stop stop-color="#1BA4D8"/><stop offset="1" stop-color="#fff" stop-opacity="0"/></linearGradient><linearGradient id="k" x1="380.854" y1="581.224" x2="514.354" y2="891.749" gradientUnits="userSpaceOnUse"><stop stop-color="#1BA4D8"/><stop offset="1" stop-color="#fff" stop-opacity="0"/></linearGradient><linearGradient id="l" x1="173.741" y1="784.74" x2="307.241" y2="1095.26" gradientUnits="userSpaceOnUse"><stop stop-color="#1BA4D8"/><stop offset="1" stop-color="#fff" stop-opacity="0"/></linearGradient><linearGradient id="m" x1="768.359" y1="731.064" x2="935.983" y2="1082.22" gradientUnits="userSpaceOnUse"><stop stop-color="#1BA4D8"/><stop offset="1" stop-color="#fff" stop-opacity="0"/></linearGradient><linearGradient id="n" x1="372.279" y1="882.739" x2="526.628" y2="1285.25" gradientUnits="userSpaceOnUse"><stop stop-color="#1BA4D8"/><stop offset="1" stop-color="#fff" stop-opacity="0"/></linearGradient><linearGradient id="o" x1="684.972" y1="141.974" x2="819.18" y2="464.006" gradientUnits="userSpaceOnUse"><stop stop-color="#1BA4D8"/><stop offset="1" stop-color="#fff" stop-opacity="0"/></linearGradient><linearGradient id="p" x1="304.514" y1="306.667" x2="406.752" y2="557.003" gradientUnits="userSpaceOnUse"><stop stop-color="#1BA4D8"/><stop offset="1" stop-color="#fff" stop-opacity="0"/></linearGradient></defs></svg>