<svg width="1284" height="1561" viewBox="0 0 1284 1561" fill="none" xmlns="http://www.w3.org/2000/svg">
<g style="mix-blend-mode:lighten">
<path d="M1008.78 511.729C1020.37 511.886 1028.28 500.041 1023.68 489.393L884.481 166.671C880.62 157.718 872.074 151.678 862.346 151.027L798.709 146.763C786.787 145.964 778.228 158.041 782.931 169.025L922.56 495.118C926.605 504.565 935.834 510.743 946.11 510.882L1008.78 511.729Z" fill="url(#paint0_linear_401_3167)" fill-opacity="0.1"/>
</g>
<path d="M647.601 651.615L508.397 328.892C504.61 320.112 496.228 314.188 486.687 313.549L423.051 309.285C411.501 308.511 403.21 320.21 407.766 330.851L547.394 656.945C551.362 666.21 560.414 672.269 570.491 672.405L633.159 673.252C644.391 673.404 652.05 661.93 647.601 651.615Z" stroke="url(#paint1_linear_401_3167)"/>
<g style="mix-blend-mode:lighten">
<path d="M1103.57 1075.73C1115.16 1075.87 1123.05 1064.04 1118.46 1053.4L979.253 730.664C975.386 721.699 966.821 715.655 957.078 715.017L893.108 710.828C881.195 710.047 872.655 722.117 877.354 733.091L1016.99 1059.2C1021.04 1068.66 1030.28 1074.84 1040.57 1074.97L1103.57 1075.73Z" fill="url(#paint2_linear_401_3167)" fill-opacity="0.1"/>
</g>
<g style="mix-blend-mode:lighten">
<path d="M727.949 1237.76C739.534 1237.9 747.423 1226.06 742.834 1215.42L603.627 892.687C599.76 883.722 591.195 877.679 581.452 877.041L517.482 872.851C505.569 872.071 497.029 884.14 501.728 895.115L641.36 1221.23C645.41 1230.69 654.658 1236.87 664.946 1236.99L727.949 1237.76Z" fill="url(#paint3_linear_401_3167)" fill-opacity="0.1"/>
</g>
<path d="M1003.24 1476.19L804.1 1016.17C800.388 1007.59 792.283 1001.74 782.976 1000.9L718.126 995.086C706.426 994.036 697.857 1005.88 702.509 1016.66L899.239 1472.75C902.749 1480.89 910.233 1486.62 919.005 1487.89L986.794 1497.69C998.798 1499.42 1008.05 1487.32 1003.24 1476.19Z" stroke="url(#paint4_linear_401_3167)"/>
<path d="M817.014 700.187L647.333 308.434C643.402 299.359 634.579 293.375 624.693 293.08L562.123 291.215C550.785 290.877 542.936 302.432 547.428 312.847L714.973 701.275C718.714 709.948 726.943 715.843 736.359 716.594L801.558 721.798C813.211 722.728 821.661 710.914 817.014 700.187Z" stroke="url(#paint5_linear_401_3167)"/>
<path d="M425.893 884.32C437.922 885.28 446.644 873.085 441.848 862.011L272.167 470.258C268.159 461.005 259.162 454.904 249.083 454.604L186.513 452.739C174.809 452.39 166.707 464.318 171.344 475.069L338.889 863.496C342.703 872.34 351.094 878.35 360.694 879.116L425.893 884.32Z" fill="url(#paint6_linear_401_3167)" fill-opacity="0.1"/>
<path d="M1141.23 763.158L1055.94 565.422C1052.99 558.601 1046.43 554.045 1039.01 553.67L971.174 550.246C959.707 549.667 951.613 561.322 956.161 571.865L1044.98 777.79C1047.32 783.212 1052.54 786.834 1058.44 787.131L1122.34 790.357C1136.77 791.085 1146.95 776.422 1141.23 763.158Z" stroke="url(#paint7_linear_401_3167)"/>
<g style="mix-blend-mode:lighten">
<path d="M746.688 952.88C761.484 953.626 771.928 938.587 766.06 924.984L680.769 727.247C677.751 720.252 671.021 715.578 663.413 715.194L595.574 711.77C583.736 711.173 575.381 723.204 580.075 734.087L668.899 940.012C671.313 945.608 676.697 949.347 682.784 949.654L746.688 952.88Z" fill="url(#paint8_linear_401_3167)" fill-opacity="0.1"/>
</g>
<path d="M940.633 642.393L855.341 444.656C852.399 437.836 845.837 433.279 838.419 432.904L770.58 429.48C759.112 428.902 751.018 440.557 755.566 451.1L844.389 657.024C846.728 662.446 851.944 666.068 857.841 666.366L921.744 669.591C936.171 670.319 946.354 655.656 940.633 642.393Z" stroke="url(#paint9_linear_401_3167)"/>
<path d="M565.008 804.416L479.716 606.68C476.774 599.859 470.212 595.302 462.794 594.928L394.955 591.504C383.487 590.925 375.393 602.58 379.941 613.123L468.764 819.048C471.103 824.469 476.319 828.091 482.216 828.389L546.119 831.615C560.546 832.343 570.729 817.68 565.008 804.416Z" stroke="url(#paint10_linear_401_3167)"/>
<path d="M357.894 1007.93L272.603 810.195C269.661 803.375 263.099 798.818 255.68 798.443L187.841 795.019C176.374 794.441 168.28 806.096 172.827 816.639L261.651 1022.56C263.99 1027.99 269.205 1031.61 275.102 1031.9L339.006 1035.13C353.433 1035.86 363.615 1021.2 357.894 1007.93Z" stroke="url(#paint11_linear_401_3167)"/>
<path d="M936.379 976.815L851.087 779.078C848.145 772.258 841.583 767.701 834.165 767.326L766.326 763.902C754.858 763.323 746.764 774.979 751.312 785.522L840.136 991.446C842.474 996.868 847.69 1000.49 853.587 1000.79L917.49 1004.01C931.917 1004.74 942.1 990.078 936.379 976.815Z" stroke="url(#paint12_linear_401_3167)"/>
<path d="M560.754 1138.84L475.462 941.102C472.52 934.281 465.958 929.724 458.54 929.35L390.701 925.926C379.233 925.347 371.139 937.002 375.687 947.545L464.511 1153.47C466.849 1158.89 472.065 1162.51 477.962 1162.81L541.865 1166.04C556.292 1166.76 566.475 1152.1 560.754 1138.84Z" stroke="url(#paint13_linear_401_3167)"/>
<path d="M819.116 360.674L733.824 162.938C730.882 156.117 724.321 151.56 716.902 151.186L649.063 147.762C637.596 147.183 629.502 158.838 634.049 169.381L722.873 375.306C725.211 380.727 730.427 384.349 736.324 384.647L800.228 387.872C814.654 388.601 824.837 373.938 819.116 360.674Z" stroke="url(#paint14_linear_401_3167)"/>
<path d="M424.577 550.395C439.374 551.142 449.818 536.103 443.95 522.499L358.658 324.763C355.641 317.767 348.911 313.094 341.302 312.71L273.463 309.286C261.626 308.688 253.271 320.719 257.965 331.602L346.789 537.527C349.203 543.124 354.587 546.863 360.674 547.17L424.577 550.395Z" fill="url(#paint15_linear_401_3167)" fill-opacity="0.1"/>
<defs>
<linearGradient id="paint0_linear_401_3167" x1="805.501" y1="143.985" x2="965.069" y2="516.506" gradientUnits="userSpaceOnUse">
<stop stop-color="#1BA4D8"/>
<stop offset="1" stop-color="white" stop-opacity="0"/>
</linearGradient>
<linearGradient id="paint1_linear_401_3167" x1="416.055" y1="288.683" x2="605.857" y2="717.961" gradientUnits="userSpaceOnUse">
<stop stop-color="#1BA4D8"/>
<stop offset="1" stop-color="white" stop-opacity="0"/>
</linearGradient>
<linearGradient id="paint2_linear_401_3167" x1="930.089" y1="717.479" x2="1079.82" y2="1090.46" gradientUnits="userSpaceOnUse">
<stop stop-color="#1BA4D8"/>
<stop offset="1" stop-color="white" stop-opacity="0"/>
</linearGradient>
<linearGradient id="paint3_linear_401_3167" x1="532.246" y1="869.931" x2="682.229" y2="1244.58" gradientUnits="userSpaceOnUse">
<stop stop-color="#1BA4D8"/>
<stop offset="1" stop-color="white" stop-opacity="0"/>
</linearGradient>
<linearGradient id="paint4_linear_401_3167" x1="694.438" y1="975.129" x2="986.499" y2="1663.96" gradientUnits="userSpaceOnUse">
<stop stop-color="#1BA4D8"/>
<stop offset="1" stop-color="white" stop-opacity="0"/>
</linearGradient>
<linearGradient id="paint5_linear_401_3167" x1="564.263" y1="287.373" x2="821.841" y2="887.812" gradientUnits="userSpaceOnUse">
<stop stop-color="#1BA4D8"/>
<stop offset="1" stop-color="white" stop-opacity="0"/>
</linearGradient>
<linearGradient id="paint6_linear_401_3167" x1="213.678" y1="461.06" x2="398.265" y2="882.926" gradientUnits="userSpaceOnUse">
<stop stop-color="#1BA4D8"/>
<stop offset="0.992708" stop-color="white" stop-opacity="0"/>
</linearGradient>
<linearGradient id="paint7_linear_401_3167" x1="969.416" y1="522.682" x2="1105.88" y2="897.143" gradientUnits="userSpaceOnUse">
<stop stop-color="#1BA4D8"/>
<stop offset="1" stop-color="white" stop-opacity="0"/>
</linearGradient>
<linearGradient id="paint8_linear_401_3167" x1="643.121" y1="712.522" x2="730.378" y2="946.157" gradientUnits="userSpaceOnUse">
<stop stop-color="#1BA4D8"/>
<stop offset="1" stop-color="white" stop-opacity="0"/>
</linearGradient>
<linearGradient id="paint9_linear_401_3167" x1="770.537" y1="379.109" x2="921.917" y2="742.616" gradientUnits="userSpaceOnUse">
<stop stop-color="#1BA4D8"/>
<stop offset="1" stop-color="white" stop-opacity="0"/>
</linearGradient>
<linearGradient id="paint10_linear_401_3167" x1="380.854" y1="581.224" x2="514.354" y2="891.749" gradientUnits="userSpaceOnUse">
<stop stop-color="#1BA4D8"/>
<stop offset="1" stop-color="white" stop-opacity="0"/>
</linearGradient>
<linearGradient id="paint11_linear_401_3167" x1="173.741" y1="784.74" x2="307.241" y2="1095.26" gradientUnits="userSpaceOnUse">
<stop stop-color="#1BA4D8"/>
<stop offset="1" stop-color="white" stop-opacity="0"/>
</linearGradient>
<linearGradient id="paint12_linear_401_3167" x1="768.359" y1="731.064" x2="935.983" y2="1082.22" gradientUnits="userSpaceOnUse">
<stop stop-color="#1BA4D8"/>
<stop offset="1" stop-color="white" stop-opacity="0"/>
</linearGradient>
<linearGradient id="paint13_linear_401_3167" x1="372.279" y1="882.739" x2="526.628" y2="1285.25" gradientUnits="userSpaceOnUse">
<stop stop-color="#1BA4D8"/>
<stop offset="1" stop-color="white" stop-opacity="0"/>
</linearGradient>
<linearGradient id="paint14_linear_401_3167" x1="684.972" y1="141.974" x2="819.18" y2="464.006" gradientUnits="userSpaceOnUse">
<stop stop-color="#1BA4D8"/>
<stop offset="1" stop-color="white" stop-opacity="0"/>
</linearGradient>
<linearGradient id="paint15_linear_401_3167" x1="304.514" y1="306.667" x2="406.752" y2="557.003" gradientUnits="userSpaceOnUse">
<stop stop-color="#1BA4D8"/>
<stop offset="1" stop-color="white" stop-opacity="0"/>
</linearGradient>
</defs>
</svg>
