<svg width="210" height="210" viewBox="0 0 210 210" fill="none" xmlns="http://www.w3.org/2000/svg">
<g clip-path="url(#clip0_273_67060)">
<g filter="url(#filter0_f_273_67060)">
<path d="M96.9744 115.1C98.9647 115.772 101.134 117.513 102.981 118.61L141.743 148.277C144.442 150.135 143.867 151.837 141.446 152.441C141.446 152.441 141.446 152.441 140.308 152.531C140.308 152.531 140.307 152.531 139.169 152.62L91.4958 152.642C89.362 152.395 87.2281 152.149 85.2378 151.477C83.2475 150.805 81.4007 149.708 79.554 148.611L40.792 118.945C40.792 118.945 40.792 118.945 39.9404 118.184C39.9404 118.184 39.9404 118.184 39.0888 117.422C37.5292 115.474 37.9599 114.198 41.376 113.93L90.1877 113.819C92.3216 114.065 93.9901 114.001 96.9744 115.1Z" fill="#26255F" fill-opacity="0.3"/>
</g>
<path d="M169.561 95.0878L168.269 98.9163C168.125 99.3417 166.986 99.4312 166.986 99.4312L168.278 95.6027C168.278 95.6027 169.417 95.5132 169.561 95.0878Z" fill="#919191"/>
<path d="M168.131 96.0327L166.839 99.8612C166.839 99.8612 166.839 99.8612 166.695 100.287L168.131 96.0327C167.136 95.6968 167.136 95.6968 168.131 96.0327Z" fill="#919191"/>
<path d="M66.6262 61.7684L65.3343 65.5968C65.3343 65.5968 65.3343 65.5968 64.4826 64.8355C63.6309 64.0742 63.7744 63.6488 64.0616 62.7981L65.21 59.395C65.0664 59.8204 65.7745 61.0071 66.6262 61.7684Z" fill="#848484"/>
<path d="M167.135 95.6987L165.843 99.5274C165.843 99.5274 165.843 99.5273 164.704 99.6168L167.135 95.6987C167.135 95.6987 166.991 96.1241 167.135 95.6987Z" fill="#8C8C8C"/>
<path d="M67.4773 62.5358L66.1855 66.3644C66.1855 66.3644 66.1855 66.3643 65.3339 65.603L67.4773 62.5358C67.4773 62.5358 67.6208 62.1104 67.4773 62.5358Z" fill="#848484"/>
<path d="M165.999 95.7847L164.707 99.6132L116.89 100.06L118.182 96.2314L165.999 95.7847Z" fill="#939393"/>
<path d="M106.239 92.1986L104.946 96.0271L66.1845 66.3607L67.4766 62.5322L106.239 92.1986Z" fill="#808080"/>
<path d="M118.183 96.2211L116.891 100.05C116.891 100.05 115.895 99.7137 115.752 100.139L118.183 96.2211C117.187 95.8852 117.044 96.3106 118.183 96.2211Z" fill="#8C8C8C"/>
<path d="M117.041 96.307L115.749 100.135C114.754 99.7996 114.61 100.225 113.615 99.8891L114.907 96.0606C116.046 95.9711 116.046 95.9711 117.041 96.307Z" fill="#888888"/>
<path d="M114.909 96.063L113.76 99.4661C112.765 99.1302 111.77 98.7944 110.775 98.4585C108.784 97.7868 106.937 96.6897 105.091 95.5926L106.239 92.1895C108.086 93.2866 109.933 94.3837 111.923 95.0554C112.918 95.3913 113.913 95.7271 114.909 96.063Z" fill="#848484"/>
<path d="M158.076 129.115L156.784 132.944L156.641 133.369L158.076 129.115C158.076 129.115 157.081 128.779 158.076 129.115Z" fill="#838383"/>
<path d="M155.793 129.297L154.501 133.126L153.506 132.79L154.654 129.387L155.793 129.297Z" fill="#828282"/>
<path fill-rule="evenodd" clip-rule="evenodd" d="M66.5121 61.8151C66.0336 61.499 65.6874 61.2703 65.7761 61.0074L65.7761 61.0074C65.8281 60.8534 65.8612 60.7552 65.8352 60.6765C65.7893 60.538 65.5594 60.4604 64.9246 60.2462L64.9245 60.2462L53.8699 93.0011C53.866 93.0127 53.8623 93.0243 53.8587 93.036C53.8614 93.0233 53.8647 93.011 53.8686 92.9994L52.5765 96.8279C52.3475 97.5065 53.5605 98.5549 54.9979 99.5082L54.9878 99.5381L93.6062 129.63L94.8983 125.801L94.8983 125.801L106.239 92.1998L67.4778 62.5343L67.4793 62.5299C67.154 62.2391 66.8078 62.0104 66.5121 61.8151ZM56.1363 96.1349L56.1362 96.1352L56.1362 96.1348L56.1363 96.1349Z" fill="url(#paint0_linear_273_67060)"/>
<path d="M106.839 129.837L105.547 133.665L104.552 133.329L105.7 129.926L106.839 129.837Z" fill="#828282"/>
<path d="M115.054 95.6401C116.049 95.9759 116.049 95.9759 115.054 95.6401L116.049 95.9759L104.707 129.582L102.573 129.335L115.054 95.6401C114.91 96.0654 114.91 96.0654 115.054 95.6401Z" fill="#888888"/>
<path d="M103.571 129.676L102.278 133.504L103.571 129.676C102.575 129.34 102.575 129.34 103.571 129.676Z" fill="#808080"/>
<path d="M102.573 129.326L101.281 133.155L100.286 132.819L102.573 129.326C102.573 129.326 101.578 128.99 102.573 129.326Z" fill="#808080"/>
<path fill-rule="evenodd" clip-rule="evenodd" d="M169.534 95.5014L157.914 129.933C157.247 131.908 155.38 133.226 153.296 133.192L143.384 133.033L105.914 133.966C104.359 134.219 101.608 133.945 98.715 132.355L98.4985 132.282C96.5082 131.61 92.2988 129.294 90.5832 126.846L94.2805 123.422C94.6304 123.63 95.0099 123.928 95.4086 124.278L106.237 92.1928C107.541 92.9674 108.845 93.7421 110.2 94.367L110.306 94.0191L169.534 95.5014Z" fill="url(#paint1_linear_273_67060)"/>
<g style="mix-blend-mode:lighten" filter="url(#filter1_f_273_67060)">
<path d="M124.317 60.6775C126.307 61.3492 128.154 62.4463 130.001 63.5434L168.763 93.2099C171.461 95.0682 170.887 96.7698 168.466 97.3742C168.466 97.3742 168.466 97.3742 167.327 97.4637C167.327 97.4637 167.327 97.4637 166.188 97.5533L118.515 97.5745C116.381 97.3282 114.248 97.0818 112.257 96.4101C110.267 95.7384 108.42 94.6413 106.573 93.5442L67.8115 63.8778C67.8115 63.8778 67.8114 63.8777 66.9599 63.1165C66.9599 63.1165 66.9599 63.1165 66.1083 62.3553C64.5487 60.4074 64.9794 59.1312 68.3955 58.8626L117.207 58.7519C119.341 58.9982 122.327 60.0058 124.317 60.6775Z" fill="url(#paint2_linear_273_67060)" fill-opacity="0.6"/>
</g>
<path d="M123.66 58.683C125.65 59.3547 127.82 61.0963 129.667 62.1934L168.429 91.8599C171.127 93.7182 170.553 95.4198 168.132 96.0242C168.132 96.0242 168.132 96.0242 166.993 96.1138C166.993 96.1138 166.993 96.1138 165.854 96.2033L118.181 96.2245C116.048 95.9782 113.914 95.7319 111.923 95.0602C109.933 94.3884 108.086 93.2913 106.24 92.1942L67.4775 62.5278C67.4775 62.5278 67.4775 62.5278 66.6259 61.7665C66.6259 61.7665 66.6259 61.7665 65.7743 61.0053C64.2147 59.0574 64.6454 57.7812 68.0616 57.5126L116.873 57.4019C119.007 57.6482 120.676 57.5841 123.66 58.683Z" fill="url(#paint3_linear_273_67060)"/>
</g>
<defs>
<filter id="filter0_f_273_67060" x="28.7782" y="104.372" width="124.196" height="57.7155" filterUnits="userSpaceOnUse" color-interpolation-filters="sRGB">
<feFlood flood-opacity="0" result="BackgroundImageFix"/>
<feBlend mode="normal" in="SourceGraphic" in2="BackgroundImageFix" result="shape"/>
<feGaussianBlur stdDeviation="4.72318" result="effect1_foregroundBlur_273_67060"/>
</filter>
<filter id="filter1_f_273_67060" x="17.3225" y="10.8303" width="201.147" height="134.666" filterUnits="userSpaceOnUse" color-interpolation-filters="sRGB">
<feFlood flood-opacity="0" result="BackgroundImageFix"/>
<feBlend mode="normal" in="SourceGraphic" in2="BackgroundImageFix" result="shape"/>
<feGaussianBlur stdDeviation="23.9608" result="effect1_foregroundBlur_273_67060"/>
</filter>
<linearGradient id="paint0_linear_273_67060" x1="55.0518" y1="80.2346" x2="99.2616" y2="109.277" gradientUnits="userSpaceOnUse">
<stop stop-color="#1B8CB6"/>
<stop offset="0.977083" stop-color="#3DAFE4"/>
</linearGradient>
<linearGradient id="paint1_linear_273_67060" x1="92.824" y1="129.876" x2="156.277" y2="152.339" gradientUnits="userSpaceOnUse">
<stop offset="0.00851699" stop-color="#3CAFE3"/>
<stop offset="0.0822776" stop-color="#44B8E5"/>
<stop offset="0.204513" stop-color="#7ACDEC"/>
<stop offset="0.401347" stop-color="#1BA4D8"/>
<stop offset="0.760908" stop-color="#21A5DF"/>
<stop offset="1" stop-color="#ADE3FE"/>
</linearGradient>
<linearGradient id="paint2_linear_273_67060" x1="136.166" y1="64.9265" x2="111.769" y2="100.414" gradientUnits="userSpaceOnUse">
<stop stop-color="#0075FF"/>
<stop offset="1" stop-color="#6D00FF"/>
</linearGradient>
<linearGradient id="paint3_linear_273_67060" x1="185.737" y1="89.1617" x2="78.2821" y2="92.2503" gradientUnits="userSpaceOnUse">
<stop stop-color="#D9F4FE"/>
<stop offset="1" stop-color="#3BB3E0"/>
</linearGradient>
<clipPath id="clip0_273_67060">
<rect width="210" height="210" fill="white"/>
</clipPath>
</defs>
</svg>
