<svg width="210" height="210" viewBox="0 0 210 210" fill="none" xmlns="http://www.w3.org/2000/svg">
<g clip-path="url(#clip0_405_2227)">
<g filter="url(#filter0_f_405_2227)">
<path d="M96.9744 115.098C98.9647 115.769 101.134 117.511 102.981 118.608L141.743 148.274C144.442 150.133 143.867 151.834 141.446 152.439C141.446 152.439 141.446 152.439 140.308 152.528C140.308 152.528 140.307 152.528 139.169 152.618L91.4958 152.639C89.362 152.393 87.2281 152.146 85.2378 151.475C83.2475 150.803 81.4007 149.706 79.554 148.609L40.792 118.942C40.792 118.942 40.792 118.942 39.9404 118.181C39.9404 118.181 39.9404 118.181 39.0888 117.42C37.5292 115.472 37.9599 114.196 41.376 113.927L90.1877 113.816C92.3216 114.063 93.9901 113.999 96.9744 115.098Z" fill="#26255F" fill-opacity="0.3"/>
</g>
<path d="M169.561 95.0859L168.269 98.9144C168.125 99.3398 166.986 99.4293 166.986 99.4293L168.278 95.6008C168.278 95.6008 169.417 95.5113 169.561 95.0859Z" fill="#919191"/>
<path d="M168.131 96.0331L166.839 99.8616C166.839 99.8616 166.839 99.8616 166.695 100.287L168.131 96.0331C167.136 95.6973 167.136 95.6973 168.131 96.0331Z" fill="#919191"/>
<path d="M66.6262 61.764L65.3343 65.5924C65.3343 65.5924 65.3343 65.5924 64.4826 64.8311C63.6309 64.0698 63.7744 63.6444 64.0616 62.7937L65.21 59.3906C65.0664 59.816 65.7745 61.0027 66.6262 61.764Z" fill="#848484"/>
<path d="M167.135 95.6953L165.843 99.5239C165.843 99.5239 165.843 99.5239 164.704 99.6134L167.135 95.6953C167.135 95.6953 166.991 96.1207 167.135 95.6953Z" fill="#8C8C8C"/>
<path d="M67.4773 62.5328L66.1855 66.3614C66.1855 66.3614 66.1855 66.3614 65.3339 65.6001L67.4773 62.5328C67.4773 62.5328 67.6208 62.1074 67.4773 62.5328Z" fill="#848484"/>
<path d="M165.999 95.7857L164.707 99.6142L116.89 100.061L118.182 96.2323L165.999 95.7857Z" fill="#939393"/>
<path d="M106.239 92.1977L104.946 96.0262L66.1845 66.3597L67.4766 62.5312L106.239 92.1977Z" fill="#808080"/>
<path d="M118.183 96.2187L116.891 100.047C116.891 100.047 115.895 99.7113 115.752 100.137L118.183 96.2187C117.187 95.8828 117.044 96.3082 118.183 96.2187Z" fill="#8C8C8C"/>
<path d="M117.041 96.3045L115.749 100.133C114.754 99.7972 114.61 100.223 113.615 99.8867L114.907 96.0582C116.046 95.9687 116.046 95.9687 117.041 96.3045Z" fill="#888888"/>
<path d="M114.909 96.061L113.76 99.4641C112.765 99.1283 111.77 98.7924 110.775 98.4566C108.784 97.7848 106.937 96.6877 105.091 95.5906L106.239 92.1875C108.086 93.2846 109.933 94.3817 111.923 95.0534C112.918 95.3893 113.913 95.7252 114.909 96.061Z" fill="#848484"/>
<path d="M158.076 129.11L156.784 132.939L156.641 133.364L158.076 129.11C158.076 129.11 157.081 128.774 158.076 129.11Z" fill="#838383"/>
<path d="M155.793 129.297L154.501 133.125L153.506 132.789L154.654 129.386L155.793 129.297Z" fill="#828282"/>
<path fill-rule="evenodd" clip-rule="evenodd" d="M66.5121 61.8117C66.0336 61.4956 65.6874 61.2669 65.7761 61.004L65.7761 61.004C65.8281 60.85 65.8612 60.7517 65.8352 60.6731C65.7893 60.5346 65.5594 60.457 64.9246 60.2428L64.9245 60.2428L53.8699 92.9977C53.866 93.0092 53.8623 93.0209 53.8587 93.0326C53.8614 93.0198 53.8647 93.0076 53.8686 92.996L52.5765 96.8245C52.3475 97.5031 53.5605 98.5515 54.9979 99.5048L54.9878 99.5347L93.6062 129.627L94.8983 125.798L94.8983 125.798L106.239 92.1964L67.4778 62.5309L67.4793 62.5265C67.154 62.2357 66.8078 62.007 66.5121 61.8117ZM56.1363 96.1315L56.1362 96.1317L56.1362 96.1314L56.1363 96.1315Z" fill="url(#paint0_linear_405_2227)"/>
<path d="M106.839 129.836L105.547 133.664L104.552 133.328L105.7 129.925L106.839 129.836Z" fill="#828282"/>
<path d="M115.054 95.6405C116.049 95.9764 116.049 95.9764 115.054 95.6405L116.049 95.9764L104.707 129.582L102.573 129.336L115.054 95.6405C114.91 96.0659 114.91 96.0659 115.054 95.6405Z" fill="#888888"/>
<path d="M103.571 129.674L102.278 133.502L103.571 129.674C102.575 129.338 102.575 129.338 103.571 129.674Z" fill="#808080"/>
<path d="M102.573 129.32L101.281 133.149L100.286 132.813L102.573 129.32C102.573 129.32 101.578 128.984 102.573 129.32Z" fill="#808080"/>
<path fill-rule="evenodd" clip-rule="evenodd" d="M169.534 95.497L157.914 129.929C157.247 131.904 155.38 133.221 153.296 133.188L143.384 133.028L105.914 133.962C104.359 134.215 101.608 133.941 98.715 132.351L98.4985 132.278C96.5082 131.606 92.2988 129.289 90.5832 126.842L94.2805 123.418C94.6304 123.625 95.0099 123.923 95.4086 124.274L106.237 92.1884C107.541 92.963 108.845 93.7377 110.2 94.3626L110.306 94.0147L169.534 95.497Z" fill="url(#paint1_linear_405_2227)"/>
<g style="mix-blend-mode:lighten" filter="url(#filter1_f_405_2227)">
<path d="M124.317 60.6751C126.307 61.3468 128.154 62.4439 130.001 63.541L168.763 93.2074C171.461 95.0658 170.887 96.7673 168.466 97.3718C168.466 97.3718 168.466 97.3718 167.327 97.4613C167.327 97.4613 167.327 97.4613 166.188 97.5508L118.515 97.5721C116.381 97.3257 114.248 97.0794 112.257 96.4077C110.267 95.736 108.42 94.6388 106.573 93.5417L67.8115 63.8753C67.8115 63.8753 67.8114 63.8753 66.9599 63.1141C66.9599 63.1141 66.9599 63.1141 66.1083 62.3528C64.5487 60.4049 64.9794 59.1288 68.3955 58.8602L117.207 58.7494C119.341 58.9958 122.327 60.0033 124.317 60.6751Z" fill="url(#paint2_linear_405_2227)" fill-opacity="0.6"/>
</g>
<path d="M123.66 58.6756C125.65 59.3474 127.82 61.089 129.667 62.1861L168.429 91.8526C171.127 93.7109 170.553 95.4125 168.132 96.0169C168.132 96.0169 168.132 96.0169 166.993 96.1064C166.993 96.1064 166.993 96.1064 165.854 96.196L118.181 96.2172C116.048 95.9709 113.914 95.7246 111.923 95.0528C109.933 94.3811 108.086 93.284 106.24 92.1869L67.4775 62.5205C67.4775 62.5205 67.4775 62.5204 66.6259 61.7592C66.6259 61.7592 66.6259 61.7592 65.7743 60.998C64.2147 59.0501 64.6454 57.7739 68.0616 57.5053L116.873 57.3946C119.007 57.6409 120.676 57.5768 123.66 58.6756Z" fill="url(#paint3_linear_405_2227)"/>
</g>
<defs>
<filter id="filter0_f_405_2227" x="28.7782" y="104.374" width="124.196" height="57.713" filterUnits="userSpaceOnUse" color-interpolation-filters="sRGB">
<feFlood flood-opacity="0" result="BackgroundImageFix"/>
<feBlend mode="normal" in="SourceGraphic" in2="BackgroundImageFix" result="shape"/>
<feGaussianBlur stdDeviation="4.72318" result="effect1_foregroundBlur_405_2227"/>
</filter>
<filter id="filter1_f_405_2227" x="17.3225" y="10.8284" width="201.147" height="134.664" filterUnits="userSpaceOnUse" color-interpolation-filters="sRGB">
<feFlood flood-opacity="0" result="BackgroundImageFix"/>
<feBlend mode="normal" in="SourceGraphic" in2="BackgroundImageFix" result="shape"/>
<feGaussianBlur stdDeviation="23.9608" result="effect1_foregroundBlur_405_2227"/>
</filter>
<linearGradient id="paint0_linear_405_2227" x1="55.0518" y1="80.2312" x2="99.2616" y2="109.273" gradientUnits="userSpaceOnUse">
<stop stop-color="#1B8CB6"/>
<stop offset="0.977083" stop-color="#3DAFE4"/>
</linearGradient>
<linearGradient id="paint1_linear_405_2227" x1="92.824" y1="129.871" x2="156.277" y2="152.334" gradientUnits="userSpaceOnUse">
<stop offset="0.00851699" stop-color="#3CAFE3"/>
<stop offset="0.0822776" stop-color="#44B8E5"/>
<stop offset="0.204513" stop-color="#7ACDEC"/>
<stop offset="0.401347" stop-color="#1BA4D8"/>
<stop offset="0.760908" stop-color="#21A5DF"/>
<stop offset="1" stop-color="#ADE3FE"/>
</linearGradient>
<linearGradient id="paint2_linear_405_2227" x1="136.166" y1="64.9241" x2="111.769" y2="100.411" gradientUnits="userSpaceOnUse">
<stop stop-color="#0075FF"/>
<stop offset="1" stop-color="#6D00FF"/>
</linearGradient>
<linearGradient id="paint3_linear_405_2227" x1="185.737" y1="89.1544" x2="78.2821" y2="92.243" gradientUnits="userSpaceOnUse">
<stop stop-color="#D9F4FE"/>
<stop offset="1" stop-color="#3BB3E0"/>
</linearGradient>
<clipPath id="clip0_405_2227">
<rect width="210" height="210" fill="white"/>
</clipPath>
</defs>
</svg>
