<svg width="193" height="162" fill="none" xmlns="http://www.w3.org/2000/svg"><g filter="url(#a)"><path d="M79.974 105.1c1.99.672 4.16 2.413 6.007 3.51l38.762 29.667c2.699 1.858 2.124 3.56-.297 4.164l-1.138.09-1.139.089-47.673.022c-2.134-.247-4.268-.493-6.258-1.165-1.99-.672-3.837-1.769-5.684-2.866l-38.762-29.666-.852-.761-.851-.762c-1.56-1.948-1.13-3.224 2.287-3.492l48.812-.111c2.134.246 3.802.182 6.786 1.281Z" fill="#26255F" fill-opacity=".3"/></g><path d="m152.561 85.088-1.292 3.828c-.144.426-1.283.515-1.283.515l1.292-3.828s1.139-.09 1.283-.515ZM151.131 86.033l-1.292 3.828-.144.425 1.436-4.253c-.995-.336-.995-.336 0 0Z" fill="#919191"/><path d="m49.626 51.769-1.292 3.828-.851-.761c-.852-.762-.709-1.187-.421-2.038l1.148-3.403c-.144.426.565 1.612 1.416 2.374Z" fill="#848484"/><path d="m150.135 85.699-1.292 3.828-1.139.09 2.431-3.918s-.144.425 0 0Z" fill="#8C8C8C"/><path d="m50.477 52.536-1.291 3.828-.852-.761 2.143-3.067s.144-.426 0 0Z" fill="#848484"/><path d="m148.999 85.785-1.292 3.828-47.817.447 1.292-3.829 47.817-.446Z" fill="#939393"/><path d="m89.239 82.199-1.293 3.828-38.761-29.666 1.292-3.828 38.762 29.666Z" fill="gray"/><path d="M101.183 86.221 99.89 90.05s-.995-.336-1.138.09l2.431-3.919c-.996-.336-1.139.09 0 0Z" fill="#8C8C8C"/><path d="m100.041 86.307-1.292 3.828c-.995-.335-1.139.09-2.134-.246l1.292-3.828c1.139-.09 1.139-.09 2.134.246Z" fill="#888"/><path d="m97.909 86.063-1.149 3.403-2.986-1.007c-1.99-.672-3.837-1.77-5.683-2.866l1.148-3.404c1.847 1.098 3.694 2.195 5.684 2.866l2.986 1.008Z" fill="#848484"/><path d="m141.076 119.115-1.292 3.829-.143.425 1.435-4.254s-.995-.336 0 0Z" fill="#838383"/><path d="m138.793 119.297-1.292 3.829-.995-.336 1.148-3.403 1.139-.09Z" fill="#828282"/><path fill-rule="evenodd" clip-rule="evenodd" d="M49.512 51.815c-.478-.316-.825-.545-.736-.808.052-.154.085-.252.06-.33-.047-.139-.277-.217-.911-.43L36.87 83a1.416 1.416 0 0 0-.001-.002l-1.292 3.829c-.23.678.983 1.727 2.42 2.68l-.01.03 38.62 30.092 1.291-3.829L89.238 82.2l-38.76-29.666.001-.004a8.134 8.134 0 0 0-.967-.715Zm-10.376 34.32Z" fill="url(#b)"/><path d="m89.839 119.837-1.292 3.828-.995-.336 1.148-3.403 1.139-.089Z" fill="#828282"/><path d="M98.054 85.64c.995.336.995.336 0 0l.995.336-11.342 33.606-2.134-.247 12.48-33.695c-.143.425-.143.425 0 0Z" fill="#888"/><path d="m86.57 119.676-1.291 3.828 1.292-3.828c-.996-.336-.996-.336 0 0ZM85.573 119.326l-1.291 3.829-.996-.336 2.287-3.493s-.995-.336 0 0Z" fill="gray"/><path fill-rule="evenodd" clip-rule="evenodd" d="m152.534 85.501-11.62 34.432a4.793 4.793 0 0 1-4.618 3.259l-9.912-.159-37.47.933c-1.555.253-4.306-.021-7.199-1.611l-.216-.073c-1.99-.672-6.2-2.988-7.916-5.436l3.698-3.424c.35.208.729.506 1.128.856l10.828-32.085c1.304.774 2.608 1.55 3.963 2.174l.105-.348 59.229 1.482Z" fill="url(#c)"/><g style="mix-blend-mode:lighten" filter="url(#d)"><path d="M107.317 50.678c1.99.672 3.837 1.769 5.684 2.866l38.762 29.666c2.698 1.859 2.124 3.56-.297 4.165l-1.139.089-1.139.09-47.673.02c-2.134-.246-4.267-.492-6.258-1.164-1.99-.671-3.837-1.769-5.684-2.866L50.812 53.878l-.852-.761-.852-.761c-1.56-1.948-1.129-3.225 2.288-3.493l48.811-.11c2.134.245 5.12 1.253 7.11 1.925Z" fill="url(#e)" fill-opacity=".6"/></g><path d="M106.66 48.683c1.99.671 4.16 2.413 6.007 3.51l38.762 29.667c2.698 1.858 2.124 3.56-.297 4.164l-1.139.09-1.139.09-47.673.02c-2.133-.246-4.267-.492-6.258-1.164-1.99-.672-3.837-1.769-5.683-2.866L50.478 52.528l-.852-.762-.852-.761c-1.56-1.948-1.129-3.224 2.288-3.493l48.811-.11c2.134.246 3.803.182 6.787 1.28Z" fill="url(#f)"/><defs><linearGradient id="b" x1="38.052" y1="70.235" x2="82.262" y2="99.277" gradientUnits="userSpaceOnUse"><stop stop-color="#1B8CB6"/><stop offset=".977" stop-color="#3DAFE4"/></linearGradient><linearGradient id="c" x1="75.824" y1="119.876" x2="139.277" y2="142.339" gradientUnits="userSpaceOnUse"><stop offset=".009" stop-color="#3CAFE3"/><stop offset=".082" stop-color="#44B8E5"/><stop offset=".205" stop-color="#7ACDEC"/><stop offset=".401" stop-color="#1BA4D8"/><stop offset=".761" stop-color="#21A5DF"/><stop offset="1" stop-color="#ADE3FE"/></linearGradient><linearGradient id="e" x1="119.166" y1="54.927" x2="94.769" y2="90.414" gradientUnits="userSpaceOnUse"><stop stop-color="#0075FF"/><stop offset="1" stop-color="#6D00FF"/></linearGradient><linearGradient id="f" x1="168.737" y1="79.162" x2="61.282" y2="82.25" gradientUnits="userSpaceOnUse"><stop stop-color="#D9F4FE"/><stop offset="1" stop-color="#3BB3E0"/></linearGradient><filter id="a" x="11.778" y="94.373" width="124.196" height="57.715" filterUnits="userSpaceOnUse" color-interpolation-filters="sRGB"><feFlood flood-opacity="0" result="BackgroundImageFix"/><feBlend in="SourceGraphic" in2="BackgroundImageFix" result="shape"/><feGaussianBlur stdDeviation="4.723" result="effect1_foregroundBlur_421_1778"/></filter><filter id="d" x=".323" y=".831" width="201.147" height="134.666" filterUnits="userSpaceOnUse" color-interpolation-filters="sRGB"><feFlood flood-opacity="0" result="BackgroundImageFix"/><feBlend in="SourceGraphic" in2="BackgroundImageFix" result="shape"/><feGaussianBlur stdDeviation="23.961" result="effect1_foregroundBlur_421_1778"/></filter></defs></svg>