<svg width="209" height="209" viewBox="0 0 209 209" fill="none" xmlns="http://www.w3.org/2000/svg">
<g clip-path="url(#clip0_273_67179)">
<g filter="url(#filter0_f_273_67179)">
<path d="M60.5344 55.4238C69.4397 49.4056 71.4071 52.0351 75.0806 57.4708L152.928 164.546C156.601 169.982 153.985 175.709 145.637 181.351L117.808 200.158C108.903 206.176 103.17 206.091 99.4963 200.655L29.1389 88.5184C25.4654 83.0827 24.3569 79.8727 32.7056 74.2307L60.5344 55.4238Z" fill="#18174A" fill-opacity="0.3"/>
</g>
<path fill-rule="evenodd" clip-rule="evenodd" d="M158.689 127.229C161.783 131.807 158.924 137.074 150.664 142.656L150.744 142.775C150.489 142.918 150.226 143.059 149.954 143.198L150.182 143.536L122.65 162.142L124.707 165.186L140.707 188.861L168.241 170.253L152.241 146.578L152.013 146.24L152.015 146.239L168.242 170.249L168.243 170.249L170.299 173.292L170.299 173.291C170.544 173.126 170.789 172.961 171.032 172.795L171.034 172.797C171.271 172.636 171.504 172.476 171.733 172.317C173.372 171.19 174.911 170.062 176.001 168.935C176.207 168.744 176.405 168.554 176.596 168.365L176.678 168.487C177.011 168.074 177.298 167.764 177.542 167.499L177.542 167.499C177.938 167.071 178.224 166.761 178.424 166.322L178.413 166.306C178.887 165.674 179.274 165.052 179.573 164.441L179.619 164.54L179.941 163.83L179.881 163.74C180.078 163.229 180.214 162.725 180.29 162.227C180.31 162.174 180.332 162.119 180.358 162.061L180.32 162.004C180.507 160.408 180.073 158.872 179.058 157.37L158.689 127.229ZM122.65 162.144C114.39 167.726 108.613 168.674 105.871 164.616L105.929 164.702C105.909 164.674 105.89 164.646 105.871 164.617L107.928 167.661C107.948 167.692 107.969 167.722 107.99 167.752L123.927 191.334C123.942 191.357 123.957 191.379 123.973 191.401L125.985 194.378C128.728 198.437 133.954 197.861 142.765 191.906L140.707 188.863L140.707 188.863L122.65 162.144ZM168.243 170.255L140.709 188.862L142.766 191.906L170.3 173.299L168.243 170.255Z" fill="url(#paint0_linear_273_67179)"/>
<g style="mix-blend-mode:lighten" filter="url(#filter1_f_273_67179)">
<path d="M65.513 17.3207C74.4182 11.3025 76.3856 13.9321 80.0591 19.3678L157.906 126.443C161.58 131.879 158.964 137.606 150.615 143.248L122.786 162.055C113.881 168.073 108.148 167.988 104.475 162.552L34.1174 50.4154C30.444 44.9797 29.3354 41.7697 37.6841 36.1276L65.513 17.3207Z" fill="url(#paint1_linear_273_67179)" fill-opacity="0.6"/>
</g>
<path d="M65.513 17.3207C74.4182 11.3025 76.3856 13.9321 80.0591 19.3678L157.906 126.443C161.58 131.879 158.964 137.606 150.615 143.248L122.786 162.055C113.881 168.073 108.148 167.988 104.475 162.552L34.1174 50.4154C30.444 44.9797 29.3354 41.7697 37.6841 36.1276L65.513 17.3207Z" fill="url(#paint2_linear_273_67179)"/>
</g>
<defs>
<filter id="filter0_f_273_67179" x="16.9648" y="42.5776" width="146.987" height="171.527" filterUnits="userSpaceOnUse" color-interpolation-filters="sRGB">
<feFlood flood-opacity="0" result="BackgroundImageFix"/>
<feBlend mode="normal" in="SourceGraphic" in2="BackgroundImageFix" result="shape"/>
<feGaussianBlur stdDeviation="4.70069" result="effect1_foregroundBlur_273_67179"/>
</filter>
<filter id="filter1_f_273_67179" x="8.96048" y="-8.50827" width="172.953" height="197.493" filterUnits="userSpaceOnUse" color-interpolation-filters="sRGB">
<feFlood flood-opacity="0" result="BackgroundImageFix"/>
<feBlend mode="normal" in="SourceGraphic" in2="BackgroundImageFix" result="shape"/>
<feGaussianBlur stdDeviation="11.1921" result="effect1_foregroundBlur_273_67179"/>
</filter>
<linearGradient id="paint0_linear_273_67179" x1="126.207" y1="203.097" x2="189.448" y2="160.358" gradientUnits="userSpaceOnUse">
<stop stop-color="#CA3038"/>
<stop offset="0.809203" stop-color="#FCB6A5"/>
<stop offset="0.9875" stop-color="#F86157"/>
</linearGradient>
<linearGradient id="paint1_linear_273_67179" x1="78.4114" y1="-2.55008" x2="112.714" y2="187.123" gradientUnits="userSpaceOnUse">
<stop stop-color="#FF0075"/>
<stop offset="1" stop-color="#DC592D"/>
</linearGradient>
<linearGradient id="paint2_linear_273_67179" x1="85.2903" y1="-29.5068" x2="97.1059" y2="184.658" gradientUnits="userSpaceOnUse">
<stop offset="0.0291665" stop-color="#FBB2A1"/>
<stop offset="0.636094" stop-color="#DC592D"/>
<stop offset="0.977083" stop-color="#BD4145"/>
</linearGradient>
<clipPath id="clip0_273_67179">
<rect width="209" height="209" fill="white"/>
</clipPath>
</defs>
</svg>
