<svg width="176" height="209" fill="none" xmlns="http://www.w3.org/2000/svg"><g filter="url(#a)"><path d="M52.534 55.651c8.906-6.018 10.873-3.388 14.547 2.047l77.847 107.076c3.673 5.435 1.057 11.162-7.291 16.805l-27.829 18.806c-8.905 6.019-14.638 5.934-18.312.498L21.14 88.746c-3.674-5.436-4.782-8.646 3.567-14.288l27.828-18.807Z" fill="#18174A" fill-opacity=".3"/></g><path fill-rule="evenodd" clip-rule="evenodd" d="M150.689 127.229c3.094 4.578.235 9.845-8.025 15.427l.08.119c-.255.143-.518.284-.79.423l.228.338-27.532 18.606 2.057 3.044 16 23.675 27.534-18.608-16-23.675-.228-.338.002-.001 16.227 24.01h.001l2.056 3.043v-.001c.245-.165.49-.33.733-.496l.002.002c.237-.161.47-.321.699-.48 1.639-1.127 3.178-2.255 4.268-3.382.206-.191.404-.381.595-.57l.082.122c.333-.413.62-.723.864-.988.396-.428.682-.738.882-1.177l-.011-.016c.474-.632.861-1.254 1.16-1.865l.046.099.322-.71-.06-.09a7.238 7.238 0 0 0 .409-1.513c.02-.053.042-.108.068-.166l-.038-.057c.187-1.596-.247-3.132-1.262-4.634l-20.369-30.141Zm-36.039 34.915c-8.26 5.582-14.037 6.53-16.78 2.472l.059.086a4.85 4.85 0 0 1-.058-.085l2.057 3.044.062.091 15.937 23.582.046.067 2.012 2.977c2.743 4.059 7.969 3.483 16.78-2.472l-2.058-3.043-18.057-26.719Zm45.593 8.111-27.534 18.607 2.057 3.044 27.534-18.607-2.057-3.044Z" fill="url(#b)"/><g style="mix-blend-mode:lighten" filter="url(#c)"><path d="M57.513 17.32c8.905-6.018 10.873-3.388 14.546 2.048l77.847 107.075c3.674 5.436 1.058 11.163-7.291 16.805l-27.829 18.807c-8.905 6.018-14.638 5.933-18.311.497L26.117 50.415c-3.673-5.435-4.782-8.645 3.567-14.287L57.513 17.32Z" fill="url(#d)" fill-opacity=".6"/></g><path d="M57.513 17.32c8.905-6.018 10.873-3.388 14.546 2.048l77.847 107.075c3.674 5.436 1.058 11.163-7.291 16.805l-27.829 18.807c-8.905 6.018-14.638 5.933-18.311.497L26.117 50.415c-3.673-5.435-4.782-8.645 3.567-14.287L57.513 17.32Z" fill="url(#e)"/><defs><linearGradient id="b" x1="118.207" y1="203.097" x2="181.448" y2="160.358" gradientUnits="userSpaceOnUse"><stop stop-color="#CA3038"/><stop offset=".809" stop-color="#FCB6A5"/><stop offset=".988" stop-color="#F86157"/></linearGradient><linearGradient id="d" x1="70.411" y1="-2.55" x2="104.714" y2="187.123" gradientUnits="userSpaceOnUse"><stop stop-color="#FF0075"/><stop offset="1" stop-color="#DC592D"/></linearGradient><linearGradient id="e" x1="77.29" y1="-29.507" x2="89.106" y2="184.658" gradientUnits="userSpaceOnUse"><stop offset=".029" stop-color="#FBB2A1"/><stop offset=".636" stop-color="#DC592D"/><stop offset=".977" stop-color="#BD4145"/></linearGradient><filter id="a" x="8.965" y="42.805" width="146.987" height="171.527" filterUnits="userSpaceOnUse" color-interpolation-filters="sRGB"><feFlood flood-opacity="0" result="BackgroundImageFix"/><feBlend in="SourceGraphic" in2="BackgroundImageFix" result="shape"/><feGaussianBlur stdDeviation="4.701" result="effect1_foregroundBlur_421_50067"/></filter><filter id="c" x=".96" y="-8.509" width="172.953" height="197.493" filterUnits="userSpaceOnUse" color-interpolation-filters="sRGB"><feFlood flood-opacity="0" result="BackgroundImageFix"/><feBlend in="SourceGraphic" in2="BackgroundImageFix" result="shape"/><feGaussianBlur stdDeviation="11.192" result="effect1_foregroundBlur_421_50067"/></filter></defs></svg>