<svg width="209" height="209" viewBox="0 0 209 209" fill="none" xmlns="http://www.w3.org/2000/svg">
<g clip-path="url(#clip0_405_2342)">
<g filter="url(#filter0_f_405_2342)">
<path d="M60.5344 55.4248C69.4397 49.4065 71.4071 52.0361 75.0806 57.4718L152.928 164.547C156.601 169.983 153.985 175.71 145.637 181.352L117.808 200.159C108.903 206.177 103.17 206.092 99.4963 200.656L29.1389 88.5194C25.4654 83.0837 24.3569 79.8737 32.7056 74.2317L60.5344 55.4248Z" fill="#18174A" fill-opacity="0.3"/>
</g>
<path fill-rule="evenodd" clip-rule="evenodd" d="M158.689 127.235C161.783 131.814 158.924 137.08 150.664 142.662L150.744 142.781C150.489 142.924 150.226 143.065 149.954 143.204L150.182 143.542L122.65 162.148L124.707 165.192L140.707 188.867L168.241 170.26L152.241 146.585L152.013 146.247L152.015 146.245L168.242 170.256L168.243 170.255L170.299 173.298L170.299 173.298C170.544 173.132 170.789 172.967 171.032 172.802L171.034 172.803C171.271 172.643 171.504 172.483 171.733 172.324C173.372 171.196 174.911 170.069 176.001 168.941C176.207 168.75 176.405 168.56 176.596 168.372L176.678 168.494C177.011 168.08 177.298 167.77 177.542 167.506L177.542 167.506C177.938 167.078 178.224 166.768 178.424 166.329L178.413 166.313C178.887 165.68 179.274 165.059 179.573 164.447L179.619 164.546L179.941 163.836L179.881 163.746C180.078 163.235 180.214 162.731 180.29 162.233C180.31 162.18 180.332 162.125 180.358 162.067L180.32 162.011C180.507 160.414 180.073 158.878 179.058 157.376L158.689 127.235ZM122.65 162.15C114.39 167.733 108.613 168.681 105.871 164.622L105.929 164.709C105.909 164.68 105.89 164.652 105.871 164.623L107.928 167.667C107.948 167.698 107.969 167.728 107.99 167.758L123.927 191.341C123.942 191.363 123.957 191.385 123.973 191.407L125.985 194.384C128.728 198.443 133.954 197.867 142.765 191.913L140.707 188.869L140.707 188.869L122.65 162.15ZM168.243 170.261L140.709 188.869L142.766 191.913L170.3 173.305L168.243 170.261Z" fill="url(#paint0_linear_405_2342)"/>
<g style="mix-blend-mode:lighten" filter="url(#filter1_f_405_2342)">
<path d="M65.513 17.3232C74.4182 11.305 76.3856 13.9345 80.0591 19.3702L157.906 126.446C161.58 131.881 158.964 137.608 150.615 143.25L122.786 162.057C113.881 168.076 108.148 167.991 104.475 162.555L34.1174 50.4178C30.444 44.9821 29.3354 41.7722 37.6841 36.1301L65.513 17.3232Z" fill="url(#paint1_linear_405_2342)" fill-opacity="0.6"/>
</g>
<path d="M65.513 17.3232C74.4182 11.305 76.3856 13.9345 80.0591 19.3702L157.906 126.446C161.58 131.881 158.964 137.608 150.615 143.25L122.786 162.057C113.881 168.076 108.148 167.991 104.475 162.555L34.1174 50.4178C30.444 44.9821 29.3354 41.7722 37.6841 36.1301L65.513 17.3232Z" fill="url(#paint2_linear_405_2342)"/>
</g>
<defs>
<filter id="filter0_f_405_2342" x="16.9648" y="42.5752" width="146.987" height="171.529" filterUnits="userSpaceOnUse" color-interpolation-filters="sRGB">
<feFlood flood-opacity="0" result="BackgroundImageFix"/>
<feBlend mode="normal" in="SourceGraphic" in2="BackgroundImageFix" result="shape"/>
<feGaussianBlur stdDeviation="4.70069" result="effect1_foregroundBlur_405_2342"/>
</filter>
<filter id="filter1_f_405_2342" x="8.96048" y="-8.50924" width="172.953" height="197.495" filterUnits="userSpaceOnUse" color-interpolation-filters="sRGB">
<feFlood flood-opacity="0" result="BackgroundImageFix"/>
<feBlend mode="normal" in="SourceGraphic" in2="BackgroundImageFix" result="shape"/>
<feGaussianBlur stdDeviation="11.1921" result="effect1_foregroundBlur_405_2342"/>
</filter>
<linearGradient id="paint0_linear_405_2342" x1="126.207" y1="203.103" x2="189.448" y2="160.365" gradientUnits="userSpaceOnUse">
<stop stop-color="#CA3038"/>
<stop offset="0.809203" stop-color="#FCB6A5"/>
<stop offset="0.9875" stop-color="#F86157"/>
</linearGradient>
<linearGradient id="paint1_linear_405_2342" x1="78.4114" y1="-2.54763" x2="112.714" y2="187.125" gradientUnits="userSpaceOnUse">
<stop stop-color="#FF0075"/>
<stop offset="1" stop-color="#DC592D"/>
</linearGradient>
<linearGradient id="paint2_linear_405_2342" x1="85.2903" y1="-29.5044" x2="97.1059" y2="184.66" gradientUnits="userSpaceOnUse">
<stop offset="0.0291665" stop-color="#FBB2A1"/>
<stop offset="0.636094" stop-color="#DC592D"/>
<stop offset="0.977083" stop-color="#BD4145"/>
</linearGradient>
<clipPath id="clip0_405_2342">
<rect width="209" height="209" fill="white"/>
</clipPath>
</defs>
</svg>
