<svg width="210" height="210" viewBox="0 0 210 210" fill="none" xmlns="http://www.w3.org/2000/svg">
<g filter="url(#filter0_f_405_2431)">
<path d="M103.468 103.252C108.898 99.8294 115.231 97.8387 119.223 98.8229L196.277 120.765C197.106 120.743 197.557 121.458 197.783 121.816C197.783 121.816 197.783 121.816 198.008 122.174L198.234 122.532C198.459 122.89 198.082 123.628 198.082 123.628C198.307 123.986 197.704 124.366 197.326 125.104C196.722 125.484 196.948 125.842 196.344 126.223C195.741 126.603 195.967 126.961 195.363 127.341C194.76 127.721 194.382 128.459 194.382 128.459C193.175 129.22 193.175 129.22 193.175 129.22L103.87 185.496L103.266 185.876C102.663 186.257 102.663 186.257 102.663 186.257C102.059 186.637 102.059 186.637 102.059 186.637L101.456 187.017C100.853 187.397 100.249 187.778 100.249 187.778C97.6101 188.941 95.3488 189.366 93.0875 189.791C92.4841 190.171 92.2586 189.813 92.2586 189.813L91.4296 189.835C89.7718 189.88 89.5463 189.522 89.5463 189.522C86.6084 188.874 84.8774 187.464 85.938 183.796L94.331 115.509C93.5081 111.528 98.0368 106.674 103.468 103.252Z" fill="#26255F" fill-opacity="0.3"/>
</g>
<path d="M59.9011 148.494L61.9021 151.669C60.2596 151.718 60.0372 151.366 60.0372 151.366C58.3947 151.415 57.1288 150.734 56.4619 149.675L54.4609 146.5C55.1279 147.558 56.3938 148.239 58.0363 148.19C58.2586 148.543 58.2586 148.543 59.9011 148.494Z" fill="#848484"/>
<path d="M166.132 82.042L168.133 85.2173C168.356 85.5701 167.979 86.3004 167.979 86.3004L167.602 87.0306L165.602 83.8553L165.978 83.1251C165.978 83.1251 166.355 82.3949 166.132 82.042Z" fill="#919191"/>
<path d="M165.821 84.2061L167.822 87.3814C167.822 87.3814 167.822 87.3814 167.445 88.1116L167.069 88.8418L165.068 85.6666C164.845 85.3137 165.444 84.9363 165.821 84.2061Z" fill="#8C8C8C"/>
<path d="M164.846 85.3155L166.847 88.4908C166.248 88.8682 166.471 89.221 165.872 89.5984L163.871 86.4231C164.47 86.0457 164.47 86.0457 164.846 85.3155Z" fill="#888888"/>
<path d="M163.869 86.4116L165.87 89.5869C165.87 89.5869 165.87 89.5869 165.271 89.9643L163.869 86.4116Z" fill="#888888"/>
<path d="M163.269 86.792L165.27 89.9673C164.671 90.3447 164.671 90.3447 164.072 90.7222L162.071 87.5469C162.893 87.5223 163.491 87.1449 163.269 86.792Z" fill="#848484"/>
<path d="M161.696 88.2833L73.0557 144.141L75.0566 147.316L163.697 91.4586L161.696 88.2833Z" fill="#858585"/>
<path d="M73.0592 144.146L75.0601 147.321L74.4612 147.699C73.8623 148.076 73.8623 148.076 73.8623 148.076C73.2634 148.454 73.2634 148.454 73.2634 148.454L72.6644 148.831C72.0655 149.209 71.4666 149.586 71.4666 149.586C68.8486 150.743 66.6072 151.169 64.3657 151.596C63.7668 151.973 63.5445 151.621 63.5445 151.621L62.7233 151.645L60.5 148.117C60.5 148.117 60.5 148.117 61.3212 148.093L62.1425 148.068C64.3839 147.641 66.6253 147.215 69.2433 146.058C69.8423 145.68 69.8423 145.68 70.4412 145.303L71.0401 144.926L71.639 144.548L72.2379 144.171C73.0592 144.146 73.0592 144.146 73.0592 144.146Z" fill="#848484"/>
<path d="M162.896 87.5342L164.897 90.7095C163.699 91.4644 163.699 91.4644 163.699 91.4644L161.698 88.2891C161.698 88.2891 161.698 88.2891 162.896 87.5342Z" fill="#848484"/>
<path d="M165.82 84.2057C166.419 83.8283 166.197 83.4755 165.975 83.1227C166.351 82.3924 166.129 82.0396 166.129 82.0396L183.693 109.912C184.137 110.617 183.761 111.347 182.785 112.455L165.221 84.5831L165.82 84.2057Z" fill="#919191"/>
<path d="M183.384 112.076L185.385 115.252L183.384 112.076C182.785 112.454 182.785 112.454 183.384 112.076Z" fill="#818181"/>
<path d="M182.784 112.451L184.785 115.626L184.409 116.356L182.408 113.181L182.784 112.451Z" fill="#828282"/>
<path d="M165.446 84.9419C165.224 84.5891 165.224 84.5891 165.446 84.9419L183.387 112.084L182.411 113.191L164.847 85.3193C164.847 85.3193 164.847 85.3193 165.446 84.9419Z" fill="#8D8D8D"/>
<path d="M182.41 113.181L184.411 116.356L166.248 88.8615L164.47 86.0391L182.41 113.181Z" fill="#808080"/>
<path d="M164.469 86.0445L182.409 113.186L181.434 114.294L163.87 86.4219C163.87 86.4219 163.87 86.4219 164.469 86.0445C163.87 86.4219 163.87 86.4219 164.469 86.0445Z" fill="#888888"/>
<path d="M181.813 113.565L183.814 116.741L182.838 117.848L180.838 114.673L181.813 113.565Z" fill="#818181"/>
<path d="M180.833 114.659L182.834 117.835L182.235 118.212L181.636 118.589L179.635 115.414C179.857 115.767 180.456 115.389 180.833 114.659C180.833 114.659 180.234 115.037 180.833 114.659Z" fill="#808080"/>
<path d="M72.3711 145.443C72.9754 145.063 73.5796 144.682 74.1838 144.301L91.6235 171.976C82.5601 177.688 74.531 178.342 72.3234 174.839L54.8838 147.164C55.1045 147.514 55.1045 147.514 55.1045 147.514C55.1045 147.514 55.1045 147.514 55.3253 147.865C55.3253 147.865 55.3253 147.865 55.5461 148.215L55.7668 148.565C56.2083 149.266 57.0333 149.236 57.8583 149.205C57.8583 149.205 58.079 149.555 58.6833 149.175C58.6833 149.175 58.6833 149.175 59.5082 149.144C59.5082 149.144 59.5083 149.144 60.3332 149.114C61.1582 149.083 61.1582 149.083 61.7624 148.703L62.5874 148.672C62.5874 148.672 62.5874 148.672 63.1917 148.291C63.1917 148.291 63.1917 148.291 63.7959 147.911C63.7959 147.911 64.4001 147.53 64.6209 147.88C64.6209 147.88 65.2251 147.499 65.4458 147.85L66.0501 147.469L66.6543 147.088C67.2585 146.707 68.0835 146.677 69.292 145.915L69.8962 145.535C71.7669 145.824 71.7669 145.824 72.3711 145.443Z" fill="url(#paint0_linear_405_2431)"/>
<path fill-rule="evenodd" clip-rule="evenodd" d="M155.201 96.276L156.998 95.1437L156.998 95.1437C157.597 94.7663 157.597 94.7663 158.053 92.8344L158.652 92.457C159.353 92.0148 159.765 91.5675 160.105 91.197C160.346 90.935 160.552 90.7113 160.8 90.555L161.399 90.1776L161.998 89.8002C161.817 89.5129 162.089 89.2337 162.248 89.1047L161.698 88.2717L162.297 87.8943L162.896 87.5169L163.495 87.1395L163.775 87.584L163.899 87.5058L164.251 86.736C164.85 86.3586 164.85 86.3586 165.201 85.5888L165.201 85.5888L165.553 84.8191L165.905 84.0493C166.504 83.6719 166.256 83.2795 166.256 83.2795C166.608 82.5098 166.96 81.74 166.465 80.9553L185.009 110.382C187.481 114.305 184.421 118.289 173.689 124.093L155.201 96.276Z" fill="url(#paint1_linear_405_2431)"/>
<path d="M179.862 115.779L181.863 118.954L181.264 119.332L179.862 115.779C179.263 116.156 179.263 116.156 179.862 115.779Z" fill="#FAD9A2"/>
<path d="M90.6217 172.013L92.6227 175.188C84.2378 180.472 76.2476 181.071 74.0244 177.542L72.0234 174.367C74.2467 177.895 82.2368 177.296 90.6217 172.013Z" fill="url(#paint2_linear_405_2431)"/>
<path fill-rule="evenodd" clip-rule="evenodd" d="M73.0556 144.139L161.696 88.2821L179.26 116.154L90.6193 172.011L73.0556 144.139ZM90.6217 172.019L179.262 116.162L181.263 119.337L92.6226 175.195L90.6217 172.019Z" fill="url(#paint3_linear_405_2431)"/>
<g style="mix-blend-mode:lighten" filter="url(#filter1_f_405_2431)">
<path d="M73.3327 64.5563C78.7635 61.1341 85.0963 59.1434 89.0885 60.1276L166.143 82.0697C166.972 82.0473 167.423 82.763 167.648 83.1209C167.648 83.1209 167.648 83.1209 167.874 83.4788L168.099 83.8367C168.325 84.1946 167.947 84.9327 167.947 84.9327C168.172 85.2905 167.569 85.6708 167.191 86.4089C166.588 86.7892 166.813 87.147 166.21 87.5273C165.606 87.9075 165.832 88.2654 165.228 88.6457C164.625 89.0259 164.247 89.764 164.247 89.764C163.04 90.5245 163.04 90.5245 163.04 90.5245L73.735 146.801L73.1315 147.181C72.5281 147.561 72.5281 147.561 72.5281 147.561C71.9247 147.942 71.9247 147.942 71.9247 147.942L71.3213 148.322C70.7179 148.702 70.1145 149.082 70.1145 149.082C67.4753 150.245 65.214 150.67 62.9527 151.095C62.3493 151.476 62.1238 151.118 62.1238 151.118L61.2949 151.14C59.637 151.185 59.4115 150.827 59.4115 150.827C56.4737 150.178 54.7427 148.769 55.8032 145.101L64.1962 76.8136C63.3734 72.8322 67.902 67.9785 73.3327 64.5563Z" fill="url(#paint4_linear_405_2431)" fill-opacity="0.6"/>
</g>
<path d="M72.4685 63.1813C77.8992 59.7591 84.232 57.7684 88.2243 58.7526L165.278 80.6947C166.107 80.6723 166.558 81.388 166.784 81.7459C166.784 81.7459 166.784 81.7459 167.009 82.1038L167.235 82.4617C167.46 82.8196 167.082 83.5577 167.082 83.5577C167.308 83.9155 166.705 84.2958 166.327 85.0339C165.723 85.4142 165.949 85.772 165.345 86.1523C164.742 86.5325 164.967 86.8904 164.364 87.2707C163.761 87.6509 163.383 88.389 163.383 88.389C162.176 89.1495 162.176 89.1495 162.176 89.1495L72.8707 145.426L72.2673 145.806C71.6639 146.186 71.6639 146.186 71.6639 146.186C71.0605 146.567 71.0604 146.567 71.0604 146.567L70.457 146.947C69.8536 147.327 69.2502 147.707 69.2502 147.707C66.611 148.87 64.3498 149.295 62.0885 149.72C61.4851 150.101 61.2595 149.743 61.2595 149.743L60.4306 149.765C58.7728 149.81 58.5472 149.452 58.5472 149.452C55.6094 148.803 53.8784 147.394 54.939 143.726L63.3319 75.4386C62.5091 71.4572 67.0378 66.6035 72.4685 63.1813Z" fill="url(#paint5_linear_405_2431)"/>
<defs>
<filter id="filter0_f_405_2431" x="76.1777" y="89.1239" width="131.574" height="110.291" filterUnits="userSpaceOnUse" color-interpolation-filters="sRGB">
<feFlood flood-opacity="0" result="BackgroundImageFix"/>
<feBlend mode="normal" in="SourceGraphic" in2="BackgroundImageFix" result="shape"/>
<feGaussianBlur stdDeviation="4.72318" result="effect1_foregroundBlur_405_2431"/>
</filter>
<filter id="filter1_f_405_2431" x="31.9001" y="36.2858" width="159.86" height="138.577" filterUnits="userSpaceOnUse" color-interpolation-filters="sRGB">
<feFlood flood-opacity="0" result="BackgroundImageFix"/>
<feBlend mode="normal" in="SourceGraphic" in2="BackgroundImageFix" result="shape"/>
<feGaussianBlur stdDeviation="11.7946" result="effect1_foregroundBlur_405_2431"/>
</filter>
<linearGradient id="paint0_linear_405_2431" x1="57.4953" y1="163.595" x2="82.4669" y2="155.709" gradientUnits="userSpaceOnUse">
<stop stop-color="#848484"/>
<stop offset="0.0001" stop-color="#D89731"/>
<stop offset="1" stop-color="#E9B43B"/>
</linearGradient>
<linearGradient id="paint1_linear_405_2431" x1="174.573" y1="107.228" x2="182.38" y2="101.349" gradientUnits="userSpaceOnUse">
<stop stop-color="#FAD9A2"/>
<stop offset="1" stop-color="#FEF9F2"/>
</linearGradient>
<linearGradient id="paint2_linear_405_2431" x1="73.9215" y1="177.379" x2="90.6827" y2="173.532" gradientUnits="userSpaceOnUse">
<stop stop-color="#DFA435"/>
<stop offset="1" stop-color="#E9B43B"/>
</linearGradient>
<linearGradient id="paint3_linear_405_2431" x1="86.6097" y1="165.552" x2="185.41" y2="106.169" gradientUnits="userSpaceOnUse">
<stop stop-color="#E8B33B"/>
<stop offset="1" stop-color="#FCDEAF"/>
</linearGradient>
<linearGradient id="paint4_linear_405_2431" x1="86.7954" y1="53.1949" x2="86.2753" y2="138.531" gradientUnits="userSpaceOnUse">
<stop stop-color="#FEBB08"/>
<stop offset="1" stop-color="#FF5C00"/>
</linearGradient>
<linearGradient id="paint5_linear_405_2431" x1="84.9024" y1="41.7233" x2="60.8459" y2="164.206" gradientUnits="userSpaceOnUse">
<stop stop-color="#F8D68D"/>
<stop offset="1" stop-color="#FDC124"/>
</linearGradient>
</defs>
</svg>
