<svg width="187" height="177" fill="none" xmlns="http://www.w3.org/2000/svg"><g filter="url(#a)"><path d="M82.468 80.256c5.43-3.422 11.763-5.413 15.755-4.429l77.054 21.942c.829-.022 1.28.694 1.506 1.052l.225.358.226.357c.225.358-.152 1.096-.152 1.096.225.358-.378.739-.756 1.477-.604.38-.378.738-.982 1.118-.603.38-.377.738-.981 1.118-.603.381-.981 1.119-.981 1.119l-1.207.76-89.305 56.277-.604.38-.603.38-.603.38-.604.38-1.207.761c-2.639 1.163-4.9 1.588-7.161 2.013-.604.38-.83.022-.83.022l-.828.023c-1.658.045-1.884-.313-1.884-.313-2.938-.649-4.669-2.058-3.608-5.726l8.393-68.288c-.823-3.981 3.706-8.835 9.136-12.257Z" fill="#26255F" fill-opacity=".3"/></g><path d="m38.901 125.496 2.001 3.175c-1.642.049-1.865-.304-1.865-.304-1.642.05-2.908-.631-3.575-1.69l-2.001-3.175c.667 1.058 1.933 1.739 3.575 1.69.223.353.223.353 1.865.304Z" fill="#848484"/><path d="m145.132 59.046 2.001 3.176c.223.352-.154 1.083-.154 1.083l-.377.73-2-3.175.376-.73s.377-.73.154-1.084Z" fill="#919191"/><path d="m144.821 61.21 2.001 3.175-.377.73-.376.73-2.001-3.175c-.223-.353.376-.73.753-1.46Z" fill="#8C8C8C"/><path d="m143.846 62.315 2.001 3.175c-.599.378-.376.73-.975 1.108l-2.001-3.175c.599-.378.599-.378.975-1.108Z" fill="#888"/><path d="m142.869 63.414 2.001 3.175-.599.377-1.402-3.552Z" fill="#888"/><path d="m142.269 63.791 2.001 3.175-1.198.755-2.001-3.175c.822-.025 1.42-.402 1.198-.755Z" fill="#848484"/><path d="m140.696 65.283-88.64 55.857 2 3.175 88.641-55.857-2.001-3.175Z" fill="#858585"/><path d="m52.06 121.151 2 3.175-.599.377-.599.378-.599.377-.599.378-1.197.754c-2.618 1.157-4.86 1.584-7.101 2.01-.6.378-.822.025-.822.025l-.82.025-2.224-3.528.821-.025.822-.025c2.24-.426 4.482-.853 7.1-2.01l1.198-.755.6-.377.598-.377.599-.378.821-.024ZM141.896 64.535l2.001 3.175-1.198.755-2.001-3.175 1.198-.755Z" fill="#848484"/><path d="M144.82 61.203c.599-.378.377-.73.155-1.083.376-.73.154-1.083.154-1.083l17.564 27.872c.444.705.068 1.435-.908 2.543L144.221 61.58l.599-.377Z" fill="#919191"/><path d="m162.384 89.078 2.001 3.175-2.001-3.175c-.599.377-.599.377 0 0Z" fill="#818181"/><path d="m161.784 89.456 2.001 3.175-.376.73-2.001-3.175.376-.73Z" fill="#828282"/><path d="M144.446 61.94c-.222-.353-.222-.353 0 0l17.941 27.141-.976 1.108-17.564-27.872.599-.378Z" fill="#8D8D8D"/><path d="m161.41 90.185 2.001 3.175-18.163-27.494-1.778-2.822 17.94 27.141Z" fill="gray"/><path d="m143.469 63.044 17.94 27.142-.975 1.107-17.564-27.872.599-.377c-.599.377-.599.377 0 0Z" fill="#888"/><path d="m160.813 90.564 2.001 3.175-.976 1.108-2-3.175.975-1.108Z" fill="#818181"/><path d="m159.833 91.662 2.001 3.175-.599.377-.599.378-2.001-3.175c.222.352.821-.025 1.198-.755 0 0-.599.377 0 0Z" fill="gray"/><path d="m51.371 122.448 1.813-1.142 17.44 27.675c-9.064 5.711-17.093 6.366-19.3 2.863l-17.44-27.676.22.351.221.35.221.35.22.351c.442.7 1.267.67 2.092.639 0 0 .221.351.825-.03l.825-.03.825-.031c.825-.03.825-.03 1.43-.411l.824-.03.605-.381.604-.381s.604-.381.825-.03c0 0 .604-.381.825-.031l.604-.381.604-.38c.604-.381 1.43-.412 2.638-1.173l.604-.381c1.87.29 1.87.29 2.475-.091Z" fill="url(#b)"/><path fill-rule="evenodd" clip-rule="evenodd" d="m134.201 73.275 1.797-1.132c.599-.378.599-.378 1.055-2.31l.599-.377c.701-.442 1.113-.89 1.453-1.26.241-.262.447-.486.695-.642l.599-.377.599-.378c-.181-.287.091-.566.25-.695l-.55-.833.599-.378.599-.377.599-.378.28.445.124-.078.352-.77c.599-.377.599-.377.95-1.147l.352-.77.352-.77c.599-.377.351-.77.351-.77.352-.77.704-1.539.209-2.324l18.544 29.427c2.472 3.924-.588 7.907-11.32 13.711l-18.488-27.817Z" fill="url(#c)"/><path d="m158.862 92.783 2.001 3.175-.599.378-1.402-3.553c-.599.378-.599.378 0 0Z" fill="#FAD9A2"/><path d="m69.622 149.017 2 3.175c-8.384 5.284-16.374 5.883-18.598 2.355l-2-3.175c2.223 3.528 10.213 2.929 18.598-2.355Z" fill="url(#d)"/><path fill-rule="evenodd" clip-rule="evenodd" d="m52.056 121.137 88.64-55.857 17.564 27.872-88.64 55.857-17.564-27.872Zm17.566 27.88 88.64-55.857 2.001 3.175-88.64 55.858-2.001-3.176Z" fill="url(#e)"/><g style="mix-blend-mode:lighten" filter="url(#f)"><path d="M52.333 41.555c5.43-3.422 11.763-5.413 15.755-4.429l77.055 21.942c.829-.022 1.28.694 1.505 1.052l.226.357.225.358c.226.358-.152 1.096-.152 1.096.225.358-.378.738-.756 1.477-.603.38-.378.738-.981 1.118-.604.38-.378.738-.982 1.118-.603.38-.981 1.119-.981 1.119l-1.207.76-89.305 56.276-.603.381-.604.38-.603.38-.604.38-1.206.761c-2.64 1.163-4.901 1.588-7.162 2.013-.604.38-.83.022-.83.022l-.828.023c-1.658.044-1.884-.314-1.884-.314-2.937-.648-4.668-2.057-3.608-5.726l8.393-68.287c-.823-3.981 3.706-8.835 9.137-12.257Z" fill="url(#g)" fill-opacity=".6"/></g><path d="M51.468 40.18c5.431-3.421 11.764-5.412 15.756-4.428l77.054 21.942c.829-.022 1.28.694 1.506 1.051l.225.358.226.358c.225.358-.153 1.096-.153 1.096.226.358-.377.738-.755 1.476-.604.38-.378.739-.982 1.119-.603.38-.378.738-.981 1.118-.603.38-.981 1.118-.981 1.118l-1.207.761-89.305 56.276-.604.381-.603.38-.604.38-.603.38-1.207.761c-2.639 1.163-4.9 1.588-7.161 2.013-.604.38-.83.022-.83.022l-.828.023c-1.658.044-1.884-.314-1.884-.314-2.938-.648-4.669-2.057-3.608-5.726l8.393-68.287c-.823-3.981 3.706-8.835 9.136-12.257Z" fill="url(#h)"/><defs><linearGradient id="b" x1="36.495" y1="140.599" x2="61.467" y2="132.713" gradientUnits="userSpaceOnUse"><stop stop-color="#848484"/><stop offset="0" stop-color="#D89731"/><stop offset="1" stop-color="#E9B43B"/></linearGradient><linearGradient id="c" x1="153.573" y1="84.227" x2="161.38" y2="78.348" gradientUnits="userSpaceOnUse"><stop stop-color="#FAD9A2"/><stop offset="1" stop-color="#FEF9F2"/></linearGradient><linearGradient id="d" x1="52.922" y1="154.384" x2="69.683" y2="150.536" gradientUnits="userSpaceOnUse"><stop stop-color="#DFA435"/><stop offset="1" stop-color="#E9B43B"/></linearGradient><linearGradient id="e" x1="65.61" y1="142.55" x2="164.41" y2="83.168" gradientUnits="userSpaceOnUse"><stop stop-color="#E8B33B"/><stop offset="1" stop-color="#FCDEAF"/></linearGradient><linearGradient id="g" x1="65.795" y1="30.194" x2="65.275" y2="115.529" gradientUnits="userSpaceOnUse"><stop stop-color="#FEBB08"/><stop offset="1" stop-color="#FF5C00"/></linearGradient><linearGradient id="h" x1="63.902" y1="18.723" x2="39.846" y2="141.206" gradientUnits="userSpaceOnUse"><stop stop-color="#F8D68D"/><stop offset="1" stop-color="#FDC124"/></linearGradient><filter id="a" x="55.178" y="66.129" width="131.574" height="110.287" filterUnits="userSpaceOnUse" color-interpolation-filters="sRGB"><feFlood flood-opacity="0" result="BackgroundImageFix"/><feBlend in="SourceGraphic" in2="BackgroundImageFix" result="shape"/><feGaussianBlur stdDeviation="4.723" result="effect1_foregroundBlur_421_1995"/></filter><filter id="f" x="10.9" y="13.285" width="159.86" height="138.573" filterUnits="userSpaceOnUse" color-interpolation-filters="sRGB"><feFlood flood-opacity="0" result="BackgroundImageFix"/><feBlend in="SourceGraphic" in2="BackgroundImageFix" result="shape"/><feGaussianBlur stdDeviation="11.795" result="effect1_foregroundBlur_421_1995"/></filter></defs></svg>