<svg width="210" height="210" viewBox="0 0 210 210" fill="none" xmlns="http://www.w3.org/2000/svg">
<g filter="url(#filter0_f_273_67277)">
<path d="M103.468 103.256C108.898 99.8338 115.231 97.8431 119.223 98.8273L196.277 120.769C197.106 120.747 197.557 121.463 197.783 121.821C197.783 121.821 197.783 121.821 198.008 122.179L198.234 122.536C198.459 122.894 198.082 123.632 198.082 123.632C198.307 123.99 197.704 124.371 197.326 125.109C196.722 125.489 196.948 125.847 196.344 126.227C195.741 126.607 195.967 126.965 195.363 127.345C194.76 127.726 194.382 128.464 194.382 128.464C193.175 129.224 193.175 129.224 193.175 129.224L103.87 185.501L103.266 185.881C102.663 186.261 102.663 186.261 102.663 186.261C102.059 186.641 102.059 186.641 102.059 186.641L101.456 187.021C100.853 187.402 100.249 187.782 100.249 187.782C97.6101 188.945 95.3488 189.37 93.0875 189.795C92.4841 190.175 92.2586 189.817 92.2586 189.817L91.4296 189.84C89.7718 189.885 89.5463 189.527 89.5463 189.527C86.6084 188.878 84.8774 187.469 85.938 183.801L94.331 115.513C93.5081 111.532 98.0368 106.678 103.468 103.256Z" fill="#26255F" fill-opacity="0.3"/>
</g>
<path d="M59.9011 148.496L61.9021 151.671C60.2596 151.72 60.0372 151.367 60.0372 151.367C58.3947 151.417 57.1288 150.736 56.4619 149.677L54.4609 146.502C55.1279 147.56 56.3938 148.241 58.0363 148.192C58.2586 148.545 58.2586 148.545 59.9011 148.496Z" fill="#848484"/>
<path d="M166.132 82.0464L168.133 85.2217C168.356 85.5745 167.979 86.3048 167.979 86.3048L167.602 87.035L165.602 83.8597L165.978 83.1295C165.978 83.1295 166.355 82.3992 166.132 82.0464Z" fill="#919191"/>
<path d="M165.821 84.2095L167.822 87.3848C167.822 87.3848 167.822 87.3848 167.445 88.115L167.069 88.8453L165.068 85.67C164.845 85.3172 165.444 84.9397 165.821 84.2095Z" fill="#8C8C8C"/>
<path d="M164.846 85.315L166.847 88.4903C166.248 88.8677 166.471 89.2205 165.872 89.5979L163.871 86.4226C164.47 86.0452 164.47 86.0452 164.846 85.315Z" fill="#888888"/>
<path d="M163.869 86.4136L165.87 89.5889C165.87 89.5889 165.87 89.5889 165.271 89.9663L163.869 86.4136Z" fill="#888888"/>
<path d="M163.269 86.7911L165.27 89.9664C164.671 90.3438 164.671 90.3438 164.072 90.7212L162.071 87.5459C162.893 87.5213 163.491 87.1439 163.269 86.7911Z" fill="#848484"/>
<path d="M161.696 88.2828L73.0557 144.14L75.0566 147.315L163.697 91.4581L161.696 88.2828Z" fill="#858585"/>
<path d="M73.0592 144.151L75.0601 147.326L74.4612 147.703C73.8623 148.081 73.8623 148.081 73.8623 148.081C73.2634 148.458 73.2634 148.458 73.2634 148.458L72.6644 148.836C72.0655 149.213 71.4666 149.59 71.4666 149.59C68.8486 150.747 66.6072 151.174 64.3657 151.6C63.7668 151.978 63.5445 151.625 63.5445 151.625L62.7233 151.65L60.5 148.122C60.5 148.122 60.5 148.122 61.3212 148.097L62.1425 148.072C64.3839 147.646 66.6253 147.219 69.2433 146.062C69.8423 145.685 69.8423 145.685 70.4412 145.307L71.0401 144.93L71.639 144.553L72.2379 144.175C73.0592 144.151 73.0592 144.151 73.0592 144.151Z" fill="#848484"/>
<path d="M162.896 87.5347L164.897 90.71C163.699 91.4648 163.699 91.4648 163.699 91.4648L161.698 88.2896C161.698 88.2896 161.698 88.2896 162.896 87.5347Z" fill="#848484"/>
<path d="M165.82 84.2028C166.419 83.8254 166.197 83.4725 165.975 83.1197C166.351 82.3895 166.129 82.0367 166.129 82.0367L183.693 109.909C184.137 110.614 183.761 111.345 182.785 112.452L165.221 84.5802L165.82 84.2028Z" fill="#919191"/>
<path d="M183.384 112.078L185.385 115.253L183.384 112.078C182.785 112.455 182.785 112.455 183.384 112.078Z" fill="#818181"/>
<path d="M182.784 112.456L184.785 115.631L184.409 116.361L182.408 113.186L182.784 112.456Z" fill="#828282"/>
<path d="M165.446 84.9394C165.224 84.5866 165.224 84.5866 165.446 84.9394L183.387 112.081L182.411 113.189L164.847 85.3169C164.847 85.3169 164.847 85.3169 165.446 84.9394Z" fill="#8D8D8D"/>
<path d="M182.41 113.185L184.411 116.361L166.248 88.8659L164.47 86.0435L182.41 113.185Z" fill="#808080"/>
<path d="M164.469 86.044L182.409 113.186L181.434 114.293L163.87 86.4214C163.87 86.4214 163.87 86.4214 164.469 86.044C163.87 86.4214 163.87 86.4214 164.469 86.044Z" fill="#888888"/>
<path d="M181.813 113.564L183.814 116.739L182.838 117.847L180.838 114.672L181.813 113.564Z" fill="#818181"/>
<path d="M180.833 114.662L182.834 117.837L182.235 118.214L181.636 118.592L179.635 115.417C179.857 115.769 180.456 115.392 180.833 114.662C180.234 115.039 180.833 114.662 180.833 114.662Z" fill="#808080"/>
<path d="M72.3711 145.448C72.9754 145.067 73.5796 144.686 74.1838 144.306L91.6235 171.981C82.5601 177.692 74.531 178.347 72.3234 174.844L54.8838 147.168C55.1045 147.519 55.1045 147.519 55.1045 147.519C55.1045 147.519 55.1045 147.519 55.3253 147.869C55.3253 147.869 55.3253 147.869 55.5461 148.219L55.7668 148.57C56.2083 149.27 57.0333 149.24 57.8583 149.209C57.8583 149.209 58.079 149.56 58.6833 149.179C58.6833 149.179 58.6833 149.179 59.5082 149.149C59.5082 149.149 59.5083 149.149 60.3332 149.118C61.1582 149.088 61.1582 149.088 61.7624 148.707L62.5874 148.677C62.5874 148.677 62.5874 148.677 63.1917 148.296C63.1917 148.296 63.1917 148.296 63.7959 147.915C63.7959 147.915 64.4001 147.534 64.6209 147.885C64.6209 147.885 65.2251 147.504 65.4458 147.854L66.0501 147.473L66.6543 147.093C67.2585 146.712 68.0835 146.681 69.292 145.92L69.8962 145.539C71.7669 145.829 71.7669 145.829 72.3711 145.448Z" fill="url(#paint0_linear_273_67277)"/>
<path fill-rule="evenodd" clip-rule="evenodd" d="M155.201 96.275L156.998 95.1427L156.998 95.1427C157.597 94.7653 157.597 94.7653 158.053 92.8334L158.652 92.456C159.353 92.0138 159.765 91.5666 160.105 91.196C160.346 90.934 160.552 90.7103 160.8 90.554L161.399 90.1766L161.998 89.7992C161.817 89.5119 162.089 89.2327 162.248 89.1037L161.698 88.2708L162.297 87.8934L162.896 87.5159L163.495 87.1385L163.775 87.583L163.899 87.5048L164.251 86.735C164.85 86.3576 164.85 86.3576 165.201 85.5879L165.201 85.5879L165.553 84.8181L165.905 84.0483C166.504 83.6709 166.256 83.2785 166.256 83.2785C166.608 82.5088 166.96 81.739 166.465 80.9543L185.009 110.381C187.481 114.305 184.421 118.288 173.689 124.092L155.201 96.275Z" fill="url(#paint1_linear_273_67277)"/>
<path d="M179.862 115.783L181.863 118.959L181.264 119.336L179.862 115.783C179.263 116.161 179.263 116.161 179.862 115.783Z" fill="#FAD9A2"/>
<path d="M90.6217 172.017L92.6227 175.192C84.2378 180.476 76.2476 181.075 74.0244 177.547L72.0234 174.372C74.2467 177.9 82.2368 177.301 90.6217 172.017Z" fill="url(#paint2_linear_273_67277)"/>
<path fill-rule="evenodd" clip-rule="evenodd" d="M73.0556 144.137L161.696 88.2802L179.26 116.152L90.6193 172.009L73.0556 144.137ZM90.6217 172.017L179.262 116.16L181.263 119.335L92.6226 175.193L90.6217 172.017Z" fill="url(#paint3_linear_273_67277)"/>
<g style="mix-blend-mode:lighten" filter="url(#filter1_f_273_67277)">
<path d="M73.3327 64.5549C78.7635 61.1327 85.0963 59.1419 89.0885 60.1261L166.143 82.0682C166.972 82.0458 167.423 82.7616 167.648 83.1195C167.648 83.1195 167.648 83.1195 167.874 83.4773L168.099 83.8352C168.325 84.1931 167.947 84.9312 167.947 84.9312C168.172 85.2891 167.569 85.6693 167.191 86.4075C166.588 86.7877 166.813 87.1456 166.21 87.5258C165.606 87.9061 165.832 88.2639 165.228 88.6442C164.625 89.0244 164.247 89.7626 164.247 89.7626C163.04 90.523 163.04 90.523 163.04 90.523L73.735 146.799L73.1315 147.18C72.5281 147.56 72.5281 147.56 72.5281 147.56C71.9247 147.94 71.9247 147.94 71.9247 147.94L71.3213 148.32C70.7179 148.701 70.1145 149.081 70.1145 149.081C67.4753 150.244 65.214 150.669 62.9527 151.094C62.3493 151.474 62.1238 151.116 62.1238 151.116L61.2949 151.139C59.637 151.183 59.4115 150.825 59.4115 150.825C56.4737 150.177 54.7427 148.768 55.8032 145.099L64.1962 76.8122C63.3734 72.8308 67.902 67.9771 73.3327 64.5549Z" fill="url(#paint4_linear_273_67277)" fill-opacity="0.6"/>
</g>
<path d="M72.4685 63.1808C77.8992 59.7586 84.232 57.7679 88.2243 58.7521L165.278 80.6942C166.107 80.6718 166.558 81.3876 166.784 81.7454C166.784 81.7454 166.784 81.7454 167.009 82.1033L167.235 82.4612C167.46 82.8191 167.082 83.5572 167.082 83.5572C167.308 83.9151 166.705 84.2953 166.327 85.0334C165.723 85.4137 165.949 85.7715 165.345 86.1518C164.742 86.532 164.967 86.8899 164.364 87.2702C163.761 87.6504 163.383 88.3885 163.383 88.3885C162.176 89.149 162.176 89.149 162.176 89.149L72.8707 145.425L72.2673 145.806C71.6639 146.186 71.6639 146.186 71.6639 146.186C71.0605 146.566 71.0605 146.566 71.0605 146.566L70.457 146.946C69.8536 147.327 69.2502 147.707 69.2502 147.707C66.611 148.87 64.3498 149.295 62.0885 149.72C61.4851 150.1 61.2595 149.742 61.2595 149.742L60.4306 149.765C58.7728 149.809 58.5472 149.451 58.5472 149.451C55.6094 148.803 53.8784 147.394 54.9389 143.725L63.3319 75.4381C62.5091 71.4568 67.0378 66.603 72.4685 63.1808Z" fill="url(#paint5_linear_273_67277)"/>
<defs>
<filter id="filter0_f_273_67277" x="76.1777" y="89.1293" width="131.574" height="110.287" filterUnits="userSpaceOnUse" color-interpolation-filters="sRGB">
<feFlood flood-opacity="0" result="BackgroundImageFix"/>
<feBlend mode="normal" in="SourceGraphic" in2="BackgroundImageFix" result="shape"/>
<feGaussianBlur stdDeviation="4.72318" result="effect1_foregroundBlur_273_67277"/>
</filter>
<filter id="filter1_f_273_67277" x="31.9001" y="36.2853" width="159.86" height="138.573" filterUnits="userSpaceOnUse" color-interpolation-filters="sRGB">
<feFlood flood-opacity="0" result="BackgroundImageFix"/>
<feBlend mode="normal" in="SourceGraphic" in2="BackgroundImageFix" result="shape"/>
<feGaussianBlur stdDeviation="11.7946" result="effect1_foregroundBlur_273_67277"/>
</filter>
<linearGradient id="paint0_linear_273_67277" x1="57.4953" y1="163.599" x2="82.4669" y2="155.713" gradientUnits="userSpaceOnUse">
<stop stop-color="#848484"/>
<stop offset="0.0001" stop-color="#D89731"/>
<stop offset="1" stop-color="#E9B43B"/>
</linearGradient>
<linearGradient id="paint1_linear_273_67277" x1="174.573" y1="107.227" x2="182.38" y2="101.348" gradientUnits="userSpaceOnUse">
<stop stop-color="#FAD9A2"/>
<stop offset="1" stop-color="#FEF9F2"/>
</linearGradient>
<linearGradient id="paint2_linear_273_67277" x1="73.9215" y1="177.384" x2="90.6827" y2="173.536" gradientUnits="userSpaceOnUse">
<stop stop-color="#DFA435"/>
<stop offset="1" stop-color="#E9B43B"/>
</linearGradient>
<linearGradient id="paint3_linear_273_67277" x1="86.6097" y1="165.55" x2="185.41" y2="106.168" gradientUnits="userSpaceOnUse">
<stop stop-color="#E8B33B"/>
<stop offset="1" stop-color="#FCDEAF"/>
</linearGradient>
<linearGradient id="paint4_linear_273_67277" x1="86.7954" y1="53.1935" x2="86.2753" y2="138.529" gradientUnits="userSpaceOnUse">
<stop stop-color="#FEBB08"/>
<stop offset="1" stop-color="#FF5C00"/>
</linearGradient>
<linearGradient id="paint5_linear_273_67277" x1="84.9024" y1="41.7228" x2="60.8459" y2="164.206" gradientUnits="userSpaceOnUse">
<stop stop-color="#F8D68D"/>
<stop offset="1" stop-color="#FDC124"/>
</linearGradient>
</defs>
</svg>
