<svg width="207" height="174" fill="none" xmlns="http://www.w3.org/2000/svg"><g filter="url(#a)"><path d="M105.028 77.949c8.091 1.624 7.555 5.04 6.727 9.165l-4.43 39.673 64.221 12.889c8.091 1.624 11.179 4.585 10.857 8.812l-2.183 10.876c-.904 4.5-5.325 5.563-13.491 4.314l-64.221-12.889a8305077.24 8305077.24 0 0 1-81.92-16.442c-8.09-1.624-11.179-4.585-10.276-9.085l2.183-10.876c.903-4.5 4.82-5.665 12.91-4.041l33.375 6.698 10.787-38.396c.904-4.5 2.592-7.295 10.177-5.773l25.284 5.075Z" fill="#0D0C38" fill-opacity=".3"/></g><path d="m184.854 108.234-.554 2.761c-.627.513-1.316 1.332-1.882 1.537l.554-2.761c.566-.206 1.193-.718 1.882-1.537Z" fill="#919191"/><path d="m182.974 109.764-.554 2.762c-.566.205-1.131.411-1.635.31l.492-2.455 1.697-.617Z" fill="#8C8C8C"/><path d="m181.276 110.384-.554 2.762c-.566.205-1.635.31-2.644.107l.555-2.761c.565-.206 1.574-.003 2.643-.108Z" fill="#888"/><path d="m178.632 110.49-.554 2.761a30.53 30.53 0 0 1-6.172-.601l.554-2.761c2.078.098 4.094.503 6.172.601ZM172.459 109.886l-.554 2.761-64.021-12.85-48.394-9.712-33.27-6.678c-8.066-1.619-11.225-4.168-10.486-7.85l.554-2.761c-.739 3.682 2.924 6.332 10.486 7.85l33.27 6.677 48.394 9.713 64.021 12.85Z" fill="#848484"/><path fill-rule="evenodd" clip-rule="evenodd" d="M91.43 92.998 27.444 80.156l-.118.588-.554-.11c-7.562-1.519-11.225-4.169-10.486-7.85L11.42 97.021l-.025.134-.466 2.323c-.74 3.682 2.42 6.231 10.485 7.85l.553.111-.003.015 63.986 12.842 48.367 9.708 33.252 6.674c.288.058.572.112.849.162l.193.039.001-.004h.001l-.002.006.504.101.005-.021.005.001-.008.022.504.101.009-.045.51.072-.016.078.504.101.024-.116c.616.072 1.202.12 1.757.145l.298.06.01-.049.01.001-.02.052.504.101-.001.002.504.101s.566-.206 1.07-.104l.044-.22h.002l-.045.224c.062-.307.566-.206.566-.206l.003-.015.498.1.054-.269c.205-.043.403-.092.593-.146l-.081.214.566-.205.035-.177c.2-.074.391-.154.574-.241l-.04.199.001-.001c.565-.205 1.192-.717 1.818-1.229h.001l.061-.307.04-.197c.451-.62.758-1.362.932-2.224l4.978-24.804.034.032.123-.614a.269.269 0 0 1-.066.129l.41-2.042c-.833 4.146-5.279 5.411-12.837 3.894l-33.252-6.674-48.367-9.708Zm83.935 44.218.005-.02.006-.001-.011.021Zm-.003.019.016-.041a9.99 9.99 0 0 0 .325-.055l-.347.126.006-.03Z" fill="url(#b)"/><g style="mix-blend-mode:lighten" filter="url(#c)"><path d="M111.601 23.312c8.091 1.624 7.556 5.04 6.728 9.166l-4.431 39.672 64.221 12.89c8.091 1.623 11.179 4.584 10.857 8.81l-2.183 10.877c-.903 4.5-5.325 5.563-13.491 4.315l-64.221-12.89-48.545-9.743L27.16 79.71c-8.09-1.624-11.179-4.584-10.275-9.085l2.182-10.876c.904-4.5 4.82-5.665 12.91-4.04l33.375 6.698L76.141 24.01c.903-4.5 2.591-7.295 10.176-5.773l25.284 5.075Z" fill="url(#d)" fill-opacity=".6"/></g><path d="M110.66 24.249c8.091 1.624 9.099 4.873 8.271 8.998l-5.974 39.84 64.221 12.89c8.091 1.623 11.179 4.584 10.856 8.81l-2.183 10.877c-.903 4.5-5.325 5.563-13.491 4.315l-64.221-12.89-48.544-9.743-33.375-6.699c-8.091-1.624-11.18-4.584-10.276-9.085l2.183-10.876c.903-4.5 4.82-5.665 12.91-4.04l33.375 6.698 10.231-39.552c.903-4.5 3.148-6.14 10.733-4.618l25.284 5.075Z" fill="url(#e)"/><defs><linearGradient id="b" x1="9.137" y1="96.464" x2="185.631" y2="136.697" gradientUnits="userSpaceOnUse"><stop stop-color="#75B6E9"/><stop offset=".051" stop-color="#ABE7FE"/><stop offset=".247" stop-color="#9ADFFB"/><stop offset=".834" stop-color="#9BDFFB"/><stop offset=".922" stop-color="#C6EFFF"/><stop offset=".977" stop-color="#7EBEEC"/></linearGradient><linearGradient id="d" x1="189.846" y1="89.517" x2="27.667" y2="79.812" gradientUnits="userSpaceOnUse"><stop stop-color="#0497FF"/><stop offset="1" stop-color="#7B00FF"/></linearGradient><linearGradient id="e" x1="188.904" y1="90.454" x2="26.726" y2="80.749" gradientUnits="userSpaceOnUse"><stop stop-color="#E7F8FF"/><stop offset="1" stop-color="#C5EFFF"/></linearGradient><filter id="a" x="1.261" y="63.557" width="190.063" height="109.506" filterUnits="userSpaceOnUse" color-interpolation-filters="sRGB"><feFlood flood-opacity="0" result="BackgroundImageFix"/><feBlend in="SourceGraphic" in2="BackgroundImageFix" result="shape"/><feGaussianBlur stdDeviation="4.449" result="effect1_foregroundBlur_421_50068"/></filter><filter id="c" x="-.399" y=".686" width="206.53" height="125.974" filterUnits="userSpaceOnUse" color-interpolation-filters="sRGB"><feFlood flood-opacity="0" result="BackgroundImageFix"/><feBlend in="SourceGraphic" in2="BackgroundImageFix" result="shape"/><feGaussianBlur stdDeviation="8.566" result="effect1_foregroundBlur_421_50068"/></filter></defs></svg>