<svg width="209" height="209" viewBox="0 0 209 209" fill="none" xmlns="http://www.w3.org/2000/svg">
<g clip-path="url(#clip0_273_67373)">
<g filter="url(#filter0_f_273_67373)">
<path d="M105.028 95.9486C113.119 97.5725 112.583 100.989 111.755 105.114L107.325 144.787L171.546 157.676C179.637 159.3 182.725 162.261 182.403 166.488L180.22 177.364C179.316 181.864 174.895 182.927 166.729 181.678C145.49 177.416 124.252 173.153 102.508 168.789C86.3259 165.541 70.1443 162.293 53.9627 159.045C42.8378 156.813 31.7129 154.58 20.588 152.347C12.4972 150.723 9.40906 147.762 10.3123 143.262L12.4952 132.386C13.3984 127.886 17.3145 126.721 25.4053 128.345L58.78 135.043L69.5675 96.647C70.4708 92.1467 72.159 89.3516 79.7442 90.874L105.028 95.9486Z" fill="#0D0C38" fill-opacity="0.3"/>
</g>
<path d="M184.854 126.234L184.3 128.995C183.673 129.508 182.984 130.327 182.418 130.532L182.972 127.771C183.538 127.565 184.165 127.053 184.854 126.234Z" fill="#919191"/>
<path d="M182.974 127.764L182.42 130.526C181.854 130.731 181.289 130.937 180.785 130.836L181.277 128.381C181.843 128.176 182.409 127.97 182.974 127.764Z" fill="#8C8C8C"/>
<path d="M181.276 128.384L180.722 131.146C180.156 131.351 179.087 131.456 178.078 131.253L178.633 128.492C179.198 128.286 180.207 128.489 181.276 128.384Z" fill="#888888"/>
<path d="M178.632 128.49L178.078 131.251C176.504 131.254 174.426 131.156 171.906 130.65L172.46 127.889C174.538 127.987 176.554 128.392 178.632 128.49Z" fill="#848484"/>
<path d="M172.459 127.886L171.905 130.647C150.732 126.398 129.56 122.148 107.884 117.798C91.7526 114.56 75.6215 111.322 59.4903 108.085C48.4001 105.859 37.3099 103.633 26.2197 101.407C18.1541 99.7882 14.9949 97.2391 15.7339 93.5573L16.2881 90.7959C15.5491 94.4777 19.2124 97.128 26.7739 98.6457C37.8641 100.872 48.9543 103.097 60.0445 105.323C76.1757 108.561 92.3069 111.799 108.438 115.036C129.61 119.286 150.782 123.535 172.459 127.886Z" fill="#848484"/>
<path fill-rule="evenodd" clip-rule="evenodd" d="M91.4298 110.998L27.4441 98.1559L27.326 98.7444L26.7717 98.6332C19.2102 97.1155 15.5469 94.4652 16.2859 90.7834L11.421 115.022C11.412 115.067 11.4036 115.111 11.3958 115.156L10.9296 117.479C10.1906 121.161 13.3498 123.71 21.4154 125.329L21.9681 125.44L21.965 125.455L85.9507 138.297L134.318 148.005L167.57 154.679C167.858 154.737 168.142 154.791 168.419 154.841L168.612 154.88L168.613 154.876L168.614 154.876L168.612 154.882L169.116 154.983L169.121 154.962L169.126 154.963L169.118 154.985L169.622 155.086L169.631 155.041C169.803 155.066 169.973 155.09 170.141 155.113L170.125 155.191L170.629 155.292L170.653 155.176C171.269 155.248 171.855 155.296 172.41 155.321L172.708 155.381L172.718 155.332L172.728 155.333L172.708 155.385L173.212 155.486L173.211 155.488L173.715 155.589C173.715 155.589 174.281 155.383 174.785 155.485L174.829 155.265L174.831 155.265L174.786 155.489C174.848 155.182 175.352 155.283 175.352 155.283L175.355 155.268L175.853 155.368L175.907 155.099C176.112 155.056 176.31 155.007 176.5 154.953L176.419 155.167L176.985 154.962L177.02 154.785C177.22 154.711 177.411 154.631 177.594 154.544L177.554 154.743L177.555 154.742C178.12 154.537 178.747 154.025 179.373 153.513L179.373 153.513L179.374 153.513L179.435 153.206L179.475 153.009C179.926 152.389 180.233 151.647 180.407 150.785L185.385 125.981C185.395 125.991 185.407 126.002 185.419 126.013L185.542 125.399C185.531 125.453 185.506 125.495 185.476 125.528L185.886 123.486C185.053 127.632 180.607 128.897 173.049 127.38L139.797 120.706L91.4298 110.998ZM175.365 155.216L175.37 155.196L175.376 155.195C175.372 155.201 175.369 155.208 175.365 155.216ZM175.362 155.235L175.378 155.194C175.488 155.177 175.597 155.159 175.703 155.139L175.356 155.265L175.362 155.235Z" fill="url(#paint0_linear_273_67373)"/>
<g style="mix-blend-mode:lighten" filter="url(#filter1_f_273_67373)">
<path d="M111.601 41.3119C119.692 42.9358 119.157 46.3524 118.329 50.4777L113.898 90.15L178.119 103.04C186.21 104.663 189.298 107.624 188.976 111.851L186.793 122.727C185.89 127.227 181.468 128.29 173.302 127.042C152.063 122.779 130.825 118.516 109.081 114.152C92.8992 110.904 76.7176 107.656 60.5359 104.409C49.411 102.176 38.2861 99.943 27.1612 97.7102C19.0704 96.0863 15.9823 93.1257 16.8856 88.6253L19.0684 77.7494C19.9717 73.2491 23.8877 72.0844 31.9786 73.7082L65.3533 80.4067L76.1408 42.0103C77.044 37.51 78.7323 34.7149 86.3174 36.2373L111.601 41.3119Z" fill="url(#paint1_linear_273_67373)" fill-opacity="0.6"/>
</g>
<path d="M110.66 42.2489C118.751 43.8728 119.759 47.1216 118.931 51.2469L112.957 91.087L177.178 103.977C185.269 105.6 188.357 108.561 188.034 112.788L185.851 123.664C184.948 128.164 180.526 129.227 172.36 127.979C151.122 123.716 129.884 119.453 108.139 115.089C91.9578 111.841 75.7762 108.593 59.5945 105.346C48.4696 103.113 37.3447 100.88 26.2198 98.6472C18.129 97.0233 15.0409 94.0627 15.9442 89.5623L18.127 78.6864C19.0303 74.1861 22.9463 73.0214 31.0372 74.6452L64.4119 81.3438L74.6432 41.7922C75.5464 37.2918 77.7908 35.6519 85.376 37.1743L110.66 42.2489Z" fill="url(#paint2_linear_273_67373)"/>
</g>
<defs>
<filter id="filter0_f_273_67373" x="1.26121" y="81.5566" width="190.063" height="109.506" filterUnits="userSpaceOnUse" color-interpolation-filters="sRGB">
<feFlood flood-opacity="0" result="BackgroundImageFix"/>
<feBlend mode="normal" in="SourceGraphic" in2="BackgroundImageFix" result="shape"/>
<feGaussianBlur stdDeviation="4.44947" result="effect1_foregroundBlur_273_67373"/>
</filter>
<filter id="filter1_f_273_67373" x="-0.399153" y="18.6863" width="206.53" height="125.974" filterUnits="userSpaceOnUse" color-interpolation-filters="sRGB">
<feFlood flood-opacity="0" result="BackgroundImageFix"/>
<feBlend mode="normal" in="SourceGraphic" in2="BackgroundImageFix" result="shape"/>
<feGaussianBlur stdDeviation="8.56628" result="effect1_foregroundBlur_273_67373"/>
</filter>
<linearGradient id="paint0_linear_273_67373" x1="9.13709" y1="114.464" x2="185.631" y2="154.697" gradientUnits="userSpaceOnUse">
<stop stop-color="#75B6E9"/>
<stop offset="0.0507196" stop-color="#ABE7FE"/>
<stop offset="0.247388" stop-color="#9ADFFB"/>
<stop offset="0.833886" stop-color="#9BDFFB"/>
<stop offset="0.922004" stop-color="#C6EFFF"/>
<stop offset="0.977146" stop-color="#7EBEEC"/>
</linearGradient>
<linearGradient id="paint1_linear_273_67373" x1="189.846" y1="107.517" x2="27.6669" y2="97.8117" gradientUnits="userSpaceOnUse">
<stop stop-color="#0497FF"/>
<stop offset="1" stop-color="#7B00FF"/>
</linearGradient>
<linearGradient id="paint2_linear_273_67373" x1="188.904" y1="108.454" x2="26.7255" y2="98.7487" gradientUnits="userSpaceOnUse">
<stop stop-color="#E7F8FF"/>
<stop offset="1" stop-color="#C5EFFF"/>
</linearGradient>
<clipPath id="clip0_273_67373">
<rect width="209" height="209" fill="white"/>
</clipPath>
</defs>
</svg>
