<svg width="70" height="70" viewBox="0 0 70 70" fill="none" xmlns="http://www.w3.org/2000/svg">
<g filter="url(#filter0_f_273_7670)">
<path d="M27.5687 10.8107C40.2101 9.00403 50.7447 15.2608 51.0645 24.7886C51.4031 34.2974 41.4141 43.4639 28.7538 45.2705C28.3024 45.3276 27.8697 45.3847 27.4182 45.4227L19.7807 56.0725L17.6362 44.7C10.4689 42.7602 5.48382 37.7966 5.25808 31.2926C4.93828 21.7838 14.9273 12.6174 27.5687 10.8107Z" fill="#26255F" fill-opacity="0.3"/>
</g>
<path d="M31.3639 59.4691L29.5956 58.8415L27.4323 47.469L29.2005 48.0776L31.3639 59.4691Z" fill="#5FBFEB"/>
<path fill-rule="evenodd" clip-rule="evenodd" d="M37.3649 13.5547L39.1332 14.1633C43.5112 13.5554 47.6453 13.8963 51.1792 14.9962L51.1913 15.0004C51.2947 15.0385 51.3982 15.0717 51.5017 15.105C51.5376 15.1166 51.5736 15.1281 51.6095 15.1399L51.8121 15.2096C51.7445 15.1848 51.677 15.162 51.6095 15.1399L50.0438 14.601C49.8388 14.5257 49.6339 14.4504 49.4289 14.3935L49.4231 14.3915C45.8865 13.2695 41.748 12.9272 37.3649 13.5547ZM27.6535 47.586L25.8852 46.9774C19.5645 44.7714 15.2754 40.055 15.0497 34.0455C14.9933 32.3149 15.2754 30.6033 15.8398 28.9297L17.6081 29.5383C17.0249 31.2118 16.7427 32.9234 16.818 34.654C17.0249 40.6826 21.3328 45.3799 27.6535 47.586ZM15.8595 28.9307L17.6278 29.5393C17.9288 28.6454 18.3426 27.7516 18.8129 26.8768L17.0446 26.2682C16.5743 27.1431 16.1793 28.0179 15.8595 28.9307ZM18.8121 26.8624L17.0438 26.2538C17.5141 25.398 18.0785 24.5422 18.7181 23.7435L18.7252 23.7459C19.4571 22.7985 20.2824 21.9077 21.1824 21.0547L22.9507 21.6632C22.0477 22.519 21.22 23.4128 20.4864 24.3637L20.4792 24.3612C19.8427 25.1761 19.2994 26.0098 18.8121 26.8624ZM22.9496 21.6589L21.1813 21.0504C22.4229 19.8903 23.8338 18.8063 25.3763 17.8554L25.8081 18.004L25.3952 17.8604C28.8377 15.7304 32.9387 14.19 37.3594 13.5624L39.1277 14.171C34.707 14.8176 30.606 16.339 27.1447 18.469L27.1395 18.4672C25.6177 19.4173 24.2086 20.5002 22.9496 21.6589Z" fill="url(#paint0_linear_273_7670)"/>
<g filter="url(#filter1_f_273_7670)">
<path d="M39.1318 14.183C51.7733 12.3763 62.3078 18.6331 62.6276 28.1609C62.9662 37.6697 52.9772 46.8362 40.317 48.6429C39.8655 48.6999 39.4328 48.757 38.9813 48.795L31.3438 59.4448L29.1993 48.0723C22.032 46.1325 17.0469 41.169 16.8212 34.6649C16.5014 25.1562 26.4904 15.9897 39.1318 14.183Z" fill="url(#paint1_linear_273_7670)" fill-opacity="0.6"/>
</g>
<path d="M39.1318 14.183C51.7733 12.3763 62.3078 18.6331 62.6276 28.1609C62.9662 37.6697 52.9772 46.8362 40.317 48.6429C39.8655 48.6999 39.4328 48.757 38.9813 48.795L31.3438 59.4448L29.1993 48.0723C22.032 46.1325 17.0469 41.169 16.8212 34.6649C16.5014 25.1562 26.4904 15.9897 39.1318 14.183Z" fill="url(#paint2_linear_273_7670)"/>
<path d="M48.6643 23.1457C49.4383 23.0351 50.086 23.6511 50.1175 24.5041C50.1491 25.3571 49.5489 26.1469 48.7749 26.2575L33.3107 28.4373C32.5367 28.5479 31.889 27.9476 31.8575 27.0788C31.8259 26.2259 32.4261 25.4361 33.2001 25.3255L48.6643 23.1457Z" fill="url(#paint3_linear_273_7670)"/>
<path d="M48.9805 23.3097C49.7545 23.1991 50.4021 23.8152 50.4337 24.6682C50.4653 25.5212 49.8651 26.3109 49.0911 26.4215L33.6268 28.6014C32.8528 28.7119 32.2052 28.1117 32.1736 27.2429C32.142 26.3899 32.7423 25.6001 33.5163 25.4896L48.9805 23.3097Z" fill="url(#paint4_linear_273_7670)"/>
<path d="M48.6643 29.6535C49.4383 29.5429 50.086 30.1589 50.1175 31.0119C50.1491 31.8649 49.5489 32.6547 48.7749 32.7653L33.3107 34.9451C32.5367 35.0557 31.889 34.4554 31.8575 33.5867C31.8259 32.7337 32.4261 31.9439 33.2001 31.8333L48.6643 29.6535Z" fill="url(#paint5_linear_273_7670)"/>
<path d="M48.9805 29.8175C49.7545 29.707 50.4021 30.323 50.4337 31.176C50.4653 32.029 49.8651 32.8188 49.0911 32.9293L33.6268 35.1092C32.8528 35.2197 32.2052 34.6195 32.1736 33.7507C32.142 32.8977 32.7423 32.1079 33.5163 31.9974L48.9805 29.8175Z" fill="url(#paint6_linear_273_7670)"/>
<path d="M48.6643 36.1249C49.4383 36.0143 50.086 36.6304 50.1175 37.4834C50.1491 38.3363 49.5489 39.1261 48.7749 39.2367L33.3107 41.4165C32.5367 41.5271 31.889 40.9269 31.8575 40.0581C31.8259 39.2051 32.4261 38.4153 33.2001 38.3047L48.6643 36.1249Z" fill="url(#paint7_linear_273_7670)"/>
<path d="M48.9805 36.2799C49.7545 36.1694 50.4021 36.7854 50.4337 37.6384C50.4653 38.4914 49.8651 39.2812 49.0911 39.3917L33.6268 41.5716C32.8528 41.6821 32.2052 41.0819 32.1736 40.2131C32.142 39.3601 32.7423 38.5703 33.5163 38.4598L48.9805 36.2799Z" fill="url(#paint8_linear_273_7670)"/>
<defs>
<filter id="filter0_f_273_7670" x="2.2506" y="7.49999" width="51.8222" height="51.5725" filterUnits="userSpaceOnUse" color-interpolation-filters="sRGB">
<feFlood flood-opacity="0" result="BackgroundImageFix"/>
<feBlend mode="normal" in="SourceGraphic" in2="BackgroundImageFix" result="shape"/>
<feGaussianBlur stdDeviation="1.50001" result="effect1_foregroundBlur_273_7670"/>
</filter>
<filter id="filter1_f_273_7670" x="10.8137" y="7.87229" width="57.8223" height="57.5726" filterUnits="userSpaceOnUse" color-interpolation-filters="sRGB">
<feFlood flood-opacity="0" result="BackgroundImageFix"/>
<feBlend mode="normal" in="SourceGraphic" in2="BackgroundImageFix" result="shape"/>
<feGaussianBlur stdDeviation="3.00001" result="effect1_foregroundBlur_273_7670"/>
</filter>
<linearGradient id="paint0_linear_273_7670" x1="33.4273" y1="13.2434" x2="33.4273" y2="47.586" gradientUnits="userSpaceOnUse">
<stop stop-color="#BFEAFE"/>
<stop offset="1" stop-color="#3990DB"/>
</linearGradient>
<linearGradient id="paint1_linear_273_7670" x1="60.4562" y1="15.0423" x2="14.685" y2="52.1352" gradientUnits="userSpaceOnUse">
<stop stop-color="#0073FF"/>
<stop offset="1" stop-color="#BB6DF5"/>
</linearGradient>
<linearGradient id="paint2_linear_273_7670" x1="50.0482" y1="13.2708" x2="34.6503" y2="59.4645" gradientUnits="userSpaceOnUse">
<stop stop-color="#E5F7FF"/>
<stop offset="1" stop-color="#C8F0FF"/>
</linearGradient>
<linearGradient id="paint3_linear_273_7670" x1="49.8636" y1="23.2908" x2="32.1722" y2="28.8983" gradientUnits="userSpaceOnUse">
<stop stop-color="#52C6F2"/>
<stop offset="1" stop-color="#0D91C4"/>
</linearGradient>
<linearGradient id="paint4_linear_273_7670" x1="50.1798" y1="23.4548" x2="32.4883" y2="29.0624" gradientUnits="userSpaceOnUse">
<stop stop-color="#A7DCFF"/>
<stop offset="1" stop-color="#1BA4D8"/>
</linearGradient>
<linearGradient id="paint5_linear_273_7670" x1="49.8636" y1="29.7986" x2="32.1722" y2="35.4061" gradientUnits="userSpaceOnUse">
<stop stop-color="#52C6F2"/>
<stop offset="1" stop-color="#0D91C4"/>
</linearGradient>
<linearGradient id="paint6_linear_273_7670" x1="50.1798" y1="29.9626" x2="32.4883" y2="35.5702" gradientUnits="userSpaceOnUse">
<stop stop-color="#A7DCFF"/>
<stop offset="1" stop-color="#1BA4D8"/>
</linearGradient>
<linearGradient id="paint7_linear_273_7670" x1="49.8636" y1="36.27" x2="32.1722" y2="41.8776" gradientUnits="userSpaceOnUse">
<stop stop-color="#52C6F2"/>
<stop offset="1" stop-color="#0D91C4"/>
</linearGradient>
<linearGradient id="paint8_linear_273_7670" x1="50.1798" y1="36.4251" x2="32.4883" y2="42.0326" gradientUnits="userSpaceOnUse">
<stop stop-color="#A7DCFF"/>
<stop offset="1" stop-color="#1BA4D8"/>
</linearGradient>
</defs>
</svg>
