<svg width="70" height="70" viewBox="0 0 70 70" fill="none" xmlns="http://www.w3.org/2000/svg">
<g filter="url(#filter0_f_273_6649)">
<path fill-rule="evenodd" clip-rule="evenodd" d="M7.32164 8.6805C7.2897 8.68689 7.25776 8.69327 7.21944 8.69327C7.14279 8.69327 7.06615 8.71882 7.01505 8.74437C6.24859 8.97431 5.60987 9.81742 5.43103 11.4014C5.43103 11.5036 5.45658 11.6314 5.48213 11.7591L13.6833 46.5309C13.9899 46.7609 14.3475 46.863 14.7052 46.812C14.7435 46.7992 14.7819 46.7928 14.8202 46.7864C14.8585 46.78 14.8968 46.7736 14.9352 46.7609C15.3184 46.6331 15.7016 46.3776 16.0082 45.9177L24.056 34.242L24.1327 34.1398L24.1417 34.1268L37.2151 47.813H37.3173C37.3547 47.813 37.3784 47.7856 37.4085 47.7509C37.4195 47.7382 37.4313 47.7245 37.445 47.7108L41.5073 41.8346C41.5839 41.7324 41.5839 41.5536 41.5073 41.4514L28.503 27.8083L27.3457 29.48L28.5015 27.8037L36.626 16.0258C37.0092 15.4637 37.1625 14.825 37.137 14.2373C37.0859 13.3687 36.626 12.6533 35.8596 12.5511L7.60267 8.66772H7.42383C7.38551 8.66772 7.35357 8.67411 7.32164 8.6805Z" fill="#1C1B49" fill-opacity="0.3"/>
</g>
<path d="M50.1562 55.113L47.7546 54.2954H47.7802L50.1562 55.113Z" fill="#924F0D"/>
<path d="M50.1562 55.113L47.7546 54.2954L50.1562 55.113Z" fill="#94510E"/>
<path d="M49.9526 55.1094L47.551 54.2918C47.5255 54.2918 47.4999 54.2663 47.4744 54.2407L49.8759 55.0583C49.9015 55.0838 49.927 55.0838 49.9526 55.1094Z" fill="#FCEED0"/>
<path d="M50.16 55.1334L47.7584 54.2903L34.6775 40.5962L37.0791 41.4393L50.16 55.1334Z" fill="#FCEED0"/>
<path d="M49.8759 55.0583L47.4744 54.2407L47.6788 54.2918L50.0803 55.1094L49.8759 55.0583Z" fill="#FCEED0"/>
<path d="M49.8776 55.0384L47.476 54.2208L34.5995 40.7056L37.0011 41.5487L49.8776 55.0384Z" fill="#E7B15E"/>
<path d="M50.1351 55.1103C50.1606 55.1103 50.1606 55.1359 50.1862 55.1359L49.9818 55.0848C49.9562 55.0848 49.9307 55.0592 49.9052 55.0337L50.1095 55.0848C50.1095 55.0848 50.1095 55.1103 50.1351 55.1103C50.1095 55.1103 50.1095 55.1103 50.1351 55.1103C50.1095 55.1103 50.1095 55.1103 50.1351 55.1103C50.1095 55.1103 50.1095 55.1103 50.1351 55.1103Z" fill="#95510E"/>
<path d="M48.7828 19.8122L46.3812 18.9946C46.4579 18.9946 46.5345 19.0202 46.5856 19.0457L48.9872 19.8633C48.9361 19.8377 48.8595 19.8377 48.7828 19.8122Z" fill="#A45911"/>
<path d="M20.5504 15.9642L18.1488 15.1211L46.3801 19.0045L48.7817 19.8221L20.5504 15.9642Z" fill="#A55A11"/>
<path d="M48.5777 19.7848L46.1761 18.9673L46.3805 19.0184L48.7821 19.8359L48.5777 19.7848Z" fill="#FCEED0"/>
<path d="M48.6768 19.7848L46.2753 18.9673L46.4797 19.0184L48.8812 19.8359L48.6768 19.7848Z" fill="#FCEED0"/>
<path d="M48.6803 19.7575L46.2787 18.9399H46.3042L48.6803 19.7575C48.7058 19.7575 48.6803 19.7575 48.6803 19.7575Z" fill="#FCEED0"/>
<path d="M48.8799 19.8937L48.6741 19.8423H48.6998L48.9057 19.8937H48.8799Z" fill="#A15710"/>
<path d="M48.5743 19.7575L46.1727 18.9399C46.1983 18.9399 46.2494 18.9399 46.2749 18.9655L48.6765 19.783C48.651 19.783 48.5999 19.7575 48.5743 19.7575Z" fill="#97520E"/>
<path d="M37.0791 41.4061L34.6775 40.563L39.0463 34.2524L41.4479 35.07L37.0791 41.4061Z" fill="#A25811"/>
<path d="M37.0784 41.4165L50.0827 55.0595L49.8783 55.0084L37.0017 41.5187L37.0784 41.4165Z" fill="#E7B15E"/>
<path d="M37.0011 41.5415L34.5995 40.6984L34.6761 40.5962L37.0777 41.4393L37.0011 41.5415Z" fill="#FCEED0"/>
<path d="M27.0684 54.0739L24.6669 53.2563C24.6924 53.2563 24.718 53.2819 24.7435 53.2819L27.1451 54.0995C27.1195 54.0739 27.094 54.0739 27.0684 54.0739Z" fill="#FCEED0"/>
<path d="M27.0684 54.0739L24.6669 53.2563C24.6924 53.2563 24.718 53.2819 24.7435 53.2819L27.1451 54.0995C27.1195 54.0739 27.094 54.0739 27.0684 54.0739Z" fill="#FCEED0"/>
<path d="M27.0347 54.0049L24.6331 53.1873C24.5054 53.1362 24.3521 53.0596 24.2499 52.9829L26.6515 53.8005C26.7537 53.8771 26.8814 53.9538 27.0347 54.0049Z" fill="#94510E"/>
<path d="M27.0684 54.0192L24.6669 53.2017L27.0684 54.0192C27.0684 54.0448 27.0684 54.0448 27.0684 54.0192Z" fill="#924F0D"/>
<path d="M27.0684 54.0375L24.6669 53.22C24.6924 53.22 24.718 53.2455 24.7435 53.2455L27.1451 54.0631C27.1195 54.0375 27.094 54.0375 27.0684 54.0375Z" fill="#FCEED0"/>
<path d="M27.0377 54.0192L24.6361 53.2017H24.6617L27.0377 54.0192C27.0632 54.0192 27.0377 54.0192 27.0377 54.0192Z" fill="#924F0D"/>
<path d="M27.0377 54.0192L24.6361 53.2017L27.0377 54.0192Z" fill="#924F0D"/>
<path d="M26.8105 53.9604L24.4089 53.1428C23.949 52.9896 23.5658 52.5808 23.4125 51.9165L25.8141 52.7341C25.9929 53.3983 26.3506 53.8071 26.8105 53.9604Z" fill="#FCEED0"/>
<path d="M25.8346 52.725L23.433 51.9075L23.6374 51.9586L26.039 52.7761L25.8346 52.725Z" fill="#FCEED0"/>
<path d="M20.318 15.9642L17.9164 15.1211L18.1463 15.1722L20.5479 16.0153L20.318 15.9642Z" fill="#FCEED0"/>
<path d="M19.9404 16.0607L17.5643 15.2176C17.641 15.1921 17.7176 15.1921 17.7687 15.1665L20.1703 15.9841C20.0937 16.0096 20.017 16.0352 19.9404 16.0607Z" fill="#A45911"/>
<path d="M19.7301 15.9642L17.3285 15.1211L17.5584 15.1722L19.9345 16.0153L19.7301 15.9642Z" fill="#FCEED0"/>
<path fill-rule="evenodd" clip-rule="evenodd" d="M17.9198 15.0938L20.3214 15.9369L48.5783 19.7947L46.1767 18.9772L17.9198 15.0938ZM20.3209 15.9687L48.5778 19.8266L48.7822 19.8777L20.5508 16.0198L20.3209 15.9687ZM48.7042 19.8306L46.3026 19.013L46.507 19.0641L48.9086 19.8817L48.7042 19.8306ZM49.0169 19.8853L46.6154 19.0677H46.6409L49.0425 19.8853H49.0169ZM48.8207 19.8842L48.6827 19.8497C48.6571 19.8497 48.606 19.8242 48.606 19.8242L48.8104 19.8753C48.8122 19.877 48.8139 19.8786 48.8157 19.8802C48.8173 19.8816 48.819 19.883 48.8207 19.8842ZM48.8871 19.9008L48.8207 19.8842C48.8428 19.9008 48.865 19.9008 48.8871 19.9008Z" fill="url(#paint0_linear_273_6649)"/>
<path d="M18.4242 19.0214L16.0227 18.2039C15.9971 18.0761 15.9716 17.9484 15.9716 17.8462L18.3731 18.6638C18.3731 18.7659 18.3987 18.8937 18.4242 19.0214Z" fill="#94510E"/>
<path fill-rule="evenodd" clip-rule="evenodd" d="M16.0325 18.3103L16.0262 18.2837L18.1994 19.0235L18.1949 19.0037L18.4249 19.0548L18.6008 19.8347L26.5856 53.6893L26.6295 53.7332C26.6295 53.7332 26.6551 53.7332 26.6551 53.7588C26.6679 53.7588 26.6742 53.7652 26.6806 53.7715C26.687 53.7779 26.6934 53.7843 26.7062 53.7843C26.7062 53.7843 26.7317 53.7843 26.7317 53.8099C26.7445 53.8099 26.7509 53.8163 26.7573 53.8226C26.7637 53.829 26.7701 53.8354 26.7828 53.8354C26.7828 53.8354 26.8084 53.8354 26.8084 53.861C26.8212 53.861 26.8339 53.8673 26.8467 53.8737C26.8595 53.8801 26.8722 53.8865 26.885 53.8865H26.9106C26.9872 54.0398 27.0128 54.0398 27.0639 54.0398C27.0766 54.0398 27.0894 54.0462 27.1022 54.0526C27.1069 54.0549 27.1115 54.0573 27.1162 54.0593L26.9361 54.0143C26.7964 53.9793 26.6625 53.9215 26.5384 53.8413L26.48 53.8208C26.5782 53.8898 26.6835 53.9437 26.795 53.9825L24.4089 53.1702C23.949 53.0169 23.5658 52.6081 23.4125 51.9439L23.426 51.9485L15.7938 18.229L16.0325 18.3103ZM27.1405 54.0654L27.1162 54.0593C27.1243 54.0628 27.1324 54.0654 27.1405 54.0654Z" fill="url(#paint1_linear_273_6649)"/>
<path d="M18.1954 19.0192L15.7938 18.2017L16.0238 18.2528L18.4253 19.0703L18.1954 19.0192Z" fill="#FCEED0"/>
<path d="M19.0875 16.3651L16.6859 15.522L16.8903 15.5731L19.2919 16.3906L19.0875 16.3651Z" fill="#96510E"/>
<path d="M18.7833 16.6313L16.3817 15.8137L16.6117 15.8648L19.0132 16.6824L18.7833 16.6313Z" fill="#95510E"/>
<g style="mix-blend-mode:lighten" filter="url(#filter1_f_273_6649)">
<path fill-rule="evenodd" clip-rule="evenodd" d="M20.2616 16.0269C20.2296 16.0333 20.1977 16.0397 20.1594 16.0397C20.0827 16.0397 20.0061 16.0653 19.955 16.0908C19.1885 16.3207 18.5498 17.1639 18.371 18.7479C18.371 18.8501 18.3965 18.9778 18.4221 19.1056L26.6232 53.8774C26.9298 54.1073 27.2875 54.2095 27.6452 54.1584C27.6835 54.1456 27.7218 54.1392 27.7601 54.1328C27.7984 54.1264 27.8368 54.1201 27.8751 54.1073C28.2583 53.9795 28.6416 53.7241 28.9481 53.2642L36.996 41.5884L37.0726 41.4862L37.094 41.4552L50.1583 55.1319H50.2605C50.2979 55.1319 50.3216 55.1045 50.3517 55.0698C50.3627 55.0571 50.3745 55.0434 50.3882 55.0297L54.4505 49.1535C54.5271 49.0513 54.5271 48.8725 54.4505 48.7703L41.4526 35.134L49.566 23.3722C49.9492 22.8101 50.1025 22.1714 50.0769 21.5838C50.0258 20.7151 49.566 19.9998 48.7995 19.8976L20.5426 16.0142H20.3638C20.3254 16.0142 20.2935 16.0205 20.2616 16.0269Z" fill="url(#paint2_linear_273_6649)"/>
</g>
<path fill-rule="evenodd" clip-rule="evenodd" d="M20.2616 16.0269C20.2296 16.0333 20.1977 16.0397 20.1594 16.0397C20.0827 16.0397 20.0061 16.0653 19.955 16.0908C19.1885 16.3207 18.5498 17.1639 18.371 18.7479C18.371 18.8501 18.3965 18.9778 18.4221 19.1056L26.6232 53.8774C26.9298 54.1073 27.2875 54.2095 27.6452 54.1584C27.6835 54.1456 27.7218 54.1392 27.7601 54.1328C27.7984 54.1264 27.8368 54.1201 27.8751 54.1073C28.2583 53.9795 28.6416 53.7241 28.9481 53.2642L36.996 41.5884L37.0726 41.4862L37.094 41.4552L50.1583 55.1319H50.2605C50.2979 55.1319 50.3216 55.1045 50.3517 55.0698C50.3627 55.0571 50.3745 55.0434 50.3882 55.0297L54.4505 49.1535C54.5271 49.0513 54.5271 48.8725 54.4505 48.7703L41.4526 35.134L49.566 23.3722C49.9492 22.8101 50.1025 22.1714 50.0769 21.5838C50.0258 20.7151 49.566 19.9998 48.7995 19.8976L20.5426 16.0142H20.3638C20.3254 16.0142 20.2935 16.0205 20.2616 16.0269Z" fill="url(#paint3_linear_273_6649)"/>
<path d="M18.5458 16.9666L16.1698 16.1235L16.3742 16.1746L18.7758 17.0177L18.5458 16.9666Z" fill="#94500E"/>
<path d="M18.3749 17.3239L15.9989 16.5063L16.2033 16.5574L18.6049 17.375L18.3749 17.3239Z" fill="#93500D"/>
<path d="M18.3783 17.3239L16.0023 16.5063L18.3783 17.3239C18.4039 17.3239 18.3783 17.3239 18.3783 17.3239Z" fill="#FCEED0"/>
<path d="M18.2501 17.6703L15.8485 16.8528L16.0529 16.9039L18.4545 17.7214L18.2501 17.6703Z" fill="#FCEED0"/>
<path fill-rule="evenodd" clip-rule="evenodd" d="M17.3344 15.0481L17.3344 15.0481L17.3344 15.0481H17.3344L17.4119 15.0745C17.4169 15.0739 17.4221 15.0736 17.4277 15.0736H17.4532C17.4788 15.0736 17.5043 15.0736 17.5299 15.0481H17.6065H17.6321H17.6832H17.7087H17.8109H17.8365H17.9131L18.0737 15.1028H18.1458L20.5474 15.9203H20.3685C20.2919 15.9203 20.2152 15.9203 20.1641 15.9459L20.1136 15.9287C20.1079 15.945 20.0859 15.945 20.0638 15.945C20.0383 15.945 20.0191 15.9514 20 15.9578C19.9808 15.9642 19.9616 15.9706 19.9361 15.9706L19.8911 15.9593L19.8856 15.9608L19.9391 15.9742C19.7091 16.0508 19.5048 16.1786 19.3004 16.3319L19.2996 16.3317C19.2233 16.4079 19.1471 16.4843 19.0708 16.586L19.0538 16.5802C19.0233 16.6209 18.9932 16.6619 18.9649 16.7048L18.9647 16.7089L18.9577 16.7159C18.9236 16.7687 18.8926 16.8245 18.8675 16.8862L18.8684 16.8865C18.7662 17.0653 18.6895 17.2442 18.6385 17.4486L18.6229 17.4431C18.5029 17.7902 18.4297 18.1619 18.3804 18.5813L18.3502 18.571V18.6148C18.3502 18.7425 18.3757 18.8703 18.4013 18.9725L18.2046 18.9233C18.206 18.9309 18.2074 18.9384 18.2089 18.946L15.8073 18.1284C15.7818 18.0007 15.7562 17.8729 15.7562 17.7707V17.6685V17.643V17.5408V17.5152V17.413V17.3875V17.3364V17.3108V17.2853V17.2087V17.1831C15.7562 17.1576 15.7562 17.1065 15.7818 17.0809C15.8073 16.9787 15.8329 16.9021 15.8584 16.8254L16.1283 16.9173C16.1284 16.9167 16.1286 16.9161 16.1288 16.9154L15.8489 16.8202C15.8543 16.8042 15.8596 16.7893 15.8647 16.7751C15.884 16.7211 15.9 16.6764 15.9 16.6158L15.9108 16.6194C15.9206 16.592 15.9304 16.5675 15.9402 16.543C15.953 16.5111 15.9658 16.4791 15.9786 16.4408V16.4153L16.0243 16.4308C16.0519 16.3652 16.091 16.2916 16.1301 16.233L16.1334 16.2341C16.1364 16.2214 16.1448 16.2079 16.1554 16.1906L16.1554 16.1906C16.1638 16.1771 16.1735 16.1614 16.1833 16.1418L16.3962 16.2174C16.4058 16.1961 16.4155 16.1753 16.4251 16.1548L16.1839 16.0692C16.2166 16.0037 16.2599 15.9487 16.3002 15.8974L16.3002 15.8974L16.3002 15.8974L16.3002 15.8974C16.3228 15.8687 16.3444 15.8412 16.3627 15.8137L16.5734 15.8854L16.5753 15.8823L16.3633 15.8101C16.3633 15.8101 16.3798 15.7937 16.3863 15.774L16.3753 15.7702C16.4136 15.7319 16.4456 15.6936 16.4775 15.6552C16.5094 15.6169 16.5414 15.5786 16.5797 15.5403L16.6132 15.5517C16.6357 15.5297 16.6607 15.5076 16.7048 15.4856L16.8702 15.5419L16.8992 15.5129L16.8992 15.5129L19.0855 16.2572L19.0915 16.2512L19.1246 16.2595L19.1433 16.2458L16.8948 15.4803C16.9038 15.4714 16.9132 15.4624 16.9228 15.4534L16.6932 15.3728C16.7698 15.2961 16.8464 15.245 16.9486 15.1939L16.986 15.2067C17.1022 15.141 17.2183 15.0946 17.3344 15.0481ZM19.9304 15.8737C19.9241 15.8766 19.9179 15.8805 19.9116 15.8859C19.9179 15.883 19.9241 15.8791 19.9304 15.8737ZM19.8804 15.8912H19.8959C19.8871 15.8932 19.8783 15.8937 19.8695 15.8939L19.8804 15.8912Z" fill="url(#paint4_linear_273_6649)"/>
<defs>
<filter id="filter0_f_273_6649" x="3.53311" y="6.7698" width="39.9296" height="42.9411" filterUnits="userSpaceOnUse" color-interpolation-filters="sRGB">
<feFlood flood-opacity="0" result="BackgroundImageFix"/>
<feBlend mode="normal" in="SourceGraphic" in2="BackgroundImageFix" result="shape"/>
<feGaussianBlur stdDeviation="0.948961" result="effect1_foregroundBlur_273_6649"/>
</filter>
<filter id="filter1_f_273_6649" x="15.8865" y="13.5297" width="41.106" height="44.0867" filterUnits="userSpaceOnUse" color-interpolation-filters="sRGB">
<feFlood flood-opacity="0" result="BackgroundImageFix"/>
<feBlend mode="normal" in="SourceGraphic" in2="BackgroundImageFix" result="shape"/>
<feGaussianBlur stdDeviation="1.24225" result="effect1_foregroundBlur_273_6649"/>
</filter>
<linearGradient id="paint0_linear_273_6649" x1="47.9438" y1="19.9519" x2="19.7075" y2="15.4831" gradientUnits="userSpaceOnUse">
<stop stop-color="#FCEED0"/>
<stop offset="1" stop-color="#E4AB53"/>
</linearGradient>
<linearGradient id="paint1_linear_273_6649" x1="16.8927" y1="18.2035" x2="26.1992" y2="53.8157" gradientUnits="userSpaceOnUse">
<stop stop-color="#EAB461"/>
<stop offset="1" stop-color="#BF852D"/>
</linearGradient>
<linearGradient id="paint2_linear_273_6649" x1="28.3687" y1="11.8928" x2="54.5376" y2="65.0287" gradientUnits="userSpaceOnUse">
<stop stop-color="#FF8A00"/>
<stop offset="1" stop-color="#FF6C3D"/>
</linearGradient>
<linearGradient id="paint3_linear_273_6649" x1="36.4395" y1="16.0142" x2="45.4949" y2="59.7051" gradientUnits="userSpaceOnUse">
<stop stop-color="#F8D68D"/>
<stop offset="1" stop-color="#FDC024"/>
</linearGradient>
<linearGradient id="paint4_linear_273_6649" x1="19.7064" y1="15.1755" x2="17.4131" y2="20.2722" gradientUnits="userSpaceOnUse">
<stop stop-color="#DA9B38"/>
<stop offset="0.405122" stop-color="#FBCF8C"/>
<stop offset="1" stop-color="#DB9D3C"/>
</linearGradient>
</defs>
</svg>
