<svg width="70" height="70" viewBox="0 0 70 70" fill="none" xmlns="http://www.w3.org/2000/svg">
<g clip-path="url(#clip0_273_7283)">
<g filter="url(#filter0_f_273_7283)">
<path fill-rule="evenodd" clip-rule="evenodd" d="M33.7962 16.4079C32.6966 8.51088 26.7239 3.13794 19.7766 4.11256C12.8042 5.08719 7.30633 12.0845 6.75654 20.2064C6.74057 20.414 6.7297 20.6217 6.72312 20.8301C6.72962 20.6142 6.74069 20.3991 6.75723 20.1841L6.53232 20.2091C3.58345 20.6089 1.28433 23.6077 1.40928 26.8815L2.10901 46.5739C2.20897 49.8477 4.70802 52.1718 7.65689 51.747L35.1214 47.8734C38.0702 47.4736 40.3693 44.4748 40.2444 41.201L39.5447 21.5086C39.4447 18.2348 36.9457 15.9107 33.9968 16.3355L33.7969 16.3855C33.8968 17.0103 33.9468 17.66 33.9718 18.3348V18.3662C33.9713 18.3627 33.9711 18.3597 33.9711 18.3571C33.9461 17.6824 33.8961 17.0326 33.7962 16.4079ZM30.4936 16.836C29.4866 11.1251 25.068 7.28726 19.9515 8.01107C14.8349 8.73488 10.7154 13.7711 10.1324 19.709L30.4936 16.836ZM10.0553 21.6646C10.0553 21.6783 10.0553 21.6921 10.0553 21.7058C10.0553 21.7091 10.0555 21.7131 10.056 21.7178V21.6835C10.0557 21.6772 10.0555 21.6709 10.0553 21.6646Z" fill="#1A194A" fill-opacity="0.3"/>
</g>
<path d="M49.3877 26.1607L47.0386 25.361C47.0386 25.286 47.0386 25.1861 47.0386 25.1111C47.0136 24.4364 46.9636 23.7866 46.8636 23.1619L49.2127 23.9616C49.3127 24.5863 49.3627 25.2361 49.3877 25.9108C49.3877 25.9858 49.3877 26.0608 49.3877 26.1607Z" fill="#858585"/>
<path d="M49.0943 26.1543L46.7452 25.3546C46.8202 25.3546 46.9202 25.3296 46.9951 25.3296L49.3442 26.1293C49.2693 26.1293 49.1943 26.1293 49.0943 26.1543Z" fill="#9E9E9E"/>
<path fill-rule="evenodd" clip-rule="evenodd" d="M47.0663 23.0844L49.4154 23.8841C50.1401 23.7841 50.8398 23.8341 51.4646 24.034L49.1155 23.2343C48.4658 23.0344 47.791 22.9844 47.0663 23.0844ZM49.1156 23.2257L51.4647 24.0254C51.4866 24.0363 51.5085 24.0425 51.5284 24.0481C51.5537 24.0552 51.5756 24.0613 51.5897 24.0754L49.2406 23.2757C49.2156 23.2632 49.1968 23.2569 49.1781 23.2507C49.1594 23.2444 49.1406 23.2382 49.1156 23.2257Z" fill="#D14043"/>
<path d="M49.2071 23.9478L46.858 23.1481L47.058 23.0981L49.4071 23.9228L49.2071 23.9478Z" fill="#A6A6A6"/>
<path d="M49.3877 26.1607L47.0386 25.361C47.0386 25.286 47.0386 25.1861 47.0386 25.1111C47.0136 24.4364 46.9636 23.7866 46.8636 23.1619L49.2127 23.9616C49.3127 24.5863 49.3627 25.2361 49.3877 25.9108C49.3877 25.9858 49.3877 26.0608 49.3877 26.1607Z" fill="#858585"/>
<path d="M46.0771 26.5995L43.728 25.7998L46.7519 25.375L49.101 26.1747L46.0771 26.5995Z" fill="#A6A6A6"/>
<path d="M46.0801 26.5446L43.731 25.7449C43.731 25.6699 43.731 25.5949 43.731 25.495C43.706 24.8202 43.6311 24.1705 43.5311 23.5457C42.8064 19.3723 40.2574 16.1985 36.9586 15.074L39.3077 15.8737C42.6314 17.0232 45.1555 20.197 45.8802 24.3454C45.9802 24.9702 46.0551 25.6199 46.0801 26.2947C46.0801 26.3946 46.0801 26.4696 46.0801 26.5446Z" fill="#D14043"/>
<path d="M25.4368 29.5102L23.0877 28.7105C23.0877 28.6355 23.0877 28.5605 23.0877 28.4606C23.0628 27.7858 23.0877 27.1361 23.1627 26.4863L25.5118 27.286C25.4368 27.9358 25.4368 28.6105 25.4368 29.2603C25.4368 29.3602 25.4368 29.4352 25.4368 29.5102Z" fill="#858585"/>
<path d="M25.4368 29.5102L23.0877 28.7105C23.0877 28.6355 23.0877 28.5605 23.0877 28.4606C23.0628 27.7858 23.0877 27.1361 23.1627 26.4863L25.5118 27.286C25.4368 27.9358 25.4368 28.6105 25.4368 29.2603C25.4368 29.3602 25.4368 29.4352 25.4368 29.5102Z" fill="#858585"/>
<path d="M25.3356 27.5655L23.1364 26.391L43.5285 23.5171L45.8776 24.3418L25.3356 27.5655Z" fill="url(#paint0_linear_273_7283)"/>
<path d="M23.4419 29.7286L21.0928 28.9289L23.092 28.6541L25.4411 29.4537L23.4419 29.7286Z" fill="#A6A6A6"/>
<path d="M22.1565 30.1201L19.8074 29.3204C20.2072 29.1455 20.6321 29.0205 21.0819 28.9456L23.431 29.7453C22.9812 29.8202 22.5563 29.9452 22.1565 30.1201Z" fill="#9E9E9E"/>
<path fill-rule="evenodd" clip-rule="evenodd" d="M35.1476 11.6248L35.1907 11.6394C36.7165 11.4183 38.1835 11.5103 39.5745 11.8633L40.1177 12.0482L40.1177 12.0482L40.1414 12.0541L40.4176 12.1481C40.3255 12.1021 40.2334 12.0773 40.1414 12.0541L39.5995 11.8696C39.7721 11.9139 39.9436 11.9621 40.1138 12.0143L37.7647 11.2146C36.2498 10.7428 34.5869 10.5917 32.8739 10.8351L32.8307 10.8204C31.0814 11.0703 29.432 11.6951 27.9326 12.6197L30.2817 13.4194C31.7719 12.5005 33.4102 11.8777 35.1476 11.6248ZM22.1866 30.0945L19.8375 29.2948C19.8375 29.2164 19.8307 29.138 19.8242 29.0632C19.8182 28.9949 19.8126 28.9296 19.8126 28.87C19.7876 28.1952 19.7876 27.5455 19.8375 26.8957C19.9562 25.1871 20.5256 22.1941 20.9037 21.6826L20.888 21.6773C21.2628 20.6277 21.7127 19.6031 22.2375 18.6534L24.5866 19.4531C24.0618 20.4277 23.6119 21.4274 23.2371 22.4769L22.9555 22.3811L23.2612 22.4974C22.6865 24.1468 22.3116 25.8961 22.1866 27.6954C22.1367 28.3452 22.1367 28.9949 22.1617 29.6697C22.1617 29.8196 22.1617 29.9695 22.1866 30.0945ZM24.5879 19.4364L22.2388 18.6367C22.6887 17.8121 23.2135 17.0373 23.7882 16.3126L23.8126 16.3209C24.3556 15.6337 24.9699 14.9714 25.5843 14.3817L25.6148 14.3921C26.3376 13.7198 27.1102 13.1221 27.9324 12.6238L30.2815 13.4235C29.4568 13.9233 28.6821 14.5231 27.9574 15.1978L27.9272 15.1876C27.3045 15.8104 26.682 16.4582 26.134 17.1556L26.1097 17.1473C25.5465 17.8628 25.0551 18.6496 24.5879 19.4364Z" fill="url(#paint1_linear_273_7283)"/>
<path d="M21.9612 27.7119L19.6121 26.9122L19.812 26.8872L22.1611 27.6869L21.9612 27.7119Z" fill="#C53C3C"/>
<g style="mix-blend-mode:lighten" filter="url(#filter1_f_273_7283)">
<path fill-rule="evenodd" clip-rule="evenodd" d="M49.2008 23.9494C48.1012 16.0524 42.1285 10.6794 35.1811 11.6541C28.2088 12.6287 22.7109 19.626 22.1611 27.7479C22.1596 27.7679 22.1581 27.788 22.1567 27.8081L21.9375 27.8324C18.9886 28.2323 16.6895 31.2311 16.8144 34.5048L17.5142 54.1973C17.6141 57.471 20.1132 59.7951 23.062 59.3703L50.5265 55.4968C53.4754 55.097 55.7745 52.0981 55.6495 48.8244L54.9498 29.1319C54.8498 25.8582 52.3508 23.5341 49.4019 23.9589L49.2098 24.0069C49.2069 23.9877 49.2038 23.9685 49.2008 23.9494ZM46.1014 26.3609C46.1018 26.3562 46.102 26.3521 46.102 26.3484C46.077 25.6737 46.002 25.0239 45.902 24.3992C44.9024 18.6764 40.4791 14.8279 35.3561 15.5526C30.233 16.2773 26.1096 21.3254 25.5348 27.2731C25.5115 27.4758 25.4954 27.681 25.4843 27.887C25.4975 27.7018 25.5148 27.5172 25.5361 27.3326L45.9033 24.4587C46.0009 25.0689 46.0747 25.703 46.1014 26.3609ZM22.1359 29.7398C22.1361 29.7335 22.1361 29.7275 22.1361 29.7221C22.1315 29.5965 22.1277 29.4718 22.1249 29.3477C22.1275 29.4776 22.1312 29.6083 22.1359 29.7398Z" fill="url(#paint2_linear_273_7283)"/>
</g>
<path fill-rule="evenodd" clip-rule="evenodd" d="M49.2008 23.9494C48.1012 16.0524 42.1285 10.6794 35.1811 11.6541C28.2088 12.6287 22.7109 19.626 22.1611 27.7479C22.1596 27.7679 22.1581 27.788 22.1567 27.8081L21.9375 27.8324C18.9886 28.2323 16.6895 31.2311 16.8144 34.5048L17.5142 54.1973C17.6141 57.471 20.1132 59.7951 23.062 59.3703L50.5265 55.4968C53.4754 55.097 55.7745 52.0981 55.6495 48.8244L54.9498 29.1319C54.8498 25.8582 52.3508 23.5341 49.4019 23.9589L49.2098 24.0069C49.2069 23.9877 49.2038 23.9685 49.2008 23.9494ZM46.1014 26.3609C46.1018 26.3562 46.102 26.3521 46.102 26.3484C46.077 25.6737 46.002 25.0239 45.902 24.3992C44.9024 18.6764 40.4791 14.8279 35.3561 15.5526C30.233 16.2773 26.1096 21.3254 25.5348 27.2731C25.5115 27.4758 25.4954 27.681 25.4843 27.887C25.4975 27.7018 25.5148 27.5172 25.5361 27.3326L45.9033 24.4587C46.0009 25.0689 46.0747 25.703 46.1014 26.3609ZM22.1359 29.7398C22.1361 29.7335 22.1361 29.7275 22.1361 29.7221C22.1315 29.5965 22.1277 29.4718 22.1249 29.3477C22.1275 29.4776 22.1312 29.6083 22.1359 29.7398Z" fill="url(#paint3_linear_273_7283)"/>
<path fill-rule="evenodd" clip-rule="evenodd" d="M19.8779 28.4601L19.9159 28.473C20.5407 28.0981 21.2154 27.8232 21.9401 27.7233L19.591 26.9236C18.8825 27.0213 18.2218 27.2862 17.6088 27.6483L17.5669 27.634C17.217 27.8589 16.9171 28.0838 16.6172 28.3587L18.9663 29.1584C19.2545 28.8943 19.5657 28.6763 19.8779 28.4601ZM15.9225 29.1461C16.1448 28.875 16.3674 28.6279 16.6145 28.3809L18.9636 29.1806C18.7144 29.4297 18.4901 29.6788 18.2659 29.9527C18.0677 30.2253 17.8697 30.4982 17.6963 30.8203L17.6829 30.8158C17.4891 31.1819 17.3422 31.5251 17.1953 31.8923L14.8462 31.0926C14.9712 30.7178 15.1461 30.3429 15.3461 29.993L15.3605 29.9979C15.5302 29.7092 15.7224 29.421 15.9149 29.1557L15.9147 29.1556L15.9169 29.153L15.922 29.146L15.9225 29.1461ZM16.8188 34.4121L16.8175 34.4116L17.5165 54.1079L15.1674 53.3082L14.4677 33.5908L14.4691 33.5912C14.4467 32.724 14.5719 31.8818 14.8445 31.1133L17.1936 31.913C16.9187 32.7127 16.7938 33.5624 16.8188 34.4121ZM18.5376 58.3194L20.8867 59.1191C18.9874 58.4694 17.588 56.5701 17.513 54.146L15.1639 53.3463C15.2389 55.7704 16.6383 57.6697 18.5376 58.3194Z" fill="url(#paint4_linear_273_7283)"/>
<path fill-rule="evenodd" clip-rule="evenodd" d="M41.1983 38.0347C41.1191 35.6186 39.2576 33.8759 37.0791 34.1927C34.8611 34.47 33.158 36.7276 33.1976 39.1437C33.2768 40.8468 34.1878 42.1935 35.4552 42.748L35.376 40.1339C35.3753 40.1182 35.3747 40.1025 35.3745 40.0869L35.3805 40.0889C35.3808 40.1011 35.3812 40.1134 35.3818 40.1257L35.461 42.7398L35.6194 46.8986C35.659 47.7304 36.3324 48.3641 37.0849 48.2453L38.0355 48.1264C38.788 48.0076 39.4218 47.2551 39.3822 46.3837L39.2239 42.2287C40.4483 41.317 41.2379 39.7351 41.1983 38.0347Z" fill="url(#paint5_linear_273_7283)"/>
<path fill-rule="evenodd" clip-rule="evenodd" d="M41.8752 38.3352C41.796 35.9192 39.9344 34.1764 37.756 34.4933C35.538 34.7705 33.8348 37.0282 33.8745 39.4442C33.9537 41.1474 34.8646 42.494 36.1321 43.0486L36.0529 40.4344C36.0526 40.4278 36.0523 40.4211 36.0521 40.4144L36.0594 40.4168L36.0598 40.4262L36.139 43.0403L36.2974 47.1991C36.337 48.0309 37.0104 48.6646 37.7629 48.5458L38.7135 48.427C39.4661 48.3082 40.0998 47.5556 40.0602 46.6842L39.9019 42.5284C41.1257 41.6166 41.9148 40.0351 41.8752 38.3352Z" fill="url(#paint6_linear_273_7283)"/>
</g>
<defs>
<filter id="filter0_f_273_7283" x="-1.38219" y="1.21192" width="44.4181" height="53.3718" filterUnits="userSpaceOnUse" color-interpolation-filters="sRGB">
<feFlood flood-opacity="0" result="BackgroundImageFix"/>
<feBlend mode="normal" in="SourceGraphic" in2="BackgroundImageFix" result="shape"/>
<feGaussianBlur stdDeviation="1.39331" result="effect1_foregroundBlur_273_7283"/>
</filter>
<filter id="filter1_f_273_7283" x="11.0702" y="5.80072" width="50.3235" height="59.359" filterUnits="userSpaceOnUse" color-interpolation-filters="sRGB">
<feFlood flood-opacity="0" result="BackgroundImageFix"/>
<feBlend mode="normal" in="SourceGraphic" in2="BackgroundImageFix" result="shape"/>
<feGaussianBlur stdDeviation="2.86966" result="effect1_foregroundBlur_273_7283"/>
</filter>
<linearGradient id="paint0_linear_273_7283" x1="45.3279" y1="24.3167" x2="25.7104" y2="27.0657" gradientUnits="userSpaceOnUse">
<stop stop-color="#FFCBBF"/>
<stop offset="1" stop-color="#D65530"/>
</linearGradient>
<linearGradient id="paint1_linear_273_7283" x1="34.848" y1="9.01875" x2="19.7613" y2="26.4982" gradientUnits="userSpaceOnUse">
<stop stop-color="#D14043"/>
<stop offset="0.273958" stop-color="#F5AE9C"/>
<stop offset="1" stop-color="#D14043"/>
</linearGradient>
<linearGradient id="paint2_linear_273_7283" x1="52.5819" y1="31.7396" x2="46.9113" y2="58.3357" gradientUnits="userSpaceOnUse">
<stop stop-color="#FF032C"/>
<stop offset="1" stop-color="#C10148"/>
</linearGradient>
<linearGradient id="paint3_linear_273_7283" x1="52.5819" y1="31.7396" x2="46.9113" y2="58.3357" gradientUnits="userSpaceOnUse">
<stop stop-color="#E0896E"/>
<stop offset="1" stop-color="#DC592D"/>
</linearGradient>
<linearGradient id="paint4_linear_273_7283" x1="18.2033" y1="26.9236" x2="18.2033" y2="59.1191" gradientUnits="userSpaceOnUse">
<stop stop-color="#BE2C2F"/>
<stop offset="0.15822" stop-color="#F58F76"/>
<stop offset="0.388549" stop-color="#E1383A"/>
<stop offset="0.704857" stop-color="#E1383A"/>
<stop offset="0.878248" stop-color="#F47657"/>
<stop offset="1" stop-color="#C2282A"/>
</linearGradient>
<linearGradient id="paint5_linear_273_7283" x1="37.1983" y1="34.1555" x2="37.1983" y2="48.2596" gradientUnits="userSpaceOnUse">
<stop stop-color="#D24446"/>
<stop offset="1" stop-color="#8E272A"/>
</linearGradient>
<linearGradient id="paint6_linear_273_7283" x1="40.695" y1="33.8279" x2="24.9543" y2="41.0778" gradientUnits="userSpaceOnUse">
<stop stop-color="#FFBFB0"/>
<stop offset="1" stop-color="#E1383A"/>
</linearGradient>
<clipPath id="clip0_273_7283">
<rect width="70" height="70" fill="white"/>
</clipPath>
</defs>
</svg>
