<svg width="2429" height="466" viewBox="0 0 2429 466" fill="none" xmlns="http://www.w3.org/2000/svg">
<g filter="url(#filter0_f_386_115335)">
<path fill-rule="evenodd" clip-rule="evenodd" d="M1399.5 289.533L1399.49 289.528L1400.05 289.531L1399.81 289.525L1505.13 289.861L1514.21 267.843L1514.35 268.305L1514.58 267.734L1515.08 268.081L1514.95 267.632L1535.24 281.702L1535.26 281.689L1535.21 281.655L1587.36 247.179L1622.73 223.745L1622.73 223.756L1622.73 223.752L1599.84 317.295L1599.82 317.293L1469.47 355.709L1469.46 355.72L1399.49 289.544L1399.51 289.546L1399.5 289.533L1399.49 289.532L1399.5 289.533Z" fill="#26255F" fill-opacity="0.3"/>
</g>
<g style="mix-blend-mode:lighten" filter="url(#filter1_f_386_115335)">
<path fill-rule="evenodd" clip-rule="evenodd" d="M1638.63 197.34L1638.64 197.328L1601.5 221.137L1550.26 253.92L1550.31 253.954L1550.29 253.966L1530.21 239.592L1530.34 240.053L1529.84 239.693L1529.59 240.256L1529.47 239.795L1520.05 261.676L1414.75 259.759L1415.39 259.784L1414.44 259.766L1414.44 259.769L1414.44 259.769L1414.44 259.769L1414.44 259.769L1414.44 259.769L1483.4 326.988L1484.14 326.376L1484.14 326.375L1483.4 326.992L1614.34 290.529L1613.62 290.415L1614.34 290.526L1638.64 197.337L1638.63 197.34Z" fill="url(#paint0_linear_386_115335)" fill-opacity="0.6"/>
</g>
<path fill-rule="evenodd" clip-rule="evenodd" d="M1516.91 276.705C1516.61 276.65 1516.43 276.331 1516.55 276.048L1531.05 241.371C1531.16 241.09 1531.51 240.988 1531.76 241.161L1562.75 262.435C1563 262.608 1563.03 262.969 1562.81 263.179L1543.38 281.587C1543.35 281.619 1543.29 281.604 1543.28 281.56V281.56C1543.27 281.537 1543.25 281.521 1543.23 281.516L1516.91 276.705Z" fill="#1B94C9"/>
<path fill-rule="evenodd" clip-rule="evenodd" d="M1639.61 196.498L1616.66 290.272L1616.03 290.057L1486.39 328.265L1485.97 328.791L1415.83 262.452L1537.9 262.971L1537.97 262.882L1538.23 262.972L1539.01 262.976L1538.84 263.183L1538.92 263.208L1639.61 196.498Z" fill="url(#paint1_linear_386_115335)"/>
<path d="M1531.95 241.779C1531.82 241.345 1532.31 240.992 1532.69 241.25L1563.1 262.342L1543.42 280.689L1531.95 241.779Z" fill="url(#paint2_linear_386_115335)"/>
<path d="M1531.21 242.006C1531.08 241.572 1530.48 241.54 1530.31 241.959L1516.19 276.176L1542.68 280.915L1531.21 242.006Z" fill="url(#paint3_linear_386_115335)"/>
<path d="M1639.61 196.498L1616.66 290.271L1541.97 279.906L1639.61 196.498Z" fill="url(#paint4_linear_386_115335)"/>
<path d="M1638.77 197.23L1542.73 280.598L1542.6 278.068L1638.77 197.23Z" fill="url(#paint5_linear_386_115335)"/>
<path d="M1639.28 196.755L1553.95 255.854L1551.88 254.539L1639.28 196.755Z" fill="url(#paint6_linear_386_115335)"/>
<path d="M1416.15 262.448L1520.77 265.015L1521.8 262.786L1416.15 262.448Z" fill="url(#paint7_linear_386_115335)"/>
<path d="M1415.83 262.449L1544.11 280.027L1542.85 277.83L1415.83 262.449Z" fill="url(#paint8_linear_386_115335)"/>
<path d="M1485.97 328.806L1542.72 279.703L1616.66 290.287L1485.97 328.806Z" fill="url(#paint9_linear_386_115335)"/>
<path d="M1415.83 262.452L1485.96 328.79L1543.09 279.578L1415.83 262.452Z" fill="url(#paint10_linear_386_115335)"/>
<g filter="url(#filter2_f_386_115335)">
<path d="M273.607 93.8417C177.262 39.5477 107.037 27.6315 73.2235 30.3618H30.998L55.4838 435.23H2336.16C2381.96 356.245 2497.56 77.2 2217.23 66.5668C1808.46 51.0625 1748 309.078 1390.71 309.078C1224.74 309.078 1154.34 196.16 964.955 196.16C775.565 196.16 684.618 296.275 571.184 280.771C410.786 258.85 405.976 168.437 273.607 93.8417Z" fill="#26255F" fill-opacity="0.3"/>
</g>
<path d="M271.609 109.639C175.264 55.3446 105.039 43.4284 71.2254 46.1587H29L53.4858 451.027H2334.16C2379.97 372.042 2495.57 92.9969 2215.23 82.3637C1806.47 66.8594 1746 324.875 1388.71 324.875C1222.74 324.875 1152.35 211.957 962.957 211.957C773.567 211.957 682.62 312.072 569.186 296.568C408.788 274.647 403.978 184.234 271.609 109.639Z" fill="url(#paint11_linear_386_115335)"/>
<defs>
<filter id="filter0_f_386_115335" x="1391.82" y="216.071" width="238.585" height="147.322" filterUnits="userSpaceOnUse" color-interpolation-filters="sRGB">
<feFlood flood-opacity="0" result="BackgroundImageFix"/>
<feBlend mode="normal" in="SourceGraphic" in2="BackgroundImageFix" result="shape"/>
<feGaussianBlur stdDeviation="3.83679" result="effect1_foregroundBlur_386_115335"/>
</filter>
<filter id="filter1_f_386_115335" x="1406.76" y="189.655" width="239.546" height="145.011" filterUnits="userSpaceOnUse" color-interpolation-filters="sRGB">
<feFlood flood-opacity="0" result="BackgroundImageFix"/>
<feBlend mode="normal" in="SourceGraphic" in2="BackgroundImageFix" result="shape"/>
<feGaussianBlur stdDeviation="3.83679" result="effect1_foregroundBlur_386_115335"/>
</filter>
<filter id="filter2_f_386_115335" x="0.998047" y="0" width="2428" height="465.23" filterUnits="userSpaceOnUse" color-interpolation-filters="sRGB">
<feFlood flood-opacity="0" result="BackgroundImageFix"/>
<feBlend mode="normal" in="SourceGraphic" in2="BackgroundImageFix" result="shape"/>
<feGaussianBlur stdDeviation="15" result="effect1_foregroundBlur_386_115335"/>
</filter>
<linearGradient id="paint0_linear_386_115335" x1="1628.54" y1="202.357" x2="1605.78" y2="356.957" gradientUnits="userSpaceOnUse">
<stop stop-color="#0073FF"/>
<stop offset="1" stop-color="#BB6DF5"/>
</linearGradient>
<linearGradient id="paint1_linear_386_115335" x1="1655.75" y1="219.43" x2="1399.24" y2="278.973" gradientUnits="userSpaceOnUse">
<stop stop-color="#1FA3DD"/>
<stop offset="0.469855" stop-color="#1990C5"/>
<stop offset="0.904167" stop-color="#219FD7"/>
</linearGradient>
<linearGradient id="paint2_linear_386_115335" x1="1533.81" y1="240.419" x2="1542.56" y2="278.217" gradientUnits="userSpaceOnUse">
<stop offset="0.00674534" stop-color="#96D8F1"/>
<stop offset="0.989638" stop-color="#2499CC"/>
</linearGradient>
<linearGradient id="paint3_linear_386_115335" x1="1531.12" y1="241.538" x2="1526.43" y2="277.415" gradientUnits="userSpaceOnUse">
<stop stop-color="#6AC6E9"/>
<stop offset="0.930208" stop-color="#20A2DC"/>
</linearGradient>
<linearGradient id="paint4_linear_386_115335" x1="1648" y1="193.884" x2="1539.27" y2="322.592" gradientUnits="userSpaceOnUse">
<stop stop-color="#B3E4F7"/>
<stop offset="0.997917" stop-color="#3BB3E0"/>
</linearGradient>
<linearGradient id="paint5_linear_386_115335" x1="1545.01" y1="280.048" x2="1645.74" y2="192.495" gradientUnits="userSpaceOnUse">
<stop stop-color="#9ADAF2"/>
<stop offset="1" stop-color="#2498CB"/>
</linearGradient>
<linearGradient id="paint6_linear_386_115335" x1="1630.44" y1="200.974" x2="1551.41" y2="253.2" gradientUnits="userSpaceOnUse">
<stop stop-color="#37ABDC"/>
<stop offset="1" stop-color="#70C9EA"/>
</linearGradient>
<linearGradient id="paint7_linear_386_115335" x1="1522.72" y1="264.846" x2="1424.94" y2="261.553" gradientUnits="userSpaceOnUse">
<stop stop-color="#59BFE6"/>
<stop offset="1" stop-color="#5FC1E7"/>
</linearGradient>
<linearGradient id="paint8_linear_386_115335" x1="1424.16" y1="264.312" x2="1542.14" y2="280.571" gradientUnits="userSpaceOnUse">
<stop stop-color="#E4F7FF"/>
<stop offset="1" stop-color="#98D9F1"/>
</linearGradient>
<linearGradient id="paint9_linear_386_115335" x1="1551.31" y1="309.546" x2="1542.54" y2="279.758" gradientUnits="userSpaceOnUse">
<stop stop-color="#1FA4DF"/>
<stop offset="1" stop-color="#2695C5"/>
</linearGradient>
<linearGradient id="paint10_linear_386_115335" x1="1415.05" y1="264.138" x2="1577.25" y2="323.64" gradientUnits="userSpaceOnUse">
<stop stop-color="#6DC7E9"/>
<stop offset="1" stop-color="#219FD7"/>
</linearGradient>
<linearGradient id="paint11_linear_386_115335" x1="1213.31" y1="-1.7316" x2="1213.31" y2="471.201" gradientUnits="userSpaceOnUse">
<stop offset="0.271249" stop-color="#23B0EC"/>
<stop offset="0.608634" stop-color="#264680"/>
<stop offset="1" stop-color="#26255F"/>
</linearGradient>
</defs>
</svg>
