<svg width="271" height="188" viewBox="0 0 271 188" fill="none" xmlns="http://www.w3.org/2000/svg">
<g filter="url(#filter0_f_386_115710)">
<path fill-rule="evenodd" clip-rule="evenodd" d="M135.5 142C199.289 142 251 113.794 251 79C251 44.2061 199.289 16 135.5 16C71.7111 16 20 44.2061 20 79C20 101.298 41.2371 120.89 73.2803 132.087L54.5 157.5L110.396 140.508C118.478 141.485 126.879 142 135.5 142Z" fill="url(#paint0_linear_386_115710)" fill-opacity="0.4"/>
</g>
<g filter="url(#filter1_bd_386_115710)">
<path fill-rule="evenodd" clip-rule="evenodd" d="M135.5 142C199.289 142 251 113.794 251 79C251 44.2061 199.289 16 135.5 16C71.7111 16 20 44.2061 20 79C20 101.298 41.2371 120.89 73.2803 132.087L54.5 157.5L110.396 140.508C118.478 141.485 126.879 142 135.5 142Z" fill="url(#paint1_linear_386_115710)" fill-opacity="0.3" shape-rendering="crispEdges"/>
</g>
<path d="M91.0311 57.281C89.6575 57.281 88.44 57.0062 87.3785 56.4568C86.3171 55.8949 85.493 55.1019 84.9061 54.078C84.3191 53.0415 84.0257 51.8365 84.0257 50.4629C84.0257 49.0893 84.3191 47.8905 84.9061 46.8665C85.493 45.8301 86.3171 45.0309 87.3785 44.469C88.44 43.9071 89.6575 43.6261 91.0311 43.6261C92.8417 43.6261 94.3527 44.0569 95.564 44.9185V47.185C94.4776 46.2609 93.0353 45.7989 91.2371 45.7989C90.2756 45.7989 89.4327 45.9924 88.7084 46.3795C87.9842 46.7542 87.4222 47.2911 87.0227 47.9904C86.6231 48.6897 86.4233 49.5139 86.4233 50.4629C86.4233 51.4119 86.6231 52.2361 87.0227 52.9354C87.4347 53.6347 88.0029 54.1779 88.7272 54.565C89.4514 54.9396 90.2881 55.1269 91.2371 55.1269C92.1612 55.1269 92.9853 55.0145 93.7096 54.7897C94.4339 54.5525 95.1019 54.1779 95.7138 53.6659V55.9323C94.565 56.8314 93.0041 57.281 91.0311 57.281ZM97.5888 43.1578H99.9489V57H97.5888V43.1578ZM103.528 46.4357C103.154 46.4357 102.835 46.3109 102.573 46.0611C102.323 45.8114 102.198 45.4992 102.198 45.1246C102.198 44.7499 102.323 44.4378 102.573 44.188C102.835 43.9258 103.154 43.7947 103.528 43.7947C103.903 43.7947 104.221 43.9258 104.484 44.188C104.746 44.4378 104.877 44.7499 104.877 45.1246C104.877 45.4992 104.746 45.8114 104.484 46.0611C104.221 46.3109 103.903 46.4357 103.528 46.4357ZM102.33 48.0091H104.727V57H102.33V48.0091ZM112.008 57.281C110.959 57.281 110.035 57.0937 109.236 56.719C108.449 56.3444 107.837 55.8012 107.4 55.0894C106.963 54.3777 106.744 53.5223 106.744 52.5233C106.744 51.5243 106.963 50.6689 107.4 49.9572C107.849 49.2329 108.468 48.6835 109.254 48.3088C110.053 47.9217 110.984 47.7282 112.045 47.7282C113.444 47.7282 114.561 48.0029 115.398 48.5523V50.4442C114.586 49.8697 113.55 49.5825 112.289 49.5825C111.327 49.5825 110.559 49.826 109.985 50.313C109.423 50.7876 109.142 51.5243 109.142 52.5233C109.142 53.5098 109.423 54.2403 109.985 54.7148C110.559 55.1893 111.315 55.4266 112.251 55.4266C113.512 55.4266 114.599 55.1269 115.51 54.5275V56.4006C115.061 56.7003 114.549 56.9188 113.974 57.0562C113.413 57.206 112.757 57.281 112.008 57.281ZM117.381 43.1578H119.741V51.9614L123.318 48.0091H126.091L122.082 52.4109L126.54 57H123.768L119.741 52.8417V57H117.381V43.1578ZM135.16 48.0091H137.371V49.1892C137.77 48.7147 138.239 48.3525 138.776 48.1028C139.313 47.853 139.856 47.7282 140.405 47.7282C141.104 47.7282 141.666 47.8468 142.091 48.0841C142.516 48.3088 142.834 48.6522 143.046 49.1143C143.446 48.6647 143.927 48.3213 144.489 48.0841C145.063 47.8468 145.631 47.7282 146.193 47.7282C147.317 47.7282 148.122 48.0091 148.609 48.5711C149.096 49.133 149.34 49.9572 149.34 51.0436V57H147.073V51.362C147.073 50.7251 146.942 50.2693 146.68 49.9946C146.43 49.7199 146.024 49.5825 145.463 49.5825C145.063 49.5825 144.695 49.6637 144.357 49.826C144.033 49.9759 143.733 50.2381 143.458 50.6127C143.483 51.0123 143.496 51.337 143.496 51.5868V57H141.211V51.3245C141.211 50.6752 141.104 50.2256 140.892 49.9759C140.68 49.7137 140.293 49.5825 139.731 49.5825C138.882 49.5825 138.12 50.0633 137.446 51.0248V57H135.16V48.0091ZM156.553 57.281C154.879 57.281 153.556 56.8626 152.582 56.026C151.608 55.1893 151.121 54.0218 151.121 52.5233C151.121 51.0498 151.551 49.8822 152.413 49.0206C153.275 48.159 154.505 47.7282 156.103 47.7282C157.152 47.7282 158.045 47.928 158.782 48.3276C159.531 48.7272 160.093 49.2766 160.467 49.9759C160.842 50.6627 161.029 51.4494 161.029 52.336V53.4224H153.368C153.531 54.7585 154.692 55.4266 156.852 55.4266C157.427 55.4266 158.014 55.3766 158.613 55.2768C159.212 55.1769 159.737 55.0395 160.186 54.8647V56.6816C159.762 56.8564 159.212 57 158.538 57.1124C157.876 57.2248 157.214 57.281 156.553 57.281ZM158.8 51.8115C158.775 51.0997 158.519 50.5503 158.032 50.1632C157.558 49.7761 156.902 49.5825 156.066 49.5825C155.241 49.5825 154.592 49.7823 154.118 50.1819C153.643 50.5815 153.393 51.1247 153.368 51.8115H158.8ZM173.274 57.281C172.288 57.281 171.538 57.0062 171.026 56.4568C170.515 55.9074 170.259 55.1331 170.259 54.1342V49.8073H168.91V48.0091H170.259V45.3119H172.619V48.0091H174.773V49.8073H172.619V53.8345C172.619 54.4089 172.725 54.821 172.937 55.0707C173.149 55.308 173.536 55.4266 174.098 55.4266C174.485 55.4266 174.866 55.3392 175.241 55.1644V56.9625C174.704 57.1748 174.048 57.281 173.274 57.281ZM181.718 57.281C180.669 57.281 179.745 57.0937 178.946 56.719C178.159 56.3319 177.548 55.7825 177.111 55.0707C176.673 54.3464 176.455 53.4911 176.455 52.5046C176.455 51.543 176.667 50.7064 177.092 49.9946C177.529 49.2704 178.147 48.7147 178.946 48.3276C179.745 47.928 180.669 47.7282 181.718 47.7282C182.767 47.7282 183.685 47.928 184.472 48.3276C185.271 48.7147 185.889 49.2704 186.326 49.9946C186.763 50.7064 186.982 51.543 186.982 52.5046C186.982 53.4911 186.763 54.3464 186.326 55.0707C185.889 55.7825 185.271 56.3319 184.472 56.719C183.685 57.0937 182.767 57.281 181.718 57.281ZM181.718 55.4266C182.58 55.4266 183.267 55.1581 183.779 54.6212C184.291 54.0717 184.547 53.3662 184.547 52.5046C184.547 51.593 184.291 50.8812 183.779 50.3692C183.279 49.8448 182.592 49.5825 181.718 49.5825C180.844 49.5825 180.151 49.8448 179.639 50.3692C179.14 50.8812 178.89 51.593 178.89 52.5046C178.89 53.3662 179.146 54.0717 179.658 54.6212C180.17 55.1581 180.857 55.4266 181.718 55.4266ZM96.5387 85.281C95.6271 85.281 94.8092 85.0874 94.085 84.7003C93.3732 84.3007 92.8113 83.745 92.3992 83.0332C91.9996 82.309 91.7998 81.4723 91.7998 80.5233C91.7998 79.5868 91.9996 78.7563 92.3992 78.0321C92.8113 77.3078 93.3732 76.7459 94.085 76.3463C94.8092 75.9342 95.6271 75.7282 96.5387 75.7282C98.0122 75.7282 99.1735 76.1153 100.023 76.8895V71.1578H102.383V85H100.098V83.9511C99.5856 84.4256 99.0549 84.769 98.5055 84.9813C97.956 85.1811 97.3004 85.281 96.5387 85.281ZM97.1194 83.4266C97.7937 83.4266 98.3931 83.2455 98.9176 82.8834C99.442 82.5213 99.8104 82.0343 100.023 81.4224V79.6055C99.8229 78.9936 99.4545 78.5066 98.9176 78.1445C98.3931 77.7698 97.7937 77.5825 97.1194 77.5825C96.2702 77.5825 95.571 77.8573 95.0215 78.4067C94.4721 78.9561 94.1973 79.6617 94.1973 80.5233C94.1973 81.3849 94.4721 82.0842 95.0215 82.6212C95.571 83.1581 96.2702 83.4266 97.1194 83.4266ZM109.246 85.281C108.197 85.281 107.273 85.0937 106.473 84.719C105.687 84.3319 105.075 83.7825 104.638 83.0707C104.201 82.3464 103.982 81.4911 103.982 80.5046C103.982 79.543 104.195 78.7064 104.619 77.9946C105.056 77.2704 105.674 76.7147 106.473 76.3276C107.273 75.928 108.197 75.7282 109.246 75.7282C110.295 75.7282 111.212 75.928 111.999 76.3276C112.798 76.7147 113.416 77.2704 113.853 77.9946C114.291 78.7064 114.509 79.543 114.509 80.5046C114.509 81.4911 114.291 82.3464 113.853 83.0707C113.416 83.7825 112.798 84.3319 111.999 84.719C111.212 85.0937 110.295 85.281 109.246 85.281ZM109.246 83.4266C110.107 83.4266 110.794 83.1581 111.306 82.6212C111.818 82.0717 112.074 81.3662 112.074 80.5046C112.074 79.593 111.818 78.8812 111.306 78.3692C110.807 77.8448 110.12 77.5825 109.246 77.5825C108.372 77.5825 107.678 77.8448 107.166 78.3692C106.667 78.8812 106.417 79.593 106.417 80.5046C106.417 81.3662 106.673 82.0717 107.185 82.6212C107.697 83.1581 108.384 83.4266 109.246 83.4266ZM114.774 76.0091H117.135L118.97 82.0967L120.768 76.0091H122.829L124.627 82.0967L126.463 76.0091H128.823L125.882 85H123.709L121.799 78.8937L119.888 85H117.715L114.774 76.0091ZM130.222 76.0091H132.507V77.2266C132.931 76.7147 133.437 76.3401 134.024 76.1028C134.611 75.853 135.229 75.7282 135.878 75.7282C137.09 75.7282 137.995 76.0591 138.594 76.7209C139.194 77.3703 139.494 78.2381 139.494 79.3245V85H137.133V79.5493C137.133 78.2381 136.522 77.5825 135.298 77.5825C134.761 77.5825 134.255 77.7137 133.781 77.9759C133.306 78.2256 132.906 78.6065 132.582 79.1185V85H130.222V76.0091ZM141.654 71.1578H144.014V85H141.654V71.1578ZM151.153 85.281C150.104 85.281 149.18 85.0937 148.38 84.719C147.594 84.3319 146.982 83.7825 146.545 83.0707C146.108 82.3464 145.889 81.4911 145.889 80.5046C145.889 79.543 146.101 78.7064 146.526 77.9946C146.963 77.2704 147.581 76.7147 148.38 76.3276C149.18 75.928 150.104 75.7282 151.153 75.7282C152.201 75.7282 153.119 75.928 153.906 76.3276C154.705 76.7147 155.323 77.2704 155.76 77.9946C156.197 78.7064 156.416 79.543 156.416 80.5046C156.416 81.4911 156.197 82.3464 155.76 83.0707C155.323 83.7825 154.705 84.3319 153.906 84.719C153.119 85.0937 152.201 85.281 151.153 85.281ZM151.153 83.4266C152.014 83.4266 152.701 83.1581 153.213 82.6212C153.725 82.0717 153.981 81.3662 153.981 80.5046C153.981 79.593 153.725 78.8812 153.213 78.3692C152.713 77.8448 152.027 77.5825 151.153 77.5825C150.278 77.5825 149.585 77.8448 149.073 78.3692C148.574 78.8812 148.324 79.593 148.324 80.5046C148.324 81.3662 148.58 82.0717 149.092 82.6212C149.604 83.1581 150.291 83.4266 151.153 83.4266ZM161.103 85.281C160.029 85.281 159.148 85 158.462 84.4381C157.775 83.8637 157.431 83.0957 157.431 82.1342C157.431 81.1352 157.756 80.3547 158.405 79.7928C159.055 79.2309 159.966 78.9499 161.14 78.9499C162.276 78.9499 163.257 79.1809 164.081 79.6429V79.3994C164.081 78.7626 163.881 78.3006 163.481 78.0133C163.094 77.7261 162.464 77.5825 161.59 77.5825C161.04 77.5825 160.497 77.6387 159.96 77.7511C159.423 77.851 158.949 77.9946 158.536 78.1819V76.3276C158.911 76.1527 159.411 76.0091 160.035 75.8968C160.672 75.7844 161.284 75.7282 161.871 75.7282C163.431 75.7282 164.587 76.0653 165.336 76.7396C166.085 77.4015 166.46 78.3255 166.46 79.5118V85H164.231V84.1196C163.844 84.4943 163.4 84.7815 162.901 84.9813C162.414 85.1811 161.814 85.281 161.103 85.281ZM161.683 83.5577C162.208 83.5577 162.682 83.4578 163.107 83.258C163.531 83.0457 163.856 82.7585 164.081 82.3964V81.4037C163.394 80.9166 162.607 80.6731 161.721 80.6731C160.46 80.6731 159.829 81.1602 159.829 82.1342C159.829 82.6087 159.985 82.9646 160.297 83.2018C160.622 83.4391 161.084 83.5577 161.683 83.5577ZM172.981 85.281C172.069 85.281 171.251 85.0874 170.527 84.7003C169.815 84.3007 169.253 83.745 168.841 83.0332C168.442 82.309 168.242 81.4723 168.242 80.5233C168.242 79.5868 168.442 78.7563 168.841 78.0321C169.253 77.3078 169.815 76.7459 170.527 76.3463C171.251 75.9342 172.069 75.7282 172.981 75.7282C174.454 75.7282 175.616 76.1153 176.465 76.8895V71.1578H178.825V85H176.54V83.9511C176.028 84.4256 175.497 84.769 174.948 84.9813C174.398 85.1811 173.743 85.281 172.981 85.281ZM173.561 83.4266C174.236 83.4266 174.835 83.2455 175.36 82.8834C175.884 82.5213 176.252 82.0343 176.465 81.4224V79.6055C176.265 78.9936 175.897 78.5066 175.36 78.1445C174.835 77.7698 174.236 77.5825 173.561 77.5825C172.712 77.5825 172.013 77.8573 171.464 78.4067C170.914 78.9561 170.639 79.6617 170.639 80.5233C170.639 81.3849 170.914 82.0842 171.464 82.6212C172.013 83.1581 172.712 83.4266 173.561 83.4266ZM78.5835 104.009H80.8687V105.096C81.3557 104.634 81.8864 104.29 82.4608 104.065C83.0352 103.841 83.6908 103.728 84.4275 103.728C85.3391 103.728 86.1508 103.928 86.8626 104.328C87.5868 104.715 88.1488 105.27 88.5483 105.995C88.9604 106.706 89.1665 107.537 89.1665 108.486C89.1665 109.422 88.9604 110.253 88.5483 110.977C88.1488 111.701 87.5868 112.269 86.8626 112.682C86.1508 113.081 85.3391 113.281 84.4275 113.281C83.7407 113.281 83.0914 113.187 82.4795 113C81.8801 112.8 81.3681 112.507 80.9436 112.12V117.102H78.5835V104.009ZM83.8469 111.427C84.696 111.427 85.3953 111.152 85.9447 110.602C86.4942 110.053 86.7689 109.347 86.7689 108.486C86.7689 107.624 86.4942 106.925 85.9447 106.388C85.3953 105.851 84.696 105.583 83.8469 105.583C83.1726 105.583 82.5732 105.764 82.0487 106.126C81.5242 106.488 81.1559 106.975 80.9436 107.587V109.404C81.1434 110.016 81.5055 110.509 82.03 110.883C82.5669 111.246 83.1726 111.427 83.8469 111.427ZM91.0403 104.009H93.3255V105.451C93.6876 104.964 94.1996 104.602 94.8614 104.365C95.5357 104.128 96.3037 104.009 97.1653 104.009V105.807C96.2538 105.807 95.4608 105.951 94.7865 106.238C94.1247 106.513 93.6626 106.95 93.4004 107.549V113H91.0403V104.009ZM103.158 113.281C101.485 113.281 100.161 112.863 99.1874 112.026C98.2134 111.189 97.7264 110.022 97.7264 108.523C97.7264 107.05 98.1572 105.882 99.0188 105.021C99.8804 104.159 101.11 103.728 102.709 103.728C103.758 103.728 104.651 103.928 105.387 104.328C106.137 104.727 106.699 105.277 107.073 105.976C107.448 106.663 107.635 107.449 107.635 108.336V109.422H99.9741C100.136 110.759 101.298 111.427 103.458 111.427C104.032 111.427 104.619 111.377 105.219 111.277C105.818 111.177 106.343 111.039 106.792 110.865V112.682C106.368 112.856 105.818 113 105.144 113.112C104.482 113.225 103.82 113.281 103.158 113.281ZM105.406 107.812C105.381 107.1 105.125 106.55 104.638 106.163C104.164 105.776 103.508 105.583 102.671 105.583C101.847 105.583 101.198 105.782 100.723 106.182C100.249 106.582 99.9991 107.125 99.9741 107.812H105.406ZM113.018 113.281C112.369 113.281 111.675 113.206 110.939 113.056C110.202 112.906 109.628 112.7 109.215 112.438V110.434C109.702 110.734 110.283 110.977 110.957 111.164C111.632 111.339 112.269 111.427 112.868 111.427C113.467 111.427 113.904 111.377 114.179 111.277C114.454 111.164 114.591 110.965 114.591 110.677C114.591 110.453 114.516 110.272 114.366 110.134C114.229 109.984 113.998 109.853 113.673 109.741C113.361 109.616 112.874 109.466 112.212 109.291C111.463 109.079 110.87 108.86 110.433 108.636C110.008 108.411 109.684 108.13 109.459 107.793C109.247 107.443 109.141 106.994 109.141 106.444C109.141 105.545 109.496 104.871 110.208 104.421C110.92 103.959 111.882 103.728 113.093 103.728C113.717 103.728 114.335 103.791 114.947 103.915C115.572 104.028 116.059 104.19 116.408 104.402V106.332C116.034 106.107 115.578 105.926 115.041 105.789C114.504 105.651 113.954 105.583 113.392 105.583C112.781 105.583 112.319 105.645 112.006 105.77C111.694 105.882 111.538 106.107 111.538 106.444C111.538 106.669 111.619 106.85 111.782 106.987C111.956 107.112 112.181 107.225 112.456 107.325C112.731 107.412 113.23 107.549 113.954 107.737C114.729 107.949 115.334 108.18 115.771 108.43C116.208 108.679 116.521 108.979 116.708 109.329C116.895 109.678 116.989 110.115 116.989 110.64C116.989 111.439 116.645 112.082 115.959 112.569C115.284 113.044 114.304 113.281 113.018 113.281ZM123.92 113.281C122.246 113.281 120.923 112.863 119.949 112.026C118.975 111.189 118.488 110.022 118.488 108.523C118.488 107.05 118.919 105.882 119.78 105.021C120.642 104.159 121.872 103.728 123.47 103.728C124.519 103.728 125.412 103.928 126.149 104.328C126.898 104.727 127.46 105.277 127.835 105.976C128.209 106.663 128.396 107.449 128.396 108.336V109.422H120.735C120.898 110.759 122.059 111.427 124.219 111.427C124.794 111.427 125.381 111.377 125.98 111.277C126.58 111.177 127.104 111.039 127.554 110.865V112.682C127.129 112.856 126.58 113 125.905 113.112C125.243 113.225 124.582 113.281 123.92 113.281ZM126.167 107.812C126.142 107.1 125.886 106.55 125.399 106.163C124.925 105.776 124.269 105.583 123.433 105.583C122.609 105.583 121.959 105.782 121.485 106.182C121.01 106.582 120.76 107.125 120.735 107.812H126.167ZM130.277 104.009H132.562V105.227C132.986 104.715 133.492 104.34 134.079 104.103C134.666 103.853 135.284 103.728 135.933 103.728C137.145 103.728 138.05 104.059 138.649 104.721C139.249 105.37 139.548 106.238 139.548 107.325V113H137.188V107.549C137.188 106.238 136.576 105.583 135.353 105.583C134.816 105.583 134.31 105.714 133.835 105.976C133.361 106.226 132.961 106.606 132.637 107.118V113H130.277V104.009ZM145.324 113.281C144.338 113.281 143.588 113.006 143.076 112.457C142.564 111.907 142.308 111.133 142.308 110.134V105.807H140.96V104.009H142.308V101.312H144.669V104.009H146.823V105.807H144.669V109.834C144.669 110.409 144.775 110.821 144.987 111.071C145.199 111.308 145.586 111.427 146.148 111.427C146.535 111.427 146.916 111.339 147.291 111.164V112.963C146.754 113.175 146.098 113.281 145.324 113.281ZM151.993 113.281C150.919 113.281 150.039 113 149.352 112.438C148.665 111.864 148.322 111.096 148.322 110.134C148.322 109.135 148.647 108.355 149.296 107.793C149.945 107.231 150.857 106.95 152.031 106.95C153.167 106.95 154.147 107.181 154.971 107.643V107.399C154.971 106.763 154.772 106.301 154.372 106.013C153.985 105.726 153.354 105.583 152.48 105.583C151.931 105.583 151.388 105.639 150.851 105.751C150.314 105.851 149.839 105.995 149.427 106.182V104.328C149.802 104.153 150.301 104.009 150.926 103.897C151.562 103.784 152.174 103.728 152.761 103.728C154.322 103.728 155.477 104.065 156.226 104.74C156.976 105.401 157.35 106.326 157.35 107.512V113H155.121V112.12C154.734 112.494 154.291 112.781 153.791 112.981C153.304 113.181 152.705 113.281 151.993 113.281ZM152.574 111.558C153.098 111.558 153.573 111.458 153.997 111.258C154.422 111.046 154.747 110.759 154.971 110.396V109.404C154.285 108.917 153.498 108.673 152.611 108.673C151.35 108.673 150.719 109.16 150.719 110.134C150.719 110.609 150.876 110.965 151.188 111.202C151.512 111.439 151.974 111.558 152.574 111.558ZM162.647 113.281C161.66 113.281 160.911 113.006 160.399 112.457C159.887 111.907 159.631 111.133 159.631 110.134V105.807H158.282V104.009H159.631V101.312H161.991V104.009H164.145V105.807H161.991V109.834C161.991 110.409 162.097 110.821 162.309 111.071C162.522 111.308 162.909 111.427 163.471 111.427C163.858 111.427 164.239 111.339 164.613 111.164V112.963C164.076 113.175 163.421 113.281 162.647 113.281ZM167.623 102.436C167.249 102.436 166.93 102.311 166.668 102.061C166.418 101.811 166.293 101.499 166.293 101.125C166.293 100.75 166.418 100.438 166.668 100.188C166.93 99.9258 167.249 99.7947 167.623 99.7947C167.998 99.7947 168.316 99.9258 168.579 100.188C168.841 100.438 168.972 100.75 168.972 101.125C168.972 101.499 168.841 101.811 168.579 102.061C168.316 102.311 167.998 102.436 167.623 102.436ZM166.425 104.009H168.822V113H166.425V104.009ZM176.103 113.281C175.054 113.281 174.13 113.094 173.331 112.719C172.544 112.332 171.932 111.782 171.495 111.071C171.058 110.346 170.839 109.491 170.839 108.505C170.839 107.543 171.052 106.706 171.476 105.995C171.913 105.27 172.531 104.715 173.331 104.328C174.13 103.928 175.054 103.728 176.103 103.728C177.152 103.728 178.069 103.928 178.856 104.328C179.655 104.715 180.273 105.27 180.711 105.995C181.148 106.706 181.366 107.543 181.366 108.505C181.366 109.491 181.148 110.346 180.711 111.071C180.273 111.782 179.655 112.332 178.856 112.719C178.069 113.094 177.152 113.281 176.103 113.281ZM176.103 111.427C176.964 111.427 177.651 111.158 178.163 110.621C178.675 110.072 178.931 109.366 178.931 108.505C178.931 107.593 178.675 106.881 178.163 106.369C177.664 105.845 176.977 105.583 176.103 105.583C175.229 105.583 174.536 105.845 174.024 106.369C173.524 106.881 173.274 107.593 173.274 108.505C173.274 109.366 173.53 110.072 174.042 110.621C174.554 111.158 175.241 111.427 176.103 111.427ZM183.232 104.009H185.517V105.227C185.942 104.715 186.447 104.34 187.034 104.103C187.621 103.853 188.239 103.728 188.889 103.728C190.1 103.728 191.005 104.059 191.605 104.721C192.204 105.37 192.504 106.238 192.504 107.325V113H190.143V107.549C190.143 106.238 189.532 105.583 188.308 105.583C187.771 105.583 187.265 105.714 186.791 105.976C186.316 106.226 185.917 106.606 185.592 107.118V113H183.232V104.009Z" fill="white"/>
<defs>
<filter id="filter0_f_386_115710" x="4" y="0" width="263" height="173.5" filterUnits="userSpaceOnUse" color-interpolation-filters="sRGB">
<feFlood flood-opacity="0" result="BackgroundImageFix"/>
<feBlend mode="normal" in="SourceGraphic" in2="BackgroundImageFix" result="shape"/>
<feGaussianBlur stdDeviation="8" result="effect1_foregroundBlur_386_115710"/>
</filter>
<filter id="filter1_bd_386_115710" x="0" y="6" width="271" height="181.5" filterUnits="userSpaceOnUse" color-interpolation-filters="sRGB">
<feFlood flood-opacity="0" result="BackgroundImageFix"/>
<feGaussianBlur in="BackgroundImage" stdDeviation="2.5"/>
<feComposite in2="SourceAlpha" operator="in" result="effect1_backgroundBlur_386_115710"/>
<feColorMatrix in="SourceAlpha" type="matrix" values="0 0 0 0 0 0 0 0 0 0 0 0 0 0 0 0 0 0 127 0" result="hardAlpha"/>
<feOffset dy="10"/>
<feGaussianBlur stdDeviation="10"/>
<feComposite in2="hardAlpha" operator="out"/>
<feColorMatrix type="matrix" values="0 0 0 0 0 0 0 0 0 0 0 0 0 0 0 0 0 0 0.2 0"/>
<feBlend mode="normal" in2="effect1_backgroundBlur_386_115710" result="effect2_dropShadow_386_115710"/>
<feBlend mode="normal" in="SourceGraphic" in2="effect2_dropShadow_386_115710" result="shape"/>
</filter>
<linearGradient id="paint0_linear_386_115710" x1="240.011" y1="19.6326" x2="100.046" y2="203.796" gradientUnits="userSpaceOnUse">
<stop stop-color="#0073FF"/>
<stop offset="1" stop-color="#BB6DF5"/>
</linearGradient>
<linearGradient id="paint1_linear_386_115710" x1="160.5" y1="16" x2="49.5" y2="165" gradientUnits="userSpaceOnUse">
<stop stop-color="#4FB8E6"/>
<stop offset="1" stop-color="white" stop-opacity="0.2"/>
</linearGradient>
</defs>
</svg>
