<svg width="492" height="418" viewBox="0 0 492 418" fill="none" xmlns="http://www.w3.org/2000/svg">
<g filter="url(#filter0_f_386_115402)">
<path fill-rule="evenodd" clip-rule="evenodd" d="M475.912 70.8623C477.531 70.4577 477.964 71.8327 477.413 72.4738C477.401 72.5055 477.387 72.5357 477.37 72.564L328.8 364.563C328.711 364.741 328.6 364.874 328.466 364.951C328.598 364.884 328.718 364.779 328.8 364.656L325.266 371.283C325.089 371.548 324.736 371.813 324.382 371.725L324.383 371.724L265.548 319.714L177.331 396.903L177.185 397.066L177.239 396.984L172.617 401.028L171.971 402.625L171.742 402.487C168.541 404.249 164.294 402.838 162.445 399.654L162.738 393.996L164.354 267.082L47.3361 241.661C45.9058 241.694 45.0192 240.865 45.452 239.593L47.3771 231.313C47.2092 232.069 47.3326 232.457 47.7182 232.635C47.4182 232.194 47.5523 231.505 48.1854 231.315L475.912 70.8623ZM328.273 365.02L328.273 365.02L328.278 365.019L328.273 365.02Z" fill="#26255F" fill-opacity="0.3"/>
</g>
<path d="M419.456 28.125L417.954 30.4222C417.866 30.5106 417.866 30.5989 417.777 30.6873L419.279 28.3901C419.368 28.2134 419.456 28.2134 419.456 28.125Z" fill="#828383"/>
<path d="M145.998 169.829L144.496 172.126C144.496 171.773 144.584 171.508 144.761 171.243L146.263 168.945C146.086 169.122 145.998 169.475 145.998 169.829Z" fill="#828383"/>
<path d="M145.025 196.158L143.611 198.367L144.495 172.037L145.997 169.828L145.025 196.158Z" fill="#7F807F"/>
<path d="M144.936 196.598L143.434 198.895C143.522 198.719 143.61 198.63 143.61 198.453L145.112 196.156C145.024 196.333 145.024 196.421 144.936 196.598Z" fill="#828383"/>
<path d="M140.256 200.219L138.754 202.517C138.754 202.163 138.842 201.898 139.019 201.633L140.521 199.336C140.344 199.601 140.256 199.954 140.256 200.219Z" fill="#828383"/>
<path d="M419.279 28.2812L417.777 30.5785L141.844 338.761L143.346 336.464L419.279 28.2812Z" fill="#7F8080"/>
<path d="M417.159 25.5519C419.368 25.3752 420.34 27.054 419.28 28.291L143.347 336.474L140.166 337.269C140.166 338.241 138.929 338.241 137.957 338.152L136.367 340.715C135.395 340.715 134.6 339.831 134.6 338.859L139.282 200.76C139.282 200.142 140.608 199.081 141.138 198.816L143.347 197.579C144.23 197.226 145.026 196.784 145.026 196.166L145.909 169.836C145.909 169.217 146.262 168.599 146.881 168.334L417.159 25.5519Z" fill="url(#paint0_linear_386_115402)"/>
<path d="M249.105 244.82L247.603 247.118C247.603 247.206 247.514 247.206 247.426 247.294L248.928 244.997C249.016 244.909 249.016 244.909 249.105 244.82Z" fill="#929292"/>
<path d="M191.67 208.776L190.168 211.072C190.168 210.984 190.168 210.984 190.256 210.984L191.758 208.688C191.67 208.688 191.67 208.688 191.67 208.776Z" fill="#929292"/>
<path d="M192.468 208.238C192.645 208.238 192.733 208.327 192.91 208.415L248.75 243.669C249.28 244.022 249.28 244.641 248.839 245.082L135.744 344.04C135.567 344.217 135.302 344.305 135.125 344.305C134.595 344.305 134.065 343.687 134.33 343.068L182.13 208.416C180.628 204.616 192.115 208.238 192.468 208.238Z" fill="url(#paint1_linear_386_115402)"/>
<path d="M136.63 344.312L130.004 340.335L181.25 208.244L189.202 214.429L136.63 344.312Z" fill="url(#paint2_linear_386_115402)"/>
<path d="M441.984 13.9766L440.482 16.2738C440.393 16.3622 440.305 16.4505 440.217 16.5389L441.719 14.2416C441.807 14.1533 441.896 14.0649 441.984 13.9766Z" fill="#858585"/>
<path fill-rule="evenodd" clip-rule="evenodd" d="M15.5575 174.389L15.5859 174.249C15.4279 174.264 15.2747 174.279 15.1262 174.294L12.933 173.811L12.7863 174.427C12.0922 174.34 11.8221 173.978 12.0392 173L12.0603 172.909C12.0528 172.94 12.0458 172.97 12.0392 173L10.1141 181.28C9.83335 182.105 10.1078 182.744 10.7256 183.082L10.7241 183.088L10.7464 183.093C11.062 183.26 11.4645 183.35 11.9265 183.349L138.839 210.92L139.281 201.643L15.5575 174.389Z" fill="url(#paint3_linear_386_115402)"/>
<g filter="url(#filter1_f_386_115402)">
<path d="M440.572 12.5654C442.339 12.1238 442.692 13.8025 441.897 14.3326L138.839 202.087L12.9331 174.697C12.0496 174.521 11.9612 173.284 12.8447 173.018L440.572 12.5654Z" fill="url(#paint4_linear_386_115402)" fill-opacity="0.6"/>
</g>
<path d="M440.572 12.5654C442.339 12.1238 442.692 13.8025 441.897 14.3326L138.839 202.087L12.9331 174.697C12.0496 174.521 11.9612 173.284 12.8447 173.018L440.572 12.5654Z" fill="url(#paint5_linear_386_115402)"/>
<path fill-rule="evenodd" clip-rule="evenodd" d="M178.603 215.755L182.756 207.008C182.403 206.655 182.403 206.213 182.579 205.859L182.137 206.478C181.254 207.803 178.25 215.49 178.603 215.755ZM289.047 313.395L293.023 306.769L182.756 207.016L178.603 215.763L289.047 313.395Z" fill="url(#paint6_linear_386_115402)"/>
<path d="M293.465 306.32L289.93 312.947C289.754 313.212 289.4 313.477 289.047 313.389L292.67 306.674C292.935 306.762 293.288 306.585 293.465 306.32Z" fill="#22A6D7"/>
<g filter="url(#filter2_f_386_115402)">
<path d="M439.248 13.4255C441.899 12.1001 442.386 13.6174 442.033 14.2358L293.462 306.235C293.286 306.588 293.021 306.765 292.667 306.676L182.753 207.012C182.312 206.658 182.4 205.952 182.842 205.687L439.248 13.4255Z" fill="url(#paint7_linear_386_115402)" fill-opacity="0.6"/>
</g>
<path d="M439.248 13.4255C441.899 12.1001 442.386 13.6174 442.033 14.2358L293.462 306.235C293.286 306.588 293.021 306.765 292.667 306.676L182.753 207.012C182.312 206.658 182.4 205.952 182.842 205.687L439.248 13.4255Z" fill="url(#paint8_linear_386_115402)"/>
<path fill-rule="evenodd" clip-rule="evenodd" d="M127.395 335.784L129.121 200.305L139.416 201.998L136.453 334.946C138.035 335.026 139.518 334.795 140.608 334.163L136.524 344.114C133.31 345.98 128.979 344.574 127.107 341.349L127.395 335.784Z" fill="url(#paint9_linear_386_115402)"/>
<defs>
<filter id="filter0_f_386_115402" x="31.205" y="56.6522" width="460.572" height="360.738" filterUnits="userSpaceOnUse" color-interpolation-filters="sRGB">
<feFlood flood-opacity="0" result="BackgroundImageFix"/>
<feBlend mode="normal" in="SourceGraphic" in2="BackgroundImageFix" result="shape"/>
<feGaussianBlur stdDeviation="7.06841" result="effect1_foregroundBlur_386_115402"/>
</filter>
<filter id="filter1_f_386_115402" x="0.292185" y="0.559763" width="453.939" height="213.46" filterUnits="userSpaceOnUse" color-interpolation-filters="sRGB">
<feFlood flood-opacity="0" result="BackgroundImageFix"/>
<feBlend mode="normal" in="SourceGraphic" in2="BackgroundImageFix" result="shape"/>
<feGaussianBlur stdDeviation="5.96621" result="effect1_foregroundBlur_386_115402"/>
</filter>
<filter id="filter2_f_386_115402" x="170.53" y="0.966013" width="283.537" height="317.666" filterUnits="userSpaceOnUse" color-interpolation-filters="sRGB">
<feFlood flood-opacity="0" result="BackgroundImageFix"/>
<feBlend mode="normal" in="SourceGraphic" in2="BackgroundImageFix" result="shape"/>
<feGaussianBlur stdDeviation="5.96621" result="effect1_foregroundBlur_386_115402"/>
</filter>
<linearGradient id="paint0_linear_386_115402" x1="419.944" y1="76.9895" x2="99.2149" y2="229.402" gradientUnits="userSpaceOnUse">
<stop stop-color="#23A8DA"/>
<stop offset="1" stop-color="#C7EAF7"/>
</linearGradient>
<linearGradient id="paint1_linear_386_115402" x1="206.562" y1="220.093" x2="186.682" y2="319.935" gradientUnits="userSpaceOnUse">
<stop stop-color="#27ABDC"/>
<stop offset="1" stop-color="#A8DDF1"/>
</linearGradient>
<linearGradient id="paint2_linear_386_115402" x1="199.497" y1="223.633" x2="132.347" y2="344.68" gradientUnits="userSpaceOnUse">
<stop stop-color="#119ACD"/>
<stop offset="0.945833" stop-color="#5EC4E9"/>
</linearGradient>
<linearGradient id="paint3_linear_386_115402" x1="-9.01486" y1="168.865" x2="140.748" y2="211.26" gradientUnits="userSpaceOnUse">
<stop stop-color="#2996BE"/>
<stop offset="1" stop-color="#23ABDE"/>
</linearGradient>
<linearGradient id="paint4_linear_386_115402" x1="333.665" y1="16.594" x2="21.1845" y2="-2.42333" gradientUnits="userSpaceOnUse">
<stop stop-color="#0079FF"/>
<stop offset="1" stop-color="#DAB6FF"/>
</linearGradient>
<linearGradient id="paint5_linear_386_115402" x1="442.031" y1="0.122444" x2="-11.6723" y2="175.949" gradientUnits="userSpaceOnUse">
<stop stop-color="#ADE9FF"/>
<stop offset="1" stop-color="#3DB4E1"/>
</linearGradient>
<linearGradient id="paint6_linear_386_115402" x1="183.597" y1="214.357" x2="279.911" y2="330.104" gradientUnits="userSpaceOnUse">
<stop stop-color="#199ED0"/>
<stop offset="1" stop-color="#23A7D8"/>
</linearGradient>
<linearGradient id="paint7_linear_386_115402" x1="457.465" y1="13.2145" x2="394.82" y2="384.611" gradientUnits="userSpaceOnUse">
<stop offset="0.0812499" stop-color="#007BFF"/>
<stop offset="1" stop-color="#EEDEFF"/>
</linearGradient>
<linearGradient id="paint8_linear_386_115402" x1="497.697" y1="102.149" x2="182.269" y2="208.617" gradientUnits="userSpaceOnUse">
<stop offset="0.0812499" stop-color="#B5EAFE"/>
<stop offset="1" stop-color="#3BB3E0"/>
</linearGradient>
<linearGradient id="paint9_linear_386_115402" x1="133.673" y1="200.673" x2="133.857" y2="344.949" gradientUnits="userSpaceOnUse">
<stop stop-color="#23A9DB"/>
<stop offset="1" stop-color="#61C6EA"/>
</linearGradient>
</defs>
</svg>
