<svg width="122" height="122" viewBox="0 0 122 122" fill="none" xmlns="http://www.w3.org/2000/svg">
<g filter="url(#filter0_f_386_115840)">
<path d="M42.3004 33.6973C46.6142 30.7821 47.5672 32.0558 49.3466 34.6889L87.0559 86.5564C88.8354 89.1895 87.5682 91.9636 83.5241 94.6967L70.0438 103.807C65.7301 106.722 62.9531 106.681 61.1737 104.048L27.0924 49.7284C25.313 47.0954 24.776 45.5404 28.8201 42.8074L42.3004 33.6973Z" fill="#18174A" fill-opacity="0.3"/>
</g>
<path fill-rule="evenodd" clip-rule="evenodd" d="M89.8473 68.4856C91.3461 70.7034 89.9615 73.2544 85.9602 75.9585L85.9937 76.008C85.8712 76.0767 85.7448 76.1444 85.6145 76.2109L86.611 77.6854L86.6145 77.683L94.4735 89.3121L94.4755 89.3107L95.4697 90.7818L95.4697 90.7818C95.5861 90.7031 95.7025 90.6244 95.8184 90.5458L95.8272 90.5589C96.302 90.238 96.7378 89.9235 97.1354 89.6149C97.4392 89.3851 97.7219 89.1554 97.9706 88.9257C98.168 88.7515 98.3527 88.5793 98.5249 88.4088L98.5611 88.4623C98.7226 88.262 98.8613 88.1119 98.9798 87.9837L98.9798 87.9837C99.1715 87.7763 99.3102 87.6262 99.4067 87.4135L99.4048 87.4108C99.6371 87.1007 99.8255 86.7962 99.971 86.4966L99.9851 86.527L100.141 86.1829L100.12 86.1521C100.219 85.8917 100.286 85.6349 100.319 85.3813C100.327 85.363 100.335 85.3441 100.343 85.3247L100.329 85.3031C100.411 84.5398 100.2 83.8048 99.7143 83.086L89.8473 68.4856ZM72.3932 85.3906L72.3893 85.3849C68.3881 88.089 65.5898 88.5482 64.2612 86.5822L64.2983 86.6371C64.2857 86.6193 64.2733 86.6014 64.261 86.5832L73.0077 99.5258C73.0854 99.6408 73.1673 99.7481 73.2533 99.8477C73.1664 99.7499 73.0843 99.6439 73.0072 99.5298L74.0036 101.004C75.3323 102.97 77.8638 102.691 82.1318 99.807L81.1371 98.3351L81.1416 98.3321L82.1334 99.7997L95.471 90.7861L94.4745 89.3116L94.4696 89.3149L86.724 77.8537L85.7276 76.3792L72.3932 85.3906ZM81.1333 98.3303C80.7751 98.5723 80.4291 98.796 80.095 99.0016C80.432 98.7965 80.7787 98.5736 81.135 98.3328L81.1333 98.3303Z" fill="url(#paint0_linear_386_115840)"/>
<g style="mix-blend-mode:lighten" filter="url(#filter1_f_386_115840)">
<path d="M44.7106 15.2276C49.0243 12.3124 49.9773 13.5861 51.7568 16.2192L89.4661 68.0867C91.2455 70.7198 89.9784 73.4939 85.9343 76.2269L72.4539 85.337C68.1402 88.2523 65.3633 88.2111 63.5838 85.5781L29.5026 31.2587C27.7231 28.6256 27.1861 27.0707 31.2302 24.3377L44.7106 15.2276Z" fill="url(#paint1_linear_386_115840)" fill-opacity="0.6"/>
</g>
<path d="M44.7106 15.2276C49.0243 12.3124 49.9773 13.5861 51.7568 16.2192L89.4661 68.0867C91.2455 70.7198 89.9784 73.4939 85.9343 76.2269L72.4539 85.337C68.1402 88.2523 65.3633 88.2111 63.5838 85.5781L29.5026 31.2587C27.7231 28.6256 27.1861 27.0707 31.2302 24.3377L44.7106 15.2276Z" fill="url(#paint2_linear_386_115840)"/>
<defs>
<filter id="filter0_f_386_115840" x="21.196" y="27.4743" width="71.1999" height="83.0886" filterUnits="userSpaceOnUse" color-interpolation-filters="sRGB">
<feFlood flood-opacity="0" result="BackgroundImageFix"/>
<feBlend mode="normal" in="SourceGraphic" in2="BackgroundImageFix" result="shape"/>
<feGaussianBlur stdDeviation="2.27702" result="effect1_foregroundBlur_386_115840"/>
</filter>
<filter id="filter1_f_386_115840" x="17.3172" y="2.71563" width="83.7777" height="95.6664" filterUnits="userSpaceOnUse" color-interpolation-filters="sRGB">
<feFlood flood-opacity="0" result="BackgroundImageFix"/>
<feBlend mode="normal" in="SourceGraphic" in2="BackgroundImageFix" result="shape"/>
<feGaussianBlur stdDeviation="5.42148" result="effect1_foregroundBlur_386_115840"/>
</filter>
<linearGradient id="paint0_linear_386_115840" x1="74.1152" y1="105.232" x2="104.745" y2="84.5319" gradientUnits="userSpaceOnUse">
<stop stop-color="#CA3038"/>
<stop offset="0.809203" stop-color="#FCB6A5"/>
<stop offset="0.9875" stop-color="#F86157"/>
</linearGradient>
<linearGradient id="paint1_linear_386_115840" x1="50.9586" y1="5.60213" x2="67.5749" y2="97.48" gradientUnits="userSpaceOnUse">
<stop stop-color="#FF0075"/>
<stop offset="1" stop-color="#DC592D"/>
</linearGradient>
<linearGradient id="paint2_linear_386_115840" x1="54.2908" y1="-7.45575" x2="60.0143" y2="96.286" gradientUnits="userSpaceOnUse">
<stop offset="0.0291665" stop-color="#FBB2A1"/>
<stop offset="0.636094" stop-color="#DC592D"/>
<stop offset="0.977083" stop-color="#BD4145"/>
</linearGradient>
</defs>
</svg>
