<svg width="122" height="122" viewBox="0 0 122 122" fill="none" xmlns="http://www.w3.org/2000/svg">
<g filter="url(#filter0_f_386_115929)">
<path d="M60.1108 59.9946C63.2658 58.0065 66.9448 56.85 69.2642 57.4217L114.029 70.1691C114.51 70.1561 114.773 70.5719 114.904 70.7798C114.904 70.7798 114.904 70.7798 115.035 70.9877L115.166 71.1956C115.297 71.4035 115.077 71.8323 115.077 71.8323C115.208 72.0402 114.857 72.2612 114.638 72.69C114.287 72.9109 114.418 73.1188 114.068 73.3397C113.717 73.5606 113.848 73.7685 113.498 73.9894C113.147 74.2103 112.928 74.6391 112.928 74.6391C112.227 75.0809 112.227 75.0809 112.227 75.0809L60.3445 107.775L59.9939 107.996C59.6434 108.217 59.6434 108.217 59.6434 108.217C59.2928 108.437 59.2928 108.437 59.2928 108.437L58.9422 108.658C58.5917 108.879 58.2411 109.1 58.2411 109.1C56.7079 109.776 55.3942 110.023 54.0805 110.27C53.73 110.491 53.5989 110.283 53.5989 110.283L53.1174 110.296C52.1542 110.322 52.0232 110.114 52.0232 110.114C50.3165 109.737 49.3109 108.918 49.927 106.787L54.8029 67.1155C54.3249 64.8026 56.9558 61.9828 60.1108 59.9946Z" fill="#26255F" fill-opacity="0.3"/>
</g>
<path d="M34.7992 86.2892L35.9616 88.1339C35.0074 88.1625 34.8782 87.9575 34.8782 87.9575C33.924 87.9861 33.1886 87.5904 32.8011 86.9755L31.6387 85.1309C32.0262 85.7458 32.7616 86.1414 33.7158 86.1128C33.845 86.3178 33.845 86.3178 34.7992 86.2892Z" fill="#848484"/>
<path d="M96.5162 47.6875L97.6786 49.5321C97.8078 49.7371 97.589 50.1613 97.589 50.1613L97.3702 50.5856L96.2078 48.7409L96.4266 48.3166C96.4266 48.3166 96.6454 47.8924 96.5162 47.6875Z" fill="#919191"/>
<path d="M96.3346 48.9443L97.497 50.789C97.497 50.789 97.497 50.789 97.2782 51.2132L97.0594 51.6374L95.897 49.7927C95.7678 49.5878 96.1158 49.3685 96.3346 48.9443Z" fill="#8C8C8C"/>
<path d="M95.7662 49.5849L96.9286 51.4296C96.5807 51.6489 96.7099 51.8538 96.3619 52.0731L95.1995 50.2284C95.5474 50.0091 95.5474 50.0091 95.7662 49.5849Z" fill="#888888"/>
<path d="M95.2015 50.2319L96.3639 52.0766C96.3639 52.0766 96.3639 52.0766 96.016 52.2959L95.2015 50.2319Z" fill="#888888"/>
<path d="M94.8521 50.4453L96.0146 52.29C95.6666 52.5092 95.6666 52.5092 95.3187 52.7285L94.1562 50.8838C94.6334 50.8695 94.9813 50.6502 94.8521 50.4453Z" fill="#848484"/>
<path d="M93.9392 51.3035L42.4434 83.7539L43.6058 85.5986L95.1016 53.1482L93.9392 51.3035Z" fill="#858585"/>
<path d="M42.4428 83.7507L43.6052 85.5954L43.2573 85.8146C42.9093 86.0339 42.9093 86.0339 42.9093 86.0339C42.5614 86.2531 42.5614 86.2531 42.5614 86.2531L42.2134 86.4724C41.8655 86.6917 41.5175 86.9109 41.5175 86.9109C39.9966 87.583 38.6945 87.8308 37.3923 88.0787C37.0444 88.2979 36.9152 88.093 36.9152 88.093L36.4381 88.1073L35.1465 86.0576C35.1465 86.0576 35.1465 86.0576 35.6236 86.0433L36.1007 86.029C37.4029 85.7812 38.705 85.5333 40.2259 84.8613C40.5739 84.642 40.5739 84.642 40.9218 84.4227L41.2698 84.2035L41.6177 83.9842L41.9657 83.765C42.4428 83.7507 42.4428 83.7507 42.4428 83.7507Z" fill="#848484"/>
<path d="M94.6353 50.8545L95.7978 52.6991C95.1019 53.1377 95.1019 53.1377 95.1019 53.1377L93.9395 51.293C93.9395 51.293 93.9394 51.293 94.6353 50.8545Z" fill="#848484"/>
<path d="M96.3353 48.919C96.6832 48.6997 96.5541 48.4947 96.4249 48.2898C96.6437 47.8655 96.5145 47.6606 96.5145 47.6606L106.718 63.8529C106.977 64.2628 106.758 64.687 106.191 65.3305L95.9873 49.1382L96.3353 48.919Z" fill="#919191"/>
<path d="M106.538 65.1236L107.701 66.9683L106.538 65.1236C106.19 65.3429 106.19 65.3429 106.538 65.1236Z" fill="#818181"/>
<path d="M106.19 65.3462L107.352 67.1909L107.133 67.6151L105.971 65.7704L106.19 65.3462Z" fill="#828282"/>
<path d="M96.1167 49.3602C95.9875 49.1553 95.9875 49.1553 96.1167 49.3602L106.539 65.1283L105.972 65.7718L95.7687 49.5795C95.7687 49.5795 95.7687 49.5795 96.1167 49.3602Z" fill="#8D8D8D"/>
<path d="M105.973 65.7671L107.136 67.6118L96.5841 51.6387L95.5508 49.999L105.973 65.7671Z" fill="#808080"/>
<path d="M95.5491 50.0014L105.972 65.7695L105.405 66.413L95.2012 50.2207C95.2012 50.2207 95.2012 50.2207 95.5491 50.0014C95.2012 50.2207 95.2012 50.2207 95.5491 50.0014Z" fill="#888888"/>
<path d="M105.626 65.9853L106.788 67.83L106.221 68.4735L105.059 66.6288L105.626 65.9853Z" fill="#818181"/>
<path d="M105.055 66.6357L106.218 68.4804L105.87 68.6997L105.522 68.9189L104.359 67.0742C104.489 67.2792 104.836 67.0599 105.055 66.6357C104.707 66.855 105.055 66.6357 105.055 66.6357Z" fill="#808080"/>
<path d="M42.046 84.5141C42.3971 84.2929 42.7481 84.0717 43.0991 83.8505L53.2307 99.9284C47.9653 103.246 43.3008 103.627 42.0183 101.592L31.8867 85.5137C32.015 85.7172 32.015 85.7172 32.015 85.7172C32.015 85.7172 32.015 85.7172 32.1432 85.9207C32.1432 85.9207 32.1432 85.9207 32.2715 86.1242L32.3997 86.3277C32.6562 86.7348 33.1355 86.7171 33.6148 86.6994C33.6148 86.6994 33.743 86.9029 34.094 86.6817C34.094 86.6817 34.094 86.6817 34.5733 86.664C34.5733 86.664 34.5733 86.664 35.0526 86.6464C35.5319 86.6287 35.5319 86.6287 35.8829 86.4075L36.3622 86.3898C36.3622 86.3898 36.3622 86.3898 36.7132 86.1686C36.7132 86.1686 36.7132 86.1686 37.0642 85.9474C37.0642 85.9474 37.4152 85.7262 37.5435 85.9297C37.5435 85.9297 37.8945 85.7085 38.0228 85.912L38.3738 85.6908L38.7248 85.4696C39.0759 85.2484 39.5551 85.2307 40.2572 84.7883L40.6082 84.5671C41.695 84.7353 41.695 84.7353 42.046 84.5141Z" fill="url(#paint0_linear_386_115929)"/>
<path fill-rule="evenodd" clip-rule="evenodd" d="M90.1643 55.9289L91.2082 55.2711C91.5561 55.0518 91.5561 55.0518 91.8211 53.9295L92.169 53.7102C92.5767 53.4533 92.8156 53.1935 93.0136 52.9782C93.1536 52.826 93.2731 52.6961 93.4172 52.6052L93.7651 52.386L94.1131 52.1667C94.0099 52.003 94.1604 51.8437 94.2533 51.767L93.9379 51.2894L94.2858 51.0702L94.6338 50.8509L94.9817 50.6317L95.1399 50.8827L95.2176 50.8338L95.4219 50.3866C95.7698 50.1674 95.7698 50.1674 95.9741 49.7202L96.1784 49.273L96.3827 48.8258C96.7307 48.6065 96.587 48.3786 96.587 48.3786C96.7914 47.9314 96.9957 47.4842 96.7084 47.0283L107.481 64.1238C108.918 66.4032 107.14 68.7175 100.905 72.0891L90.1643 55.9289Z" fill="url(#paint1_linear_386_115929)"/>
<path d="M104.491 67.2651L105.653 69.1098L105.305 69.3291L104.491 67.2651C104.143 67.4844 104.143 67.4844 104.491 67.2651Z" fill="#FAD9A2"/>
<path d="M52.6485 99.9397L53.8109 101.784C48.9397 104.854 44.2978 105.202 43.0062 103.152L41.8438 101.308C43.1354 103.357 47.7772 103.009 52.6485 99.9397Z" fill="url(#paint2_linear_386_115929)"/>
<path fill-rule="evenodd" clip-rule="evenodd" d="M42.4434 83.7529L93.9392 51.3025L104.143 67.4946L104.144 67.4938L105.306 69.3385L53.8106 101.789L52.6483 99.9444L52.647 99.9452L42.4434 83.7529Z" fill="url(#paint3_linear_386_115929)"/>
<g style="mix-blend-mode:lighten" filter="url(#filter1_f_386_115929)">
<path d="M42.603 37.52C45.758 35.5319 49.437 34.3754 51.7564 34.9471L96.5211 47.6945C97.0027 47.6815 97.2647 48.0973 97.3957 48.3052C97.3957 48.3052 97.3957 48.3052 97.5267 48.5131L97.6577 48.721C97.7888 48.9289 97.5692 49.3577 97.5692 49.3577C97.7002 49.5656 97.3497 49.7865 97.1301 50.2154C96.7796 50.4363 96.9106 50.6442 96.56 50.8651C96.2095 51.086 96.3405 51.2939 95.99 51.5148C95.6394 51.7357 95.4199 52.1645 95.4199 52.1645C94.7187 52.6063 94.7188 52.6063 94.7188 52.6063L42.8367 85.3002L42.4861 85.5211C42.1355 85.742 42.1355 85.742 42.1355 85.742C41.785 85.9629 41.785 85.9629 41.785 85.9629L41.4344 86.1838C41.0839 86.4047 40.7333 86.6256 40.7333 86.6256C39.2001 87.3013 37.8864 87.5482 36.5727 87.7951C36.2221 88.016 36.0911 87.8081 36.0911 87.8081L35.6096 87.8211C34.6464 87.8471 34.5154 87.6392 34.5154 87.6392C32.8087 87.2623 31.803 86.4437 32.4192 84.3126L37.2951 44.6409C36.8171 42.328 39.448 39.5082 42.603 37.52Z" fill="url(#paint4_linear_386_115929)" fill-opacity="0.6"/>
</g>
<path d="M42.101 36.7241C45.256 34.736 48.9351 33.5795 51.2544 34.1512L96.0191 46.8986C96.5007 46.8856 96.7627 47.3014 96.8938 47.5093C96.8938 47.5093 96.8938 47.5093 97.0248 47.7172L97.1558 47.9251C97.2868 48.133 97.0673 48.5618 97.0673 48.5618C97.1983 48.7697 96.8477 48.9906 96.6282 49.4195C96.2776 49.6404 96.4086 49.8483 96.0581 50.0692C95.7075 50.2901 95.8386 50.498 95.488 50.7189C95.1374 50.9398 94.9179 51.3686 94.9179 51.3686C94.2168 51.8104 94.2168 51.8104 94.2168 51.8104L42.3347 84.5043L41.9841 84.7252C41.6336 84.9461 41.6336 84.9461 41.6336 84.9461C41.283 85.167 41.283 85.167 41.283 85.167L40.9325 85.3879C40.5819 85.6088 40.2314 85.8297 40.2314 85.8297C38.6981 86.5054 37.3844 86.7523 36.0707 86.9992C35.7202 87.2201 35.5892 87.0122 35.5892 87.0122L35.1076 87.0252C34.1445 87.0512 34.0135 86.8433 34.0135 86.8433C32.3067 86.4664 31.3011 85.6478 31.9172 83.5167L36.7931 43.845C36.3151 41.5321 38.946 38.7123 42.101 36.7241Z" fill="url(#paint5_linear_386_115929)"/>
<defs>
<filter id="filter0_f_386_115929" x="44.2563" y="51.7875" width="76.4387" height="64.0715" filterUnits="userSpaceOnUse" color-interpolation-filters="sRGB">
<feFlood flood-opacity="0" result="BackgroundImageFix"/>
<feBlend mode="normal" in="SourceGraphic" in2="BackgroundImageFix" result="shape"/>
<feGaussianBlur stdDeviation="2.74394" result="effect1_foregroundBlur_386_115929"/>
</filter>
<filter id="filter1_f_386_115929" x="18.5321" y="21.0966" width="92.8713" height="80.5041" filterUnits="userSpaceOnUse" color-interpolation-filters="sRGB">
<feFlood flood-opacity="0" result="BackgroundImageFix"/>
<feBlend mode="normal" in="SourceGraphic" in2="BackgroundImageFix" result="shape"/>
<feGaussianBlur stdDeviation="6.85209" result="effect1_foregroundBlur_386_115929"/>
</filter>
<linearGradient id="paint0_linear_386_115929" x1="33.4039" y1="95.059" x2="47.9112" y2="90.4779" gradientUnits="userSpaceOnUse">
<stop stop-color="#848484"/>
<stop offset="0.0001" stop-color="#D89731"/>
<stop offset="1" stop-color="#E9B43B"/>
</linearGradient>
<linearGradient id="paint1_linear_386_115929" x1="101.419" y1="62.2914" x2="105.954" y2="58.8761" gradientUnits="userSpaceOnUse">
<stop stop-color="#FAD9A2"/>
<stop offset="1" stop-color="#FEF9F2"/>
</linearGradient>
<linearGradient id="paint2_linear_386_115929" x1="42.9464" y1="103.057" x2="52.6839" y2="100.822" gradientUnits="userSpaceOnUse">
<stop stop-color="#DFA435"/>
<stop offset="1" stop-color="#E9B43B"/>
</linearGradient>
<linearGradient id="paint3_linear_386_115929" x1="50.3169" y1="96.1888" x2="107.716" y2="61.6908" gradientUnits="userSpaceOnUse">
<stop stop-color="#E8B33B"/>
<stop offset="1" stop-color="#FCDEAF"/>
</linearGradient>
<linearGradient id="paint4_linear_386_115929" x1="50.4241" y1="30.9196" x2="50.122" y2="80.4957" gradientUnits="userSpaceOnUse">
<stop stop-color="#FEBB08"/>
<stop offset="1" stop-color="#FF5C00"/>
</linearGradient>
<linearGradient id="paint5_linear_386_115929" x1="49.3246" y1="24.258" x2="35.3489" y2="95.4147" gradientUnits="userSpaceOnUse">
<stop stop-color="#F8D68D"/>
<stop offset="1" stop-color="#FDC124"/>
</linearGradient>
</defs>
</svg>
