<svg width="123" height="122" viewBox="0 0 123 122" fill="none" xmlns="http://www.w3.org/2000/svg">
<g clip-path="url(#clip0_386_116025)">
<g filter="url(#filter0_f_386_116025)">
<path d="M61.8093 56.0097C66.5322 56.9576 66.2197 58.952 65.7363 61.3601L63.1501 84.5181L100.638 92.0421C105.361 92.99 107.163 94.7183 106.975 97.1856L105.701 103.534C105.174 106.161 102.593 106.782 97.8259 106.053C85.4284 103.565 73.0308 101.076 60.3381 98.5288C50.8923 96.633 41.4466 94.7372 32.0009 92.8413C25.5069 91.538 19.0129 90.2346 12.519 88.9312C7.79611 87.9833 5.99349 86.2551 6.52075 83.6281L7.79496 77.2795C8.32221 74.6525 10.6081 73.9726 15.331 74.9205L34.8129 78.8306L41.1099 56.4174C41.6372 53.7904 42.6226 52.1588 47.0503 53.0475L61.8093 56.0097Z" fill="#0D0C38" fill-opacity="0.3"/>
</g>
<path d="M108.406 73.6703L108.083 75.2822C107.717 75.5814 107.314 76.0596 106.984 76.1797L107.308 74.5678C107.638 74.4477 108.004 74.1486 108.406 73.6703Z" fill="#919191"/>
<path d="M107.309 74.5688L106.985 76.1807C106.655 76.3007 106.325 76.4208 106.03 76.3617L106.318 74.9289C106.648 74.8089 106.978 74.6888 107.309 74.5688Z" fill="#8C8C8C"/>
<path d="M106.319 74.9232L105.995 76.5351C105.665 76.6552 105.041 76.7161 104.452 76.598L104.776 74.9861C105.106 74.8661 105.694 74.9842 106.319 74.9232Z" fill="#888888"/>
<path d="M104.773 74.9822L104.45 76.5941C103.531 76.596 102.318 76.5388 100.847 76.2435L101.17 74.6316C102.383 74.6888 103.56 74.925 104.773 74.9822Z" fill="#848484"/>
<path d="M101.17 74.6582L100.846 76.2701C88.4872 73.7896 76.1283 71.3091 63.4752 68.7696C54.0589 66.8796 44.6426 64.9897 35.2263 63.0998C28.7526 61.8005 22.2789 60.5012 15.8052 59.2019C11.0971 58.2569 9.25294 56.7689 9.68429 54.6197L10.0078 53.0078C9.57645 55.157 11.7148 56.7041 16.1287 57.59C22.6024 58.8893 29.0761 60.1886 35.5498 61.4879C44.9661 63.3778 54.3824 65.2677 63.7987 67.1577C76.1576 69.6382 88.5165 72.1187 101.17 74.6582Z" fill="#848484"/>
<path fill-rule="evenodd" clip-rule="evenodd" d="M53.8726 64.8227L16.522 57.3262L16.4556 57.6575L16.129 57.5919C11.7151 56.706 9.57672 55.159 10.0081 53.0098L7.1683 67.1587C7.16439 67.1781 7.16067 67.1975 7.15713 67.2169L6.88056 68.5949C6.4492 70.7441 8.29332 72.2321 13.0015 73.1771L13.3275 73.2425L13.3237 73.2616L50.6742 80.7581L78.9077 86.4247L98.3182 90.3205C98.5254 90.3621 98.7279 90.4003 98.9258 90.4352L98.9252 90.4367L99.2195 90.4958L99.2216 90.4853L99.2239 90.4857L99.221 90.4928L99.5153 90.5518L99.5194 90.5316C99.619 90.5464 99.7174 90.5602 99.8145 90.5731L99.8097 90.5969L100.104 90.6559L100.113 90.6103C100.477 90.6526 100.823 90.681 101.15 90.6955L101.317 90.729L101.32 90.7151L101.609 90.7732L101.623 90.707L101.625 90.707L101.61 90.7829L101.904 90.842C101.904 90.842 102.234 90.722 102.529 90.781L102.552 90.6629L102.553 90.6629L102.53 90.776C102.566 90.5969 102.86 90.6559 102.86 90.6559L102.862 90.6477L103.152 90.706L103.18 90.5664C103.297 90.5421 103.409 90.5147 103.518 90.4842L103.483 90.5758L103.813 90.4558L103.828 90.3848C103.947 90.3413 104.061 90.2936 104.17 90.2415L104.145 90.3653C104.475 90.2453 104.841 89.9462 105.207 89.6472L105.207 89.647L105.243 89.4679L105.268 89.345C105.531 88.9832 105.71 88.5503 105.811 88.0473L108.72 73.554L108.736 73.5694L108.808 73.2112C108.803 73.2395 108.79 73.2619 108.775 73.2804L109.009 72.112C108.524 74.5325 105.928 75.2706 101.516 74.3852L82.106 70.4894L53.8726 64.8227ZM102.866 90.6268L102.867 90.6227L102.868 90.6226L102.866 90.6268Z" fill="url(#paint0_linear_386_116025)"/>
<g style="mix-blend-mode:lighten" filter="url(#filter1_f_386_116025)">
<path d="M65.6453 24.124C70.3681 25.0719 70.0556 27.0662 69.5723 29.4743L66.9861 52.6323L104.474 60.1564C109.197 61.1043 110.999 62.8325 110.811 65.2999L109.537 71.6485C109.01 74.2755 106.429 74.8961 101.662 74.1671C89.2643 71.6788 76.8667 69.1906 64.174 66.6431C54.7283 64.7472 45.2825 62.8514 35.8368 60.9556C29.3428 59.6522 22.8489 58.3488 16.3549 57.0455C11.632 56.0975 9.82943 54.3693 10.3567 51.7423L11.6309 45.3937C12.1582 42.7667 14.4441 42.0868 19.167 43.0347L38.6488 46.9449L44.9459 24.5317C45.4731 21.9046 46.4586 20.2731 50.8863 21.1617L65.6453 24.124Z" fill="url(#paint1_linear_386_116025)" fill-opacity="0.6"/>
</g>
<path d="M65.0945 24.6679C69.8174 25.6158 70.4061 27.5122 69.9228 29.9203L66.4353 53.1763L103.923 60.7003C108.646 61.6483 110.449 63.3765 110.26 65.8438L108.986 72.1924C108.459 74.8194 105.878 75.4401 101.111 74.7111C88.7135 72.2228 76.316 69.7345 63.6232 67.187C54.1775 65.2912 44.7318 63.3954 35.286 61.4995C28.7921 60.1962 22.2981 58.8928 15.8041 57.5894C11.0813 56.6415 9.27865 54.9133 9.80591 52.2863L11.0801 45.9377C11.6074 43.3107 13.8933 42.6308 18.6162 43.5787L38.0981 47.4888L44.0704 24.4013C44.5977 21.7743 45.9078 20.817 50.3355 21.7057L65.0945 24.6679Z" fill="url(#paint2_linear_386_116025)"/>
</g>
<defs>
<filter id="filter0_f_386_116025" x="1.23704" y="47.6091" width="110.946" height="63.9214" filterUnits="userSpaceOnUse" color-interpolation-filters="sRGB">
<feFlood flood-opacity="0" result="BackgroundImageFix"/>
<feBlend mode="normal" in="SourceGraphic" in2="BackgroundImageFix" result="shape"/>
<feGaussianBlur stdDeviation="2.5973" result="effect1_foregroundBlur_386_116025"/>
</filter>
<filter id="filter1_f_386_116025" x="0.266759" y="10.9171" width="120.558" height="73.5339" filterUnits="userSpaceOnUse" color-interpolation-filters="sRGB">
<feFlood flood-opacity="0" result="BackgroundImageFix"/>
<feBlend mode="normal" in="SourceGraphic" in2="BackgroundImageFix" result="shape"/>
<feGaussianBlur stdDeviation="5.00041" result="effect1_foregroundBlur_386_116025"/>
</filter>
<linearGradient id="paint0_linear_386_116025" x1="5.83265" y1="66.845" x2="108.857" y2="90.3301" gradientUnits="userSpaceOnUse">
<stop stop-color="#75B6E9"/>
<stop offset="0.0507196" stop-color="#ABE7FE"/>
<stop offset="0.247388" stop-color="#9ADFFB"/>
<stop offset="0.833886" stop-color="#9BDFFB"/>
<stop offset="0.922004" stop-color="#C6EFFF"/>
<stop offset="0.977146" stop-color="#7EBEEC"/>
</linearGradient>
<linearGradient id="paint1_linear_386_116025" x1="111.319" y1="62.7697" x2="16.6501" y2="57.1047" gradientUnits="userSpaceOnUse">
<stop stop-color="#0497FF"/>
<stop offset="1" stop-color="#7B00FF"/>
</linearGradient>
<linearGradient id="paint2_linear_386_116025" x1="110.768" y1="63.3137" x2="16.0993" y2="57.6486" gradientUnits="userSpaceOnUse">
<stop stop-color="#E7F8FF"/>
<stop offset="1" stop-color="#C5EFFF"/>
</linearGradient>
<clipPath id="clip0_386_116025">
<rect width="122" height="122" fill="white" transform="translate(0.5)"/>
</clipPath>
</defs>
</svg>
