<svg width="122" height="122" viewBox="0 0 122 122" fill="none" xmlns="http://www.w3.org/2000/svg">
<g clip-path="url(#clip0_386_116132)">
<g filter="url(#filter0_f_386_116132)">
<path d="M56.3375 66.8511C57.4938 67.2414 58.7543 68.2532 59.8271 68.8906L82.346 86.1254C83.9136 87.205 83.58 88.1935 82.1735 88.5446C82.1735 88.5446 82.1735 88.5447 81.512 88.5967C81.512 88.5967 81.512 88.5967 80.8504 88.6487L53.1547 88.661C51.915 88.5179 50.6754 88.3748 49.5191 87.9846C48.3628 87.5943 47.2899 86.9569 46.2171 86.3196L23.6982 69.0848C23.6982 69.0848 23.6982 69.0848 23.2034 68.6425C23.2034 68.6425 23.2034 68.6426 22.7087 68.2003C21.8027 67.0687 22.0529 66.3273 24.0375 66.1712L52.3948 66.1069C53.6344 66.25 54.6038 66.2128 56.3375 66.8511Z" fill="#26255F" fill-opacity="0.3"/>
</g>
<path d="M98.5059 55.2264L97.7552 57.4505C97.6718 57.6977 97.0103 57.7497 97.0103 57.7497L97.7609 55.5255C97.7609 55.5255 98.4225 55.4735 98.5059 55.2264Z" fill="#919191"/>
<path d="M97.6758 55.7635L96.9251 57.9877C96.9251 57.9877 96.9251 57.9877 96.8417 58.2348L97.6758 55.7635C97.0977 55.5684 97.0977 55.5684 97.6758 55.7635Z" fill="#919191"/>
<path d="M38.7056 35.8475L37.955 38.0717C37.955 38.0717 37.955 38.0717 37.4602 37.6294C36.9654 37.1871 37.0488 36.94 37.2156 36.4458L37.8828 34.4688C37.7994 34.7159 38.2108 35.4053 38.7056 35.8475Z" fill="#848484"/>
<path d="M97.0977 55.5702L96.3472 57.7944C96.3472 57.7944 96.3472 57.7944 95.6857 57.8464L97.0977 55.5702C97.0143 55.8173 97.0977 55.5702 97.0977 55.5702Z" fill="#8C8C8C"/>
<path d="M39.2012 36.305L38.4508 38.5292C38.4508 38.5292 38.4508 38.5292 37.956 38.0869L39.2012 36.305C39.2846 36.0579 39.2012 36.305 39.2012 36.305Z" fill="#848484"/>
<path d="M96.438 55.6245L95.6874 57.8486L67.9083 58.1081L68.6589 55.8839L96.438 55.6245Z" fill="#939393"/>
<path d="M61.72 53.5395L60.9694 55.7636L38.4505 38.5289L39.2012 36.3047L61.72 53.5395Z" fill="#808080"/>
<path d="M68.6582 55.867L67.9076 58.0912C67.9076 58.0912 67.3294 57.896 67.246 58.1432L68.6582 55.867C67.9967 55.919 68.0801 55.6719 68.6582 55.867Z" fill="#8C8C8C"/>
<path d="M67.9942 55.9137L67.2435 58.1378C66.6654 57.9427 66.582 58.1899 66.0038 57.9947L66.7545 55.7706C67.416 55.7186 67.416 55.7186 67.9942 55.9137Z" fill="#888888"/>
<path d="M66.7552 55.7738L66.0879 57.7508C65.5098 57.5557 64.9317 57.3606 64.3535 57.1655C63.1973 56.7752 62.1244 56.1378 61.0515 55.5005L61.7188 53.5234C62.7916 54.1608 63.8645 54.7982 65.0208 55.1884C65.5989 55.3835 66.1771 55.5787 66.7552 55.7738Z" fill="#848484"/>
<path d="M91.8331 74.9852L91.0826 77.2094L90.9993 77.4565L91.8331 74.9852C91.255 74.79 91.8331 74.9852 91.8331 74.9852Z" fill="#838383"/>
<path d="M90.5078 75.0936L89.7572 77.3177L89.179 77.1226L89.8463 75.1456L90.5078 75.0936Z" fill="#828282"/>
<path fill-rule="evenodd" clip-rule="evenodd" d="M38.6391 35.8744C38.3611 35.6907 38.16 35.5579 38.2115 35.4051L38.2115 35.4051C38.2417 35.3157 38.261 35.2586 38.2458 35.2129C38.2192 35.1324 38.0856 35.0874 37.7168 34.9629L31.2946 53.9919C31.291 54.0025 31.2877 54.0131 31.2847 54.0238L30.5421 56.224C30.4092 56.6181 31.113 57.2267 31.9475 57.7803L31.9444 57.7894L54.3799 75.2713L55.1281 73.0542L55.1289 73.0548L61.7179 53.5315L39.199 36.2968L32.6124 55.813L32.6121 55.8127L39.201 36.2896C39.012 36.1207 38.8109 35.9878 38.6391 35.8744ZM32.6115 55.8127L32.58 55.7938L32.6091 55.8199L32.6115 55.8127Z" fill="url(#paint0_linear_386_116132)"/>
<path d="M62.0684 75.4061L61.3177 77.6302L60.7396 77.4351L61.4068 75.4581L62.0684 75.4061Z" fill="#828282"/>
<path d="M66.8398 55.5389C67.418 55.734 67.418 55.734 66.8398 55.5389L67.418 55.734L60.829 75.2573L59.5893 75.1142L66.8398 55.5389C66.7564 55.786 66.7564 55.786 66.8398 55.5389Z" fill="#888888"/>
<path d="M60.166 75.3182L59.4154 77.5424L60.166 75.3182C59.5879 75.1231 59.5879 75.1231 60.166 75.3182Z" fill="#808080"/>
<path d="M59.5899 75.1014L58.8394 77.3257L58.2612 77.1305L59.5899 75.1014C59.0117 74.9063 59.5899 75.1014 59.5899 75.1014Z" fill="#808080"/>
<path fill-rule="evenodd" clip-rule="evenodd" d="M98.4931 55.4742L91.7421 75.4774C91.3549 76.6248 90.2703 77.3903 89.0595 77.3708L83.3085 77.2783L61.5581 77.82C60.6583 77.9747 59.043 77.8208 57.3438 76.8849L57.2242 76.8445C56.0679 76.4543 53.6224 75.1084 52.6258 73.6864L54.7737 71.6972C54.977 71.818 55.1975 71.991 55.4291 72.1947L61.7201 53.5545L61.7201 53.5545C62.4776 54.0045 63.235 54.4545 64.0219 54.8175L64.0841 54.6131L98.4931 55.4742Z" fill="url(#paint1_linear_386_116132)"/>
<g style="mix-blend-mode:lighten" filter="url(#filter1_f_386_116132)">
<path d="M72.2225 35.2463C73.3788 35.6365 74.4517 36.2739 75.5246 36.9112L98.0434 54.146C99.611 55.2256 99.2774 56.2142 97.8709 56.5653C97.8709 56.5653 97.8709 56.5653 97.2094 56.6173C97.2094 56.6173 97.2094 56.6173 96.5478 56.6693L68.8521 56.6817C67.6124 56.5386 66.3728 56.3955 65.2165 56.0052C64.0602 55.615 62.9873 54.9776 61.9145 54.3402L39.3956 37.1055C39.3956 37.1055 39.3956 37.1055 38.9009 36.6632C38.9009 36.6632 38.9009 36.6632 38.4061 36.221C37.5001 35.0893 37.7503 34.3479 39.7349 34.1919L68.0922 34.1276C69.3319 34.2707 71.0663 34.856 72.2225 35.2463Z" fill="url(#paint2_linear_386_116132)" fill-opacity="0.6"/>
</g>
<path d="M71.8414 34.0777C72.9977 34.4679 74.2582 35.4798 75.331 36.1171L97.8499 53.3519C99.4175 54.4315 99.0839 55.4201 97.6774 55.7712C97.6774 55.7712 97.6774 55.7712 97.0159 55.8232C97.0159 55.8232 97.0159 55.8232 96.3543 55.8752L68.6586 55.8876C67.4189 55.7445 66.1793 55.6014 65.023 55.2111C63.8667 54.8209 62.7938 54.1835 61.721 53.5461L39.2021 36.3114C39.2021 36.3114 39.2021 36.3114 38.7073 35.8691C38.7073 35.8691 38.7074 35.8691 38.2126 35.4269C37.3066 34.2952 37.5568 33.5538 39.5414 33.3978L67.8987 33.3335C69.1383 33.4766 70.1077 33.4393 71.8414 34.0777Z" fill="url(#paint3_linear_386_116132)"/>
</g>
<defs>
<filter id="filter0_f_386_116132" x="16.7191" y="60.6195" width="72.1516" height="33.5285" filterUnits="userSpaceOnUse" color-interpolation-filters="sRGB">
<feFlood flood-opacity="0" result="BackgroundImageFix"/>
<feBlend mode="normal" in="SourceGraphic" in2="BackgroundImageFix" result="shape"/>
<feGaussianBlur stdDeviation="2.74394" result="effect1_foregroundBlur_386_116132"/>
</filter>
<filter id="filter1_f_386_116132" x="10.0641" y="6.28678" width="116.856" height="78.235" filterUnits="userSpaceOnUse" color-interpolation-filters="sRGB">
<feFlood flood-opacity="0" result="BackgroundImageFix"/>
<feBlend mode="normal" in="SourceGraphic" in2="BackgroundImageFix" result="shape"/>
<feGaussianBlur stdDeviation="13.9201" result="effect1_foregroundBlur_386_116132"/>
</filter>
<linearGradient id="paint0_linear_386_116132" x1="31.9822" y1="46.5754" x2="57.6661" y2="63.4478" gradientUnits="userSpaceOnUse">
<stop stop-color="#1B8CB6"/>
<stop offset="0.977083" stop-color="#3DAFE4"/>
</linearGradient>
<linearGradient id="paint1_linear_386_116132" x1="53.9272" y1="75.4478" x2="90.7904" y2="88.4976" gradientUnits="userSpaceOnUse">
<stop offset="0.00851699" stop-color="#3CAFE3"/>
<stop offset="0.0822776" stop-color="#44B8E5"/>
<stop offset="0.204513" stop-color="#7ACDEC"/>
<stop offset="0.401347" stop-color="#1BA4D8"/>
<stop offset="0.760908" stop-color="#21A5DF"/>
<stop offset="1" stop-color="#ADE3FE"/>
</linearGradient>
<linearGradient id="paint2_linear_386_116132" x1="79.1063" y1="37.7148" x2="64.933" y2="58.3312" gradientUnits="userSpaceOnUse">
<stop stop-color="#0075FF"/>
<stop offset="1" stop-color="#6D00FF"/>
</linearGradient>
<linearGradient id="paint3_linear_386_116132" x1="107.905" y1="51.7844" x2="45.479" y2="53.5787" gradientUnits="userSpaceOnUse">
<stop stop-color="#D9F4FE"/>
<stop offset="1" stop-color="#3BB3E0"/>
</linearGradient>
<clipPath id="clip0_386_116132">
<rect width="122" height="122" fill="white"/>
</clipPath>
</defs>
</svg>
