<svg width="122" height="122" viewBox="0 0 122 122" fill="none" xmlns="http://www.w3.org/2000/svg">
<g filter="url(#filter0_f_386_116247)">
<path d="M74.8343 87.1119C74.2736 82.8412 72.1933 78.0429 68.4414 72.6642L65.6297 67.0297L75.8489 63.5902C80.4583 62.085 83.7602 59.9317 86.1185 57.0627C88.4769 54.1936 90.5281 50.2474 92.2722 45.2241L93.1141 42.7991C94.0162 40.2008 93.2215 38.5662 90.942 37.7748L83.3438 35.1368C80.9123 34.2926 79.4276 35.1358 78.3735 37.6813L78.0127 38.7206C77.0505 41.4921 76.1768 43.5179 75.4836 45.0241C74.7904 46.5303 73.7932 47.931 72.6124 48.8797C71.3715 50.0016 70.2508 50.7771 69.2504 51.2062C68.1899 51.8084 66.4614 52.3729 64.0047 53.0727L57.7269 54.9692L53.975 49.5905C52.4806 47.5189 51.5339 45.8315 51.0146 44.8748C50.5555 43.7449 50.1565 42.4418 49.8176 40.9655C49.5389 39.316 49.5642 37.7719 49.9534 36.1602C50.3427 34.5485 50.9726 32.2439 51.8747 29.6457L52.2355 28.6064C53.1376 26.0081 52.3429 24.3735 49.9114 23.5293L42.3132 20.8913C39.8817 20.0471 38.397 20.8903 37.4949 23.4885L36.653 25.9136C34.9089 30.9369 34.0734 35.3051 34.1465 39.0184C34.2196 42.7316 35.4165 46.6409 38.1616 50.5054L44.0507 59.5376L38.3523 62.2175C32.0745 64.1139 27.4684 66.5907 24.3819 69.5952C21.2954 72.5996 18.8199 76.7867 16.7752 82.6761L15.5724 86.1404C14.6703 88.7387 15.465 90.3733 17.8965 91.2174L25.4947 93.8555C27.9262 94.6997 29.5629 93.9093 30.465 91.311L31.4272 88.5395C32.6901 84.902 34.2285 81.9423 36.1343 79.8866C38.1001 77.6577 40.7055 76.039 43.9504 75.0305L52.1055 71.6508L56.4116 79.357C58.3335 82.1593 59.3752 85.0442 59.5369 88.0118C59.7587 90.8062 59.1321 94.0824 57.8691 97.7199L56.9069 100.491C56.0048 103.09 56.7996 104.724 59.231 105.568L66.8293 108.207C69.2607 109.051 70.7454 108.208 71.6475 105.609L72.8503 102.145C74.6829 96.376 75.3949 91.3825 74.8343 87.1119Z" fill="#26255F" fill-opacity="0.3"/>
</g>
<path d="M88.094 81.1665C87.5334 76.8958 85.4531 72.0975 81.7012 66.7189L78.8895 61.0843L89.1087 57.6449C93.7181 56.1397 97.0199 53.9864 99.3783 51.1173C101.737 48.2483 103.788 44.3021 105.532 39.2788L106.374 36.8538C107.276 34.2555 106.481 32.6209 104.202 31.8295L96.6035 29.1915C94.1721 28.3473 92.6873 29.1905 91.6333 31.736L91.2725 32.7753C90.3102 35.5467 89.4366 37.5726 88.7434 39.0788C88.0501 40.585 87.053 41.9856 85.8722 42.9344C84.6312 44.0563 83.5106 44.8318 82.5102 45.2609C81.4497 45.8631 79.7211 46.4276 77.2645 47.1274L70.9867 49.0239L67.2348 43.6452C65.7403 41.5736 64.7936 39.8862 64.2744 38.9295C63.8152 37.7996 63.4163 36.4965 63.0774 35.0202C62.7987 33.3707 62.8239 31.8266 63.2132 30.2149C63.6025 28.6032 64.2324 26.2986 65.1345 23.7004L65.4953 22.6611C66.3974 20.0628 65.6026 18.4282 63.1712 17.584L55.5729 14.946C53.1415 14.1018 51.6568 14.945 50.7547 17.5432L49.9127 19.9683C48.1687 24.9916 47.3332 29.3598 47.4062 33.073C47.4793 36.7863 48.6763 40.6956 51.4213 44.5601L57.3105 53.5923L51.6121 56.2722C45.3343 58.1686 40.7281 60.6454 37.6416 63.6499C34.5551 66.6543 32.0797 70.8414 30.0349 76.7307L28.8321 80.1951C27.9301 82.7933 28.7248 84.428 31.1562 85.2721L38.7545 87.9102C41.1859 88.7544 42.8226 87.9639 43.7247 85.3657L44.687 82.5942C45.9499 78.9566 47.4883 75.997 49.394 73.9413C51.3599 71.7124 53.9653 70.0937 57.2102 69.0852L65.3652 65.7055L69.6714 73.4116C71.5932 76.214 72.635 79.0989 72.7966 82.0665C73.0184 84.8609 72.3918 88.1371 71.1289 91.7746L70.1667 94.5461C69.2646 97.1444 70.0593 98.779 72.4908 99.6232L80.089 102.261C82.5205 103.105 84.0052 102.262 84.9073 99.6639L86.1101 96.1996C87.9427 90.4307 88.6547 85.4372 88.094 81.1665Z" fill="url(#paint0_linear_386_116247)"/>
<g style="mix-blend-mode:lighten" filter="url(#filter1_f_386_116247)">
<path d="M86.1331 80.4888C85.5725 76.2181 83.4922 71.4198 79.7402 66.0411L76.9286 60.4066L87.1478 56.9671C91.7572 55.4619 95.059 53.3086 97.4174 50.4396C99.7758 47.5706 101.827 43.6244 103.571 38.6011L104.413 36.1761C105.315 33.5778 104.52 31.9432 102.241 31.1518L94.6426 28.5137C92.2111 27.6695 90.7264 28.5127 89.6724 31.0582L89.3115 32.0975C88.3493 34.869 87.4756 36.8949 86.7824 38.4011C86.0892 39.9072 85.092 41.3079 83.9112 42.2566C82.6703 43.3786 81.5496 44.1541 80.5492 44.5831C79.4887 45.1854 77.7602 45.7499 75.3035 46.4497L69.0257 48.3461L65.2738 42.9675C63.7794 40.8958 62.8327 39.2085 62.3134 38.2518C61.8543 37.1219 61.4553 35.8188 61.1165 34.3425C60.8378 32.6929 60.863 31.1489 61.2523 29.5372C61.6416 27.9255 62.2714 25.6209 63.1735 23.0226L63.5344 21.9833C64.4365 19.3851 63.6417 17.7505 61.2103 16.9063L53.612 14.2682C51.1806 13.424 49.6958 14.2672 48.7937 16.8655L47.9518 19.2905C46.2077 24.3138 45.3722 28.6821 45.4453 32.3953C45.5184 36.1085 46.7153 40.0178 49.4604 43.8824L55.3495 52.9145L49.6512 55.5944C43.3734 57.4909 38.7672 59.9677 35.6807 62.9721C32.5942 65.9765 30.1188 70.1636 28.074 76.053L26.8712 79.5174C25.9691 82.1156 26.7639 83.7502 29.1953 84.5944L36.7936 87.2325C39.225 88.0766 40.8617 87.2862 41.7638 84.6879L42.726 81.9165C43.989 78.2789 45.5274 75.3193 47.4331 73.2636C49.3989 71.0346 52.0043 69.4159 55.2493 68.4075L63.4043 65.0278L67.7104 72.7339C69.6323 75.5362 70.674 78.4212 70.8357 81.3888C71.0575 84.1831 70.4309 87.4593 69.168 91.0969L68.2057 93.8684C67.3036 96.4666 68.0984 98.1012 70.5298 98.9454L78.1281 101.583C80.5595 102.428 82.0442 101.584 82.9463 98.9862L84.1491 95.5219C85.9818 89.7529 86.6938 84.7595 86.1331 80.4888Z" fill="url(#paint1_linear_386_116247)" fill-opacity="0.6"/>
</g>
<path d="M86.1331 80.4888C85.5725 76.2181 83.4922 71.4198 79.7402 66.0411L76.9286 60.4066L87.1478 56.9671C91.7572 55.4619 95.059 53.3086 97.4174 50.4396C99.7758 47.5706 101.827 43.6244 103.571 38.6011L104.413 36.1761C105.315 33.5778 104.52 31.9432 102.241 31.1518L94.6426 28.5137C92.2111 27.6695 90.7264 28.5127 89.6724 31.0582L89.3115 32.0975C88.3493 34.869 87.4756 36.8949 86.7824 38.4011C86.0892 39.9072 85.092 41.3079 83.9112 42.2566C82.6703 43.3786 81.5496 44.1541 80.5492 44.5831C79.4887 45.1854 77.7602 45.7499 75.3035 46.4497L69.0257 48.3461L65.2738 42.9675C63.7794 40.8958 62.8327 39.2085 62.3134 38.2518C61.8543 37.1219 61.4553 35.8188 61.1165 34.3425C60.8378 32.6929 60.863 31.1489 61.2523 29.5372C61.6416 27.9255 62.2714 25.6209 63.1735 23.0226L63.5344 21.9833C64.4365 19.3851 63.6417 17.7505 61.2103 16.9063L53.612 14.2682C51.1806 13.424 49.6958 14.2672 48.7937 16.8655L47.9518 19.2905C46.2077 24.3138 45.3722 28.6821 45.4453 32.3953C45.5184 36.1085 46.7153 40.0178 49.4604 43.8824L55.3495 52.9145L49.6512 55.5944C43.3734 57.4909 38.7672 59.9677 35.6807 62.9721C32.5942 65.9765 30.1188 70.1636 28.074 76.053L26.8712 79.5174C25.9691 82.1156 26.7639 83.7502 29.1953 84.5944L36.7936 87.2325C39.225 88.0766 40.8617 87.2862 41.7638 84.6879L42.726 81.9165C43.989 78.2789 45.5274 75.3193 47.4331 73.2636C49.3989 71.0346 52.0043 69.4159 55.2493 68.4075L63.4043 65.0278L67.7104 72.7339C69.6323 75.5362 70.674 78.4212 70.8357 81.3888C71.0575 84.1831 70.4309 87.4593 69.168 91.0969L68.2057 93.8684C67.3036 96.4666 68.0984 98.1012 70.5298 98.9454L78.1281 101.583C80.5595 102.428 82.0442 101.584 82.9463 98.9862L84.1491 95.5219C85.9818 89.7529 86.6938 84.7595 86.1331 80.4888Z" fill="url(#paint2_linear_386_116247)"/>
<defs>
<filter id="filter0_f_386_116247" x="11.3152" y="16.6804" width="86.0591" height="95.7368" filterUnits="userSpaceOnUse" color-interpolation-filters="sRGB">
<feFlood flood-opacity="0" result="BackgroundImageFix"/>
<feBlend mode="normal" in="SourceGraphic" in2="BackgroundImageFix" result="shape"/>
<feGaussianBlur stdDeviation="1.94787" result="effect1_foregroundBlur_386_116247"/>
</filter>
<filter id="filter1_f_386_116247" x="16.1353" y="3.57866" width="99.0165" height="108.694" filterUnits="userSpaceOnUse" color-interpolation-filters="sRGB">
<feFlood flood-opacity="0" result="BackgroundImageFix"/>
<feBlend mode="normal" in="SourceGraphic" in2="BackgroundImageFix" result="shape"/>
<feGaussianBlur stdDeviation="5.18723" result="effect1_foregroundBlur_386_116247"/>
</filter>
<linearGradient id="paint0_linear_386_116247" x1="79.9633" y1="23.4141" x2="55.5466" y2="93.7403" gradientUnits="userSpaceOnUse">
<stop stop-color="#FBB4A3"/>
<stop offset="1" stop-color="#D03F44"/>
</linearGradient>
<linearGradient id="paint1_linear_386_116247" x1="99.3789" y1="32.8153" x2="44.1574" y2="96.9342" gradientUnits="userSpaceOnUse">
<stop stop-color="#FF5710"/>
<stop offset="1" stop-color="#FF0037"/>
</linearGradient>
<linearGradient id="paint2_linear_386_116247" x1="78.0024" y1="22.7364" x2="53.5857" y2="93.0626" gradientUnits="userSpaceOnUse">
<stop stop-color="#EF9177"/>
<stop offset="1" stop-color="#C6483E"/>
</linearGradient>
</defs>
</svg>
