<svg width="3329" height="3443" viewBox="0 0 3329 3443" fill="none" xmlns="http://www.w3.org/2000/svg">
<g style="mix-blend-mode:lighten">
<path d="M2236.38 872.844C2263.2 868.547 2276.69 838.03 2261.81 815.297L1810.83 126.292C1798.32 107.178 1776.17 96.6706 1753.45 99.0747L1604.84 114.801C1577 117.747 1562.1 149.062 1577.37 172.527L2030.69 869.143C2043.82 889.323 2067.61 899.875 2091.38 896.067L2236.38 872.844Z" fill="#1BA4D8"/>
</g>
<mask id="path-2-inside-1_373_2020" fill="white">
<path d="M1434.43 1397.77C1461.25 1393.47 1474.74 1362.95 1459.86 1340.22L1008.88 651.214C996.369 632.1 974.216 621.593 951.499 623.997L802.895 639.722C775.054 642.669 760.149 673.984 775.419 697.449L1228.74 1394.06C1241.87 1414.24 1265.66 1424.8 1289.43 1420.99L1434.43 1397.77Z"/>
</mask>
<path d="M1289.43 1420.99L1289.8 1423.3L1289.43 1420.99ZM775.419 697.449L777.383 696.171L775.419 697.449ZM1457.9 1341.5L1006.92 652.497L1010.84 649.931L1461.82 1338.94L1457.9 1341.5ZM951.745 626.327L803.141 642.052L802.648 637.392L951.252 621.667L951.745 626.327ZM777.383 696.171L1230.7 1392.79L1226.78 1395.34L773.456 698.727L777.383 696.171ZM1289.06 1418.68L1434.06 1395.45L1434.8 1400.08L1289.8 1423.3L1289.06 1418.68ZM1230.7 1392.79C1243.33 1412.19 1266.2 1422.34 1289.06 1418.68L1289.8 1423.3C1265.11 1427.26 1240.41 1416.3 1226.78 1395.34L1230.7 1392.79ZM803.141 642.052C777.041 644.814 763.068 674.173 777.383 696.171L773.456 698.727C757.231 673.795 773.068 640.523 802.648 637.392L803.141 642.052ZM1006.92 652.497C994.89 634.119 973.589 624.015 951.745 626.327L951.252 621.667C974.843 619.17 997.848 630.082 1010.84 649.931L1006.92 652.497ZM1461.82 1338.94C1477.63 1363.09 1463.3 1395.51 1434.8 1400.08L1434.06 1395.45C1459.21 1391.42 1471.85 1362.81 1457.9 1341.5L1461.82 1338.94Z" fill="#FEBB08" mask="url(#path-2-inside-1_373_2020)"/>
<g style="mix-blend-mode:lighten">
<path d="M2681.8 2136.65C2708.6 2132.32 2722.06 2101.83 2707.19 2079.11L2256.19 1390.09C2243.66 1370.95 2221.47 1360.44 2198.72 1362.88L2049.37 1378.91C2021.56 1381.9 2006.7 1413.19 2021.96 1436.63L2475.29 2133.29C2488.44 2153.49 2512.27 2164.04 2536.07 2160.2L2681.8 2136.65Z" fill="#1BA4D8"/>
</g>
<path d="M1879.85 2661.55C1906.65 2657.22 1920.11 2626.73 1905.24 2604.01L1454.24 1914.99C1441.71 1895.85 1419.52 1885.34 1396.77 1887.78L1247.42 1903.81C1219.61 1906.8 1204.75 1938.09 1220 1961.53L1673.34 2658.19C1686.49 2678.4 1710.32 2688.95 1734.12 2685.1L1879.85 2661.55Z" fill="#1BA4D8"/>
<path d="M3248.4 2925.91L2797.4 2236.88C2785.12 2218.11 2763.35 2207.81 2741.04 2210.2L2591.69 2226.23C2564.75 2229.12 2550.35 2259.44 2565.13 2282.15L3018.47 2978.8C3031.36 2998.62 3054.73 3008.97 3078.08 3005.2L3223.81 2981.65C3249.77 2977.46 3262.81 2947.91 3248.4 2925.91Z" stroke="#1BA4D8" stroke-width="2.34299"/>
<path d="M2680.45 2136.99C2707.24 2132.66 2720.7 2102.16 2705.83 2079.45L2254.83 1390.42C2242.31 1371.28 2220.11 1360.77 2197.36 1363.22L2048.02 1379.25C2020.21 1382.23 2005.34 1413.52 2020.6 1436.97L2473.93 2133.62C2487.08 2153.83 2510.91 2164.38 2534.71 2160.53L2680.45 2136.99Z" fill="#1BA4D8"/>
<mask id="path-8-inside-2_373_2020" fill="white">
<path d="M2581.81 3158.74C2611.13 3157.89 2628.17 3125.22 2612.07 3100.69L1967.58 2118.85C1955.33 2100.18 1933.86 2089.72 1911.61 2091.57L1759.58 2104.2C1731.27 2106.55 1715.76 2138.31 1731.32 2162.09L2368.67 3135.82C2380.27 3153.54 2400.23 3163.96 2421.4 3163.35L2581.81 3158.74Z"/>
</mask>
<path d="M1759.58 2104.2L1759.78 2106.53L1759.58 2104.2ZM1967.58 2118.85L1969.54 2117.56L1967.58 2118.85ZM1911.61 2091.57L1911.42 2089.23L1911.61 2091.57ZM2612.07 3100.69L2614.03 3099.41L2612.07 3100.69ZM2610.11 3101.98L1965.62 2120.13L1969.54 2117.56L2614.03 3099.41L2610.11 3101.98ZM1911.8 2093.9L1759.78 2106.53L1759.39 2101.86L1911.42 2089.23L1911.8 2093.9ZM1733.28 2160.8L2370.64 3134.54L2366.71 3137.11L1729.36 2163.37L1733.28 2160.8ZM2421.33 3161.01L2581.74 3156.39L2581.88 3161.08L2421.46 3165.7L2421.33 3161.01ZM2370.64 3134.54C2381.78 3151.57 2400.98 3161.6 2421.33 3161.01L2421.46 3165.7C2399.49 3166.33 2378.76 3155.5 2366.71 3137.11L2370.64 3134.54ZM1759.78 2106.53C1733.23 2108.74 1718.69 2138.52 1733.28 2160.8L1729.36 2163.37C1712.83 2138.11 1729.31 2104.36 1759.39 2101.86L1759.78 2106.53ZM1965.62 2120.13C1953.84 2102.19 1933.19 2092.12 1911.8 2093.9L1911.42 2089.23C1934.52 2087.31 1956.82 2098.18 1969.54 2117.56L1965.62 2120.13ZM2614.03 3099.41C2631.13 3125.46 2613.03 3160.18 2581.88 3161.08L2581.74 3156.39C2609.23 3155.6 2625.2 3124.97 2610.11 3101.98L2614.03 3099.41Z" fill="#FEBB08" mask="url(#path-8-inside-2_373_2020)"/>
<path d="M1842.57 1442.18C1870.72 1439.57 1885.96 1407.91 1870.44 1384.28L1321.36 548.178C1308.4 528.429 1285.18 517.961 1261.79 521.317L1116.61 542.152C1089.46 546.049 1075.55 576.837 1090.57 599.79L1633.37 1429.07C1645.73 1447.95 1667.51 1458.46 1689.98 1456.37L1842.57 1442.18Z" fill="#FEBB08"/>
<path d="M2888.93 3051.53C2917.08 3048.91 2932.31 3017.26 2916.79 2993.63L2367.72 2157.53C2354.75 2137.78 2331.53 2127.31 2308.15 2130.66L2162.97 2151.5C2135.81 2155.4 2121.9 2186.18 2136.93 2209.14L2679.73 3038.42C2692.09 3057.3 2713.87 3067.8 2736.34 3065.72L2888.93 3051.53Z" fill="#FEBB08"/>
<mask id="path-12-inside-3_373_2020" fill="white">
<path d="M3266.13 2449.38C3294.28 2446.77 3309.51 2415.11 3293.99 2391.48L2744.92 1555.38C2731.95 1535.63 2708.73 1525.16 2685.35 1528.52L2540.17 1549.35C2513.01 1553.25 2499.1 1584.04 2514.13 1606.99L3056.93 2436.27C3069.29 2455.15 3091.07 2465.66 3113.54 2463.57L3266.13 2449.38Z"/>
</mask>
<path d="M2540.17 1549.35L2539.84 1547.03L2540.17 1549.35ZM2744.92 1555.38L2746.88 1554.09L2744.92 1555.38ZM2685.35 1528.52L2685.01 1526.2L2685.35 1528.52ZM3293.99 2391.48L3292.03 2392.76L3293.99 2391.48ZM3292.03 2392.76L2742.96 1556.66L2746.88 1554.09L3295.95 2390.19L3292.03 2392.76ZM2685.68 1530.84L2540.5 1551.67L2539.84 1547.03L2685.01 1526.2L2685.68 1530.84ZM2516.09 1605.71L3058.89 2434.99L3054.97 2437.56L2512.17 1608.27L2516.09 1605.71ZM3113.32 2461.23L3265.91 2447.05L3266.34 2451.72L3113.76 2465.9L3113.32 2461.23ZM3058.89 2434.99C3070.77 2453.14 3091.72 2463.24 3113.32 2461.23L3113.76 2465.9C3090.42 2468.07 3067.8 2457.16 3054.97 2437.56L3058.89 2434.99ZM2540.5 1551.67C2515.04 1555.32 2502 1584.19 2516.09 1605.71L2512.17 1608.27C2496.2 1583.88 2510.98 1551.17 2539.84 1547.03L2540.5 1551.67ZM2742.96 1556.66C2730.49 1537.67 2708.17 1527.61 2685.68 1530.84L2685.01 1526.2C2709.3 1522.71 2733.41 1533.58 2746.88 1554.09L2742.96 1556.66ZM3295.95 2390.19C3312.44 2415.3 3296.26 2448.93 3266.34 2451.72L3265.91 2447.05C3292.3 2444.6 3306.58 2414.92 3292.03 2392.76L3295.95 2390.19Z" fill="#FEBB08" mask="url(#path-12-inside-3_373_2020)"/>
<path d="M1040.62 1967.09C1068.77 1964.48 1084 1932.82 1068.48 1909.19L519.412 1073.09C506.443 1053.34 483.225 1042.87 459.839 1046.23L314.659 1067.06C287.504 1070.96 273.595 1101.75 288.619 1124.7L831.422 1953.98C843.78 1972.86 865.562 1983.37 888.03 1981.28L1040.62 1967.09Z" fill="#FEBB08"/>
<path d="M1544.06 3325.66C1572.21 3323.04 1587.45 3291.39 1571.93 3267.75L1022.85 2431.65C1009.89 2411.91 986.668 2401.44 963.281 2404.79L818.102 2425.63C790.947 2429.53 777.037 2460.31 792.061 2483.27L1334.86 3312.55C1347.22 3331.43 1369 3341.93 1391.47 3339.84L1544.06 3325.66Z" fill="#1BA4D8"/>
<mask id="path-16-inside-4_373_2020" fill="white">
<path d="M2610.6 1471.53C2645.05 1467.31 2663.12 1428.4 2644.11 1399.36L2367.79 977.196C2358.01 962.261 2340.6 954.177 2322.88 956.347L2164.91 975.7C2137.35 979.077 2122.9 1010.21 2138.1 1033.44L2425.87 1473.08C2433.69 1485.03 2447.62 1491.5 2461.8 1489.76L2610.6 1471.53Z"/>
</mask>
<path d="M2322.88 956.347L2323.16 958.673L2322.88 956.347ZM2642.15 1400.64L2365.82 978.479L2369.75 975.913L2646.07 1398.08L2642.15 1400.64ZM2323.16 958.673L2165.2 978.026L2164.63 973.374L2322.59 954.022L2323.16 958.673ZM2140.06 1032.16L2427.83 1471.8L2423.91 1474.37L2136.14 1034.72L2140.06 1032.16ZM2461.51 1487.44L2610.31 1469.21L2610.88 1473.86L2462.08 1492.09L2461.51 1487.44ZM2427.83 1471.8C2435.16 1483 2448.22 1489.07 2461.51 1487.44L2462.08 1492.09C2447.02 1493.93 2432.22 1487.06 2423.91 1474.37L2427.83 1471.8ZM2165.2 978.026C2139.36 981.191 2125.81 1010.37 2140.06 1032.16L2136.14 1034.72C2119.99 1010.04 2135.34 976.962 2164.63 973.374L2165.2 978.026ZM2365.82 978.479C2356.54 964.291 2340 956.611 2323.16 958.673L2322.59 954.022C2341.2 951.742 2359.48 960.231 2369.75 975.913L2365.82 978.479ZM2646.07 1398.08C2666.03 1428.57 2647.06 1469.43 2610.88 1473.86L2610.31 1469.21C2643.05 1465.2 2660.21 1428.23 2642.15 1400.64L2646.07 1398.08Z" fill="#1BA4D8" mask="url(#path-16-inside-4_373_2020)"/>
<path d="M1808.65 1996.44C1843.1 1992.22 1861.17 1953.31 1842.16 1924.27L1565.83 1502.11C1556.06 1487.17 1538.65 1479.09 1520.93 1481.26L1362.96 1500.61C1335.4 1503.99 1320.95 1535.12 1336.15 1558.35L1623.92 1997.99C1631.74 2009.94 1645.67 2016.41 1659.85 2014.67L1808.65 1996.44Z" fill="#FEBB08"/>
<path d="M2216.53 870.045C2250.98 865.824 2269.05 826.914 2250.04 797.87L1973.71 375.708C1963.94 360.772 1946.52 352.688 1928.81 354.859L1770.84 374.212C1743.27 377.589 1728.82 408.717 1744.03 431.952L2031.8 871.596C2039.62 883.545 2053.55 890.012 2067.72 888.275L2216.53 870.045Z" fill="#1BA4D8"/>
<mask id="path-20-inside-5_373_2020" fill="white">
<path d="M2099.05 1273.38C2133.51 1269.16 2151.57 1230.25 2132.56 1201.2L1856.24 779.04C1846.46 764.104 1829.05 756.02 1811.33 758.191L1653.37 777.544C1625.8 780.921 1611.35 812.049 1626.56 835.284L1914.32 1274.93C1922.15 1286.88 1936.08 1293.34 1950.25 1291.61L2099.05 1273.38Z"/>
</mask>
<path d="M1950.25 1291.61L1950.53 1293.93L1950.25 1291.61ZM1811.33 758.191L1811.05 755.865L1811.33 758.191ZM2099.05 1273.38L2098.77 1271.05L2099.05 1273.38ZM2130.6 1202.49L1854.28 780.323L1858.2 777.757L2134.52 1199.92L2130.6 1202.49ZM1811.62 760.517L1653.65 779.869L1653.08 775.218L1811.05 755.865L1811.62 760.517ZM1628.52 834.001L1916.28 1273.65L1912.36 1276.21L1624.6 836.567L1628.52 834.001ZM1949.96 1289.28L2098.77 1271.05L2099.34 1275.7L1950.53 1293.93L1949.96 1289.28ZM1916.28 1273.65C1923.62 1284.85 1936.68 1290.91 1949.96 1289.28L1950.53 1293.93C1935.47 1295.78 1920.67 1288.91 1912.36 1276.21L1916.28 1273.65ZM1653.65 779.869C1627.81 783.035 1614.26 812.218 1628.52 834.001L1624.6 836.567C1608.44 811.88 1623.79 778.806 1653.08 775.218L1653.65 779.869ZM1854.28 780.323C1844.99 766.134 1828.45 758.454 1811.62 760.517L1811.05 755.865C1829.65 753.586 1847.93 762.075 1858.2 777.757L1854.28 780.323ZM2134.52 1199.92C2154.48 1230.41 2135.52 1271.27 2099.34 1275.7L2098.77 1271.05C2131.5 1267.04 2148.66 1230.08 2130.6 1202.49L2134.52 1199.92Z" fill="#1BA4D8" mask="url(#path-20-inside-5_373_2020)"/>
<mask id="path-22-inside-6_373_2020" fill="white">
<path d="M2235.3 3243.49C2269.75 3239.27 2287.82 3200.36 2268.81 3171.32L1992.48 2749.15C1982.71 2734.22 1965.3 2726.13 1947.58 2728.3L1789.61 2747.66C1762.05 2751.03 1747.6 2782.16 1762.8 2805.4L2050.57 3245.04C2058.39 3256.99 2072.32 3263.46 2086.5 3261.72L2235.3 3243.49Z"/>
</mask>
<path d="M2086.5 3261.72L2086.78 3264.05L2086.5 3261.72ZM1947.58 2728.3L1947.29 2725.98L1947.58 2728.3ZM2235.3 3243.49L2235.01 3241.16L2235.3 3243.49ZM2266.85 3172.6L1990.52 2750.44L1994.44 2747.87L2270.77 3170.03L2266.85 3172.6ZM1947.86 2730.63L1789.9 2749.98L1789.33 2745.33L1947.29 2725.98L1947.86 2730.63ZM1764.76 2804.11L2052.53 3243.76L2048.61 3246.32L1760.84 2806.68L1764.76 2804.11ZM2086.21 3259.4L2235.01 3241.16L2235.58 3245.82L2086.78 3264.05L2086.21 3259.4ZM2052.53 3243.76C2059.86 3254.96 2072.92 3261.02 2086.21 3259.4L2086.78 3264.05C2071.72 3265.89 2056.92 3259.02 2048.61 3246.32L2052.53 3243.76ZM1789.9 2749.98C1764.06 2753.15 1750.51 2782.33 1764.76 2804.11L1760.84 2806.68C1744.68 2781.99 1760.04 2748.92 1789.33 2745.33L1789.9 2749.98ZM1990.52 2750.44C1981.24 2736.25 1964.7 2728.57 1947.86 2730.63L1947.29 2725.98C1965.9 2723.7 1984.18 2732.19 1994.44 2747.87L1990.52 2750.44ZM2270.77 3170.03C2290.73 3200.53 2271.76 3241.38 2235.58 3245.82L2235.01 3241.16C2267.75 3237.15 2284.91 3200.19 2266.85 3172.6L2270.77 3170.03Z" fill="#1BA4D8" mask="url(#path-22-inside-6_373_2020)"/>
<path d="M1799.5 3166.17C1833.96 3161.95 1852.02 3123.04 1833.01 3094L1556.69 2671.84C1546.91 2656.9 1529.5 2648.82 1511.78 2650.99L1353.82 2670.34C1326.25 2673.72 1311.8 2704.85 1327.01 2728.08L1614.77 3167.73C1622.6 3179.67 1636.53 3186.14 1650.7 3184.4L1799.5 3166.17Z" fill="#FEBB08"/>
<mask id="path-25-inside-7_373_2020" fill="white">
<path d="M1297.1 1798.29C1331.56 1794.07 1349.62 1755.16 1330.61 1726.11L1054.29 1303.95C1044.51 1289.01 1027.1 1280.93 1009.38 1283.1L851.414 1302.45C823.85 1305.83 809.398 1336.96 824.607 1360.19L1112.37 1799.84C1120.19 1811.79 1134.12 1818.25 1148.3 1816.52L1297.1 1798.29Z"/>
</mask>
<path d="M1148.3 1816.52L1148.58 1818.84L1148.3 1816.52ZM1009.38 1283.1L1009.1 1280.78L1009.38 1283.1ZM1297.1 1798.29L1296.82 1795.96L1297.1 1798.29ZM1328.65 1727.4L1052.33 1305.23L1056.25 1302.67L1332.57 1724.83L1328.65 1727.4ZM1009.67 1285.43L851.699 1304.78L851.129 1300.13L1009.1 1280.78L1009.67 1285.43ZM826.567 1358.91L1114.33 1798.56L1110.41 1801.12L822.646 1361.48L826.567 1358.91ZM1148.01 1814.19L1296.82 1795.96L1297.39 1800.61L1148.58 1818.84L1148.01 1814.19ZM1114.33 1798.56C1121.67 1809.76 1134.72 1815.82 1148.01 1814.19L1148.58 1818.84C1133.52 1820.69 1118.72 1813.82 1110.41 1801.12L1114.33 1798.56ZM851.699 1304.78C825.858 1307.95 812.309 1337.13 826.567 1358.91L822.646 1361.48C806.487 1336.79 821.843 1303.72 851.129 1300.13L851.699 1304.78ZM1052.33 1305.23C1043.04 1291.04 1026.5 1283.36 1009.67 1285.43L1009.1 1280.78C1027.7 1278.5 1045.98 1286.98 1056.25 1302.67L1052.33 1305.23ZM1332.57 1724.83C1352.53 1755.33 1333.56 1796.18 1297.39 1800.61L1296.82 1795.96C1329.55 1791.95 1346.71 1754.99 1328.65 1727.4L1332.57 1724.83Z" fill="#1BA4D8" mask="url(#path-25-inside-7_373_2020)"/>
<mask id="path-27-inside-8_373_2020" fill="white">
<path d="M900.796 2351.28C935.251 2347.06 953.316 2308.15 934.306 2279.1L657.981 1856.94C648.206 1842.01 630.793 1833.92 613.076 1836.09L455.108 1855.45C427.545 1858.82 413.093 1889.95 428.301 1913.19L716.068 2352.83C723.888 2364.78 737.818 2371.25 751.992 2369.51L900.796 2351.28Z"/>
</mask>
<path d="M613.076 1836.09L613.36 1838.42L613.076 1836.09ZM932.345 2280.39L656.021 1858.23L659.942 1855.66L936.266 2277.82L932.345 2280.39ZM613.36 1838.42L455.393 1857.77L454.823 1853.12L612.791 1833.77L613.36 1838.42ZM430.261 1911.9L718.028 2351.55L714.107 2354.11L426.34 1914.47L430.261 1911.9ZM751.708 2367.18L900.511 2348.95L901.081 2353.61L752.277 2371.84L751.708 2367.18ZM718.028 2351.55C725.36 2362.75 738.419 2368.81 751.708 2367.18L752.277 2371.84C737.217 2373.68 722.417 2366.81 714.107 2354.11L718.028 2351.55ZM455.393 1857.77C429.552 1860.94 416.003 1890.12 430.261 1911.9L426.34 1914.47C410.182 1889.78 425.537 1856.71 454.823 1853.12L455.393 1857.77ZM656.021 1858.23C646.734 1844.04 630.192 1836.36 613.36 1838.42L612.791 1833.77C631.394 1831.49 649.677 1839.98 659.942 1855.66L656.021 1858.23ZM936.266 2277.82C956.227 2308.32 937.258 2349.17 901.081 2353.61L900.511 2348.95C933.243 2344.94 950.405 2307.98 932.345 2280.39L936.266 2277.82Z" fill="#FEBB08" mask="url(#path-27-inside-8_373_2020)"/>
<mask id="path-29-inside-9_373_2020" fill="white">
<path d="M2223.6 2047.03C2258.05 2042.81 2276.12 2003.9 2257.11 1974.85L1980.78 1552.69C1971.01 1537.76 1953.6 1529.67 1935.88 1531.84L1777.91 1551.2C1750.35 1554.57 1735.89 1585.7 1751.1 1608.94L2038.87 2048.58C2046.69 2060.53 2060.62 2067 2074.79 2065.26L2223.6 2047.03Z"/>
</mask>
<path d="M2074.79 2065.26L2075.08 2067.59L2074.79 2065.26ZM1935.88 1531.84L1935.59 1529.52L1935.88 1531.84ZM2223.6 2047.03L2223.31 2044.7L2223.6 2047.03ZM2255.15 1976.14L1978.82 1553.98L1982.74 1551.41L2259.07 1973.57L2255.15 1976.14ZM1936.16 1534.17L1778.2 1553.52L1777.63 1548.87L1935.59 1529.52L1936.16 1534.17ZM1753.06 1607.65L2040.83 2047.3L2036.91 2049.86L1749.14 1610.22L1753.06 1607.65ZM2074.51 2062.93L2223.31 2044.7L2223.88 2049.36L2075.08 2067.59L2074.51 2062.93ZM2040.83 2047.3C2048.16 2058.5 2061.22 2064.56 2074.51 2062.93L2075.08 2067.59C2060.02 2069.43 2045.22 2062.56 2036.91 2049.86L2040.83 2047.3ZM1778.2 1553.52C1752.35 1556.69 1738.81 1585.87 1753.06 1607.65L1749.14 1610.22C1732.98 1585.53 1748.34 1552.46 1777.63 1548.87L1778.2 1553.52ZM1978.82 1553.98C1969.54 1539.79 1952.99 1532.11 1936.16 1534.17L1935.59 1529.52C1954.2 1527.24 1972.48 1535.73 1982.74 1551.41L1978.82 1553.98ZM2259.07 1973.57C2279.03 2004.07 2260.06 2044.92 2223.88 2049.36L2223.31 2044.7C2256.04 2040.69 2273.21 2003.73 2255.15 1976.14L2259.07 1973.57Z" fill="#1BA4D8" mask="url(#path-29-inside-9_373_2020)"/>
<mask id="path-31-inside-10_373_2020" fill="white">
<path d="M1421.65 2571.94C1456.1 2567.72 1474.17 2528.81 1455.16 2499.76L1178.83 2077.6C1169.06 2062.67 1151.65 2054.58 1133.93 2056.75L975.961 2076.11C948.397 2079.48 933.945 2110.61 949.153 2133.85L1236.92 2573.49C1244.74 2585.44 1258.67 2591.91 1272.85 2590.17L1421.65 2571.94Z"/>
</mask>
<path d="M1272.85 2590.17L1273.13 2592.5L1272.85 2590.17ZM1133.93 2056.75L1133.64 2054.43L1133.93 2056.75ZM1421.65 2571.94L1421.36 2569.61L1421.65 2571.94ZM1453.2 2501.05L1176.87 2078.89L1180.79 2076.32L1457.12 2498.48L1453.2 2501.05ZM1134.21 2059.08L976.246 2078.43L975.676 2073.78L1133.64 2054.43L1134.21 2059.08ZM951.114 2132.56L1238.88 2572.21L1234.96 2574.77L947.193 2135.13L951.114 2132.56ZM1272.56 2587.84L1421.36 2569.61L1421.93 2574.27L1273.13 2592.5L1272.56 2587.84ZM1238.88 2572.21C1246.21 2583.41 1259.27 2589.47 1272.56 2587.84L1273.13 2592.5C1258.07 2594.34 1243.27 2587.47 1234.96 2574.77L1238.88 2572.21ZM976.246 2078.43C950.405 2081.6 936.856 2110.78 951.114 2132.56L947.193 2135.13C931.034 2110.44 946.39 2077.37 975.676 2073.78L976.246 2078.43ZM1176.87 2078.89C1167.59 2064.7 1151.04 2057.02 1134.21 2059.08L1133.64 2054.43C1152.25 2052.15 1170.53 2060.64 1180.79 2076.32L1176.87 2078.89ZM1457.12 2498.48C1477.08 2528.98 1458.11 2569.83 1421.93 2574.27L1421.36 2569.61C1454.1 2565.6 1471.26 2528.64 1453.2 2501.05L1457.12 2498.48Z" fill="#1BA4D8" mask="url(#path-31-inside-10_373_2020)"/>
<mask id="path-33-inside-11_373_2020" fill="white">
<path d="M1705.37 671.916C1739.82 667.695 1757.89 628.785 1738.88 599.741L1462.55 177.579C1452.78 162.644 1435.37 154.559 1417.65 156.73L1259.68 176.083C1232.12 179.46 1217.67 210.588 1232.87 233.823L1520.64 673.467C1528.46 685.416 1542.39 691.883 1556.57 690.146L1705.37 671.916Z"/>
</mask>
<path d="M1556.57 690.146L1556.85 692.472L1556.57 690.146ZM1417.65 156.73L1417.36 154.404L1417.65 156.73ZM1705.37 671.916L1705.08 669.591L1705.37 671.916ZM1736.92 601.024L1460.59 178.862L1464.52 176.296L1740.84 598.458L1736.92 601.024ZM1417.93 159.056L1259.97 178.408L1259.4 173.757L1417.36 154.404L1417.93 159.056ZM1234.83 232.54L1522.6 672.184L1518.68 674.75L1230.91 235.106L1234.83 232.54ZM1556.28 687.821L1705.08 669.591L1705.65 674.242L1556.85 692.472L1556.28 687.821ZM1522.6 672.184C1529.93 683.386 1542.99 689.449 1556.28 687.821L1556.85 692.472C1541.79 694.317 1526.99 687.446 1518.68 674.75L1522.6 672.184ZM1259.97 178.408C1234.13 181.574 1220.58 210.757 1234.83 232.54L1230.91 235.106C1214.75 210.419 1230.11 177.345 1259.4 173.757L1259.97 178.408ZM1460.59 178.862C1451.31 164.673 1434.77 156.994 1417.93 159.056L1417.36 154.404C1435.97 152.125 1454.25 160.614 1464.52 176.296L1460.59 178.862ZM1740.84 598.458C1760.8 628.954 1741.83 669.81 1705.65 674.242L1705.08 669.591C1737.82 665.581 1754.98 628.616 1736.92 601.024L1740.84 598.458Z" fill="#FEBB08" mask="url(#path-33-inside-11_373_2020)"/>
<mask id="path-35-inside-12_373_2020" fill="white">
<path d="M506.179 1711.18C540.634 1706.96 558.699 1668.05 539.688 1639L263.364 1216.84C253.588 1201.91 236.176 1193.82 218.458 1195.99L60.4912 1215.34C32.9275 1218.72 18.4753 1249.85 33.6837 1273.08L321.451 1712.73C329.271 1724.68 343.201 1731.14 357.375 1729.41L506.179 1711.18Z"/>
</mask>
<path d="M357.375 1729.41L357.66 1731.73L357.375 1729.41ZM218.458 1195.99L218.173 1193.67L218.458 1195.99ZM506.179 1711.18L505.894 1708.85L506.179 1711.18ZM537.728 1640.29L261.404 1218.12L265.325 1215.56L541.649 1637.72L537.728 1640.29ZM218.743 1198.32L60.7761 1217.67L60.2063 1213.02L218.173 1193.67L218.743 1198.32ZM35.644 1271.8L323.411 1711.45L319.49 1714.01L31.7233 1274.37L35.644 1271.8ZM357.09 1727.08L505.894 1708.85L506.464 1713.5L357.66 1731.73L357.09 1727.08ZM323.411 1711.45C330.743 1722.65 343.802 1728.71 357.09 1727.08L357.66 1731.73C342.6 1733.58 327.8 1726.71 319.49 1714.01L323.411 1711.45ZM60.7761 1217.67C34.9352 1220.84 21.3862 1250.02 35.644 1271.8L31.7233 1274.37C15.5644 1249.68 30.9199 1216.61 60.2063 1213.02L60.7761 1217.67ZM261.404 1218.12C252.117 1203.94 235.575 1196.26 218.743 1198.32L218.173 1193.67C236.777 1191.39 255.06 1199.88 265.325 1215.56L261.404 1218.12ZM541.649 1637.72C561.61 1668.22 542.641 1709.07 506.464 1713.5L505.894 1708.85C538.626 1704.84 555.788 1667.88 537.728 1640.29L541.649 1637.72Z" fill="#1BA4D8" mask="url(#path-35-inside-12_373_2020)"/>
<path d="M903.418 1196.83C937.873 1192.61 955.938 1153.7 936.928 1124.65L660.604 702.489C650.828 687.554 633.415 679.47 615.698 681.64L457.73 700.993C430.167 704.37 415.715 735.498 430.923 758.733L718.69 1198.38C726.511 1210.33 740.44 1216.79 754.615 1215.06L903.418 1196.83Z" fill="#1BA4D8"/>
</svg>
