<svg width="3329" height="3443" fill="none" xmlns="http://www.w3.org/2000/svg"><path d="M2236.38 872.844c26.82-4.297 40.31-34.814 25.43-57.547l-450.98-689.005a60.912 60.912 0 0 0-57.38-27.217L1604.84 114.8c-27.84 2.946-42.74 34.261-27.47 57.726l453.32 696.616c13.13 20.18 36.92 30.732 60.69 26.924l145-23.223Z" fill="#1BA4D8" style="mix-blend-mode:lighten"/><mask id="a" fill="#fff"><path d="M1434.43 1397.77c26.82-4.3 40.31-34.82 25.43-57.55l-450.98-689.006a60.918 60.918 0 0 0-57.381-27.217l-148.604 15.725c-27.841 2.947-42.746 34.262-27.476 57.727l453.321 696.611c13.13 20.18 36.92 30.74 60.69 26.93l145-23.22Z"/></mask><path d="m1289.43 1420.99.37 2.31-.37-2.31ZM775.419 697.449l1.964-1.278-1.964 1.278ZM1457.9 1341.5l-450.98-689.003 3.92-2.566 450.98 689.009-3.92 2.56ZM951.745 626.327l-148.604 15.725-.493-4.66 148.604-15.725.493 4.66Zm-174.362 69.844L1230.7 1392.79l-3.92 2.55-453.324-696.613 3.927-2.556Zm511.677 722.509 145-23.23.74 4.63-145 23.22-.74-4.62Zm-58.36-25.89c12.63 19.4 35.5 29.55 58.36 25.89l.74 4.62c-24.69 3.96-49.39-7-63.02-27.96l3.92-2.55ZM803.141 642.052c-26.1 2.762-40.073 32.121-25.758 54.119l-3.927 2.556c-16.225-24.932-.388-58.204 29.192-61.335l.493 4.66Zm203.779 10.445a58.576 58.576 0 0 0-55.175-26.17l-.493-4.66a63.26 63.26 0 0 1 59.588 28.264l-3.92 2.566Zm454.9 686.443c15.81 24.15 1.48 56.57-27.02 61.14l-.74-4.63c25.15-4.03 37.79-32.64 23.84-53.95l3.92-2.56Z" fill="#FEBB08" mask="url(#a)"/><path d="M2681.8 2136.65c26.8-4.33 40.26-34.82 25.39-57.54l-451-689.02a60.92 60.92 0 0 0-57.47-27.21l-149.35 16.03c-27.81 2.99-42.67 34.28-27.41 57.72l453.33 696.66c13.15 20.2 36.98 30.75 60.78 26.91l145.73-23.55Z" fill="#1BA4D8" style="mix-blend-mode:lighten"/><path d="M1879.85 2661.55c26.8-4.33 40.26-34.82 25.39-57.54l-451-689.02a60.92 60.92 0 0 0-57.47-27.21l-149.35 16.03c-27.81 2.99-42.67 34.28-27.42 57.72l453.34 696.66c13.15 20.21 36.98 30.76 60.78 26.91l145.73-23.55Z" fill="#1BA4D8"/><path d="m3248.4 2925.91-451-689.03c-12.28-18.77-34.05-29.07-56.36-26.68l-149.35 16.03c-26.94 2.89-41.34 33.21-26.56 55.92l453.34 696.65c12.89 19.82 36.26 30.17 59.61 26.4l145.73-23.55c25.96-4.19 39-33.74 24.59-55.74Z" stroke="#1BA4D8" stroke-width="2.343"/><path d="M2680.45 2136.99c26.79-4.33 40.25-34.83 25.38-57.54l-451-689.03a60.883 60.883 0 0 0-57.47-27.2l-149.34 16.03c-27.81 2.98-42.68 34.27-27.42 57.72l453.33 696.65c13.15 20.21 36.98 30.76 60.78 26.91l145.74-23.54Z" fill="#1BA4D8"/><mask id="b" fill="#fff"><path d="M2581.81 3158.74c29.32-.85 46.36-33.52 30.26-58.05l-644.49-981.84a60.892 60.892 0 0 0-55.97-27.28l-152.03 12.63c-28.31 2.35-43.82 34.11-28.26 57.89l637.35 973.73a60.916 60.916 0 0 0 52.73 27.53l160.41-4.61Z"/></mask><path d="m1759.58 2104.2.2 2.33-.2-2.33Zm208 14.65 1.96-1.29-1.96 1.29Zm-55.97-27.28-.19-2.34.19 2.34Zm700.46 1009.12 1.96-1.28-1.96 1.28Zm-1.96 1.29-644.49-981.85 3.92-2.57 644.49 981.85-3.92 2.57ZM1911.8 2093.9l-152.02 12.63-.39-4.67 152.03-12.63.38 4.67Zm-178.52 66.9 637.36 973.74-3.93 2.57-637.35-973.74 3.92-2.57Zm688.05 1000.21 160.41-4.62.14 4.69-160.42 4.62-.13-4.69Zm-50.69-26.47a58.554 58.554 0 0 0 50.69 26.47l.13 4.69c-21.97.63-42.7-10.2-54.75-28.59l3.93-2.57Zm-610.86-1028.01c-26.55 2.21-41.09 31.99-26.5 54.27l-3.92 2.57c-16.53-25.26-.05-59.01 30.03-61.51l.39 4.67Zm205.84 13.6a58.581 58.581 0 0 0-53.82-26.23l-.38-4.67c23.1-1.92 45.4 8.95 58.12 28.33l-3.92 2.57Zm648.41 979.28c17.1 26.05-1 60.77-32.15 61.67l-.14-4.69c27.49-.79 43.46-31.42 28.37-54.41l3.92-2.57Z" fill="#FEBB08" mask="url(#b)"/><path d="M1842.57 1442.18c28.15-2.61 43.39-34.27 27.87-57.9l-549.08-836.102c-12.96-19.749-36.18-30.217-59.57-26.861l-145.18 20.835c-27.15 3.897-41.06 34.685-26.04 57.638l542.8 829.28c12.36 18.88 34.14 29.39 56.61 27.3l152.59-14.19ZM2888.93 3051.53c28.15-2.62 43.38-34.27 27.86-57.9l-549.07-836.1c-12.97-19.75-36.19-30.22-59.57-26.87l-145.18 20.84c-27.16 3.9-41.07 34.68-26.04 57.64l542.8 829.28a60.943 60.943 0 0 0 56.61 27.3l152.59-14.19Z" fill="#FEBB08"/><mask id="c" fill="#fff"><path d="M3266.13 2449.38c28.15-2.61 43.38-34.27 27.86-57.9l-549.07-836.1c-12.97-19.75-36.19-30.22-59.57-26.86l-145.18 20.83c-27.16 3.9-41.07 34.69-26.04 57.64l542.8 829.28c12.36 18.88 34.14 29.39 56.61 27.3l152.59-14.19Z"/></mask><path d="m2540.17 1549.35-.33-2.32.33 2.32Zm204.75 6.03 1.96-1.29-1.96 1.29Zm-59.57-26.86-.34-2.32.34 2.32Zm608.64 862.96-1.96 1.28 1.96-1.28Zm-1.96 1.28-549.07-836.1 3.92-2.57 549.07 836.1-3.92 2.57Zm-606.35-861.92-145.18 20.83-.66-4.64 145.17-20.83.67 4.64Zm-169.59 74.87 542.8 829.28-3.92 2.57-542.8-829.29 3.92-2.56Zm597.23 855.52 152.59-14.18.43 4.67-152.58 14.18-.44-4.67Zm-54.43-26.24a58.576 58.576 0 0 0 54.43 26.24l.44 4.67a63.265 63.265 0 0 1-58.79-28.34l3.92-2.57Zm-518.39-883.32c-25.46 3.65-38.5 32.52-24.41 54.04l-3.92 2.56c-15.97-24.39-1.19-57.1 27.67-61.24l.66 4.64Zm202.46 4.99a58.556 58.556 0 0 0-57.28-25.82l-.67-4.64a63.252 63.252 0 0 1 61.87 27.89l-3.92 2.57Zm552.99 833.53c16.49 25.11.31 58.74-29.61 61.53l-.43-4.67c26.39-2.45 40.67-32.13 26.12-54.29l3.92-2.57Z" fill="#FEBB08" mask="url(#c)"/><path d="M1040.62 1967.09c28.15-2.61 43.38-34.27 27.86-57.9l-549.068-836.1c-12.969-19.75-36.187-30.22-59.573-26.86l-145.18 20.83c-27.155 3.9-41.064 34.69-26.04 57.64l542.803 829.28c12.358 18.88 34.14 29.39 56.608 27.3l152.59-14.19Z" fill="#FEBB08"/><path d="M1544.06 3325.66c28.15-2.62 43.39-34.27 27.87-57.91l-549.08-836.1c-12.96-19.74-36.182-30.21-59.569-26.86l-145.179 20.84c-27.155 3.9-41.065 34.68-26.041 57.64l542.799 829.28a60.915 60.915 0 0 0 56.61 27.29l152.59-14.18Z" fill="#1BA4D8"/><mask id="d" fill="#fff"><path d="M2610.6 1471.53c34.45-4.22 52.52-43.13 33.51-72.17l-276.32-422.164a46.87 46.87 0 0 0-44.91-20.849L2164.91 975.7c-27.56 3.377-42.01 34.51-26.81 57.74l287.77 439.64a37.481 37.481 0 0 0 35.93 16.68l148.8-18.23Z"/></mask><path d="m2322.88 956.347.28 2.326-.28-2.326Zm319.27 444.293-276.33-422.161 3.93-2.566 276.32 422.167-3.92 2.56Zm-318.99-441.967-157.96 19.353-.57-4.652 157.96-19.352.57 4.651Zm-183.1 73.487 287.77 439.64-3.92 2.57-287.77-439.65 3.92-2.56Zm321.45 455.28 148.8-18.23.57 4.65-148.8 18.23-.57-4.65Zm-33.68-15.64a35.144 35.144 0 0 0 33.68 15.64l.57 4.65a39.85 39.85 0 0 1-38.17-17.72l3.92-2.57ZM2165.2 978.026c-25.84 3.165-39.39 32.344-25.14 54.134l-3.92 2.56c-16.15-24.68-.8-57.758 28.49-61.346l.57 4.652Zm200.62.453a44.503 44.503 0 0 0-42.66-19.806l-.57-4.651a49.214 49.214 0 0 1 47.16 21.891l-3.93 2.566Zm280.25 419.601c19.96 30.49.99 71.35-35.19 75.78l-.57-4.65c32.74-4.01 49.9-40.98 31.84-68.57l3.92-2.56Z" fill="#1BA4D8" mask="url(#d)"/><path d="M1808.65 1996.44c34.45-4.22 52.52-43.13 33.51-72.17l-276.33-422.16a46.836 46.836 0 0 0-44.9-20.85l-157.97 19.35c-27.56 3.38-42.01 34.51-26.81 57.74l287.77 439.64a37.481 37.481 0 0 0 35.93 16.68l148.8-18.23Z" fill="#FEBB08"/><path d="M2216.53 870.045c34.45-4.221 52.52-43.131 33.51-72.175l-276.33-422.162a46.85 46.85 0 0 0-44.9-20.849l-157.97 19.353c-27.57 3.377-42.02 34.505-26.81 57.74l287.77 439.644a37.481 37.481 0 0 0 35.92 16.679l148.81-18.23Z" fill="#1BA4D8"/><mask id="e" fill="#fff"><path d="M2099.05 1273.38c34.46-4.22 52.52-43.13 33.51-72.18l-276.32-422.16a46.866 46.866 0 0 0-44.91-20.849l-157.96 19.353c-27.57 3.377-42.02 34.505-26.81 57.74l287.76 439.646a37.518 37.518 0 0 0 35.93 16.68l148.8-18.23Z"/></mask><path d="m1950.25 1291.61.28 2.32-.28-2.32Zm-138.92-533.419-.28-2.326.28 2.326Zm287.72 515.189-.28-2.33.28 2.33Zm31.55-70.89-276.32-422.167 3.92-2.566 276.32 422.163-3.92 2.57Zm-318.98-441.973-157.97 19.352-.57-4.651 157.97-19.353.57 4.652Zm-183.1 73.484 287.76 439.649-3.92 2.56-287.76-439.643 3.92-2.566Zm321.44 455.279 148.81-18.23.57 4.65-148.81 18.23-.57-4.65Zm-33.68-15.63a35.155 35.155 0 0 0 33.68 15.63l.57 4.65a39.811 39.811 0 0 1-38.17-17.72l3.92-2.56Zm-262.63-493.781c-25.84 3.166-39.39 32.349-25.13 54.132l-3.92 2.566c-16.16-24.687-.81-57.761 28.48-61.349l.57 4.651Zm200.63.454a44.517 44.517 0 0 0-42.66-19.806l-.57-4.652a49.21 49.21 0 0 1 47.15 21.892l-3.92 2.566Zm280.24 419.597c19.96 30.49 1 71.35-35.18 75.78l-.57-4.65c32.73-4.01 49.89-40.97 31.83-68.56l3.92-2.57Z" fill="#1BA4D8" mask="url(#e)"/><mask id="f" fill="#fff"><path d="M2235.3 3243.49c34.45-4.22 52.52-43.13 33.51-72.17l-276.33-422.17a46.856 46.856 0 0 0-44.9-20.85l-157.97 19.36c-27.56 3.37-42.01 34.5-26.81 57.74l287.77 439.64a37.481 37.481 0 0 0 35.93 16.68l148.8-18.23Z"/></mask><path d="m2086.5 3261.72.28 2.33-.28-2.33Zm-138.92-533.42-.29-2.32.29 2.32Zm287.72 515.19-.29-2.33.29 2.33Zm31.55-70.89-276.33-422.16 3.92-2.57 276.33 422.16-3.92 2.57Zm-318.99-441.97-157.96 19.35-.57-4.65 157.96-19.35.57 4.65Zm-183.1 73.48 287.77 439.65-3.92 2.56-287.77-439.64 3.92-2.57Zm321.45 455.29 148.8-18.24.57 4.66-148.8 18.23-.57-4.65Zm-33.68-15.64a35.163 35.163 0 0 0 33.68 15.64l.57 4.65a39.838 39.838 0 0 1-38.17-17.73l3.92-2.56Zm-262.63-493.78c-25.84 3.17-39.39 32.35-25.14 54.13l-3.92 2.57c-16.16-24.69-.8-57.76 28.49-61.35l.57 4.65Zm200.62.46a44.506 44.506 0 0 0-42.66-19.81l-.57-4.65a49.193 49.193 0 0 1 47.15 21.89l-3.92 2.57Zm280.25 419.59c19.96 30.5.99 71.35-35.19 75.79l-.57-4.66c32.74-4.01 49.9-40.97 31.84-68.56l3.92-2.57Z" fill="#1BA4D8" mask="url(#f)"/><path d="M1799.5 3166.17c34.46-4.22 52.52-43.13 33.51-72.17l-276.32-422.16a46.861 46.861 0 0 0-44.91-20.85l-157.96 19.35c-27.57 3.38-42.02 34.51-26.81 57.74l287.76 439.65c7.83 11.94 21.76 18.41 35.93 16.67l148.8-18.23Z" fill="#FEBB08"/><mask id="g" fill="#fff"><path d="M1297.1 1798.29c34.46-4.22 52.52-43.13 33.51-72.18l-276.32-422.16a46.861 46.861 0 0 0-44.91-20.85l-157.966 19.35c-27.564 3.38-42.016 34.51-26.807 57.74l287.763 439.65c7.82 11.95 21.75 18.41 35.93 16.68l148.8-18.23Z"/></mask><path d="m1148.3 1816.52.28 2.32-.28-2.32Zm-138.92-533.42-.28-2.32.28 2.32Zm287.72 515.19-.28-2.33.28 2.33Zm31.55-70.89-276.32-422.17 3.92-2.56 276.32 422.16-3.92 2.57Zm-318.98-441.97-157.971 19.35-.57-4.65 157.971-19.35.57 4.65Zm-183.103 73.48 287.763 439.65-3.92 2.56-287.764-439.64 3.921-2.57Zm321.443 455.28 148.81-18.23.57 4.65-148.81 18.23-.57-4.65Zm-33.68-15.63a35.146 35.146 0 0 0 33.68 15.63l.57 4.65a39.811 39.811 0 0 1-38.17-17.72l3.92-2.56Zm-262.631-493.78c-25.841 3.17-39.39 32.35-25.132 54.13l-3.921 2.57c-16.159-24.69-.803-57.76 28.483-61.35l.57 4.65Zm200.631.45a44.498 44.498 0 0 0-42.66-19.8l-.57-4.65c18.6-2.28 36.88 6.2 47.15 21.89l-3.92 2.56Zm280.24 419.6c19.96 30.5.99 71.35-35.18 75.78l-.57-4.65c32.73-4.01 49.89-40.97 31.83-68.56l3.92-2.57Z" fill="#1BA4D8" mask="url(#g)"/><mask id="h" fill="#fff"><path d="M900.796 2351.28c34.455-4.22 52.52-43.13 33.51-72.18l-276.325-422.16a46.87 46.87 0 0 0-44.905-20.85l-157.968 19.36c-27.563 3.37-42.015 34.5-26.807 57.74l287.767 439.64a37.477 37.477 0 0 0 35.924 16.68l148.804-18.23Z"/></mask><path d="m613.076 1836.09.284 2.33-.284-2.33Zm319.269 444.3-276.324-422.16 3.921-2.57 276.324 422.16-3.921 2.57ZM613.36 1838.42l-157.967 19.35-.57-4.65 157.968-19.35.569 4.65Zm-183.099 73.48 287.767 439.65-3.921 2.56-287.767-439.64 3.921-2.57Zm321.447 455.28 148.803-18.23.57 4.66-148.804 18.23-.569-4.66Zm-33.68-15.63a35.14 35.14 0 0 0 33.68 15.63l.569 4.66a39.838 39.838 0 0 1-38.17-17.73l3.921-2.56Zm-262.635-493.78c-25.841 3.17-39.39 32.35-25.132 54.13l-3.921 2.57c-16.158-24.69-.803-57.76 28.483-61.35l.57 4.65Zm200.628.46a44.521 44.521 0 0 0-42.661-19.81l-.569-4.65a49.205 49.205 0 0 1 47.151 21.89l-3.921 2.57Zm280.245 419.59c19.961 30.5.992 71.35-35.185 75.79l-.57-4.66c32.732-4.01 49.894-40.97 31.834-68.56l3.921-2.57Z" fill="#FEBB08" mask="url(#h)"/><mask id="i" fill="#fff"><path d="M2223.6 2047.03c34.45-4.22 52.52-43.13 33.51-72.18l-276.33-422.16a46.856 46.856 0 0 0-44.9-20.85l-157.97 19.36c-27.56 3.37-42.02 34.5-26.81 57.74l287.77 439.64a37.474 37.474 0 0 0 35.92 16.68l148.81-18.23Z"/></mask><path d="m2074.79 2065.26.29 2.33-.29-2.33Zm-138.91-533.42-.29-2.32.29 2.32Zm287.72 515.19-.29-2.33.29 2.33Zm31.55-70.89-276.33-422.16 3.92-2.57 276.33 422.16-3.92 2.57Zm-318.99-441.97-157.96 19.35-.57-4.65 157.96-19.35.57 4.65Zm-183.1 73.48 287.77 439.65-3.92 2.56-287.77-439.64 3.92-2.57Zm321.45 455.28 148.8-18.23.57 4.66-148.8 18.23-.57-4.66Zm-33.68-15.63a35.137 35.137 0 0 0 33.68 15.63l.57 4.66a39.838 39.838 0 0 1-38.17-17.73l3.92-2.56Zm-262.63-493.78c-25.85 3.17-39.39 32.35-25.14 54.13l-3.92 2.57c-16.16-24.69-.8-57.76 28.49-61.35l.57 4.65Zm200.62.46c-9.28-14.19-25.83-21.87-42.66-19.81l-.57-4.65a49.193 49.193 0 0 1 47.15 21.89l-3.92 2.57Zm280.25 419.59c19.96 30.5.99 71.35-35.19 75.79l-.57-4.66c32.73-4.01 49.9-40.97 31.84-68.56l3.92-2.57Z" fill="#1BA4D8" mask="url(#i)"/><mask id="j" fill="#fff"><path d="M1421.65 2571.94c34.45-4.22 52.52-43.13 33.51-72.18l-276.33-422.16a46.856 46.856 0 0 0-44.9-20.85l-157.969 19.36c-27.564 3.37-42.016 34.5-26.808 57.74l287.767 439.64a37.481 37.481 0 0 0 35.93 16.68l148.8-18.23Z"/></mask><path d="m1272.85 2590.17.28 2.33-.28-2.33Zm-138.92-533.42-.29-2.32.29 2.32Zm287.72 515.19-.29-2.33.29 2.33Zm31.55-70.89-276.33-422.16 3.92-2.57 276.33 422.16-3.92 2.57Zm-318.99-441.97-157.964 19.35-.57-4.65 157.964-19.35.57 4.65Zm-183.096 73.48 287.766 439.65-3.92 2.56-287.767-439.64 3.921-2.57Zm321.446 455.28 148.8-18.23.57 4.66-148.8 18.23-.57-4.66Zm-33.68-15.63a35.137 35.137 0 0 0 33.68 15.63l.57 4.66a39.838 39.838 0 0 1-38.17-17.73l3.92-2.56Zm-262.634-493.78c-25.841 3.17-39.39 32.35-25.132 54.13l-3.921 2.57c-16.159-24.69-.803-57.76 28.483-61.35l.57 4.65Zm200.624.46c-9.28-14.19-25.83-21.87-42.66-19.81l-.57-4.65a49.193 49.193 0 0 1 47.15 21.89l-3.92 2.57Zm280.25 419.59c19.96 30.5.99 71.35-35.19 75.79l-.57-4.66c32.74-4.01 49.9-40.97 31.84-68.56l3.92-2.57Z" fill="#1BA4D8" mask="url(#j)"/><mask id="k" fill="#fff"><path d="M1705.37 671.916c34.45-4.221 52.52-43.131 33.51-72.175l-276.33-422.162a46.843 46.843 0 0 0-44.9-20.849l-157.97 19.353c-27.56 3.377-42.01 34.505-26.81 57.74l287.77 439.644a37.488 37.488 0 0 0 35.93 16.679l148.8-18.23Z"/></mask><path d="m1556.57 690.146.28 2.326-.28-2.326ZM1417.65 156.73l-.29-2.326.29 2.326Zm287.72 515.186-.29-2.325.29 2.325Zm31.55-70.892-276.33-422.162 3.93-2.566 276.32 422.162-3.92 2.566Zm-318.99-441.968-157.96 19.352-.57-4.651 157.96-19.353.57 4.652Zm-183.1 73.484 287.77 439.644-3.92 2.566-287.77-439.644 3.92-2.566Zm321.45 455.281 148.8-18.23.57 4.651-148.8 18.23-.57-4.651Zm-33.68-15.637a35.142 35.142 0 0 0 33.68 15.637l.57 4.651a39.83 39.83 0 0 1-38.17-17.722l3.92-2.566Zm-262.63-493.776c-25.84 3.166-39.39 32.349-25.14 54.132l-3.92 2.566c-16.16-24.687-.8-57.761 28.49-61.349l.57 4.651Zm200.62.454a44.502 44.502 0 0 0-42.66-19.806l-.57-4.652a49.217 49.217 0 0 1 47.16 21.892l-3.93 2.566Zm280.25 419.596c19.96 30.496.99 71.352-35.19 75.784l-.57-4.651c32.74-4.01 49.9-40.975 31.84-68.567l3.92-2.566Z" fill="#FEBB08" mask="url(#k)"/><mask id="l" fill="#fff"><path d="M506.179 1711.18c34.455-4.22 52.52-43.13 33.509-72.18l-276.324-422.16a46.872 46.872 0 0 0-44.906-20.85l-157.967 19.35c-27.563 3.38-42.016 34.51-26.807 57.74l287.767 439.65a37.496 37.496 0 0 0 35.924 16.68l148.804-18.23Z"/></mask><path d="m357.375 1729.41.285 2.32-.285-2.32Zm-138.917-533.42-.285-2.32.285 2.32Zm287.721 515.19-.285-2.33.285 2.33Zm31.549-70.89-276.324-422.17 3.921-2.56 276.324 422.16-3.921 2.57Zm-318.985-441.97-157.967 19.35-.57-4.65 157.967-19.35.57 4.65ZM35.644 1271.8l287.767 439.65-3.921 2.56-287.767-439.64 3.921-2.57Zm321.446 455.28 148.804-18.23.57 4.65-148.804 18.23-.57-4.65Zm-33.679-15.63a35.139 35.139 0 0 0 33.679 15.63l.57 4.65a39.811 39.811 0 0 1-38.17-17.72l3.921-2.56ZM60.776 1217.67c-25.84 3.17-39.39 32.35-25.132 54.13l-3.92 2.57c-16.16-24.69-.804-57.76 28.482-61.35l.57 4.65Zm200.628.45a44.533 44.533 0 0 0-42.661-19.8l-.57-4.65a49.206 49.206 0 0 1 47.152 21.89l-3.921 2.56Zm280.245 419.6c19.961 30.5.992 71.35-35.185 75.78l-.57-4.65c32.732-4.01 49.894-40.97 31.834-68.56l3.921-2.57Z" fill="#1BA4D8" mask="url(#l)"/><path d="M903.418 1196.83c34.455-4.22 52.52-43.13 33.51-72.18L660.604 702.489a46.863 46.863 0 0 0-44.906-20.849L457.73 700.993c-27.563 3.377-42.015 34.505-26.807 57.74L718.69 1198.38a37.498 37.498 0 0 0 35.925 16.68l148.803-18.23Z" fill="#1BA4D8"/></svg>